ISO-10303-21;
HEADER;
/* Generated by software containing ST-Developer
 * from STEP Tools, Inc. (www.steptools.com) 
 */

FILE_DESCRIPTION(
/* description */ ('Open CASCADE Model'),
/* implementation_level */ '2;1');

FILE_NAME(
/* name */ 'acoplador_celula_hotswap.step',
/* time_stamp */ '2026-08-11T10:54:35-03:00',
/* author */ (''),
/* organization */ (''),
/* preprocessor_version */ 'ST-DEVELOPER v20.1',
/* originating_system */ 'Autodesk Translation Framework v15.8.0.0',
/* authorisation */ '');

FILE_SCHEMA (('AUTOMOTIVE_DESIGN { 1 0 10303 214 3 1 1 }'));
ENDSEC;

DATA;
#10=MECHANICAL_DESIGN_GEOMETRIC_PRESENTATION_REPRESENTATION('',(#17),#917);
#11=ITEM_DEFINED_TRANSFORMATION($,$,#537,#601);
#12=(
REPRESENTATION_RELATIONSHIP($,$,#928,#927)
REPRESENTATION_RELATIONSHIP_WITH_TRANSFORMATION(#11)
SHAPE_REPRESENTATION_RELATIONSHIP()
);
#13=CONTEXT_DEPENDENT_SHAPE_REPRESENTATION(#12,#926);
#14=NEXT_ASSEMBLY_USAGE_OCCURRENCE('acoplador_celula_hotswap (1):1',
'acoplador_celula_hotswap (1):1','acoplador_celula_hotswap (1):1',#930,
#931,'acoplador_celula_hotswap (1):1');
#15=SHAPE_REPRESENTATION_RELATIONSHIP('SRR','None',#928,#16);
#16=ADVANCED_BREP_SHAPE_REPRESENTATION('',(#18),#916);
#17=STYLED_ITEM('',(#941),#18);
#18=MANIFOLD_SOLID_BREP('acoplador_celula_hotswap',#523);
#19=FACE_BOUND('',#91,.T.);
#20=FACE_BOUND('',#94,.T.);
#21=FACE_BOUND('',#97,.T.);
#22=FACE_BOUND('',#100,.T.);
#23=FACE_BOUND('',#107,.T.);
#24=FACE_BOUND('',#109,.T.);
#25=FACE_BOUND('',#123,.T.);
#26=FACE_BOUND('',#124,.T.);
#27=FACE_BOUND('',#125,.T.);
#28=FACE_BOUND('',#126,.T.);
#29=FACE_BOUND('',#127,.T.);
#30=FACE_BOUND('',#128,.T.);
#31=FACE_BOUND('',#129,.T.);
#32=FACE_BOUND('',#131,.T.);
#33=FACE_BOUND('',#132,.T.);
#34=FACE_BOUND('',#133,.T.);
#35=FACE_BOUND('',#134,.T.);
#36=FACE_BOUND('',#135,.T.);
#37=FACE_BOUND('',#136,.T.);
#38=PLANE('',#547);
#39=PLANE('',#552);
#40=PLANE('',#557);
#41=PLANE('',#562);
#42=PLANE('',#575);
#43=PLANE('',#585);
#44=PLANE('',#586);
#45=PLANE('',#587);
#46=PLANE('',#588);
#47=PLANE('',#589);
#48=PLANE('',#590);
#49=PLANE('',#591);
#50=PLANE('',#592);
#51=PLANE('',#593);
#52=PLANE('',#594);
#53=PLANE('',#595);
#54=PLANE('',#599);
#55=PLANE('',#600);
#56=FACE_OUTER_BOUND('',#87,.T.);
#57=FACE_OUTER_BOUND('',#88,.T.);
#58=FACE_OUTER_BOUND('',#89,.T.);
#59=FACE_OUTER_BOUND('',#90,.T.);
#60=FACE_OUTER_BOUND('',#92,.T.);
#61=FACE_OUTER_BOUND('',#93,.T.);
#62=FACE_OUTER_BOUND('',#95,.T.);
#63=FACE_OUTER_BOUND('',#96,.T.);
#64=FACE_OUTER_BOUND('',#98,.T.);
#65=FACE_OUTER_BOUND('',#99,.T.);
#66=FACE_OUTER_BOUND('',#101,.T.);
#67=FACE_OUTER_BOUND('',#102,.T.);
#68=FACE_OUTER_BOUND('',#103,.T.);
#69=FACE_OUTER_BOUND('',#104,.T.);
#70=FACE_OUTER_BOUND('',#105,.T.);
#71=FACE_OUTER_BOUND('',#106,.T.);
#72=FACE_OUTER_BOUND('',#108,.T.);
#73=FACE_OUTER_BOUND('',#110,.T.);
#74=FACE_OUTER_BOUND('',#111,.T.);
#75=FACE_OUTER_BOUND('',#112,.T.);
#76=FACE_OUTER_BOUND('',#113,.T.);
#77=FACE_OUTER_BOUND('',#114,.T.);
#78=FACE_OUTER_BOUND('',#115,.T.);
#79=FACE_OUTER_BOUND('',#116,.T.);
#80=FACE_OUTER_BOUND('',#117,.T.);
#81=FACE_OUTER_BOUND('',#118,.T.);
#82=FACE_OUTER_BOUND('',#119,.T.);
#83=FACE_OUTER_BOUND('',#120,.T.);
#84=FACE_OUTER_BOUND('',#121,.T.);
#85=FACE_OUTER_BOUND('',#122,.T.);
#86=FACE_OUTER_BOUND('',#130,.T.);
#87=EDGE_LOOP('',(#347,#348,#349,#350));
#88=EDGE_LOOP('',(#351,#352,#353,#354));
#89=EDGE_LOOP('',(#355,#356,#357,#358));
#90=EDGE_LOOP('',(#359));
#91=EDGE_LOOP('',(#360));
#92=EDGE_LOOP('',(#361,#362,#363,#364));
#93=EDGE_LOOP('',(#365));
#94=EDGE_LOOP('',(#366));
#95=EDGE_LOOP('',(#367,#368,#369,#370));
#96=EDGE_LOOP('',(#371));
#97=EDGE_LOOP('',(#372));
#98=EDGE_LOOP('',(#373,#374,#375,#376));
#99=EDGE_LOOP('',(#377));
#100=EDGE_LOOP('',(#378));
#101=EDGE_LOOP('',(#379,#380,#381,#382));
#102=EDGE_LOOP('',(#383,#384,#385,#386));
#103=EDGE_LOOP('',(#387,#388,#389,#390));
#104=EDGE_LOOP('',(#391,#392,#393,#394));
#105=EDGE_LOOP('',(#395,#396,#397,#398));
#106=EDGE_LOOP('',(#399));
#107=EDGE_LOOP('',(#400));
#108=EDGE_LOOP('',(#401,#402,#403,#404,#405,#406,#407,#408,#409,#410,#411,
#412));
#109=EDGE_LOOP('',(#413,#414,#415,#416));
#110=EDGE_LOOP('',(#417,#418,#419,#420));
#111=EDGE_LOOP('',(#421,#422,#423,#424));
#112=EDGE_LOOP('',(#425,#426,#427,#428));
#113=EDGE_LOOP('',(#429,#430,#431,#432));
#114=EDGE_LOOP('',(#433));
#115=EDGE_LOOP('',(#434,#435,#436,#437,#438));
#116=EDGE_LOOP('',(#439,#440,#441,#442));
#117=EDGE_LOOP('',(#443,#444,#445,#446,#447));
#118=EDGE_LOOP('',(#448,#449,#450,#451));
#119=EDGE_LOOP('',(#452,#453,#454,#455));
#120=EDGE_LOOP('',(#456,#457,#458,#459));
#121=EDGE_LOOP('',(#460,#461,#462,#463));
#122=EDGE_LOOP('',(#464));
#123=EDGE_LOOP('',(#465));
#124=EDGE_LOOP('',(#466));
#125=EDGE_LOOP('',(#467));
#126=EDGE_LOOP('',(#468));
#127=EDGE_LOOP('',(#469));
#128=EDGE_LOOP('',(#470));
#129=EDGE_LOOP('',(#471));
#130=EDGE_LOOP('',(#472));
#131=EDGE_LOOP('',(#473));
#132=EDGE_LOOP('',(#474));
#133=EDGE_LOOP('',(#475));
#134=EDGE_LOOP('',(#476));
#135=EDGE_LOOP('',(#477));
#136=EDGE_LOOP('',(#478));
#137=LINE('',#774,#171);
#138=LINE('',#780,#172);
#139=LINE('',#786,#173);
#140=LINE('',#795,#174);
#141=LINE('',#804,#175);
#142=LINE('',#813,#176);
#143=LINE('',#820,#177);
#144=LINE('',#824,#178);
#145=LINE('',#828,#179);
#146=LINE('',#832,#180);
#147=LINE('',#838,#181);
#148=LINE('',#847,#182);
#149=LINE('',#851,#183);
#150=LINE('',#854,#184);
#151=LINE('',#858,#185);
#152=LINE('',#864,#186);
#153=LINE('',#867,#187);
#154=LINE('',#870,#188);
#155=LINE('',#872,#189);
#156=LINE('',#873,#190);
#157=LINE('',#876,#191);
#158=LINE('',#877,#192);
#159=LINE('',#880,#193);
#160=LINE('',#881,#194);
#161=LINE('',#883,#195);
#162=LINE('',#887,#196);
#163=LINE('',#889,#197);
#164=LINE('',#890,#198);
#165=LINE('',#893,#199);
#166=LINE('',#894,#200);
#167=LINE('',#897,#201);
#168=LINE('',#898,#202);
#169=LINE('',#900,#203);
#170=LINE('',#907,#204);
#171=VECTOR('',#610,3.);
#172=VECTOR('',#617,3.);
#173=VECTOR('',#624,5.5);
#174=VECTOR('',#635,5.5);
#175=VECTOR('',#646,5.5);
#176=VECTOR('',#657,5.5);
#177=VECTOR('',#666,3.3);
#178=VECTOR('',#671,3.3);
#179=VECTOR('',#676,3.3);
#180=VECTOR('',#681,3.3);
#181=VECTOR('',#688,6.);
#182=VECTOR('',#699,5.);
#183=VECTOR('',#702,1.);
#184=VECTOR('',#705,5.);
#185=VECTOR('',#708,1.);
#186=VECTOR('',#713,1.);
#187=VECTOR('',#716,1.);
#188=VECTOR('',#719,1.);
#189=VECTOR('',#720,1.);
#190=VECTOR('',#721,1.);
#191=VECTOR('',#724,1.);
#192=VECTOR('',#725,1.);
#193=VECTOR('',#728,1.);
#194=VECTOR('',#729,1.);
#195=VECTOR('',#732,1.);
#196=VECTOR('',#737,1.);
#197=VECTOR('',#738,1.);
#198=VECTOR('',#739,1.);
#199=VECTOR('',#742,1.);
#200=VECTOR('',#743,1.);
#201=VECTOR('',#746,1.);
#202=VECTOR('',#747,1.);
#203=VECTOR('',#750,1.);
#204=VECTOR('',#759,33.);
#205=CIRCLE('',#539,3.);
#206=CIRCLE('',#540,3.);
#207=CIRCLE('',#542,3.);
#208=CIRCLE('',#543,3.);
#209=CIRCLE('',#545,5.5);
#210=CIRCLE('',#546,5.5);
#211=CIRCLE('',#548,3.3);
#212=CIRCLE('',#550,5.5);
#213=CIRCLE('',#551,5.5);
#214=CIRCLE('',#553,3.3);
#215=CIRCLE('',#555,5.5);
#216=CIRCLE('',#556,5.5);
#217=CIRCLE('',#558,3.3);
#218=CIRCLE('',#560,5.5);
#219=CIRCLE('',#561,5.5);
#220=CIRCLE('',#563,3.3);
#221=CIRCLE('',#565,3.3);
#222=CIRCLE('',#567,3.3);
#223=CIRCLE('',#569,3.3);
#224=CIRCLE('',#571,3.3);
#225=CIRCLE('',#573,6.);
#226=CIRCLE('',#574,6.);
#227=CIRCLE('',#576,5.);
#228=CIRCLE('',#578,5.);
#229=CIRCLE('',#579,5.);
#230=CIRCLE('',#580,5.);
#231=CIRCLE('',#581,5.);
#232=CIRCLE('',#582,5.);
#233=CIRCLE('',#583,5.);
#234=CIRCLE('',#584,5.);
#235=CIRCLE('',#597,33.);
#236=CIRCLE('',#598,33.);
#237=VERTEX_POINT('',#771);
#238=VERTEX_POINT('',#773);
#239=VERTEX_POINT('',#777);
#240=VERTEX_POINT('',#779);
#241=VERTEX_POINT('',#783);
#242=VERTEX_POINT('',#785);
#243=VERTEX_POINT('',#789);
#244=VERTEX_POINT('',#792);
#245=VERTEX_POINT('',#794);
#246=VERTEX_POINT('',#798);
#247=VERTEX_POINT('',#801);
#248=VERTEX_POINT('',#803);
#249=VERTEX_POINT('',#807);
#250=VERTEX_POINT('',#810);
#251=VERTEX_POINT('',#812);
#252=VERTEX_POINT('',#816);
#253=VERTEX_POINT('',#819);
#254=VERTEX_POINT('',#823);
#255=VERTEX_POINT('',#827);
#256=VERTEX_POINT('',#831);
#257=VERTEX_POINT('',#835);
#258=VERTEX_POINT('',#837);
#259=VERTEX_POINT('',#841);
#260=VERTEX_POINT('',#844);
#261=VERTEX_POINT('',#846);
#262=VERTEX_POINT('',#848);
#263=VERTEX_POINT('',#850);
#264=VERTEX_POINT('',#852);
#265=VERTEX_POINT('',#855);
#266=VERTEX_POINT('',#857);
#267=VERTEX_POINT('',#860);
#268=VERTEX_POINT('',#861);
#269=VERTEX_POINT('',#863);
#270=VERTEX_POINT('',#865);
#271=VERTEX_POINT('',#869);
#272=VERTEX_POINT('',#871);
#273=VERTEX_POINT('',#875);
#274=VERTEX_POINT('',#879);
#275=VERTEX_POINT('',#886);
#276=VERTEX_POINT('',#888);
#277=VERTEX_POINT('',#892);
#278=VERTEX_POINT('',#896);
#279=VERTEX_POINT('',#904);
#280=VERTEX_POINT('',#906);
#281=EDGE_CURVE('',#237,#237,#205,.T.);
#282=EDGE_CURVE('',#237,#238,#137,.T.);
#283=EDGE_CURVE('',#238,#238,#206,.T.);
#284=EDGE_CURVE('',#239,#239,#207,.T.);
#285=EDGE_CURVE('',#239,#240,#138,.T.);
#286=EDGE_CURVE('',#240,#240,#208,.T.);
#287=EDGE_CURVE('',#241,#241,#209,.T.);
#288=EDGE_CURVE('',#241,#242,#139,.T.);
#289=EDGE_CURVE('',#242,#242,#210,.T.);
#290=EDGE_CURVE('',#243,#243,#211,.T.);
#291=EDGE_CURVE('',#244,#244,#212,.T.);
#292=EDGE_CURVE('',#244,#245,#140,.T.);
#293=EDGE_CURVE('',#245,#245,#213,.T.);
#294=EDGE_CURVE('',#246,#246,#214,.T.);
#295=EDGE_CURVE('',#247,#247,#215,.T.);
#296=EDGE_CURVE('',#247,#248,#141,.T.);
#297=EDGE_CURVE('',#248,#248,#216,.T.);
#298=EDGE_CURVE('',#249,#249,#217,.T.);
#299=EDGE_CURVE('',#250,#250,#218,.T.);
#300=EDGE_CURVE('',#250,#251,#142,.T.);
#301=EDGE_CURVE('',#251,#251,#219,.T.);
#302=EDGE_CURVE('',#252,#252,#220,.T.);
#303=EDGE_CURVE('',#243,#253,#143,.T.);
#304=EDGE_CURVE('',#253,#253,#221,.T.);
#305=EDGE_CURVE('',#246,#254,#144,.T.);
#306=EDGE_CURVE('',#254,#254,#222,.T.);
#307=EDGE_CURVE('',#249,#255,#145,.T.);
#308=EDGE_CURVE('',#255,#255,#223,.T.);
#309=EDGE_CURVE('',#252,#256,#146,.T.);
#310=EDGE_CURVE('',#256,#256,#224,.T.);
#311=EDGE_CURVE('',#257,#257,#225,.T.);
#312=EDGE_CURVE('',#257,#258,#147,.T.);
#313=EDGE_CURVE('',#258,#258,#226,.T.);
#314=EDGE_CURVE('',#259,#259,#227,.T.);
#315=EDGE_CURVE('',#260,#260,#228,.T.);
#316=EDGE_CURVE('',#260,#261,#148,.T.);
#317=EDGE_CURVE('',#261,#262,#229,.T.);
#318=EDGE_CURVE('',#263,#262,#149,.T.);
#319=EDGE_CURVE('',#264,#263,#230,.T.);
#320=EDGE_CURVE('',#264,#259,#150,.T.);
#321=EDGE_CURVE('',#265,#264,#231,.T.);
#322=EDGE_CURVE('',#265,#266,#151,.T.);
#323=EDGE_CURVE('',#266,#261,#232,.T.);
#324=EDGE_CURVE('',#267,#268,#233,.T.);
#325=EDGE_CURVE('',#267,#269,#152,.T.);
#326=EDGE_CURVE('',#269,#270,#234,.T.);
#327=EDGE_CURVE('',#268,#270,#153,.T.);
#328=EDGE_CURVE('',#270,#271,#154,.T.);
#329=EDGE_CURVE('',#269,#272,#155,.T.);
#330=EDGE_CURVE('',#272,#271,#156,.T.);
#331=EDGE_CURVE('',#267,#273,#157,.T.);
#332=EDGE_CURVE('',#273,#272,#158,.T.);
#333=EDGE_CURVE('',#268,#274,#159,.T.);
#334=EDGE_CURVE('',#273,#274,#160,.T.);
#335=EDGE_CURVE('',#274,#271,#161,.T.);
#336=EDGE_CURVE('',#275,#265,#162,.T.);
#337=EDGE_CURVE('',#276,#263,#163,.T.);
#338=EDGE_CURVE('',#276,#275,#164,.T.);
#339=EDGE_CURVE('',#277,#262,#165,.T.);
#340=EDGE_CURVE('',#276,#277,#166,.T.);
#341=EDGE_CURVE('',#278,#266,#167,.T.);
#342=EDGE_CURVE('',#277,#278,#168,.T.);
#343=EDGE_CURVE('',#275,#278,#169,.T.);
#344=EDGE_CURVE('',#279,#279,#235,.T.);
#345=EDGE_CURVE('',#279,#280,#170,.T.);
#346=EDGE_CURVE('',#280,#280,#236,.T.);
#347=ORIENTED_EDGE('',*,*,#281,.F.);
#348=ORIENTED_EDGE('',*,*,#282,.T.);
#349=ORIENTED_EDGE('',*,*,#283,.F.);
#350=ORIENTED_EDGE('',*,*,#282,.F.);
#351=ORIENTED_EDGE('',*,*,#284,.F.);
#352=ORIENTED_EDGE('',*,*,#285,.T.);
#353=ORIENTED_EDGE('',*,*,#286,.F.);
#354=ORIENTED_EDGE('',*,*,#285,.F.);
#355=ORIENTED_EDGE('',*,*,#287,.F.);
#356=ORIENTED_EDGE('',*,*,#288,.T.);
#357=ORIENTED_EDGE('',*,*,#289,.T.);
#358=ORIENTED_EDGE('',*,*,#288,.F.);
#359=ORIENTED_EDGE('',*,*,#289,.F.);
#360=ORIENTED_EDGE('',*,*,#290,.F.);
#361=ORIENTED_EDGE('',*,*,#291,.F.);
#362=ORIENTED_EDGE('',*,*,#292,.T.);
#363=ORIENTED_EDGE('',*,*,#293,.T.);
#364=ORIENTED_EDGE('',*,*,#292,.F.);
#365=ORIENTED_EDGE('',*,*,#293,.F.);
#366=ORIENTED_EDGE('',*,*,#294,.F.);
#367=ORIENTED_EDGE('',*,*,#295,.F.);
#368=ORIENTED_EDGE('',*,*,#296,.T.);
#369=ORIENTED_EDGE('',*,*,#297,.T.);
#370=ORIENTED_EDGE('',*,*,#296,.F.);
#371=ORIENTED_EDGE('',*,*,#297,.F.);
#372=ORIENTED_EDGE('',*,*,#298,.F.);
#373=ORIENTED_EDGE('',*,*,#299,.F.);
#374=ORIENTED_EDGE('',*,*,#300,.T.);
#375=ORIENTED_EDGE('',*,*,#301,.T.);
#376=ORIENTED_EDGE('',*,*,#300,.F.);
#377=ORIENTED_EDGE('',*,*,#301,.F.);
#378=ORIENTED_EDGE('',*,*,#302,.F.);
#379=ORIENTED_EDGE('',*,*,#290,.T.);
#380=ORIENTED_EDGE('',*,*,#303,.T.);
#381=ORIENTED_EDGE('',*,*,#304,.F.);
#382=ORIENTED_EDGE('',*,*,#303,.F.);
#383=ORIENTED_EDGE('',*,*,#294,.T.);
#384=ORIENTED_EDGE('',*,*,#305,.T.);
#385=ORIENTED_EDGE('',*,*,#306,.F.);
#386=ORIENTED_EDGE('',*,*,#305,.F.);
#387=ORIENTED_EDGE('',*,*,#298,.T.);
#388=ORIENTED_EDGE('',*,*,#307,.T.);
#389=ORIENTED_EDGE('',*,*,#308,.F.);
#390=ORIENTED_EDGE('',*,*,#307,.F.);
#391=ORIENTED_EDGE('',*,*,#302,.T.);
#392=ORIENTED_EDGE('',*,*,#309,.T.);
#393=ORIENTED_EDGE('',*,*,#310,.F.);
#394=ORIENTED_EDGE('',*,*,#309,.F.);
#395=ORIENTED_EDGE('',*,*,#311,.F.);
#396=ORIENTED_EDGE('',*,*,#312,.T.);
#397=ORIENTED_EDGE('',*,*,#313,.F.);
#398=ORIENTED_EDGE('',*,*,#312,.F.);
#399=ORIENTED_EDGE('',*,*,#311,.T.);
#400=ORIENTED_EDGE('',*,*,#314,.F.);
#401=ORIENTED_EDGE('',*,*,#315,.F.);
#402=ORIENTED_EDGE('',*,*,#316,.T.);
#403=ORIENTED_EDGE('',*,*,#317,.T.);
#404=ORIENTED_EDGE('',*,*,#318,.F.);
#405=ORIENTED_EDGE('',*,*,#319,.F.);
#406=ORIENTED_EDGE('',*,*,#320,.T.);
#407=ORIENTED_EDGE('',*,*,#314,.T.);
#408=ORIENTED_EDGE('',*,*,#320,.F.);
#409=ORIENTED_EDGE('',*,*,#321,.F.);
#410=ORIENTED_EDGE('',*,*,#322,.T.);
#411=ORIENTED_EDGE('',*,*,#323,.T.);
#412=ORIENTED_EDGE('',*,*,#316,.F.);
#413=ORIENTED_EDGE('',*,*,#324,.F.);
#414=ORIENTED_EDGE('',*,*,#325,.T.);
#415=ORIENTED_EDGE('',*,*,#326,.T.);
#416=ORIENTED_EDGE('',*,*,#327,.F.);
#417=ORIENTED_EDGE('',*,*,#328,.F.);
#418=ORIENTED_EDGE('',*,*,#326,.F.);
#419=ORIENTED_EDGE('',*,*,#329,.T.);
#420=ORIENTED_EDGE('',*,*,#330,.T.);
#421=ORIENTED_EDGE('',*,*,#325,.F.);
#422=ORIENTED_EDGE('',*,*,#331,.T.);
#423=ORIENTED_EDGE('',*,*,#332,.T.);
#424=ORIENTED_EDGE('',*,*,#329,.F.);
#425=ORIENTED_EDGE('',*,*,#333,.T.);
#426=ORIENTED_EDGE('',*,*,#334,.F.);
#427=ORIENTED_EDGE('',*,*,#331,.F.);
#428=ORIENTED_EDGE('',*,*,#324,.T.);
#429=ORIENTED_EDGE('',*,*,#327,.T.);
#430=ORIENTED_EDGE('',*,*,#328,.T.);
#431=ORIENTED_EDGE('',*,*,#335,.F.);
#432=ORIENTED_EDGE('',*,*,#333,.F.);
#433=ORIENTED_EDGE('',*,*,#315,.T.);
#434=ORIENTED_EDGE('',*,*,#336,.T.);
#435=ORIENTED_EDGE('',*,*,#321,.T.);
#436=ORIENTED_EDGE('',*,*,#319,.T.);
#437=ORIENTED_EDGE('',*,*,#337,.F.);
#438=ORIENTED_EDGE('',*,*,#338,.T.);
#439=ORIENTED_EDGE('',*,*,#337,.T.);
#440=ORIENTED_EDGE('',*,*,#318,.T.);
#441=ORIENTED_EDGE('',*,*,#339,.F.);
#442=ORIENTED_EDGE('',*,*,#340,.F.);
#443=ORIENTED_EDGE('',*,*,#341,.F.);
#444=ORIENTED_EDGE('',*,*,#342,.F.);
#445=ORIENTED_EDGE('',*,*,#339,.T.);
#446=ORIENTED_EDGE('',*,*,#317,.F.);
#447=ORIENTED_EDGE('',*,*,#323,.F.);
#448=ORIENTED_EDGE('',*,*,#336,.F.);
#449=ORIENTED_EDGE('',*,*,#343,.T.);
#450=ORIENTED_EDGE('',*,*,#341,.T.);
#451=ORIENTED_EDGE('',*,*,#322,.F.);
#452=ORIENTED_EDGE('',*,*,#332,.F.);
#453=ORIENTED_EDGE('',*,*,#334,.T.);
#454=ORIENTED_EDGE('',*,*,#335,.T.);
#455=ORIENTED_EDGE('',*,*,#330,.F.);
#456=ORIENTED_EDGE('',*,*,#340,.T.);
#457=ORIENTED_EDGE('',*,*,#342,.T.);
#458=ORIENTED_EDGE('',*,*,#343,.F.);
#459=ORIENTED_EDGE('',*,*,#338,.F.);
#460=ORIENTED_EDGE('',*,*,#344,.F.);
#461=ORIENTED_EDGE('',*,*,#345,.T.);
#462=ORIENTED_EDGE('',*,*,#346,.T.);
#463=ORIENTED_EDGE('',*,*,#345,.F.);
#464=ORIENTED_EDGE('',*,*,#344,.T.);
#465=ORIENTED_EDGE('',*,*,#287,.T.);
#466=ORIENTED_EDGE('',*,*,#291,.T.);
#467=ORIENTED_EDGE('',*,*,#295,.T.);
#468=ORIENTED_EDGE('',*,*,#299,.T.);
#469=ORIENTED_EDGE('',*,*,#313,.T.);
#470=ORIENTED_EDGE('',*,*,#284,.T.);
#471=ORIENTED_EDGE('',*,*,#281,.T.);
#472=ORIENTED_EDGE('',*,*,#346,.F.);
#473=ORIENTED_EDGE('',*,*,#283,.T.);
#474=ORIENTED_EDGE('',*,*,#286,.T.);
#475=ORIENTED_EDGE('',*,*,#304,.T.);
#476=ORIENTED_EDGE('',*,*,#306,.T.);
#477=ORIENTED_EDGE('',*,*,#308,.T.);
#478=ORIENTED_EDGE('',*,*,#310,.T.);
#479=CYLINDRICAL_SURFACE('',#538,3.);
#480=CYLINDRICAL_SURFACE('',#541,3.);
#481=CYLINDRICAL_SURFACE('',#544,5.5);
#482=CYLINDRICAL_SURFACE('',#549,5.5);
#483=CYLINDRICAL_SURFACE('',#554,5.5);
#484=CYLINDRICAL_SURFACE('',#559,5.5);
#485=CYLINDRICAL_SURFACE('',#564,3.3);
#486=CYLINDRICAL_SURFACE('',#566,3.3);
#487=CYLINDRICAL_SURFACE('',#568,3.3);
#488=CYLINDRICAL_SURFACE('',#570,3.3);
#489=CYLINDRICAL_SURFACE('',#572,6.);
#490=CYLINDRICAL_SURFACE('',#577,5.);
#491=CYLINDRICAL_SURFACE('',#596,33.);
#492=ADVANCED_FACE('',(#56),#479,.F.);
#493=ADVANCED_FACE('',(#57),#480,.F.);
#494=ADVANCED_FACE('',(#58),#481,.F.);
#495=ADVANCED_FACE('',(#59,#19),#38,.T.);
#496=ADVANCED_FACE('',(#60),#482,.F.);
#497=ADVANCED_FACE('',(#61,#20),#39,.T.);
#498=ADVANCED_FACE('',(#62),#483,.F.);
#499=ADVANCED_FACE('',(#63,#21),#40,.T.);
#500=ADVANCED_FACE('',(#64),#484,.F.);
#501=ADVANCED_FACE('',(#65,#22),#41,.T.);
#502=ADVANCED_FACE('',(#66),#485,.F.);
#503=ADVANCED_FACE('',(#67),#486,.F.);
#504=ADVANCED_FACE('',(#68),#487,.F.);
#505=ADVANCED_FACE('',(#69),#488,.F.);
#506=ADVANCED_FACE('',(#70),#489,.T.);
#507=ADVANCED_FACE('',(#71,#23),#42,.T.);
#508=ADVANCED_FACE('',(#72,#24),#490,.T.);
#509=ADVANCED_FACE('',(#73),#43,.T.);
#510=ADVANCED_FACE('',(#74),#44,.F.);
#511=ADVANCED_FACE('',(#75),#45,.F.);
#512=ADVANCED_FACE('',(#76),#46,.T.);
#513=ADVANCED_FACE('',(#77),#47,.T.);
#514=ADVANCED_FACE('',(#78),#48,.F.);
#515=ADVANCED_FACE('',(#79),#49,.F.);
#516=ADVANCED_FACE('',(#80),#50,.T.);
#517=ADVANCED_FACE('',(#81),#51,.T.);
#518=ADVANCED_FACE('',(#82),#52,.T.);
#519=ADVANCED_FACE('',(#83),#53,.F.);
#520=ADVANCED_FACE('',(#84),#491,.T.);
#521=ADVANCED_FACE('',(#85,#25,#26,#27,#28,#29,#30,#31),#54,.T.);
#522=ADVANCED_FACE('',(#86,#32,#33,#34,#35,#36,#37),#55,.F.);
#523=CLOSED_SHELL('',(#492,#493,#494,#495,#496,#497,#498,#499,#500,#501,
#502,#503,#504,#505,#506,#507,#508,#509,#510,#511,#512,#513,#514,#515,#516,
#517,#518,#519,#520,#521,#522));
#524=DERIVED_UNIT_ELEMENT(#526,1.);
#525=DERIVED_UNIT_ELEMENT(#919,-3.);
#526=(
MASS_UNIT()
NAMED_UNIT(*)
SI_UNIT(.KILO.,.GRAM.)
);
#527=DERIVED_UNIT((#524,#525));
#528=MEASURE_REPRESENTATION_ITEM('density measure',
POSITIVE_RATIO_MEASURE(7850.),#527);
#529=PROPERTY_DEFINITION_REPRESENTATION(#534,#531);
#530=PROPERTY_DEFINITION_REPRESENTATION(#535,#532);
#531=REPRESENTATION('material name',(#533),#916);
#532=REPRESENTATION('density',(#528),#916);
#533=DESCRIPTIVE_REPRESENTATION_ITEM('A\X\E7o','A\X\E7o');
#534=PROPERTY_DEFINITION('material property','material name',#931);
#535=PROPERTY_DEFINITION('material property','density of part',#931);
#536=AXIS2_PLACEMENT_3D('',#768,#602,#603);
#537=AXIS2_PLACEMENT_3D('',#769,#604,#605);
#538=AXIS2_PLACEMENT_3D('',#770,#606,#607);
#539=AXIS2_PLACEMENT_3D('',#772,#608,#609);
#540=AXIS2_PLACEMENT_3D('',#775,#611,#612);
#541=AXIS2_PLACEMENT_3D('',#776,#613,#614);
#542=AXIS2_PLACEMENT_3D('',#778,#615,#616);
#543=AXIS2_PLACEMENT_3D('',#781,#618,#619);
#544=AXIS2_PLACEMENT_3D('',#782,#620,#621);
#545=AXIS2_PLACEMENT_3D('',#784,#622,#623);
#546=AXIS2_PLACEMENT_3D('',#787,#625,#626);
#547=AXIS2_PLACEMENT_3D('',#788,#627,#628);
#548=AXIS2_PLACEMENT_3D('',#790,#629,#630);
#549=AXIS2_PLACEMENT_3D('',#791,#631,#632);
#550=AXIS2_PLACEMENT_3D('',#793,#633,#634);
#551=AXIS2_PLACEMENT_3D('',#796,#636,#637);
#552=AXIS2_PLACEMENT_3D('',#797,#638,#639);
#553=AXIS2_PLACEMENT_3D('',#799,#640,#641);
#554=AXIS2_PLACEMENT_3D('',#800,#642,#643);
#555=AXIS2_PLACEMENT_3D('',#802,#644,#645);
#556=AXIS2_PLACEMENT_3D('',#805,#647,#648);
#557=AXIS2_PLACEMENT_3D('',#806,#649,#650);
#558=AXIS2_PLACEMENT_3D('',#808,#651,#652);
#559=AXIS2_PLACEMENT_3D('',#809,#653,#654);
#560=AXIS2_PLACEMENT_3D('',#811,#655,#656);
#561=AXIS2_PLACEMENT_3D('',#814,#658,#659);
#562=AXIS2_PLACEMENT_3D('',#815,#660,#661);
#563=AXIS2_PLACEMENT_3D('',#817,#662,#663);
#564=AXIS2_PLACEMENT_3D('',#818,#664,#665);
#565=AXIS2_PLACEMENT_3D('',#821,#667,#668);
#566=AXIS2_PLACEMENT_3D('',#822,#669,#670);
#567=AXIS2_PLACEMENT_3D('',#825,#672,#673);
#568=AXIS2_PLACEMENT_3D('',#826,#674,#675);
#569=AXIS2_PLACEMENT_3D('',#829,#677,#678);
#570=AXIS2_PLACEMENT_3D('',#830,#679,#680);
#571=AXIS2_PLACEMENT_3D('',#833,#682,#683);
#572=AXIS2_PLACEMENT_3D('',#834,#684,#685);
#573=AXIS2_PLACEMENT_3D('',#836,#686,#687);
#574=AXIS2_PLACEMENT_3D('',#839,#689,#690);
#575=AXIS2_PLACEMENT_3D('',#840,#691,#692);
#576=AXIS2_PLACEMENT_3D('',#842,#693,#694);
#577=AXIS2_PLACEMENT_3D('',#843,#695,#696);
#578=AXIS2_PLACEMENT_3D('',#845,#697,#698);
#579=AXIS2_PLACEMENT_3D('',#849,#700,#701);
#580=AXIS2_PLACEMENT_3D('',#853,#703,#704);
#581=AXIS2_PLACEMENT_3D('',#856,#706,#707);
#582=AXIS2_PLACEMENT_3D('',#859,#709,#710);
#583=AXIS2_PLACEMENT_3D('',#862,#711,#712);
#584=AXIS2_PLACEMENT_3D('',#866,#714,#715);
#585=AXIS2_PLACEMENT_3D('',#868,#717,#718);
#586=AXIS2_PLACEMENT_3D('',#874,#722,#723);
#587=AXIS2_PLACEMENT_3D('',#878,#726,#727);
#588=AXIS2_PLACEMENT_3D('',#882,#730,#731);
#589=AXIS2_PLACEMENT_3D('',#884,#733,#734);
#590=AXIS2_PLACEMENT_3D('',#885,#735,#736);
#591=AXIS2_PLACEMENT_3D('',#891,#740,#741);
#592=AXIS2_PLACEMENT_3D('',#895,#744,#745);
#593=AXIS2_PLACEMENT_3D('',#899,#748,#749);
#594=AXIS2_PLACEMENT_3D('',#901,#751,#752);
#595=AXIS2_PLACEMENT_3D('',#902,#753,#754);
#596=AXIS2_PLACEMENT_3D('',#903,#755,#756);
#597=AXIS2_PLACEMENT_3D('',#905,#757,#758);
#598=AXIS2_PLACEMENT_3D('',#908,#760,#761);
#599=AXIS2_PLACEMENT_3D('',#909,#762,#763);
#600=AXIS2_PLACEMENT_3D('',#910,#764,#765);
#601=AXIS2_PLACEMENT_3D('',#911,#766,#767);
#602=DIRECTION('axis',(0.,0.,1.));
#603=DIRECTION('refdir',(1.,0.,0.));
#604=DIRECTION('axis',(0.,0.,1.));
#605=DIRECTION('refdir',(1.,0.,0.));
#606=DIRECTION('center_axis',(0.,0.,-1.));
#607=DIRECTION('ref_axis',(1.,0.,0.));
#608=DIRECTION('center_axis',(0.,0.,-1.));
#609=DIRECTION('ref_axis',(1.,0.,0.));
#610=DIRECTION('',(0.,0.,-1.));
#611=DIRECTION('center_axis',(0.,0.,1.));
#612=DIRECTION('ref_axis',(1.,0.,0.));
#613=DIRECTION('center_axis',(0.,0.,-1.));
#614=DIRECTION('ref_axis',(1.,0.,0.));
#615=DIRECTION('center_axis',(0.,0.,-1.));
#616=DIRECTION('ref_axis',(1.,0.,0.));
#617=DIRECTION('',(0.,0.,-1.));
#618=DIRECTION('center_axis',(0.,0.,1.));
#619=DIRECTION('ref_axis',(1.,0.,0.));
#620=DIRECTION('center_axis',(0.,0.,-1.));
#621=DIRECTION('ref_axis',(1.,0.,0.));
#622=DIRECTION('center_axis',(0.,0.,-1.));
#623=DIRECTION('ref_axis',(1.,0.,0.));
#624=DIRECTION('',(0.,0.,-1.));
#625=DIRECTION('center_axis',(0.,0.,-1.));
#626=DIRECTION('ref_axis',(1.,0.,0.));
#627=DIRECTION('center_axis',(0.,0.,1.));
#628=DIRECTION('ref_axis',(1.,0.,0.));
#629=DIRECTION('center_axis',(0.,0.,1.));
#630=DIRECTION('ref_axis',(1.,0.,0.));
#631=DIRECTION('center_axis',(0.,0.,-1.));
#632=DIRECTION('ref_axis',(1.,0.,0.));
#633=DIRECTION('center_axis',(0.,0.,-1.));
#634=DIRECTION('ref_axis',(1.,0.,0.));
#635=DIRECTION('',(0.,0.,-1.));
#636=DIRECTION('center_axis',(0.,0.,-1.));
#637=DIRECTION('ref_axis',(1.,0.,0.));
#638=DIRECTION('center_axis',(0.,0.,1.));
#639=DIRECTION('ref_axis',(1.,0.,0.));
#640=DIRECTION('center_axis',(0.,0.,1.));
#641=DIRECTION('ref_axis',(1.,0.,0.));
#642=DIRECTION('center_axis',(0.,0.,-1.));
#643=DIRECTION('ref_axis',(1.,0.,0.));
#644=DIRECTION('center_axis',(0.,0.,-1.));
#645=DIRECTION('ref_axis',(1.,0.,0.));
#646=DIRECTION('',(0.,0.,-1.));
#647=DIRECTION('center_axis',(0.,0.,-1.));
#648=DIRECTION('ref_axis',(1.,0.,0.));
#649=DIRECTION('center_axis',(0.,0.,1.));
#650=DIRECTION('ref_axis',(1.,0.,0.));
#651=DIRECTION('center_axis',(0.,0.,1.));
#652=DIRECTION('ref_axis',(1.,0.,0.));
#653=DIRECTION('center_axis',(0.,0.,-1.));
#654=DIRECTION('ref_axis',(1.,0.,0.));
#655=DIRECTION('center_axis',(0.,0.,-1.));
#656=DIRECTION('ref_axis',(1.,0.,0.));
#657=DIRECTION('',(0.,0.,-1.));
#658=DIRECTION('center_axis',(0.,0.,-1.));
#659=DIRECTION('ref_axis',(1.,0.,0.));
#660=DIRECTION('center_axis',(0.,0.,1.));
#661=DIRECTION('ref_axis',(1.,0.,0.));
#662=DIRECTION('center_axis',(0.,0.,1.));
#663=DIRECTION('ref_axis',(1.,0.,0.));
#664=DIRECTION('center_axis',(0.,0.,-1.));
#665=DIRECTION('ref_axis',(1.,0.,0.));
#666=DIRECTION('',(0.,0.,-1.));
#667=DIRECTION('center_axis',(0.,0.,1.));
#668=DIRECTION('ref_axis',(1.,0.,0.));
#669=DIRECTION('center_axis',(0.,0.,-1.));
#670=DIRECTION('ref_axis',(1.,0.,0.));
#671=DIRECTION('',(0.,0.,-1.));
#672=DIRECTION('center_axis',(0.,0.,1.));
#673=DIRECTION('ref_axis',(1.,0.,0.));
#674=DIRECTION('center_axis',(0.,0.,-1.));
#675=DIRECTION('ref_axis',(1.,0.,0.));
#676=DIRECTION('',(0.,0.,-1.));
#677=DIRECTION('center_axis',(0.,0.,1.));
#678=DIRECTION('ref_axis',(1.,0.,0.));
#679=DIRECTION('center_axis',(0.,0.,-1.));
#680=DIRECTION('ref_axis',(1.,0.,0.));
#681=DIRECTION('',(0.,0.,-1.));
#682=DIRECTION('center_axis',(0.,0.,1.));
#683=DIRECTION('ref_axis',(1.,0.,0.));
#684=DIRECTION('center_axis',(0.,0.,1.));
#685=DIRECTION('ref_axis',(1.,0.,0.));
#686=DIRECTION('center_axis',(0.,0.,1.));
#687=DIRECTION('ref_axis',(1.,0.,0.));
#688=DIRECTION('',(0.,0.,-1.));
#689=DIRECTION('center_axis',(0.,0.,-1.));
#690=DIRECTION('ref_axis',(1.,0.,0.));
#691=DIRECTION('center_axis',(0.,0.,1.));
#692=DIRECTION('ref_axis',(1.,0.,0.));
#693=DIRECTION('center_axis',(0.,0.,1.));
#694=DIRECTION('ref_axis',(1.,0.,0.));
#695=DIRECTION('center_axis',(0.,0.,1.));
#696=DIRECTION('ref_axis',(1.,0.,0.));
#697=DIRECTION('center_axis',(0.,0.,1.));
#698=DIRECTION('ref_axis',(1.,0.,0.));
#699=DIRECTION('',(0.,0.,-1.));
#700=DIRECTION('center_axis',(0.,0.,1.));
#701=DIRECTION('ref_axis',(1.,0.,0.));
#702=DIRECTION('',(0.,0.,1.));
#703=DIRECTION('center_axis',(0.,0.,1.));
#704=DIRECTION('ref_axis',(1.,0.,0.));
#705=DIRECTION('',(0.,0.,-1.));
#706=DIRECTION('center_axis',(0.,0.,1.));
#707=DIRECTION('ref_axis',(1.,0.,0.));
#708=DIRECTION('',(0.,0.,1.));
#709=DIRECTION('center_axis',(0.,0.,1.));
#710=DIRECTION('ref_axis',(1.,0.,0.));
#711=DIRECTION('center_axis',(0.,0.,1.));
#712=DIRECTION('ref_axis',(1.,0.,0.));
#713=DIRECTION('',(0.,0.,1.));
#714=DIRECTION('center_axis',(0.,0.,1.));
#715=DIRECTION('ref_axis',(1.,0.,0.));
#716=DIRECTION('',(0.,0.,1.));
#717=DIRECTION('center_axis',(0.,0.,1.));
#718=DIRECTION('ref_axis',(1.,0.,0.));
#719=DIRECTION('',(1.,0.,0.));
#720=DIRECTION('',(1.,0.,0.));
#721=DIRECTION('',(0.,1.,0.));
#722=DIRECTION('center_axis',(0.,1.,0.));
#723=DIRECTION('ref_axis',(0.,0.,1.));
#724=DIRECTION('',(1.,0.,0.));
#725=DIRECTION('',(0.,0.,1.));
#726=DIRECTION('center_axis',(0.,0.,1.));
#727=DIRECTION('ref_axis',(1.,0.,0.));
#728=DIRECTION('',(1.,0.,0.));
#729=DIRECTION('',(0.,1.,0.));
#730=DIRECTION('center_axis',(0.,1.,0.));
#731=DIRECTION('ref_axis',(0.,0.,1.));
#732=DIRECTION('',(0.,0.,1.));
#733=DIRECTION('center_axis',(0.,0.,1.));
#734=DIRECTION('ref_axis',(1.,0.,0.));
#735=DIRECTION('center_axis',(0.,0.,1.));
#736=DIRECTION('ref_axis',(1.,0.,0.));
#737=DIRECTION('',(1.,0.,0.));
#738=DIRECTION('',(1.,0.,0.));
#739=DIRECTION('',(0.,1.,0.));
#740=DIRECTION('center_axis',(0.,1.,0.));
#741=DIRECTION('ref_axis',(0.,0.,1.));
#742=DIRECTION('',(1.,0.,0.));
#743=DIRECTION('',(0.,0.,1.));
#744=DIRECTION('center_axis',(0.,0.,1.));
#745=DIRECTION('ref_axis',(1.,0.,0.));
#746=DIRECTION('',(1.,0.,0.));
#747=DIRECTION('',(0.,1.,0.));
#748=DIRECTION('center_axis',(0.,1.,0.));
#749=DIRECTION('ref_axis',(0.,0.,1.));
#750=DIRECTION('',(0.,0.,1.));
#751=DIRECTION('center_axis',(1.,0.,0.));
#752=DIRECTION('ref_axis',(0.,0.,1.));
#753=DIRECTION('center_axis',(1.,0.,0.));
#754=DIRECTION('ref_axis',(0.,0.,1.));
#755=DIRECTION('center_axis',(0.,0.,1.));
#756=DIRECTION('ref_axis',(1.,0.,0.));
#757=DIRECTION('center_axis',(0.,0.,1.));
#758=DIRECTION('ref_axis',(1.,0.,0.));
#759=DIRECTION('',(0.,0.,-1.));
#760=DIRECTION('center_axis',(0.,0.,1.));
#761=DIRECTION('ref_axis',(1.,0.,0.));
#762=DIRECTION('center_axis',(0.,0.,1.));
#763=DIRECTION('ref_axis',(1.,0.,0.));
#764=DIRECTION('center_axis',(0.,0.,1.));
#765=DIRECTION('ref_axis',(1.,0.,0.));
#766=DIRECTION('',(0.,0.,1.));
#767=DIRECTION('',(1.,0.,0.));
#768=CARTESIAN_POINT('',(0.,0.,0.));
#769=CARTESIAN_POINT('',(0.,0.,0.));
#770=CARTESIAN_POINT('Origin',(1.53080849893419E-15,25.,144.7));
#771=CARTESIAN_POINT('',(-3.,25.,144.7));
#772=CARTESIAN_POINT('Origin',(1.53080849893419E-15,25.,144.7));
#773=CARTESIAN_POINT('',(-3.,25.,135.7));
#774=CARTESIAN_POINT('',(-3.,25.,144.7));
#775=CARTESIAN_POINT('Origin',(1.53080849893419E-15,25.,135.7));
#776=CARTESIAN_POINT('Origin',(-4.59242549680257E-15,-25.,144.7));
#777=CARTESIAN_POINT('',(-3.,-25.,144.7));
#778=CARTESIAN_POINT('Origin',(-4.59242549680257E-15,-25.,144.7));
#779=CARTESIAN_POINT('',(-3.,-25.,135.7));
#780=CARTESIAN_POINT('',(-3.,-25.,144.7));
#781=CARTESIAN_POINT('Origin',(-4.59242549680257E-15,-25.,135.7));
#782=CARTESIAN_POINT('Origin',(-17.6776695296637,-17.6776695296637,144.7));
#783=CARTESIAN_POINT('',(-23.1776695296637,-17.6776695296637,144.7));
#784=CARTESIAN_POINT('Origin',(-17.6776695296637,-17.6776695296637,144.7));
#785=CARTESIAN_POINT('',(-23.1776695296637,-17.6776695296637,139.7));
#786=CARTESIAN_POINT('',(-23.1776695296637,-17.6776695296637,144.7));
#787=CARTESIAN_POINT('Origin',(-17.6776695296637,-17.6776695296637,139.7));
#788=CARTESIAN_POINT('Origin',(-17.6776695296637,-17.6776695296637,139.7));
#789=CARTESIAN_POINT('',(-20.9776695296637,-17.6776695296637,139.7));
#790=CARTESIAN_POINT('Origin',(-17.6776695296637,-17.6776695296637,139.7));
#791=CARTESIAN_POINT('Origin',(-17.6776695296637,17.6776695296637,144.7));
#792=CARTESIAN_POINT('',(-23.1776695296637,17.6776695296637,144.7));
#793=CARTESIAN_POINT('Origin',(-17.6776695296637,17.6776695296637,144.7));
#794=CARTESIAN_POINT('',(-23.1776695296637,17.6776695296637,139.7));
#795=CARTESIAN_POINT('',(-23.1776695296637,17.6776695296637,144.7));
#796=CARTESIAN_POINT('Origin',(-17.6776695296637,17.6776695296637,139.7));
#797=CARTESIAN_POINT('Origin',(-17.6776695296637,17.6776695296637,139.7));
#798=CARTESIAN_POINT('',(-20.9776695296637,17.6776695296637,139.7));
#799=CARTESIAN_POINT('Origin',(-17.6776695296637,17.6776695296637,139.7));
#800=CARTESIAN_POINT('Origin',(17.6776695296637,17.6776695296637,144.7));
#801=CARTESIAN_POINT('',(12.1776695296637,17.6776695296637,144.7));
#802=CARTESIAN_POINT('Origin',(17.6776695296637,17.6776695296637,144.7));
#803=CARTESIAN_POINT('',(12.1776695296637,17.6776695296637,139.7));
#804=CARTESIAN_POINT('',(12.1776695296637,17.6776695296637,144.7));
#805=CARTESIAN_POINT('Origin',(17.6776695296637,17.6776695296637,139.7));
#806=CARTESIAN_POINT('Origin',(17.6776695296637,17.6776695296637,139.7));
#807=CARTESIAN_POINT('',(14.3776695296637,17.6776695296637,139.7));
#808=CARTESIAN_POINT('Origin',(17.6776695296637,17.6776695296637,139.7));
#809=CARTESIAN_POINT('Origin',(17.6776695296637,-17.6776695296637,144.7));
#810=CARTESIAN_POINT('',(12.1776695296637,-17.6776695296637,144.7));
#811=CARTESIAN_POINT('Origin',(17.6776695296637,-17.6776695296637,144.7));
#812=CARTESIAN_POINT('',(12.1776695296637,-17.6776695296637,139.7));
#813=CARTESIAN_POINT('',(12.1776695296637,-17.6776695296637,144.7));
#814=CARTESIAN_POINT('Origin',(17.6776695296637,-17.6776695296637,139.7));
#815=CARTESIAN_POINT('Origin',(17.6776695296637,-17.6776695296637,139.7));
#816=CARTESIAN_POINT('',(14.3776695296637,-17.6776695296637,139.7));
#817=CARTESIAN_POINT('Origin',(17.6776695296637,-17.6776695296637,139.7));
#818=CARTESIAN_POINT('Origin',(-17.6776695296637,-17.6776695296637,144.7));
#819=CARTESIAN_POINT('',(-20.9776695296637,-17.6776695296637,135.7));
#820=CARTESIAN_POINT('',(-20.9776695296637,-17.6776695296637,144.7));
#821=CARTESIAN_POINT('Origin',(-17.6776695296637,-17.6776695296637,135.7));
#822=CARTESIAN_POINT('Origin',(-17.6776695296637,17.6776695296637,144.7));
#823=CARTESIAN_POINT('',(-20.9776695296637,17.6776695296637,135.7));
#824=CARTESIAN_POINT('',(-20.9776695296637,17.6776695296637,144.7));
#825=CARTESIAN_POINT('Origin',(-17.6776695296637,17.6776695296637,135.7));
#826=CARTESIAN_POINT('Origin',(17.6776695296637,17.6776695296637,144.7));
#827=CARTESIAN_POINT('',(14.3776695296637,17.6776695296637,135.7));
#828=CARTESIAN_POINT('',(14.3776695296637,17.6776695296637,144.7));
#829=CARTESIAN_POINT('Origin',(17.6776695296637,17.6776695296637,135.7));
#830=CARTESIAN_POINT('Origin',(17.6776695296637,-17.6776695296637,144.7));
#831=CARTESIAN_POINT('',(14.3776695296637,-17.6776695296637,135.7));
#832=CARTESIAN_POINT('',(14.3776695296637,-17.6776695296637,144.7));
#833=CARTESIAN_POINT('Origin',(17.6776695296637,-17.6776695296637,135.7));
#834=CARTESIAN_POINT('Origin',(0.,0.,123.7));
#835=CARTESIAN_POINT('',(-6.,-7.34788079488412E-16,147.7));
#836=CARTESIAN_POINT('Origin',(0.,0.,147.7));
#837=CARTESIAN_POINT('',(-6.,7.34788079488412E-16,144.7));
#838=CARTESIAN_POINT('',(-6.,-7.34788079488412E-16,123.7));
#839=CARTESIAN_POINT('Origin',(0.,0.,144.7));
#840=CARTESIAN_POINT('Origin',(0.,0.,147.7));
#841=CARTESIAN_POINT('',(-5.,-6.12323399573677E-16,147.7));
#842=CARTESIAN_POINT('Origin',(0.,0.,147.7));
#843=CARTESIAN_POINT('Origin',(0.,0.,147.7));
#844=CARTESIAN_POINT('',(-5.,-6.12323399573677E-16,157.7));
#845=CARTESIAN_POINT('Origin',(0.,0.,157.7));
#846=CARTESIAN_POINT('',(-5.,-6.12323399573677E-16,153.4));
#847=CARTESIAN_POINT('',(-5.,-6.12323399573677E-16,147.7));
#848=CARTESIAN_POINT('',(-4.769696007085,-1.5,153.4));
#849=CARTESIAN_POINT('Origin',(0.,0.,153.4));
#850=CARTESIAN_POINT('',(-4.769696007085,-1.5,150.8));
#851=CARTESIAN_POINT('',(-4.769696007085,-1.5,147.7));
#852=CARTESIAN_POINT('',(-5.,-6.12323399573677E-16,150.8));
#853=CARTESIAN_POINT('Origin',(0.,0.,150.8));
#854=CARTESIAN_POINT('',(-5.,-6.12323399573677E-16,147.7));
#855=CARTESIAN_POINT('',(-4.769696007085,1.5,150.8));
#856=CARTESIAN_POINT('Origin',(0.,0.,150.8));
#857=CARTESIAN_POINT('',(-4.769696007085,1.5,153.4));
#858=CARTESIAN_POINT('',(-4.769696007085,1.5,147.7));
#859=CARTESIAN_POINT('Origin',(0.,0.,153.4));
#860=CARTESIAN_POINT('',(4.769696007085,-1.5,150.8));
#861=CARTESIAN_POINT('',(4.769696007085,1.5,150.8));
#862=CARTESIAN_POINT('Origin',(0.,0.,150.8));
#863=CARTESIAN_POINT('',(4.769696007085,-1.5,153.4));
#864=CARTESIAN_POINT('',(4.769696007085,-1.5,147.7));
#865=CARTESIAN_POINT('',(4.769696007085,1.5,153.4));
#866=CARTESIAN_POINT('Origin',(0.,0.,153.4));
#867=CARTESIAN_POINT('',(4.769696007085,1.5,147.7));
#868=CARTESIAN_POINT('Origin',(-7.5,-1.5,153.4));
#869=CARTESIAN_POINT('',(7.5,1.5,153.4));
#870=CARTESIAN_POINT('',(-7.5,1.5,153.4));
#871=CARTESIAN_POINT('',(7.5,-1.5,153.4));
#872=CARTESIAN_POINT('',(-7.5,-1.5,153.4));
#873=CARTESIAN_POINT('',(7.5,-1.5,153.4));
#874=CARTESIAN_POINT('Origin',(-7.5,-1.5,150.8));
#875=CARTESIAN_POINT('',(7.5,-1.5,150.8));
#876=CARTESIAN_POINT('',(-7.5,-1.5,150.8));
#877=CARTESIAN_POINT('',(7.5,-1.5,150.8));
#878=CARTESIAN_POINT('Origin',(-7.5,-1.5,150.8));
#879=CARTESIAN_POINT('',(7.5,1.5,150.8));
#880=CARTESIAN_POINT('',(-7.5,1.5,150.8));
#881=CARTESIAN_POINT('',(7.5,-1.5,150.8));
#882=CARTESIAN_POINT('Origin',(-7.5,1.5,150.8));
#883=CARTESIAN_POINT('',(7.5,1.5,150.8));
#884=CARTESIAN_POINT('Origin',(0.,0.,157.7));
#885=CARTESIAN_POINT('Origin',(-7.5,-1.5,150.8));
#886=CARTESIAN_POINT('',(-7.5,1.5,150.8));
#887=CARTESIAN_POINT('',(-7.5,1.5,150.8));
#888=CARTESIAN_POINT('',(-7.5,-1.5,150.8));
#889=CARTESIAN_POINT('',(-7.5,-1.5,150.8));
#890=CARTESIAN_POINT('',(-7.5,-1.5,150.8));
#891=CARTESIAN_POINT('Origin',(-7.5,-1.5,150.8));
#892=CARTESIAN_POINT('',(-7.5,-1.5,153.4));
#893=CARTESIAN_POINT('',(-7.5,-1.5,153.4));
#894=CARTESIAN_POINT('',(-7.5,-1.5,150.8));
#895=CARTESIAN_POINT('Origin',(-7.5,-1.5,153.4));
#896=CARTESIAN_POINT('',(-7.5,1.5,153.4));
#897=CARTESIAN_POINT('',(-7.5,1.5,153.4));
#898=CARTESIAN_POINT('',(-7.5,-1.5,153.4));
#899=CARTESIAN_POINT('Origin',(-7.5,1.5,150.8));
#900=CARTESIAN_POINT('',(-7.5,1.5,150.8));
#901=CARTESIAN_POINT('Origin',(7.5,-1.5,150.8));
#902=CARTESIAN_POINT('Origin',(-7.5,-1.5,150.8));
#903=CARTESIAN_POINT('Origin',(0.,0.,135.7));
#904=CARTESIAN_POINT('',(-33.,-4.04133443718627E-15,144.7));
#905=CARTESIAN_POINT('Origin',(0.,0.,144.7));
#906=CARTESIAN_POINT('',(-33.,-4.04133443718627E-15,135.7));
#907=CARTESIAN_POINT('',(-33.,-4.04133443718627E-15,135.7));
#908=CARTESIAN_POINT('Origin',(0.,0.,135.7));
#909=CARTESIAN_POINT('Origin',(0.,0.,144.7));
#910=CARTESIAN_POINT('Origin',(0.,0.,135.7));
#911=CARTESIAN_POINT('',(0.,0.,0.));
#912=UNCERTAINTY_MEASURE_WITH_UNIT(LENGTH_MEASURE(0.01),#918,
'DISTANCE_ACCURACY_VALUE',
'Maximum model space distance between geometric entities at asserted c
onnectivities');
#913=UNCERTAINTY_MEASURE_WITH_UNIT(LENGTH_MEASURE(0.01),#918,
'DISTANCE_ACCURACY_VALUE',
'Maximum model space distance between geometric entities at asserted c
onnectivities');
#914=UNCERTAINTY_MEASURE_WITH_UNIT(LENGTH_MEASURE(0.01),#918,
'DISTANCE_ACCURACY_VALUE',
'Maximum model space distance between geometric entities at asserted c
onnectivities');
#915=(
GEOMETRIC_REPRESENTATION_CONTEXT(3)
GLOBAL_UNCERTAINTY_ASSIGNED_CONTEXT((#912))
GLOBAL_UNIT_ASSIGNED_CONTEXT((#918,#920,#921))
REPRESENTATION_CONTEXT('','3D')
);
#916=(
GEOMETRIC_REPRESENTATION_CONTEXT(3)
GLOBAL_UNCERTAINTY_ASSIGNED_CONTEXT((#913))
GLOBAL_UNIT_ASSIGNED_CONTEXT((#918,#920,#921))
REPRESENTATION_CONTEXT('','3D')
);
#917=(
GEOMETRIC_REPRESENTATION_CONTEXT(3)
GLOBAL_UNCERTAINTY_ASSIGNED_CONTEXT((#914))
GLOBAL_UNIT_ASSIGNED_CONTEXT((#918,#920,#921))
REPRESENTATION_CONTEXT('','3D')
);
#918=(
LENGTH_UNIT()
NAMED_UNIT(*)
SI_UNIT(.MILLI.,.METRE.)
);
#919=(
LENGTH_UNIT()
NAMED_UNIT(*)
SI_UNIT($,.METRE.)
);
#920=(
NAMED_UNIT(*)
PLANE_ANGLE_UNIT()
SI_UNIT($,.RADIAN.)
);
#921=(
NAMED_UNIT(*)
SI_UNIT($,.STERADIAN.)
SOLID_ANGLE_UNIT()
);
#922=SHAPE_DEFINITION_REPRESENTATION(#924,#927);
#923=SHAPE_DEFINITION_REPRESENTATION(#925,#928);
#924=PRODUCT_DEFINITION_SHAPE('',$,#930);
#925=PRODUCT_DEFINITION_SHAPE('',$,#931);
#926=PRODUCT_DEFINITION_SHAPE($,$,#14);
#927=SHAPE_REPRESENTATION('',(#536,#601),#915);
#928=SHAPE_REPRESENTATION('',(#537),#916);
#929=PRODUCT_DEFINITION_CONTEXT('part definition',#937,'design');
#930=PRODUCT_DEFINITION('touch_tool','acoplador_celula_hotswap',#932,#929);
#931=PRODUCT_DEFINITION('touch_tool_1','acoplador_celula_hotswap (1)',#933,
#929);
#932=PRODUCT_DEFINITION_FORMATION('',$,#939);
#933=PRODUCT_DEFINITION_FORMATION('',$,#940);
#934=PRODUCT_RELATED_PRODUCT_CATEGORY('acoplador_celula_hotswap',
'acoplador_celula_hotswap',(#939));
#935=PRODUCT_RELATED_PRODUCT_CATEGORY('acoplador_celula_hotswap (1)',
'acoplador_celula_hotswap (1)',(#940));
#936=APPLICATION_PROTOCOL_DEFINITION('international standard',
'automotive_design',2009,#937);
#937=APPLICATION_CONTEXT(
'Core Data for Automotive Mechanical Design Process');
#938=PRODUCT_CONTEXT('part definition',#937,'mechanical');
#939=PRODUCT('touch_tool','acoplador_celula_hotswap',
'Open CASCADE Model',(#938));
#940=PRODUCT('touch_tool_1','acoplador_celula_hotswap (1)',
'Open CASCADE Model',(#938));
#941=PRESENTATION_STYLE_ASSIGNMENT((#942));
#942=SURFACE_STYLE_USAGE(.BOTH.,#943);
#943=SURFACE_SIDE_STYLE('',(#944));
#944=SURFACE_STYLE_FILL_AREA(#945);
#945=FILL_AREA_STYLE('A\X\E7o - Acetinado',(#946));
#946=FILL_AREA_STYLE_COLOUR('A\X\E7o - Acetinado',#947);
#947=COLOUR_RGB('A\X\E7o - Acetinado',0.627450980392157,0.627450980392157,
0.627450980392157);
ENDSEC;
END-ISO-10303-21;
