ISO-10303-21;
HEADER;
/* Generated by software containing ST-Developer
 * from STEP Tools, Inc. (www.steptools.com) 
 */

FILE_DESCRIPTION(
/* description */ (''),
/* implementation_level */ '2;1');

FILE_NAME(
/* name */ 'case_base.step',
/* time_stamp */ '2026-08-24T16:12:20-03:00',
/* author */ (''),
/* organization */ (''),
/* preprocessor_version */ 'ST-DEVELOPER v20.1',
/* originating_system */ 'Autodesk Translation Framework v15.8.0.0',
/* authorisation */ '');

FILE_SCHEMA (('AUTOMOTIVE_DESIGN { 1 0 10303 214 3 1 1 }'));
ENDSEC;

DATA;
#10=MECHANICAL_DESIGN_GEOMETRIC_PRESENTATION_REPRESENTATION('',(#13),#2261);
#11=SHAPE_REPRESENTATION_RELATIONSHIP('SRR','None',#2268,#12);
#12=ADVANCED_BREP_SHAPE_REPRESENTATION('',(#14),#2260);
#13=STYLED_ITEM('',(#2278),#14);
#14=MANIFOLD_SOLID_BREP('Case_Base',#1433);
#15=FACE_BOUND('',#115,.T.);
#16=FACE_BOUND('',#116,.T.);
#17=FACE_BOUND('',#122,.T.);
#18=FACE_BOUND('',#130,.T.);
#19=FACE_BOUND('',#159,.T.);
#20=FACE_BOUND('',#166,.T.);
#21=FACE_BOUND('',#167,.T.);
#22=FACE_BOUND('',#170,.T.);
#23=FACE_OUTER_BOUND('',#93,.T.);
#24=FACE_OUTER_BOUND('',#94,.T.);
#25=FACE_OUTER_BOUND('',#95,.T.);
#26=FACE_OUTER_BOUND('',#96,.T.);
#27=FACE_OUTER_BOUND('',#97,.T.);
#28=FACE_OUTER_BOUND('',#98,.T.);
#29=FACE_OUTER_BOUND('',#99,.T.);
#30=FACE_OUTER_BOUND('',#100,.T.);
#31=FACE_OUTER_BOUND('',#101,.T.);
#32=FACE_OUTER_BOUND('',#102,.T.);
#33=FACE_OUTER_BOUND('',#103,.T.);
#34=FACE_OUTER_BOUND('',#104,.T.);
#35=FACE_OUTER_BOUND('',#105,.T.);
#36=FACE_OUTER_BOUND('',#106,.T.);
#37=FACE_OUTER_BOUND('',#107,.T.);
#38=FACE_OUTER_BOUND('',#108,.T.);
#39=FACE_OUTER_BOUND('',#109,.T.);
#40=FACE_OUTER_BOUND('',#110,.T.);
#41=FACE_OUTER_BOUND('',#111,.T.);
#42=FACE_OUTER_BOUND('',#112,.T.);
#43=FACE_OUTER_BOUND('',#113,.T.);
#44=FACE_OUTER_BOUND('',#114,.T.);
#45=FACE_OUTER_BOUND('',#117,.T.);
#46=FACE_OUTER_BOUND('',#118,.T.);
#47=FACE_OUTER_BOUND('',#119,.T.);
#48=FACE_OUTER_BOUND('',#120,.T.);
#49=FACE_OUTER_BOUND('',#121,.T.);
#50=FACE_OUTER_BOUND('',#123,.T.);
#51=FACE_OUTER_BOUND('',#124,.T.);
#52=FACE_OUTER_BOUND('',#125,.T.);
#53=FACE_OUTER_BOUND('',#126,.T.);
#54=FACE_OUTER_BOUND('',#127,.T.);
#55=FACE_OUTER_BOUND('',#128,.T.);
#56=FACE_OUTER_BOUND('',#129,.T.);
#57=FACE_OUTER_BOUND('',#131,.T.);
#58=FACE_OUTER_BOUND('',#132,.T.);
#59=FACE_OUTER_BOUND('',#133,.T.);
#60=FACE_OUTER_BOUND('',#134,.T.);
#61=FACE_OUTER_BOUND('',#135,.T.);
#62=FACE_OUTER_BOUND('',#136,.T.);
#63=FACE_OUTER_BOUND('',#137,.T.);
#64=FACE_OUTER_BOUND('',#138,.T.);
#65=FACE_OUTER_BOUND('',#139,.T.);
#66=FACE_OUTER_BOUND('',#140,.T.);
#67=FACE_OUTER_BOUND('',#141,.T.);
#68=FACE_OUTER_BOUND('',#142,.T.);
#69=FACE_OUTER_BOUND('',#143,.T.);
#70=FACE_OUTER_BOUND('',#144,.T.);
#71=FACE_OUTER_BOUND('',#145,.T.);
#72=FACE_OUTER_BOUND('',#146,.T.);
#73=FACE_OUTER_BOUND('',#147,.T.);
#74=FACE_OUTER_BOUND('',#148,.T.);
#75=FACE_OUTER_BOUND('',#149,.T.);
#76=FACE_OUTER_BOUND('',#150,.T.);
#77=FACE_OUTER_BOUND('',#151,.T.);
#78=FACE_OUTER_BOUND('',#152,.T.);
#79=FACE_OUTER_BOUND('',#153,.T.);
#80=FACE_OUTER_BOUND('',#154,.T.);
#81=FACE_OUTER_BOUND('',#155,.T.);
#82=FACE_OUTER_BOUND('',#156,.T.);
#83=FACE_OUTER_BOUND('',#157,.T.);
#84=FACE_OUTER_BOUND('',#158,.T.);
#85=FACE_OUTER_BOUND('',#160,.T.);
#86=FACE_OUTER_BOUND('',#161,.T.);
#87=FACE_OUTER_BOUND('',#162,.T.);
#88=FACE_OUTER_BOUND('',#163,.T.);
#89=FACE_OUTER_BOUND('',#164,.T.);
#90=FACE_OUTER_BOUND('',#165,.T.);
#91=FACE_OUTER_BOUND('',#168,.T.);
#92=FACE_OUTER_BOUND('',#169,.T.);
#93=EDGE_LOOP('',(#897,#898,#899,#900));
#94=EDGE_LOOP('',(#901,#902,#903,#904));
#95=EDGE_LOOP('',(#905,#906,#907,#908));
#96=EDGE_LOOP('',(#909,#910,#911,#912));
#97=EDGE_LOOP('',(#913,#914,#915,#916));
#98=EDGE_LOOP('',(#917,#918,#919,#920));
#99=EDGE_LOOP('',(#921,#922,#923,#924));
#100=EDGE_LOOP('',(#925,#926,#927,#928));
#101=EDGE_LOOP('',(#929,#930,#931,#932));
#102=EDGE_LOOP('',(#933,#934,#935,#936));
#103=EDGE_LOOP('',(#937,#938,#939,#940));
#104=EDGE_LOOP('',(#941,#942,#943,#944));
#105=EDGE_LOOP('',(#945,#946,#947,#948));
#106=EDGE_LOOP('',(#949,#950,#951,#952));
#107=EDGE_LOOP('',(#953,#954,#955,#956));
#108=EDGE_LOOP('',(#957,#958,#959,#960));
#109=EDGE_LOOP('',(#961,#962,#963,#964));
#110=EDGE_LOOP('',(#965,#966,#967,#968));
#111=EDGE_LOOP('',(#969,#970,#971,#972));
#112=EDGE_LOOP('',(#973,#974,#975,#976));
#113=EDGE_LOOP('',(#977,#978,#979,#980,#981,#982,#983,#984));
#114=EDGE_LOOP('',(#985,#986,#987,#988,#989,#990,#991,#992,#993,#994,#995,
#996,#997,#998,#999,#1000));
#115=EDGE_LOOP('',(#1001,#1002,#1003,#1004));
#116=EDGE_LOOP('',(#1005,#1006,#1007,#1008));
#117=EDGE_LOOP('',(#1009,#1010,#1011,#1012));
#118=EDGE_LOOP('',(#1013,#1014,#1015,#1016));
#119=EDGE_LOOP('',(#1017,#1018,#1019,#1020));
#120=EDGE_LOOP('',(#1021,#1022,#1023,#1024,#1025,#1026,#1027,#1028));
#121=EDGE_LOOP('',(#1029,#1030,#1031,#1032,#1033,#1034,#1035,#1036,#1037,
#1038,#1039,#1040));
#122=EDGE_LOOP('',(#1041,#1042,#1043,#1044,#1045,#1046,#1047,#1048,#1049,
#1050,#1051,#1052,#1053,#1054,#1055,#1056,#1057,#1058,#1059,#1060));
#123=EDGE_LOOP('',(#1061,#1062,#1063,#1064));
#124=EDGE_LOOP('',(#1065,#1066,#1067,#1068));
#125=EDGE_LOOP('',(#1069,#1070,#1071,#1072));
#126=EDGE_LOOP('',(#1073,#1074,#1075,#1076));
#127=EDGE_LOOP('',(#1077,#1078,#1079,#1080));
#128=EDGE_LOOP('',(#1081,#1082,#1083,#1084));
#129=EDGE_LOOP('',(#1085,#1086,#1087,#1088,#1089,#1090,#1091,#1092));
#130=EDGE_LOOP('',(#1093,#1094,#1095,#1096));
#131=EDGE_LOOP('',(#1097,#1098,#1099,#1100));
#132=EDGE_LOOP('',(#1101,#1102,#1103,#1104));
#133=EDGE_LOOP('',(#1105,#1106,#1107,#1108));
#134=EDGE_LOOP('',(#1109,#1110,#1111,#1112));
#135=EDGE_LOOP('',(#1113,#1114,#1115,#1116));
#136=EDGE_LOOP('',(#1117,#1118,#1119,#1120));
#137=EDGE_LOOP('',(#1121,#1122,#1123,#1124));
#138=EDGE_LOOP('',(#1125,#1126,#1127,#1128));
#139=EDGE_LOOP('',(#1129,#1130,#1131,#1132));
#140=EDGE_LOOP('',(#1133,#1134,#1135,#1136));
#141=EDGE_LOOP('',(#1137,#1138,#1139,#1140));
#142=EDGE_LOOP('',(#1141,#1142,#1143,#1144));
#143=EDGE_LOOP('',(#1145,#1146,#1147,#1148));
#144=EDGE_LOOP('',(#1149,#1150,#1151,#1152));
#145=EDGE_LOOP('',(#1153,#1154,#1155,#1156));
#146=EDGE_LOOP('',(#1157,#1158,#1159,#1160));
#147=EDGE_LOOP('',(#1161,#1162,#1163,#1164,#1165,#1166,#1167,#1168,#1169,
#1170,#1171,#1172,#1173,#1174,#1175,#1176,#1177,#1178,#1179,#1180));
#148=EDGE_LOOP('',(#1181,#1182,#1183,#1184));
#149=EDGE_LOOP('',(#1185,#1186,#1187,#1188));
#150=EDGE_LOOP('',(#1189,#1190,#1191,#1192));
#151=EDGE_LOOP('',(#1193,#1194,#1195,#1196));
#152=EDGE_LOOP('',(#1197,#1198,#1199,#1200,#1201,#1202));
#153=EDGE_LOOP('',(#1203,#1204,#1205,#1206,#1207,#1208));
#154=EDGE_LOOP('',(#1209,#1210,#1211,#1212));
#155=EDGE_LOOP('',(#1213,#1214,#1215,#1216,#1217,#1218,#1219,#1220,#1221,
#1222,#1223,#1224));
#156=EDGE_LOOP('',(#1225,#1226,#1227,#1228,#1229,#1230));
#157=EDGE_LOOP('',(#1231,#1232,#1233,#1234,#1235,#1236));
#158=EDGE_LOOP('',(#1237,#1238,#1239,#1240));
#159=EDGE_LOOP('',(#1241,#1242,#1243,#1244));
#160=EDGE_LOOP('',(#1245,#1246,#1247,#1248));
#161=EDGE_LOOP('',(#1249,#1250,#1251,#1252));
#162=EDGE_LOOP('',(#1253,#1254,#1255,#1256));
#163=EDGE_LOOP('',(#1257,#1258,#1259,#1260));
#164=EDGE_LOOP('',(#1261,#1262,#1263,#1264));
#165=EDGE_LOOP('',(#1265,#1266,#1267,#1268));
#166=EDGE_LOOP('',(#1269,#1270,#1271,#1272));
#167=EDGE_LOOP('',(#1273,#1274,#1275,#1276));
#168=EDGE_LOOP('',(#1277,#1278,#1279,#1280,#1281,#1282,#1283,#1284));
#169=EDGE_LOOP('',(#1285,#1286,#1287,#1288));
#170=EDGE_LOOP('',(#1289,#1290,#1291,#1292));
#171=LINE('',#1861,#369);
#172=LINE('',#1863,#370);
#173=LINE('',#1865,#371);
#174=LINE('',#1866,#372);
#175=LINE('',#1869,#373);
#176=LINE('',#1871,#374);
#177=LINE('',#1872,#375);
#178=LINE('',#1875,#376);
#179=LINE('',#1877,#377);
#180=LINE('',#1878,#378);
#181=LINE('',#1880,#379);
#182=LINE('',#1881,#380);
#183=LINE('',#1885,#381);
#184=LINE('',#1887,#382);
#185=LINE('',#1889,#383);
#186=LINE('',#1890,#384);
#187=LINE('',#1893,#385);
#188=LINE('',#1895,#386);
#189=LINE('',#1896,#387);
#190=LINE('',#1899,#388);
#191=LINE('',#1901,#389);
#192=LINE('',#1902,#390);
#193=LINE('',#1904,#391);
#194=LINE('',#1905,#392);
#195=LINE('',#1909,#393);
#196=LINE('',#1911,#394);
#197=LINE('',#1913,#395);
#198=LINE('',#1914,#396);
#199=LINE('',#1917,#397);
#200=LINE('',#1919,#398);
#201=LINE('',#1920,#399);
#202=LINE('',#1923,#400);
#203=LINE('',#1925,#401);
#204=LINE('',#1926,#402);
#205=LINE('',#1928,#403);
#206=LINE('',#1929,#404);
#207=LINE('',#1933,#405);
#208=LINE('',#1935,#406);
#209=LINE('',#1937,#407);
#210=LINE('',#1938,#408);
#211=LINE('',#1941,#409);
#212=LINE('',#1943,#410);
#213=LINE('',#1944,#411);
#214=LINE('',#1947,#412);
#215=LINE('',#1949,#413);
#216=LINE('',#1950,#414);
#217=LINE('',#1952,#415);
#218=LINE('',#1953,#416);
#219=LINE('',#1958,#417);
#220=LINE('',#1960,#418);
#221=LINE('',#1962,#419);
#222=LINE('',#1963,#420);
#223=LINE('',#1966,#421);
#224=LINE('',#1968,#422);
#225=LINE('',#1969,#423);
#226=LINE('',#1972,#424);
#227=LINE('',#1973,#425);
#228=LINE('',#1976,#426);
#229=LINE('',#1978,#427);
#230=LINE('',#1980,#428);
#231=LINE('',#1982,#429);
#232=LINE('',#1984,#430);
#233=LINE('',#1985,#431);
#234=LINE('',#1988,#432);
#235=LINE('',#1990,#433);
#236=LINE('',#1992,#434);
#237=LINE('',#1994,#435);
#238=LINE('',#1996,#436);
#239=LINE('',#1998,#437);
#240=LINE('',#2000,#438);
#241=LINE('',#2002,#439);
#242=LINE('',#2004,#440);
#243=LINE('',#2006,#441);
#244=LINE('',#2008,#442);
#245=LINE('',#2010,#443);
#246=LINE('',#2011,#444);
#247=LINE('',#2014,#445);
#248=LINE('',#2016,#446);
#249=LINE('',#2017,#447);
#250=LINE('',#2020,#448);
#251=LINE('',#2022,#449);
#252=LINE('',#2023,#450);
#253=LINE('',#2025,#451);
#254=LINE('',#2028,#452);
#255=LINE('',#2030,#453);
#256=LINE('',#2032,#454);
#257=LINE('',#2034,#455);
#258=LINE('',#2035,#456);
#259=LINE('',#2038,#457);
#260=LINE('',#2040,#458);
#261=LINE('',#2042,#459);
#262=LINE('',#2044,#460);
#263=LINE('',#2045,#461);
#264=LINE('',#2048,#462);
#265=LINE('',#2050,#463);
#266=LINE('',#2052,#464);
#267=LINE('',#2054,#465);
#268=LINE('',#2056,#466);
#269=LINE('',#2058,#467);
#270=LINE('',#2060,#468);
#271=LINE('',#2062,#469);
#272=LINE('',#2064,#470);
#273=LINE('',#2066,#471);
#274=LINE('',#2068,#472);
#275=LINE('',#2070,#473);
#276=LINE('',#2072,#474);
#277=LINE('',#2074,#475);
#278=LINE('',#2076,#476);
#279=LINE('',#2078,#477);
#280=LINE('',#2080,#478);
#281=LINE('',#2082,#479);
#282=LINE('',#2084,#480);
#283=LINE('',#2085,#481);
#284=LINE('',#2088,#482);
#285=LINE('',#2090,#483);
#286=LINE('',#2091,#484);
#287=LINE('',#2093,#485);
#288=LINE('',#2095,#486);
#289=LINE('',#2098,#487);
#290=LINE('',#2100,#488);
#291=LINE('',#2101,#489);
#292=LINE('',#2103,#490);
#293=LINE('',#2105,#491);
#294=LINE('',#2107,#492);
#295=LINE('',#2110,#493);
#296=LINE('',#2112,#494);
#297=LINE('',#2113,#495);
#298=LINE('',#2116,#496);
#299=LINE('',#2118,#497);
#300=LINE('',#2119,#498);
#301=LINE('',#2122,#499);
#302=LINE('',#2124,#500);
#303=LINE('',#2125,#501);
#304=LINE('',#2127,#502);
#305=LINE('',#2130,#503);
#306=LINE('',#2131,#504);
#307=LINE('',#2134,#505);
#308=LINE('',#2135,#506);
#309=LINE('',#2138,#507);
#310=LINE('',#2139,#508);
#311=LINE('',#2142,#509);
#312=LINE('',#2143,#510);
#313=LINE('',#2146,#511);
#314=LINE('',#2147,#512);
#315=LINE('',#2150,#513);
#316=LINE('',#2152,#514);
#317=LINE('',#2153,#515);
#318=LINE('',#2156,#516);
#319=LINE('',#2158,#517);
#320=LINE('',#2159,#518);
#321=LINE('',#2162,#519);
#322=LINE('',#2163,#520);
#323=LINE('',#2165,#521);
#324=LINE('',#2167,#522);
#325=LINE('',#2170,#523);
#326=LINE('',#2171,#524);
#327=LINE('',#2174,#525);
#328=LINE('',#2175,#526);
#329=LINE('',#2178,#527);
#330=LINE('',#2179,#528);
#331=LINE('',#2181,#529);
#332=LINE('',#2182,#530);
#333=LINE('',#2184,#531);
#334=LINE('',#2186,#532);
#335=LINE('',#2192,#533);
#336=LINE('',#2194,#534);
#337=LINE('',#2196,#535);
#338=LINE('',#2198,#536);
#339=LINE('',#2200,#537);
#340=LINE('',#2201,#538);
#341=LINE('',#2205,#539);
#342=LINE('',#2207,#540);
#343=LINE('',#2209,#541);
#344=LINE('',#2211,#542);
#345=LINE('',#2213,#543);
#346=LINE('',#2214,#544);
#347=LINE('',#2216,#545);
#348=LINE('',#2217,#546);
#349=LINE('',#2220,#547);
#350=LINE('',#2222,#548);
#351=LINE('',#2223,#549);
#352=LINE('',#2224,#550);
#353=LINE('',#2227,#551);
#354=LINE('',#2229,#552);
#355=LINE('',#2231,#553);
#356=LINE('',#2232,#554);
#357=LINE('',#2235,#555);
#358=LINE('',#2237,#556);
#359=LINE('',#2239,#557);
#360=LINE('',#2240,#558);
#361=LINE('',#2242,#559);
#362=LINE('',#2244,#560);
#363=LINE('',#2246,#561);
#364=LINE('',#2248,#562);
#365=LINE('',#2250,#563);
#366=LINE('',#2252,#564);
#367=LINE('',#2254,#565);
#368=LINE('',#2255,#566);
#369=VECTOR('',#1521,10.);
#370=VECTOR('',#1522,10.);
#371=VECTOR('',#1523,10.);
#372=VECTOR('',#1524,10.);
#373=VECTOR('',#1527,10.);
#374=VECTOR('',#1528,10.);
#375=VECTOR('',#1529,10.);
#376=VECTOR('',#1532,10.);
#377=VECTOR('',#1533,10.);
#378=VECTOR('',#1534,10.);
#379=VECTOR('',#1537,10.);
#380=VECTOR('',#1538,10.);
#381=VECTOR('',#1541,10.);
#382=VECTOR('',#1542,10.);
#383=VECTOR('',#1543,10.);
#384=VECTOR('',#1544,10.);
#385=VECTOR('',#1547,10.);
#386=VECTOR('',#1548,10.);
#387=VECTOR('',#1549,10.);
#388=VECTOR('',#1552,10.);
#389=VECTOR('',#1553,10.);
#390=VECTOR('',#1554,10.);
#391=VECTOR('',#1557,10.);
#392=VECTOR('',#1558,10.);
#393=VECTOR('',#1561,10.);
#394=VECTOR('',#1562,10.);
#395=VECTOR('',#1563,10.);
#396=VECTOR('',#1564,10.);
#397=VECTOR('',#1567,10.);
#398=VECTOR('',#1568,10.);
#399=VECTOR('',#1569,10.);
#400=VECTOR('',#1572,10.);
#401=VECTOR('',#1573,10.);
#402=VECTOR('',#1574,10.);
#403=VECTOR('',#1577,10.);
#404=VECTOR('',#1578,10.);
#405=VECTOR('',#1581,10.);
#406=VECTOR('',#1582,10.);
#407=VECTOR('',#1583,10.);
#408=VECTOR('',#1584,10.);
#409=VECTOR('',#1587,10.);
#410=VECTOR('',#1588,10.);
#411=VECTOR('',#1589,10.);
#412=VECTOR('',#1592,10.);
#413=VECTOR('',#1593,10.);
#414=VECTOR('',#1594,10.);
#415=VECTOR('',#1597,10.);
#416=VECTOR('',#1598,10.);
#417=VECTOR('',#1603,10.);
#418=VECTOR('',#1604,10.);
#419=VECTOR('',#1605,10.);
#420=VECTOR('',#1606,10.);
#421=VECTOR('',#1609,10.);
#422=VECTOR('',#1610,10.);
#423=VECTOR('',#1611,10.);
#424=VECTOR('',#1614,10.);
#425=VECTOR('',#1615,10.);
#426=VECTOR('',#1618,10.);
#427=VECTOR('',#1619,10.);
#428=VECTOR('',#1620,10.);
#429=VECTOR('',#1621,10.);
#430=VECTOR('',#1622,10.);
#431=VECTOR('',#1623,10.);
#432=VECTOR('',#1626,10.);
#433=VECTOR('',#1627,10.);
#434=VECTOR('',#1628,10.);
#435=VECTOR('',#1629,10.);
#436=VECTOR('',#1630,10.);
#437=VECTOR('',#1631,10.);
#438=VECTOR('',#1632,10.);
#439=VECTOR('',#1633,10.);
#440=VECTOR('',#1634,10.);
#441=VECTOR('',#1635,10.);
#442=VECTOR('',#1636,10.);
#443=VECTOR('',#1637,10.);
#444=VECTOR('',#1638,10.);
#445=VECTOR('',#1641,10.);
#446=VECTOR('',#1642,10.);
#447=VECTOR('',#1643,10.);
#448=VECTOR('',#1646,10.);
#449=VECTOR('',#1647,10.);
#450=VECTOR('',#1648,10.);
#451=VECTOR('',#1651,10.);
#452=VECTOR('',#1654,10.);
#453=VECTOR('',#1655,10.);
#454=VECTOR('',#1656,10.);
#455=VECTOR('',#1657,10.);
#456=VECTOR('',#1658,10.);
#457=VECTOR('',#1661,10.);
#458=VECTOR('',#1662,10.);
#459=VECTOR('',#1663,10.);
#460=VECTOR('',#1664,10.);
#461=VECTOR('',#1665,10.);
#462=VECTOR('',#1666,10.);
#463=VECTOR('',#1667,10.);
#464=VECTOR('',#1668,10.);
#465=VECTOR('',#1669,10.);
#466=VECTOR('',#1670,10.);
#467=VECTOR('',#1671,10.);
#468=VECTOR('',#1672,10.);
#469=VECTOR('',#1673,10.);
#470=VECTOR('',#1674,10.);
#471=VECTOR('',#1675,10.);
#472=VECTOR('',#1676,10.);
#473=VECTOR('',#1677,10.);
#474=VECTOR('',#1678,10.);
#475=VECTOR('',#1679,10.);
#476=VECTOR('',#1680,10.);
#477=VECTOR('',#1681,10.);
#478=VECTOR('',#1682,10.);
#479=VECTOR('',#1683,10.);
#480=VECTOR('',#1684,10.);
#481=VECTOR('',#1685,10.);
#482=VECTOR('',#1688,10.);
#483=VECTOR('',#1689,10.);
#484=VECTOR('',#1690,10.);
#485=VECTOR('',#1693,10.);
#486=VECTOR('',#1696,10.);
#487=VECTOR('',#1699,10.);
#488=VECTOR('',#1700,10.);
#489=VECTOR('',#1701,10.);
#490=VECTOR('',#1704,10.);
#491=VECTOR('',#1707,10.);
#492=VECTOR('',#1710,10.);
#493=VECTOR('',#1713,10.);
#494=VECTOR('',#1714,10.);
#495=VECTOR('',#1715,10.);
#496=VECTOR('',#1718,10.);
#497=VECTOR('',#1719,10.);
#498=VECTOR('',#1720,10.);
#499=VECTOR('',#1723,10.);
#500=VECTOR('',#1724,10.);
#501=VECTOR('',#1725,10.);
#502=VECTOR('',#1728,10.);
#503=VECTOR('',#1731,10.);
#504=VECTOR('',#1732,10.);
#505=VECTOR('',#1735,10.);
#506=VECTOR('',#1736,10.);
#507=VECTOR('',#1739,10.);
#508=VECTOR('',#1740,10.);
#509=VECTOR('',#1743,10.);
#510=VECTOR('',#1744,10.);
#511=VECTOR('',#1747,10.);
#512=VECTOR('',#1748,10.);
#513=VECTOR('',#1751,10.);
#514=VECTOR('',#1752,10.);
#515=VECTOR('',#1753,10.);
#516=VECTOR('',#1756,10.);
#517=VECTOR('',#1757,10.);
#518=VECTOR('',#1758,10.);
#519=VECTOR('',#1761,10.);
#520=VECTOR('',#1762,10.);
#521=VECTOR('',#1765,10.);
#522=VECTOR('',#1768,10.);
#523=VECTOR('',#1771,10.);
#524=VECTOR('',#1772,10.);
#525=VECTOR('',#1775,10.);
#526=VECTOR('',#1776,10.);
#527=VECTOR('',#1779,10.);
#528=VECTOR('',#1780,10.);
#529=VECTOR('',#1781,10.);
#530=VECTOR('',#1782,10.);
#531=VECTOR('',#1785,10.);
#532=VECTOR('',#1788,10.);
#533=VECTOR('',#1795,10.);
#534=VECTOR('',#1796,10.);
#535=VECTOR('',#1797,10.);
#536=VECTOR('',#1798,10.);
#537=VECTOR('',#1799,10.);
#538=VECTOR('',#1800,10.);
#539=VECTOR('',#1803,10.);
#540=VECTOR('',#1804,10.);
#541=VECTOR('',#1805,10.);
#542=VECTOR('',#1806,10.);
#543=VECTOR('',#1807,10.);
#544=VECTOR('',#1808,10.);
#545=VECTOR('',#1811,10.);
#546=VECTOR('',#1812,10.);
#547=VECTOR('',#1815,10.);
#548=VECTOR('',#1816,10.);
#549=VECTOR('',#1817,10.);
#550=VECTOR('',#1818,10.);
#551=VECTOR('',#1821,10.);
#552=VECTOR('',#1822,10.);
#553=VECTOR('',#1823,10.);
#554=VECTOR('',#1824,10.);
#555=VECTOR('',#1827,10.);
#556=VECTOR('',#1828,10.);
#557=VECTOR('',#1829,10.);
#558=VECTOR('',#1830,10.);
#559=VECTOR('',#1833,10.);
#560=VECTOR('',#1836,10.);
#561=VECTOR('',#1839,10.);
#562=VECTOR('',#1842,10.);
#563=VECTOR('',#1845,10.);
#564=VECTOR('',#1848,10.);
#565=VECTOR('',#1851,10.);
#566=VECTOR('',#1852,10.);
#567=VERTEX_POINT('',#1859);
#568=VERTEX_POINT('',#1860);
#569=VERTEX_POINT('',#1862);
#570=VERTEX_POINT('',#1864);
#571=VERTEX_POINT('',#1868);
#572=VERTEX_POINT('',#1870);
#573=VERTEX_POINT('',#1874);
#574=VERTEX_POINT('',#1876);
#575=VERTEX_POINT('',#1883);
#576=VERTEX_POINT('',#1884);
#577=VERTEX_POINT('',#1886);
#578=VERTEX_POINT('',#1888);
#579=VERTEX_POINT('',#1892);
#580=VERTEX_POINT('',#1894);
#581=VERTEX_POINT('',#1898);
#582=VERTEX_POINT('',#1900);
#583=VERTEX_POINT('',#1907);
#584=VERTEX_POINT('',#1908);
#585=VERTEX_POINT('',#1910);
#586=VERTEX_POINT('',#1912);
#587=VERTEX_POINT('',#1916);
#588=VERTEX_POINT('',#1918);
#589=VERTEX_POINT('',#1922);
#590=VERTEX_POINT('',#1924);
#591=VERTEX_POINT('',#1931);
#592=VERTEX_POINT('',#1932);
#593=VERTEX_POINT('',#1934);
#594=VERTEX_POINT('',#1936);
#595=VERTEX_POINT('',#1940);
#596=VERTEX_POINT('',#1942);
#597=VERTEX_POINT('',#1946);
#598=VERTEX_POINT('',#1948);
#599=VERTEX_POINT('',#1956);
#600=VERTEX_POINT('',#1957);
#601=VERTEX_POINT('',#1959);
#602=VERTEX_POINT('',#1961);
#603=VERTEX_POINT('',#1965);
#604=VERTEX_POINT('',#1967);
#605=VERTEX_POINT('',#1971);
#606=VERTEX_POINT('',#1975);
#607=VERTEX_POINT('',#1977);
#608=VERTEX_POINT('',#1979);
#609=VERTEX_POINT('',#1981);
#610=VERTEX_POINT('',#1983);
#611=VERTEX_POINT('',#1987);
#612=VERTEX_POINT('',#1989);
#613=VERTEX_POINT('',#1991);
#614=VERTEX_POINT('',#1993);
#615=VERTEX_POINT('',#1995);
#616=VERTEX_POINT('',#1997);
#617=VERTEX_POINT('',#1999);
#618=VERTEX_POINT('',#2001);
#619=VERTEX_POINT('',#2003);
#620=VERTEX_POINT('',#2005);
#621=VERTEX_POINT('',#2007);
#622=VERTEX_POINT('',#2009);
#623=VERTEX_POINT('',#2013);
#624=VERTEX_POINT('',#2015);
#625=VERTEX_POINT('',#2019);
#626=VERTEX_POINT('',#2021);
#627=VERTEX_POINT('',#2027);
#628=VERTEX_POINT('',#2029);
#629=VERTEX_POINT('',#2031);
#630=VERTEX_POINT('',#2033);
#631=VERTEX_POINT('',#2037);
#632=VERTEX_POINT('',#2039);
#633=VERTEX_POINT('',#2041);
#634=VERTEX_POINT('',#2043);
#635=VERTEX_POINT('',#2046);
#636=VERTEX_POINT('',#2047);
#637=VERTEX_POINT('',#2049);
#638=VERTEX_POINT('',#2051);
#639=VERTEX_POINT('',#2053);
#640=VERTEX_POINT('',#2055);
#641=VERTEX_POINT('',#2057);
#642=VERTEX_POINT('',#2059);
#643=VERTEX_POINT('',#2061);
#644=VERTEX_POINT('',#2063);
#645=VERTEX_POINT('',#2065);
#646=VERTEX_POINT('',#2067);
#647=VERTEX_POINT('',#2069);
#648=VERTEX_POINT('',#2071);
#649=VERTEX_POINT('',#2073);
#650=VERTEX_POINT('',#2075);
#651=VERTEX_POINT('',#2077);
#652=VERTEX_POINT('',#2079);
#653=VERTEX_POINT('',#2081);
#654=VERTEX_POINT('',#2083);
#655=VERTEX_POINT('',#2087);
#656=VERTEX_POINT('',#2089);
#657=VERTEX_POINT('',#2097);
#658=VERTEX_POINT('',#2099);
#659=VERTEX_POINT('',#2109);
#660=VERTEX_POINT('',#2111);
#661=VERTEX_POINT('',#2115);
#662=VERTEX_POINT('',#2117);
#663=VERTEX_POINT('',#2121);
#664=VERTEX_POINT('',#2123);
#665=VERTEX_POINT('',#2129);
#666=VERTEX_POINT('',#2133);
#667=VERTEX_POINT('',#2137);
#668=VERTEX_POINT('',#2141);
#669=VERTEX_POINT('',#2145);
#670=VERTEX_POINT('',#2149);
#671=VERTEX_POINT('',#2151);
#672=VERTEX_POINT('',#2155);
#673=VERTEX_POINT('',#2157);
#674=VERTEX_POINT('',#2161);
#675=VERTEX_POINT('',#2169);
#676=VERTEX_POINT('',#2173);
#677=VERTEX_POINT('',#2177);
#678=VERTEX_POINT('',#2180);
#679=VERTEX_POINT('',#2190);
#680=VERTEX_POINT('',#2191);
#681=VERTEX_POINT('',#2193);
#682=VERTEX_POINT('',#2195);
#683=VERTEX_POINT('',#2197);
#684=VERTEX_POINT('',#2199);
#685=VERTEX_POINT('',#2203);
#686=VERTEX_POINT('',#2204);
#687=VERTEX_POINT('',#2206);
#688=VERTEX_POINT('',#2208);
#689=VERTEX_POINT('',#2210);
#690=VERTEX_POINT('',#2212);
#691=VERTEX_POINT('',#2219);
#692=VERTEX_POINT('',#2221);
#693=VERTEX_POINT('',#2226);
#694=VERTEX_POINT('',#2228);
#695=VERTEX_POINT('',#2230);
#696=VERTEX_POINT('',#2234);
#697=VERTEX_POINT('',#2236);
#698=VERTEX_POINT('',#2238);
#699=EDGE_CURVE('',#567,#568,#171,.T.);
#700=EDGE_CURVE('',#567,#569,#172,.T.);
#701=EDGE_CURVE('',#570,#569,#173,.T.);
#702=EDGE_CURVE('',#568,#570,#174,.T.);
#703=EDGE_CURVE('',#568,#571,#175,.T.);
#704=EDGE_CURVE('',#572,#570,#176,.T.);
#705=EDGE_CURVE('',#571,#572,#177,.T.);
#706=EDGE_CURVE('',#571,#573,#178,.T.);
#707=EDGE_CURVE('',#574,#572,#179,.T.);
#708=EDGE_CURVE('',#573,#574,#180,.T.);
#709=EDGE_CURVE('',#573,#567,#181,.T.);
#710=EDGE_CURVE('',#569,#574,#182,.T.);
#711=EDGE_CURVE('',#575,#576,#183,.T.);
#712=EDGE_CURVE('',#575,#577,#184,.T.);
#713=EDGE_CURVE('',#578,#577,#185,.T.);
#714=EDGE_CURVE('',#576,#578,#186,.T.);
#715=EDGE_CURVE('',#576,#579,#187,.T.);
#716=EDGE_CURVE('',#580,#578,#188,.T.);
#717=EDGE_CURVE('',#579,#580,#189,.T.);
#718=EDGE_CURVE('',#579,#581,#190,.T.);
#719=EDGE_CURVE('',#582,#580,#191,.T.);
#720=EDGE_CURVE('',#581,#582,#192,.T.);
#721=EDGE_CURVE('',#581,#575,#193,.T.);
#722=EDGE_CURVE('',#577,#582,#194,.T.);
#723=EDGE_CURVE('',#583,#584,#195,.T.);
#724=EDGE_CURVE('',#585,#583,#196,.T.);
#725=EDGE_CURVE('',#586,#585,#197,.T.);
#726=EDGE_CURVE('',#586,#584,#198,.T.);
#727=EDGE_CURVE('',#584,#587,#199,.T.);
#728=EDGE_CURVE('',#588,#586,#200,.T.);
#729=EDGE_CURVE('',#588,#587,#201,.T.);
#730=EDGE_CURVE('',#587,#589,#202,.T.);
#731=EDGE_CURVE('',#590,#588,#203,.T.);
#732=EDGE_CURVE('',#590,#589,#204,.T.);
#733=EDGE_CURVE('',#589,#583,#205,.T.);
#734=EDGE_CURVE('',#585,#590,#206,.T.);
#735=EDGE_CURVE('',#591,#592,#207,.T.);
#736=EDGE_CURVE('',#591,#593,#208,.T.);
#737=EDGE_CURVE('',#593,#594,#209,.T.);
#738=EDGE_CURVE('',#592,#594,#210,.T.);
#739=EDGE_CURVE('',#595,#591,#211,.T.);
#740=EDGE_CURVE('',#595,#596,#212,.T.);
#741=EDGE_CURVE('',#596,#593,#213,.T.);
#742=EDGE_CURVE('',#597,#595,#214,.T.);
#743=EDGE_CURVE('',#597,#598,#215,.T.);
#744=EDGE_CURVE('',#598,#596,#216,.T.);
#745=EDGE_CURVE('',#592,#597,#217,.T.);
#746=EDGE_CURVE('',#594,#598,#218,.T.);
#747=EDGE_CURVE('',#599,#600,#219,.T.);
#748=EDGE_CURVE('',#601,#599,#220,.T.);
#749=EDGE_CURVE('',#601,#602,#221,.T.);
#750=EDGE_CURVE('',#600,#602,#222,.T.);
#751=EDGE_CURVE('',#603,#601,#223,.T.);
#752=EDGE_CURVE('',#604,#603,#224,.T.);
#753=EDGE_CURVE('',#602,#604,#225,.T.);
#754=EDGE_CURVE('',#600,#605,#226,.T.);
#755=EDGE_CURVE('',#605,#604,#227,.T.);
#756=EDGE_CURVE('',#605,#606,#228,.T.);
#757=EDGE_CURVE('',#606,#607,#229,.T.);
#758=EDGE_CURVE('',#608,#607,#230,.T.);
#759=EDGE_CURVE('',#608,#609,#231,.T.);
#760=EDGE_CURVE('',#609,#610,#232,.T.);
#761=EDGE_CURVE('',#599,#610,#233,.T.);
#762=EDGE_CURVE('',#611,#603,#234,.T.);
#763=EDGE_CURVE('',#611,#612,#235,.T.);
#764=EDGE_CURVE('',#612,#613,#236,.T.);
#765=EDGE_CURVE('',#613,#614,#237,.T.);
#766=EDGE_CURVE('',#615,#614,#238,.T.);
#767=EDGE_CURVE('',#615,#616,#239,.T.);
#768=EDGE_CURVE('',#616,#617,#240,.T.);
#769=EDGE_CURVE('',#617,#618,#241,.T.);
#770=EDGE_CURVE('',#619,#618,#242,.T.);
#771=EDGE_CURVE('',#620,#619,#243,.T.);
#772=EDGE_CURVE('',#620,#621,#244,.T.);
#773=EDGE_CURVE('',#622,#621,#245,.T.);
#774=EDGE_CURVE('',#606,#622,#246,.T.);
#775=EDGE_CURVE('',#623,#611,#247,.T.);
#776=EDGE_CURVE('',#623,#624,#248,.T.);
#777=EDGE_CURVE('',#612,#624,#249,.T.);
#778=EDGE_CURVE('',#625,#623,#250,.T.);
#779=EDGE_CURVE('',#626,#625,#251,.T.);
#780=EDGE_CURVE('',#624,#626,#252,.T.);
#781=EDGE_CURVE('',#613,#626,#253,.T.);
#782=EDGE_CURVE('',#627,#625,#254,.T.);
#783=EDGE_CURVE('',#627,#628,#255,.T.);
#784=EDGE_CURVE('',#628,#629,#256,.T.);
#785=EDGE_CURVE('',#629,#630,#257,.T.);
#786=EDGE_CURVE('',#630,#614,#258,.T.);
#787=EDGE_CURVE('',#610,#631,#259,.T.);
#788=EDGE_CURVE('',#631,#632,#260,.T.);
#789=EDGE_CURVE('',#632,#633,#261,.T.);
#790=EDGE_CURVE('',#633,#634,#262,.T.);
#791=EDGE_CURVE('',#634,#627,#263,.T.);
#792=EDGE_CURVE('',#635,#636,#264,.T.);
#793=EDGE_CURVE('',#636,#637,#265,.T.);
#794=EDGE_CURVE('',#637,#638,#266,.T.);
#795=EDGE_CURVE('',#638,#639,#267,.T.);
#796=EDGE_CURVE('',#639,#640,#268,.T.);
#797=EDGE_CURVE('',#640,#641,#269,.T.);
#798=EDGE_CURVE('',#641,#642,#270,.T.);
#799=EDGE_CURVE('',#642,#643,#271,.T.);
#800=EDGE_CURVE('',#643,#644,#272,.T.);
#801=EDGE_CURVE('',#644,#645,#273,.T.);
#802=EDGE_CURVE('',#645,#646,#274,.T.);
#803=EDGE_CURVE('',#646,#647,#275,.T.);
#804=EDGE_CURVE('',#647,#648,#276,.T.);
#805=EDGE_CURVE('',#648,#649,#277,.T.);
#806=EDGE_CURVE('',#649,#650,#278,.T.);
#807=EDGE_CURVE('',#650,#651,#279,.T.);
#808=EDGE_CURVE('',#651,#652,#280,.T.);
#809=EDGE_CURVE('',#652,#653,#281,.T.);
#810=EDGE_CURVE('',#653,#654,#282,.T.);
#811=EDGE_CURVE('',#654,#635,#283,.T.);
#812=EDGE_CURVE('',#655,#608,#284,.T.);
#813=EDGE_CURVE('',#655,#656,#285,.T.);
#814=EDGE_CURVE('',#656,#609,#286,.T.);
#815=EDGE_CURVE('',#631,#656,#287,.T.);
#816=EDGE_CURVE('',#632,#655,#288,.T.);
#817=EDGE_CURVE('',#657,#633,#289,.T.);
#818=EDGE_CURVE('',#658,#657,#290,.T.);
#819=EDGE_CURVE('',#634,#658,#291,.T.);
#820=EDGE_CURVE('',#628,#658,#292,.T.);
#821=EDGE_CURVE('',#629,#657,#293,.T.);
#822=EDGE_CURVE('',#607,#630,#294,.T.);
#823=EDGE_CURVE('',#652,#659,#295,.T.);
#824=EDGE_CURVE('',#651,#660,#296,.T.);
#825=EDGE_CURVE('',#659,#660,#297,.T.);
#826=EDGE_CURVE('',#661,#635,#298,.T.);
#827=EDGE_CURVE('',#662,#661,#299,.T.);
#828=EDGE_CURVE('',#636,#662,#300,.T.);
#829=EDGE_CURVE('',#663,#649,#301,.T.);
#830=EDGE_CURVE('',#664,#663,#302,.T.);
#831=EDGE_CURVE('',#650,#664,#303,.T.);
#832=EDGE_CURVE('',#660,#664,#304,.T.);
#833=EDGE_CURVE('',#665,#662,#305,.T.);
#834=EDGE_CURVE('',#637,#665,#306,.T.);
#835=EDGE_CURVE('',#638,#666,#307,.T.);
#836=EDGE_CURVE('',#666,#665,#308,.T.);
#837=EDGE_CURVE('',#667,#666,#309,.T.);
#838=EDGE_CURVE('',#667,#639,#310,.T.);
#839=EDGE_CURVE('',#648,#668,#311,.T.);
#840=EDGE_CURVE('',#663,#668,#312,.T.);
#841=EDGE_CURVE('',#669,#667,#313,.T.);
#842=EDGE_CURVE('',#640,#669,#314,.T.);
#843=EDGE_CURVE('',#642,#670,#315,.T.);
#844=EDGE_CURVE('',#641,#671,#316,.T.);
#845=EDGE_CURVE('',#670,#671,#317,.T.);
#846=EDGE_CURVE('',#672,#645,#318,.T.);
#847=EDGE_CURVE('',#673,#672,#319,.T.);
#848=EDGE_CURVE('',#646,#673,#320,.T.);
#849=EDGE_CURVE('',#674,#673,#321,.T.);
#850=EDGE_CURVE('',#647,#674,#322,.T.);
#851=EDGE_CURVE('',#668,#674,#323,.T.);
#852=EDGE_CURVE('',#671,#669,#324,.T.);
#853=EDGE_CURVE('',#644,#675,#325,.T.);
#854=EDGE_CURVE('',#672,#675,#326,.T.);
#855=EDGE_CURVE('',#676,#659,#327,.T.);
#856=EDGE_CURVE('',#653,#676,#328,.T.);
#857=EDGE_CURVE('',#661,#677,#329,.T.);
#858=EDGE_CURVE('',#677,#676,#330,.T.);
#859=EDGE_CURVE('',#675,#678,#331,.T.);
#860=EDGE_CURVE('',#678,#670,#332,.T.);
#861=EDGE_CURVE('',#643,#678,#333,.T.);
#862=EDGE_CURVE('',#654,#677,#334,.T.);
#863=EDGE_CURVE('',#679,#680,#335,.T.);
#864=EDGE_CURVE('',#681,#679,#336,.T.);
#865=EDGE_CURVE('',#682,#681,#337,.T.);
#866=EDGE_CURVE('',#683,#682,#338,.T.);
#867=EDGE_CURVE('',#684,#683,#339,.T.);
#868=EDGE_CURVE('',#680,#684,#340,.T.);
#869=EDGE_CURVE('',#685,#686,#341,.T.);
#870=EDGE_CURVE('',#687,#685,#342,.T.);
#871=EDGE_CURVE('',#687,#688,#343,.T.);
#872=EDGE_CURVE('',#689,#688,#344,.T.);
#873=EDGE_CURVE('',#690,#689,#345,.T.);
#874=EDGE_CURVE('',#686,#690,#346,.T.);
#875=EDGE_CURVE('',#622,#686,#347,.T.);
#876=EDGE_CURVE('',#621,#685,#348,.T.);
#877=EDGE_CURVE('',#691,#690,#349,.T.);
#878=EDGE_CURVE('',#692,#691,#350,.T.);
#879=EDGE_CURVE('',#684,#692,#351,.T.);
#880=EDGE_CURVE('',#683,#615,#352,.T.);
#881=EDGE_CURVE('',#693,#689,#353,.T.);
#882=EDGE_CURVE('',#694,#693,#354,.T.);
#883=EDGE_CURVE('',#694,#695,#355,.T.);
#884=EDGE_CURVE('',#695,#691,#356,.T.);
#885=EDGE_CURVE('',#696,#692,#357,.T.);
#886=EDGE_CURVE('',#696,#697,#358,.T.);
#887=EDGE_CURVE('',#697,#698,#359,.T.);
#888=EDGE_CURVE('',#680,#698,#360,.T.);
#889=EDGE_CURVE('',#695,#696,#361,.T.);
#890=EDGE_CURVE('',#687,#620,#362,.T.);
#891=EDGE_CURVE('',#682,#616,#363,.T.);
#892=EDGE_CURVE('',#617,#681,#364,.T.);
#893=EDGE_CURVE('',#618,#679,#365,.T.);
#894=EDGE_CURVE('',#688,#619,#366,.T.);
#895=EDGE_CURVE('',#697,#694,#367,.T.);
#896=EDGE_CURVE('',#698,#693,#368,.T.);
#897=ORIENTED_EDGE('',*,*,#699,.F.);
#898=ORIENTED_EDGE('',*,*,#700,.T.);
#899=ORIENTED_EDGE('',*,*,#701,.F.);
#900=ORIENTED_EDGE('',*,*,#702,.F.);
#901=ORIENTED_EDGE('',*,*,#703,.F.);
#902=ORIENTED_EDGE('',*,*,#702,.T.);
#903=ORIENTED_EDGE('',*,*,#704,.F.);
#904=ORIENTED_EDGE('',*,*,#705,.F.);
#905=ORIENTED_EDGE('',*,*,#706,.F.);
#906=ORIENTED_EDGE('',*,*,#705,.T.);
#907=ORIENTED_EDGE('',*,*,#707,.F.);
#908=ORIENTED_EDGE('',*,*,#708,.F.);
#909=ORIENTED_EDGE('',*,*,#709,.F.);
#910=ORIENTED_EDGE('',*,*,#708,.T.);
#911=ORIENTED_EDGE('',*,*,#710,.F.);
#912=ORIENTED_EDGE('',*,*,#700,.F.);
#913=ORIENTED_EDGE('',*,*,#711,.F.);
#914=ORIENTED_EDGE('',*,*,#712,.T.);
#915=ORIENTED_EDGE('',*,*,#713,.F.);
#916=ORIENTED_EDGE('',*,*,#714,.F.);
#917=ORIENTED_EDGE('',*,*,#715,.F.);
#918=ORIENTED_EDGE('',*,*,#714,.T.);
#919=ORIENTED_EDGE('',*,*,#716,.F.);
#920=ORIENTED_EDGE('',*,*,#717,.F.);
#921=ORIENTED_EDGE('',*,*,#718,.F.);
#922=ORIENTED_EDGE('',*,*,#717,.T.);
#923=ORIENTED_EDGE('',*,*,#719,.F.);
#924=ORIENTED_EDGE('',*,*,#720,.F.);
#925=ORIENTED_EDGE('',*,*,#721,.F.);
#926=ORIENTED_EDGE('',*,*,#720,.T.);
#927=ORIENTED_EDGE('',*,*,#722,.F.);
#928=ORIENTED_EDGE('',*,*,#712,.F.);
#929=ORIENTED_EDGE('',*,*,#723,.F.);
#930=ORIENTED_EDGE('',*,*,#724,.F.);
#931=ORIENTED_EDGE('',*,*,#725,.F.);
#932=ORIENTED_EDGE('',*,*,#726,.T.);
#933=ORIENTED_EDGE('',*,*,#727,.F.);
#934=ORIENTED_EDGE('',*,*,#726,.F.);
#935=ORIENTED_EDGE('',*,*,#728,.F.);
#936=ORIENTED_EDGE('',*,*,#729,.T.);
#937=ORIENTED_EDGE('',*,*,#730,.F.);
#938=ORIENTED_EDGE('',*,*,#729,.F.);
#939=ORIENTED_EDGE('',*,*,#731,.F.);
#940=ORIENTED_EDGE('',*,*,#732,.T.);
#941=ORIENTED_EDGE('',*,*,#733,.F.);
#942=ORIENTED_EDGE('',*,*,#732,.F.);
#943=ORIENTED_EDGE('',*,*,#734,.F.);
#944=ORIENTED_EDGE('',*,*,#724,.T.);
#945=ORIENTED_EDGE('',*,*,#735,.F.);
#946=ORIENTED_EDGE('',*,*,#736,.T.);
#947=ORIENTED_EDGE('',*,*,#737,.T.);
#948=ORIENTED_EDGE('',*,*,#738,.F.);
#949=ORIENTED_EDGE('',*,*,#739,.F.);
#950=ORIENTED_EDGE('',*,*,#740,.T.);
#951=ORIENTED_EDGE('',*,*,#741,.T.);
#952=ORIENTED_EDGE('',*,*,#736,.F.);
#953=ORIENTED_EDGE('',*,*,#742,.F.);
#954=ORIENTED_EDGE('',*,*,#743,.T.);
#955=ORIENTED_EDGE('',*,*,#744,.T.);
#956=ORIENTED_EDGE('',*,*,#740,.F.);
#957=ORIENTED_EDGE('',*,*,#745,.F.);
#958=ORIENTED_EDGE('',*,*,#738,.T.);
#959=ORIENTED_EDGE('',*,*,#746,.T.);
#960=ORIENTED_EDGE('',*,*,#743,.F.);
#961=ORIENTED_EDGE('',*,*,#746,.F.);
#962=ORIENTED_EDGE('',*,*,#737,.F.);
#963=ORIENTED_EDGE('',*,*,#741,.F.);
#964=ORIENTED_EDGE('',*,*,#744,.F.);
#965=ORIENTED_EDGE('',*,*,#747,.F.);
#966=ORIENTED_EDGE('',*,*,#748,.F.);
#967=ORIENTED_EDGE('',*,*,#749,.T.);
#968=ORIENTED_EDGE('',*,*,#750,.F.);
#969=ORIENTED_EDGE('',*,*,#751,.F.);
#970=ORIENTED_EDGE('',*,*,#752,.F.);
#971=ORIENTED_EDGE('',*,*,#753,.F.);
#972=ORIENTED_EDGE('',*,*,#749,.F.);
#973=ORIENTED_EDGE('',*,*,#754,.F.);
#974=ORIENTED_EDGE('',*,*,#750,.T.);
#975=ORIENTED_EDGE('',*,*,#753,.T.);
#976=ORIENTED_EDGE('',*,*,#755,.F.);
#977=ORIENTED_EDGE('',*,*,#747,.T.);
#978=ORIENTED_EDGE('',*,*,#754,.T.);
#979=ORIENTED_EDGE('',*,*,#756,.T.);
#980=ORIENTED_EDGE('',*,*,#757,.T.);
#981=ORIENTED_EDGE('',*,*,#758,.F.);
#982=ORIENTED_EDGE('',*,*,#759,.T.);
#983=ORIENTED_EDGE('',*,*,#760,.T.);
#984=ORIENTED_EDGE('',*,*,#761,.F.);
#985=ORIENTED_EDGE('',*,*,#755,.T.);
#986=ORIENTED_EDGE('',*,*,#752,.T.);
#987=ORIENTED_EDGE('',*,*,#762,.F.);
#988=ORIENTED_EDGE('',*,*,#763,.T.);
#989=ORIENTED_EDGE('',*,*,#764,.T.);
#990=ORIENTED_EDGE('',*,*,#765,.T.);
#991=ORIENTED_EDGE('',*,*,#766,.F.);
#992=ORIENTED_EDGE('',*,*,#767,.T.);
#993=ORIENTED_EDGE('',*,*,#768,.T.);
#994=ORIENTED_EDGE('',*,*,#769,.T.);
#995=ORIENTED_EDGE('',*,*,#770,.F.);
#996=ORIENTED_EDGE('',*,*,#771,.F.);
#997=ORIENTED_EDGE('',*,*,#772,.T.);
#998=ORIENTED_EDGE('',*,*,#773,.F.);
#999=ORIENTED_EDGE('',*,*,#774,.F.);
#1000=ORIENTED_EDGE('',*,*,#756,.F.);
#1001=ORIENTED_EDGE('',*,*,#706,.T.);
#1002=ORIENTED_EDGE('',*,*,#709,.T.);
#1003=ORIENTED_EDGE('',*,*,#699,.T.);
#1004=ORIENTED_EDGE('',*,*,#703,.T.);
#1005=ORIENTED_EDGE('',*,*,#718,.T.);
#1006=ORIENTED_EDGE('',*,*,#721,.T.);
#1007=ORIENTED_EDGE('',*,*,#711,.T.);
#1008=ORIENTED_EDGE('',*,*,#715,.T.);
#1009=ORIENTED_EDGE('',*,*,#775,.F.);
#1010=ORIENTED_EDGE('',*,*,#776,.T.);
#1011=ORIENTED_EDGE('',*,*,#777,.F.);
#1012=ORIENTED_EDGE('',*,*,#763,.F.);
#1013=ORIENTED_EDGE('',*,*,#778,.F.);
#1014=ORIENTED_EDGE('',*,*,#779,.F.);
#1015=ORIENTED_EDGE('',*,*,#780,.F.);
#1016=ORIENTED_EDGE('',*,*,#776,.F.);
#1017=ORIENTED_EDGE('',*,*,#780,.T.);
#1018=ORIENTED_EDGE('',*,*,#781,.F.);
#1019=ORIENTED_EDGE('',*,*,#764,.F.);
#1020=ORIENTED_EDGE('',*,*,#777,.T.);
#1021=ORIENTED_EDGE('',*,*,#781,.T.);
#1022=ORIENTED_EDGE('',*,*,#779,.T.);
#1023=ORIENTED_EDGE('',*,*,#782,.F.);
#1024=ORIENTED_EDGE('',*,*,#783,.T.);
#1025=ORIENTED_EDGE('',*,*,#784,.T.);
#1026=ORIENTED_EDGE('',*,*,#785,.T.);
#1027=ORIENTED_EDGE('',*,*,#786,.T.);
#1028=ORIENTED_EDGE('',*,*,#765,.F.);
#1029=ORIENTED_EDGE('',*,*,#748,.T.);
#1030=ORIENTED_EDGE('',*,*,#761,.T.);
#1031=ORIENTED_EDGE('',*,*,#787,.T.);
#1032=ORIENTED_EDGE('',*,*,#788,.T.);
#1033=ORIENTED_EDGE('',*,*,#789,.T.);
#1034=ORIENTED_EDGE('',*,*,#790,.T.);
#1035=ORIENTED_EDGE('',*,*,#791,.T.);
#1036=ORIENTED_EDGE('',*,*,#782,.T.);
#1037=ORIENTED_EDGE('',*,*,#778,.T.);
#1038=ORIENTED_EDGE('',*,*,#775,.T.);
#1039=ORIENTED_EDGE('',*,*,#762,.T.);
#1040=ORIENTED_EDGE('',*,*,#751,.T.);
#1041=ORIENTED_EDGE('',*,*,#792,.T.);
#1042=ORIENTED_EDGE('',*,*,#793,.T.);
#1043=ORIENTED_EDGE('',*,*,#794,.T.);
#1044=ORIENTED_EDGE('',*,*,#795,.T.);
#1045=ORIENTED_EDGE('',*,*,#796,.T.);
#1046=ORIENTED_EDGE('',*,*,#797,.T.);
#1047=ORIENTED_EDGE('',*,*,#798,.T.);
#1048=ORIENTED_EDGE('',*,*,#799,.T.);
#1049=ORIENTED_EDGE('',*,*,#800,.T.);
#1050=ORIENTED_EDGE('',*,*,#801,.T.);
#1051=ORIENTED_EDGE('',*,*,#802,.T.);
#1052=ORIENTED_EDGE('',*,*,#803,.T.);
#1053=ORIENTED_EDGE('',*,*,#804,.T.);
#1054=ORIENTED_EDGE('',*,*,#805,.T.);
#1055=ORIENTED_EDGE('',*,*,#806,.T.);
#1056=ORIENTED_EDGE('',*,*,#807,.T.);
#1057=ORIENTED_EDGE('',*,*,#808,.T.);
#1058=ORIENTED_EDGE('',*,*,#809,.T.);
#1059=ORIENTED_EDGE('',*,*,#810,.T.);
#1060=ORIENTED_EDGE('',*,*,#811,.T.);
#1061=ORIENTED_EDGE('',*,*,#759,.F.);
#1062=ORIENTED_EDGE('',*,*,#812,.F.);
#1063=ORIENTED_EDGE('',*,*,#813,.T.);
#1064=ORIENTED_EDGE('',*,*,#814,.T.);
#1065=ORIENTED_EDGE('',*,*,#760,.F.);
#1066=ORIENTED_EDGE('',*,*,#814,.F.);
#1067=ORIENTED_EDGE('',*,*,#815,.F.);
#1068=ORIENTED_EDGE('',*,*,#787,.F.);
#1069=ORIENTED_EDGE('',*,*,#788,.F.);
#1070=ORIENTED_EDGE('',*,*,#815,.T.);
#1071=ORIENTED_EDGE('',*,*,#813,.F.);
#1072=ORIENTED_EDGE('',*,*,#816,.F.);
#1073=ORIENTED_EDGE('',*,*,#790,.F.);
#1074=ORIENTED_EDGE('',*,*,#817,.F.);
#1075=ORIENTED_EDGE('',*,*,#818,.F.);
#1076=ORIENTED_EDGE('',*,*,#819,.F.);
#1077=ORIENTED_EDGE('',*,*,#791,.F.);
#1078=ORIENTED_EDGE('',*,*,#819,.T.);
#1079=ORIENTED_EDGE('',*,*,#820,.F.);
#1080=ORIENTED_EDGE('',*,*,#783,.F.);
#1081=ORIENTED_EDGE('',*,*,#821,.F.);
#1082=ORIENTED_EDGE('',*,*,#784,.F.);
#1083=ORIENTED_EDGE('',*,*,#820,.T.);
#1084=ORIENTED_EDGE('',*,*,#818,.T.);
#1085=ORIENTED_EDGE('',*,*,#812,.T.);
#1086=ORIENTED_EDGE('',*,*,#758,.T.);
#1087=ORIENTED_EDGE('',*,*,#822,.T.);
#1088=ORIENTED_EDGE('',*,*,#785,.F.);
#1089=ORIENTED_EDGE('',*,*,#821,.T.);
#1090=ORIENTED_EDGE('',*,*,#817,.T.);
#1091=ORIENTED_EDGE('',*,*,#789,.F.);
#1092=ORIENTED_EDGE('',*,*,#816,.T.);
#1093=ORIENTED_EDGE('',*,*,#730,.T.);
#1094=ORIENTED_EDGE('',*,*,#733,.T.);
#1095=ORIENTED_EDGE('',*,*,#723,.T.);
#1096=ORIENTED_EDGE('',*,*,#727,.T.);
#1097=ORIENTED_EDGE('',*,*,#823,.F.);
#1098=ORIENTED_EDGE('',*,*,#808,.F.);
#1099=ORIENTED_EDGE('',*,*,#824,.T.);
#1100=ORIENTED_EDGE('',*,*,#825,.F.);
#1101=ORIENTED_EDGE('',*,*,#826,.F.);
#1102=ORIENTED_EDGE('',*,*,#827,.F.);
#1103=ORIENTED_EDGE('',*,*,#828,.F.);
#1104=ORIENTED_EDGE('',*,*,#792,.F.);
#1105=ORIENTED_EDGE('',*,*,#829,.F.);
#1106=ORIENTED_EDGE('',*,*,#830,.F.);
#1107=ORIENTED_EDGE('',*,*,#831,.F.);
#1108=ORIENTED_EDGE('',*,*,#806,.F.);
#1109=ORIENTED_EDGE('',*,*,#807,.F.);
#1110=ORIENTED_EDGE('',*,*,#831,.T.);
#1111=ORIENTED_EDGE('',*,*,#832,.F.);
#1112=ORIENTED_EDGE('',*,*,#824,.F.);
#1113=ORIENTED_EDGE('',*,*,#793,.F.);
#1114=ORIENTED_EDGE('',*,*,#828,.T.);
#1115=ORIENTED_EDGE('',*,*,#833,.F.);
#1116=ORIENTED_EDGE('',*,*,#834,.F.);
#1117=ORIENTED_EDGE('',*,*,#835,.F.);
#1118=ORIENTED_EDGE('',*,*,#794,.F.);
#1119=ORIENTED_EDGE('',*,*,#834,.T.);
#1120=ORIENTED_EDGE('',*,*,#836,.F.);
#1121=ORIENTED_EDGE('',*,*,#835,.T.);
#1122=ORIENTED_EDGE('',*,*,#837,.F.);
#1123=ORIENTED_EDGE('',*,*,#838,.T.);
#1124=ORIENTED_EDGE('',*,*,#795,.F.);
#1125=ORIENTED_EDGE('',*,*,#829,.T.);
#1126=ORIENTED_EDGE('',*,*,#805,.F.);
#1127=ORIENTED_EDGE('',*,*,#839,.T.);
#1128=ORIENTED_EDGE('',*,*,#840,.F.);
#1129=ORIENTED_EDGE('',*,*,#838,.F.);
#1130=ORIENTED_EDGE('',*,*,#841,.F.);
#1131=ORIENTED_EDGE('',*,*,#842,.F.);
#1132=ORIENTED_EDGE('',*,*,#796,.F.);
#1133=ORIENTED_EDGE('',*,*,#843,.F.);
#1134=ORIENTED_EDGE('',*,*,#798,.F.);
#1135=ORIENTED_EDGE('',*,*,#844,.T.);
#1136=ORIENTED_EDGE('',*,*,#845,.F.);
#1137=ORIENTED_EDGE('',*,*,#846,.F.);
#1138=ORIENTED_EDGE('',*,*,#847,.F.);
#1139=ORIENTED_EDGE('',*,*,#848,.F.);
#1140=ORIENTED_EDGE('',*,*,#802,.F.);
#1141=ORIENTED_EDGE('',*,*,#803,.F.);
#1142=ORIENTED_EDGE('',*,*,#848,.T.);
#1143=ORIENTED_EDGE('',*,*,#849,.F.);
#1144=ORIENTED_EDGE('',*,*,#850,.F.);
#1145=ORIENTED_EDGE('',*,*,#839,.F.);
#1146=ORIENTED_EDGE('',*,*,#804,.F.);
#1147=ORIENTED_EDGE('',*,*,#850,.T.);
#1148=ORIENTED_EDGE('',*,*,#851,.F.);
#1149=ORIENTED_EDGE('',*,*,#797,.F.);
#1150=ORIENTED_EDGE('',*,*,#842,.T.);
#1151=ORIENTED_EDGE('',*,*,#852,.F.);
#1152=ORIENTED_EDGE('',*,*,#844,.F.);
#1153=ORIENTED_EDGE('',*,*,#846,.T.);
#1154=ORIENTED_EDGE('',*,*,#801,.F.);
#1155=ORIENTED_EDGE('',*,*,#853,.T.);
#1156=ORIENTED_EDGE('',*,*,#854,.F.);
#1157=ORIENTED_EDGE('',*,*,#823,.T.);
#1158=ORIENTED_EDGE('',*,*,#855,.F.);
#1159=ORIENTED_EDGE('',*,*,#856,.F.);
#1160=ORIENTED_EDGE('',*,*,#809,.F.);
#1161=ORIENTED_EDGE('',*,*,#857,.T.);
#1162=ORIENTED_EDGE('',*,*,#858,.T.);
#1163=ORIENTED_EDGE('',*,*,#855,.T.);
#1164=ORIENTED_EDGE('',*,*,#825,.T.);
#1165=ORIENTED_EDGE('',*,*,#832,.T.);
#1166=ORIENTED_EDGE('',*,*,#830,.T.);
#1167=ORIENTED_EDGE('',*,*,#840,.T.);
#1168=ORIENTED_EDGE('',*,*,#851,.T.);
#1169=ORIENTED_EDGE('',*,*,#849,.T.);
#1170=ORIENTED_EDGE('',*,*,#847,.T.);
#1171=ORIENTED_EDGE('',*,*,#854,.T.);
#1172=ORIENTED_EDGE('',*,*,#859,.T.);
#1173=ORIENTED_EDGE('',*,*,#860,.T.);
#1174=ORIENTED_EDGE('',*,*,#845,.T.);
#1175=ORIENTED_EDGE('',*,*,#852,.T.);
#1176=ORIENTED_EDGE('',*,*,#841,.T.);
#1177=ORIENTED_EDGE('',*,*,#837,.T.);
#1178=ORIENTED_EDGE('',*,*,#836,.T.);
#1179=ORIENTED_EDGE('',*,*,#833,.T.);
#1180=ORIENTED_EDGE('',*,*,#827,.T.);
#1181=ORIENTED_EDGE('',*,*,#843,.T.);
#1182=ORIENTED_EDGE('',*,*,#860,.F.);
#1183=ORIENTED_EDGE('',*,*,#861,.F.);
#1184=ORIENTED_EDGE('',*,*,#799,.F.);
#1185=ORIENTED_EDGE('',*,*,#810,.F.);
#1186=ORIENTED_EDGE('',*,*,#856,.T.);
#1187=ORIENTED_EDGE('',*,*,#858,.F.);
#1188=ORIENTED_EDGE('',*,*,#862,.F.);
#1189=ORIENTED_EDGE('',*,*,#826,.T.);
#1190=ORIENTED_EDGE('',*,*,#811,.F.);
#1191=ORIENTED_EDGE('',*,*,#862,.T.);
#1192=ORIENTED_EDGE('',*,*,#857,.F.);
#1193=ORIENTED_EDGE('',*,*,#853,.F.);
#1194=ORIENTED_EDGE('',*,*,#800,.F.);
#1195=ORIENTED_EDGE('',*,*,#861,.T.);
#1196=ORIENTED_EDGE('',*,*,#859,.F.);
#1197=ORIENTED_EDGE('',*,*,#863,.F.);
#1198=ORIENTED_EDGE('',*,*,#864,.F.);
#1199=ORIENTED_EDGE('',*,*,#865,.F.);
#1200=ORIENTED_EDGE('',*,*,#866,.F.);
#1201=ORIENTED_EDGE('',*,*,#867,.F.);
#1202=ORIENTED_EDGE('',*,*,#868,.F.);
#1203=ORIENTED_EDGE('',*,*,#869,.F.);
#1204=ORIENTED_EDGE('',*,*,#870,.F.);
#1205=ORIENTED_EDGE('',*,*,#871,.T.);
#1206=ORIENTED_EDGE('',*,*,#872,.F.);
#1207=ORIENTED_EDGE('',*,*,#873,.F.);
#1208=ORIENTED_EDGE('',*,*,#874,.F.);
#1209=ORIENTED_EDGE('',*,*,#869,.T.);
#1210=ORIENTED_EDGE('',*,*,#875,.F.);
#1211=ORIENTED_EDGE('',*,*,#773,.T.);
#1212=ORIENTED_EDGE('',*,*,#876,.T.);
#1213=ORIENTED_EDGE('',*,*,#757,.F.);
#1214=ORIENTED_EDGE('',*,*,#774,.T.);
#1215=ORIENTED_EDGE('',*,*,#875,.T.);
#1216=ORIENTED_EDGE('',*,*,#874,.T.);
#1217=ORIENTED_EDGE('',*,*,#877,.F.);
#1218=ORIENTED_EDGE('',*,*,#878,.F.);
#1219=ORIENTED_EDGE('',*,*,#879,.F.);
#1220=ORIENTED_EDGE('',*,*,#867,.T.);
#1221=ORIENTED_EDGE('',*,*,#880,.T.);
#1222=ORIENTED_EDGE('',*,*,#766,.T.);
#1223=ORIENTED_EDGE('',*,*,#786,.F.);
#1224=ORIENTED_EDGE('',*,*,#822,.F.);
#1225=ORIENTED_EDGE('',*,*,#877,.T.);
#1226=ORIENTED_EDGE('',*,*,#873,.T.);
#1227=ORIENTED_EDGE('',*,*,#881,.F.);
#1228=ORIENTED_EDGE('',*,*,#882,.F.);
#1229=ORIENTED_EDGE('',*,*,#883,.T.);
#1230=ORIENTED_EDGE('',*,*,#884,.T.);
#1231=ORIENTED_EDGE('',*,*,#868,.T.);
#1232=ORIENTED_EDGE('',*,*,#879,.T.);
#1233=ORIENTED_EDGE('',*,*,#885,.F.);
#1234=ORIENTED_EDGE('',*,*,#886,.T.);
#1235=ORIENTED_EDGE('',*,*,#887,.T.);
#1236=ORIENTED_EDGE('',*,*,#888,.F.);
#1237=ORIENTED_EDGE('',*,*,#878,.T.);
#1238=ORIENTED_EDGE('',*,*,#884,.F.);
#1239=ORIENTED_EDGE('',*,*,#889,.T.);
#1240=ORIENTED_EDGE('',*,*,#885,.T.);
#1241=ORIENTED_EDGE('',*,*,#731,.T.);
#1242=ORIENTED_EDGE('',*,*,#728,.T.);
#1243=ORIENTED_EDGE('',*,*,#725,.T.);
#1244=ORIENTED_EDGE('',*,*,#734,.T.);
#1245=ORIENTED_EDGE('',*,*,#870,.T.);
#1246=ORIENTED_EDGE('',*,*,#876,.F.);
#1247=ORIENTED_EDGE('',*,*,#772,.F.);
#1248=ORIENTED_EDGE('',*,*,#890,.F.);
#1249=ORIENTED_EDGE('',*,*,#866,.T.);
#1250=ORIENTED_EDGE('',*,*,#891,.T.);
#1251=ORIENTED_EDGE('',*,*,#767,.F.);
#1252=ORIENTED_EDGE('',*,*,#880,.F.);
#1253=ORIENTED_EDGE('',*,*,#865,.T.);
#1254=ORIENTED_EDGE('',*,*,#892,.F.);
#1255=ORIENTED_EDGE('',*,*,#768,.F.);
#1256=ORIENTED_EDGE('',*,*,#891,.F.);
#1257=ORIENTED_EDGE('',*,*,#892,.T.);
#1258=ORIENTED_EDGE('',*,*,#864,.T.);
#1259=ORIENTED_EDGE('',*,*,#893,.F.);
#1260=ORIENTED_EDGE('',*,*,#769,.F.);
#1261=ORIENTED_EDGE('',*,*,#890,.T.);
#1262=ORIENTED_EDGE('',*,*,#771,.T.);
#1263=ORIENTED_EDGE('',*,*,#894,.F.);
#1264=ORIENTED_EDGE('',*,*,#871,.F.);
#1265=ORIENTED_EDGE('',*,*,#895,.T.);
#1266=ORIENTED_EDGE('',*,*,#882,.T.);
#1267=ORIENTED_EDGE('',*,*,#896,.F.);
#1268=ORIENTED_EDGE('',*,*,#887,.F.);
#1269=ORIENTED_EDGE('',*,*,#707,.T.);
#1270=ORIENTED_EDGE('',*,*,#704,.T.);
#1271=ORIENTED_EDGE('',*,*,#701,.T.);
#1272=ORIENTED_EDGE('',*,*,#710,.T.);
#1273=ORIENTED_EDGE('',*,*,#719,.T.);
#1274=ORIENTED_EDGE('',*,*,#716,.T.);
#1275=ORIENTED_EDGE('',*,*,#713,.T.);
#1276=ORIENTED_EDGE('',*,*,#722,.T.);
#1277=ORIENTED_EDGE('',*,*,#872,.T.);
#1278=ORIENTED_EDGE('',*,*,#894,.T.);
#1279=ORIENTED_EDGE('',*,*,#770,.T.);
#1280=ORIENTED_EDGE('',*,*,#893,.T.);
#1281=ORIENTED_EDGE('',*,*,#863,.T.);
#1282=ORIENTED_EDGE('',*,*,#888,.T.);
#1283=ORIENTED_EDGE('',*,*,#896,.T.);
#1284=ORIENTED_EDGE('',*,*,#881,.T.);
#1285=ORIENTED_EDGE('',*,*,#889,.F.);
#1286=ORIENTED_EDGE('',*,*,#883,.F.);
#1287=ORIENTED_EDGE('',*,*,#895,.F.);
#1288=ORIENTED_EDGE('',*,*,#886,.F.);
#1289=ORIENTED_EDGE('',*,*,#735,.T.);
#1290=ORIENTED_EDGE('',*,*,#745,.T.);
#1291=ORIENTED_EDGE('',*,*,#742,.T.);
#1292=ORIENTED_EDGE('',*,*,#739,.T.);
#1293=PLANE('',#1447);
#1294=PLANE('',#1448);
#1295=PLANE('',#1449);
#1296=PLANE('',#1450);
#1297=PLANE('',#1451);
#1298=PLANE('',#1452);
#1299=PLANE('',#1453);
#1300=PLANE('',#1454);
#1301=PLANE('',#1455);
#1302=PLANE('',#1456);
#1303=PLANE('',#1457);
#1304=PLANE('',#1458);
#1305=PLANE('',#1459);
#1306=PLANE('',#1460);
#1307=PLANE('',#1461);
#1308=PLANE('',#1462);
#1309=PLANE('',#1463);
#1310=PLANE('',#1464);
#1311=PLANE('',#1465);
#1312=PLANE('',#1466);
#1313=PLANE('',#1467);
#1314=PLANE('',#1468);
#1315=PLANE('',#1469);
#1316=PLANE('',#1470);
#1317=PLANE('',#1471);
#1318=PLANE('',#1472);
#1319=PLANE('',#1473);
#1320=PLANE('',#1474);
#1321=PLANE('',#1475);
#1322=PLANE('',#1476);
#1323=PLANE('',#1477);
#1324=PLANE('',#1478);
#1325=PLANE('',#1479);
#1326=PLANE('',#1480);
#1327=PLANE('',#1481);
#1328=PLANE('',#1482);
#1329=PLANE('',#1483);
#1330=PLANE('',#1484);
#1331=PLANE('',#1485);
#1332=PLANE('',#1486);
#1333=PLANE('',#1487);
#1334=PLANE('',#1488);
#1335=PLANE('',#1489);
#1336=PLANE('',#1490);
#1337=PLANE('',#1491);
#1338=PLANE('',#1492);
#1339=PLANE('',#1493);
#1340=PLANE('',#1494);
#1341=PLANE('',#1495);
#1342=PLANE('',#1496);
#1343=PLANE('',#1497);
#1344=PLANE('',#1498);
#1345=PLANE('',#1499);
#1346=PLANE('',#1500);
#1347=PLANE('',#1501);
#1348=PLANE('',#1502);
#1349=PLANE('',#1503);
#1350=PLANE('',#1504);
#1351=PLANE('',#1505);
#1352=PLANE('',#1506);
#1353=PLANE('',#1507);
#1354=PLANE('',#1508);
#1355=PLANE('',#1509);
#1356=PLANE('',#1510);
#1357=PLANE('',#1511);
#1358=PLANE('',#1512);
#1359=PLANE('',#1513);
#1360=PLANE('',#1514);
#1361=PLANE('',#1515);
#1362=PLANE('',#1516);
#1363=ADVANCED_FACE('',(#23),#1293,.F.);
#1364=ADVANCED_FACE('',(#24),#1294,.F.);
#1365=ADVANCED_FACE('',(#25),#1295,.F.);
#1366=ADVANCED_FACE('',(#26),#1296,.F.);
#1367=ADVANCED_FACE('',(#27),#1297,.F.);
#1368=ADVANCED_FACE('',(#28),#1298,.F.);
#1369=ADVANCED_FACE('',(#29),#1299,.F.);
#1370=ADVANCED_FACE('',(#30),#1300,.F.);
#1371=ADVANCED_FACE('',(#31),#1301,.F.);
#1372=ADVANCED_FACE('',(#32),#1302,.F.);
#1373=ADVANCED_FACE('',(#33),#1303,.F.);
#1374=ADVANCED_FACE('',(#34),#1304,.F.);
#1375=ADVANCED_FACE('',(#35),#1305,.F.);
#1376=ADVANCED_FACE('',(#36),#1306,.F.);
#1377=ADVANCED_FACE('',(#37),#1307,.F.);
#1378=ADVANCED_FACE('',(#38),#1308,.F.);
#1379=ADVANCED_FACE('',(#39),#1309,.F.);
#1380=ADVANCED_FACE('',(#40),#1310,.T.);
#1381=ADVANCED_FACE('',(#41),#1311,.T.);
#1382=ADVANCED_FACE('',(#42),#1312,.T.);
#1383=ADVANCED_FACE('',(#43),#1313,.F.);
#1384=ADVANCED_FACE('',(#44,#15,#16),#1314,.F.);
#1385=ADVANCED_FACE('',(#45),#1315,.T.);
#1386=ADVANCED_FACE('',(#46),#1316,.T.);
#1387=ADVANCED_FACE('',(#47),#1317,.T.);
#1388=ADVANCED_FACE('',(#48),#1318,.F.);
#1389=ADVANCED_FACE('',(#49,#17),#1319,.T.);
#1390=ADVANCED_FACE('',(#50),#1320,.T.);
#1391=ADVANCED_FACE('',(#51),#1321,.T.);
#1392=ADVANCED_FACE('',(#52),#1322,.T.);
#1393=ADVANCED_FACE('',(#53),#1323,.T.);
#1394=ADVANCED_FACE('',(#54),#1324,.T.);
#1395=ADVANCED_FACE('',(#55),#1325,.T.);
#1396=ADVANCED_FACE('',(#56,#18),#1326,.F.);
#1397=ADVANCED_FACE('',(#57),#1327,.T.);
#1398=ADVANCED_FACE('',(#58),#1328,.T.);
#1399=ADVANCED_FACE('',(#59),#1329,.T.);
#1400=ADVANCED_FACE('',(#60),#1330,.T.);
#1401=ADVANCED_FACE('',(#61),#1331,.T.);
#1402=ADVANCED_FACE('',(#62),#1332,.T.);
#1403=ADVANCED_FACE('',(#63),#1333,.T.);
#1404=ADVANCED_FACE('',(#64),#1334,.T.);
#1405=ADVANCED_FACE('',(#65),#1335,.T.);
#1406=ADVANCED_FACE('',(#66),#1336,.T.);
#1407=ADVANCED_FACE('',(#67),#1337,.T.);
#1408=ADVANCED_FACE('',(#68),#1338,.T.);
#1409=ADVANCED_FACE('',(#69),#1339,.T.);
#1410=ADVANCED_FACE('',(#70),#1340,.T.);
#1411=ADVANCED_FACE('',(#71),#1341,.T.);
#1412=ADVANCED_FACE('',(#72),#1342,.T.);
#1413=ADVANCED_FACE('',(#73),#1343,.T.);
#1414=ADVANCED_FACE('',(#74),#1344,.T.);
#1415=ADVANCED_FACE('',(#75),#1345,.T.);
#1416=ADVANCED_FACE('',(#76),#1346,.T.);
#1417=ADVANCED_FACE('',(#77),#1347,.T.);
#1418=ADVANCED_FACE('',(#78),#1348,.F.);
#1419=ADVANCED_FACE('',(#79),#1349,.F.);
#1420=ADVANCED_FACE('',(#80),#1350,.F.);
#1421=ADVANCED_FACE('',(#81),#1351,.T.);
#1422=ADVANCED_FACE('',(#82),#1352,.T.);
#1423=ADVANCED_FACE('',(#83),#1353,.T.);
#1424=ADVANCED_FACE('',(#84,#19),#1354,.T.);
#1425=ADVANCED_FACE('',(#85),#1355,.F.);
#1426=ADVANCED_FACE('',(#86),#1356,.F.);
#1427=ADVANCED_FACE('',(#87),#1357,.F.);
#1428=ADVANCED_FACE('',(#88),#1358,.F.);
#1429=ADVANCED_FACE('',(#89),#1359,.F.);
#1430=ADVANCED_FACE('',(#90,#20,#21),#1360,.T.);
#1431=ADVANCED_FACE('',(#91),#1361,.T.);
#1432=ADVANCED_FACE('',(#92,#22),#1362,.F.);
#1433=CLOSED_SHELL('',(#1363,#1364,#1365,#1366,#1367,#1368,#1369,#1370,
#1371,#1372,#1373,#1374,#1375,#1376,#1377,#1378,#1379,#1380,#1381,#1382,
#1383,#1384,#1385,#1386,#1387,#1388,#1389,#1390,#1391,#1392,#1393,#1394,
#1395,#1396,#1397,#1398,#1399,#1400,#1401,#1402,#1403,#1404,#1405,#1406,
#1407,#1408,#1409,#1410,#1411,#1412,#1413,#1414,#1415,#1416,#1417,#1418,
#1419,#1420,#1421,#1422,#1423,#1424,#1425,#1426,#1427,#1428,#1429,#1430,
#1431,#1432));
#1434=DERIVED_UNIT_ELEMENT(#1436,1.);
#1435=DERIVED_UNIT_ELEMENT(#2263,-3.);
#1436=(
MASS_UNIT()
NAMED_UNIT(*)
SI_UNIT(.KILO.,.GRAM.)
);
#1437=DERIVED_UNIT((#1434,#1435));
#1438=MEASURE_REPRESENTATION_ITEM('density measure',
POSITIVE_RATIO_MEASURE(7850.),#1437);
#1439=PROPERTY_DEFINITION_REPRESENTATION(#1444,#1441);
#1440=PROPERTY_DEFINITION_REPRESENTATION(#1445,#1442);
#1441=REPRESENTATION('material name',(#1443),#2260);
#1442=REPRESENTATION('density',(#1438),#2260);
#1443=DESCRIPTIVE_REPRESENTATION_ITEM('A\X\E7o','A\X\E7o');
#1444=PROPERTY_DEFINITION('material property','material name',#2270);
#1445=PROPERTY_DEFINITION('material property','density of part',#2270);
#1446=AXIS2_PLACEMENT_3D('',#1857,#1517,#1518);
#1447=AXIS2_PLACEMENT_3D('',#1858,#1519,#1520);
#1448=AXIS2_PLACEMENT_3D('',#1867,#1525,#1526);
#1449=AXIS2_PLACEMENT_3D('',#1873,#1530,#1531);
#1450=AXIS2_PLACEMENT_3D('',#1879,#1535,#1536);
#1451=AXIS2_PLACEMENT_3D('',#1882,#1539,#1540);
#1452=AXIS2_PLACEMENT_3D('',#1891,#1545,#1546);
#1453=AXIS2_PLACEMENT_3D('',#1897,#1550,#1551);
#1454=AXIS2_PLACEMENT_3D('',#1903,#1555,#1556);
#1455=AXIS2_PLACEMENT_3D('',#1906,#1559,#1560);
#1456=AXIS2_PLACEMENT_3D('',#1915,#1565,#1566);
#1457=AXIS2_PLACEMENT_3D('',#1921,#1570,#1571);
#1458=AXIS2_PLACEMENT_3D('',#1927,#1575,#1576);
#1459=AXIS2_PLACEMENT_3D('',#1930,#1579,#1580);
#1460=AXIS2_PLACEMENT_3D('',#1939,#1585,#1586);
#1461=AXIS2_PLACEMENT_3D('',#1945,#1590,#1591);
#1462=AXIS2_PLACEMENT_3D('',#1951,#1595,#1596);
#1463=AXIS2_PLACEMENT_3D('',#1954,#1599,#1600);
#1464=AXIS2_PLACEMENT_3D('',#1955,#1601,#1602);
#1465=AXIS2_PLACEMENT_3D('',#1964,#1607,#1608);
#1466=AXIS2_PLACEMENT_3D('',#1970,#1612,#1613);
#1467=AXIS2_PLACEMENT_3D('',#1974,#1616,#1617);
#1468=AXIS2_PLACEMENT_3D('',#1986,#1624,#1625);
#1469=AXIS2_PLACEMENT_3D('',#2012,#1639,#1640);
#1470=AXIS2_PLACEMENT_3D('',#2018,#1644,#1645);
#1471=AXIS2_PLACEMENT_3D('',#2024,#1649,#1650);
#1472=AXIS2_PLACEMENT_3D('',#2026,#1652,#1653);
#1473=AXIS2_PLACEMENT_3D('',#2036,#1659,#1660);
#1474=AXIS2_PLACEMENT_3D('',#2086,#1686,#1687);
#1475=AXIS2_PLACEMENT_3D('',#2092,#1691,#1692);
#1476=AXIS2_PLACEMENT_3D('',#2094,#1694,#1695);
#1477=AXIS2_PLACEMENT_3D('',#2096,#1697,#1698);
#1478=AXIS2_PLACEMENT_3D('',#2102,#1702,#1703);
#1479=AXIS2_PLACEMENT_3D('',#2104,#1705,#1706);
#1480=AXIS2_PLACEMENT_3D('',#2106,#1708,#1709);
#1481=AXIS2_PLACEMENT_3D('',#2108,#1711,#1712);
#1482=AXIS2_PLACEMENT_3D('',#2114,#1716,#1717);
#1483=AXIS2_PLACEMENT_3D('',#2120,#1721,#1722);
#1484=AXIS2_PLACEMENT_3D('',#2126,#1726,#1727);
#1485=AXIS2_PLACEMENT_3D('',#2128,#1729,#1730);
#1486=AXIS2_PLACEMENT_3D('',#2132,#1733,#1734);
#1487=AXIS2_PLACEMENT_3D('',#2136,#1737,#1738);
#1488=AXIS2_PLACEMENT_3D('',#2140,#1741,#1742);
#1489=AXIS2_PLACEMENT_3D('',#2144,#1745,#1746);
#1490=AXIS2_PLACEMENT_3D('',#2148,#1749,#1750);
#1491=AXIS2_PLACEMENT_3D('',#2154,#1754,#1755);
#1492=AXIS2_PLACEMENT_3D('',#2160,#1759,#1760);
#1493=AXIS2_PLACEMENT_3D('',#2164,#1763,#1764);
#1494=AXIS2_PLACEMENT_3D('',#2166,#1766,#1767);
#1495=AXIS2_PLACEMENT_3D('',#2168,#1769,#1770);
#1496=AXIS2_PLACEMENT_3D('',#2172,#1773,#1774);
#1497=AXIS2_PLACEMENT_3D('',#2176,#1777,#1778);
#1498=AXIS2_PLACEMENT_3D('',#2183,#1783,#1784);
#1499=AXIS2_PLACEMENT_3D('',#2185,#1786,#1787);
#1500=AXIS2_PLACEMENT_3D('',#2187,#1789,#1790);
#1501=AXIS2_PLACEMENT_3D('',#2188,#1791,#1792);
#1502=AXIS2_PLACEMENT_3D('',#2189,#1793,#1794);
#1503=AXIS2_PLACEMENT_3D('',#2202,#1801,#1802);
#1504=AXIS2_PLACEMENT_3D('',#2215,#1809,#1810);
#1505=AXIS2_PLACEMENT_3D('',#2218,#1813,#1814);
#1506=AXIS2_PLACEMENT_3D('',#2225,#1819,#1820);
#1507=AXIS2_PLACEMENT_3D('',#2233,#1825,#1826);
#1508=AXIS2_PLACEMENT_3D('',#2241,#1831,#1832);
#1509=AXIS2_PLACEMENT_3D('',#2243,#1834,#1835);
#1510=AXIS2_PLACEMENT_3D('',#2245,#1837,#1838);
#1511=AXIS2_PLACEMENT_3D('',#2247,#1840,#1841);
#1512=AXIS2_PLACEMENT_3D('',#2249,#1843,#1844);
#1513=AXIS2_PLACEMENT_3D('',#2251,#1846,#1847);
#1514=AXIS2_PLACEMENT_3D('',#2253,#1849,#1850);
#1515=AXIS2_PLACEMENT_3D('',#2256,#1853,#1854);
#1516=AXIS2_PLACEMENT_3D('',#2257,#1855,#1856);
#1517=DIRECTION('axis',(0.,0.,1.));
#1518=DIRECTION('refdir',(1.,0.,0.));
#1519=DIRECTION('center_axis',(0.,0.,1.));
#1520=DIRECTION('ref_axis',(0.,-1.,0.));
#1521=DIRECTION('',(0.,-1.,0.));
#1522=DIRECTION('',(1.,0.,0.));
#1523=DIRECTION('',(0.,1.,0.));
#1524=DIRECTION('',(1.,0.,0.));
#1525=DIRECTION('center_axis',(0.,-1.,0.));
#1526=DIRECTION('ref_axis',(0.,0.,-1.));
#1527=DIRECTION('',(0.,0.,-1.));
#1528=DIRECTION('',(0.,0.,1.));
#1529=DIRECTION('',(1.,0.,0.));
#1530=DIRECTION('center_axis',(0.,0.,-1.));
#1531=DIRECTION('ref_axis',(0.,1.,0.));
#1532=DIRECTION('',(0.,1.,0.));
#1533=DIRECTION('',(0.,-1.,0.));
#1534=DIRECTION('',(1.,0.,0.));
#1535=DIRECTION('center_axis',(0.,1.,0.));
#1536=DIRECTION('ref_axis',(0.,0.,1.));
#1537=DIRECTION('',(0.,0.,1.));
#1538=DIRECTION('',(0.,0.,-1.));
#1539=DIRECTION('center_axis',(0.,0.,1.));
#1540=DIRECTION('ref_axis',(0.,-1.,0.));
#1541=DIRECTION('',(0.,-1.,0.));
#1542=DIRECTION('',(1.,0.,0.));
#1543=DIRECTION('',(0.,1.,0.));
#1544=DIRECTION('',(1.,0.,0.));
#1545=DIRECTION('center_axis',(0.,-1.,0.));
#1546=DIRECTION('ref_axis',(0.,0.,-1.));
#1547=DIRECTION('',(0.,0.,-1.));
#1548=DIRECTION('',(0.,0.,1.));
#1549=DIRECTION('',(1.,0.,0.));
#1550=DIRECTION('center_axis',(0.,0.,-1.));
#1551=DIRECTION('ref_axis',(0.,1.,0.));
#1552=DIRECTION('',(0.,1.,0.));
#1553=DIRECTION('',(0.,-1.,0.));
#1554=DIRECTION('',(1.,0.,0.));
#1555=DIRECTION('center_axis',(0.,1.,0.));
#1556=DIRECTION('ref_axis',(0.,0.,1.));
#1557=DIRECTION('',(0.,0.,1.));
#1558=DIRECTION('',(0.,0.,-1.));
#1559=DIRECTION('center_axis',(0.,0.,1.));
#1560=DIRECTION('ref_axis',(0.,-1.,0.));
#1561=DIRECTION('',(0.,1.,0.));
#1562=DIRECTION('',(1.,0.,0.));
#1563=DIRECTION('',(0.,-1.,0.));
#1564=DIRECTION('',(1.,0.,0.));
#1565=DIRECTION('center_axis',(0.,1.,0.));
#1566=DIRECTION('ref_axis',(0.,0.,1.));
#1567=DIRECTION('',(0.,0.,-1.));
#1568=DIRECTION('',(0.,0.,1.));
#1569=DIRECTION('',(1.,0.,0.));
#1570=DIRECTION('center_axis',(0.,0.,-1.));
#1571=DIRECTION('ref_axis',(0.,1.,0.));
#1572=DIRECTION('',(0.,-1.,0.));
#1573=DIRECTION('',(0.,1.,0.));
#1574=DIRECTION('',(1.,0.,0.));
#1575=DIRECTION('center_axis',(0.,-1.,0.));
#1576=DIRECTION('ref_axis',(0.,0.,-1.));
#1577=DIRECTION('',(0.,0.,1.));
#1578=DIRECTION('',(0.,0.,-1.));
#1579=DIRECTION('center_axis',(0.,1.,0.));
#1580=DIRECTION('ref_axis',(-1.,0.,0.));
#1581=DIRECTION('',(-1.,0.,0.));
#1582=DIRECTION('',(0.,0.,1.));
#1583=DIRECTION('',(-1.,0.,0.));
#1584=DIRECTION('',(0.,0.,1.));
#1585=DIRECTION('center_axis',(1.,0.,0.));
#1586=DIRECTION('ref_axis',(0.,1.,0.));
#1587=DIRECTION('',(0.,1.,0.));
#1588=DIRECTION('',(0.,0.,1.));
#1589=DIRECTION('',(0.,1.,0.));
#1590=DIRECTION('center_axis',(0.,-1.,0.));
#1591=DIRECTION('ref_axis',(1.,0.,0.));
#1592=DIRECTION('',(1.,0.,0.));
#1593=DIRECTION('',(0.,0.,1.));
#1594=DIRECTION('',(1.,0.,0.));
#1595=DIRECTION('center_axis',(-1.,0.,0.));
#1596=DIRECTION('ref_axis',(0.,-1.,0.));
#1597=DIRECTION('',(0.,-1.,0.));
#1598=DIRECTION('',(0.,-1.,0.));
#1599=DIRECTION('center_axis',(0.,0.,1.));
#1600=DIRECTION('ref_axis',(1.,0.,0.));
#1601=DIRECTION('center_axis',(-1.,0.,0.));
#1602=DIRECTION('ref_axis',(0.,-1.,0.));
#1603=DIRECTION('',(0.,0.,1.));
#1604=DIRECTION('',(0.,1.,0.));
#1605=DIRECTION('',(0.,0.,1.));
#1606=DIRECTION('',(0.,-1.,0.));
#1607=DIRECTION('center_axis',(0.,-1.,0.));
#1608=DIRECTION('ref_axis',(1.,0.,0.));
#1609=DIRECTION('',(-1.,0.,0.));
#1610=DIRECTION('',(0.,0.,-1.));
#1611=DIRECTION('',(1.,0.,0.));
#1612=DIRECTION('center_axis',(0.,0.,1.));
#1613=DIRECTION('ref_axis',(1.,0.,0.));
#1614=DIRECTION('',(1.,0.,0.));
#1615=DIRECTION('',(0.,-1.,0.));
#1616=DIRECTION('center_axis',(0.,1.,0.));
#1617=DIRECTION('ref_axis',(-1.,0.,0.));
#1618=DIRECTION('',(0.,0.,1.));
#1619=DIRECTION('',(-1.,0.,0.));
#1620=DIRECTION('',(0.,0.,1.));
#1621=DIRECTION('',(1.,0.,0.));
#1622=DIRECTION('',(0.,0.,-1.));
#1623=DIRECTION('',(-1.,0.,0.));
#1624=DIRECTION('center_axis',(1.,0.,0.));
#1625=DIRECTION('ref_axis',(0.,1.,0.));
#1626=DIRECTION('',(0.,1.,0.));
#1627=DIRECTION('',(0.,0.,1.));
#1628=DIRECTION('',(0.,-1.,0.));
#1629=DIRECTION('',(0.,0.,1.));
#1630=DIRECTION('',(0.,1.,0.));
#1631=DIRECTION('',(0.,0.,1.));
#1632=DIRECTION('',(0.,1.,0.));
#1633=DIRECTION('',(0.,0.,1.));
#1634=DIRECTION('',(0.,-1.,0.));
#1635=DIRECTION('',(0.,0.,1.));
#1636=DIRECTION('',(0.,1.,0.));
#1637=DIRECTION('',(0.,0.,1.));
#1638=DIRECTION('',(0.,1.,0.));
#1639=DIRECTION('center_axis',(0.,1.,0.));
#1640=DIRECTION('ref_axis',(-1.,0.,0.));
#1641=DIRECTION('',(1.,0.,0.));
#1642=DIRECTION('',(0.,0.,1.));
#1643=DIRECTION('',(-1.,0.,0.));
#1644=DIRECTION('center_axis',(-1.,0.,0.));
#1645=DIRECTION('ref_axis',(0.,-1.,0.));
#1646=DIRECTION('',(0.,1.,0.));
#1647=DIRECTION('',(0.,0.,-1.));
#1648=DIRECTION('',(0.,-1.,0.));
#1649=DIRECTION('center_axis',(0.,0.,1.));
#1650=DIRECTION('ref_axis',(1.,0.,0.));
#1651=DIRECTION('',(-1.,0.,0.));
#1652=DIRECTION('center_axis',(0.,-1.,0.));
#1653=DIRECTION('ref_axis',(1.,0.,0.));
#1654=DIRECTION('',(1.,0.,0.));
#1655=DIRECTION('',(0.,0.,1.));
#1656=DIRECTION('',(-1.,0.,0.));
#1657=DIRECTION('',(0.,0.,1.));
#1658=DIRECTION('',(1.,0.,0.));
#1659=DIRECTION('center_axis',(0.,0.,1.));
#1660=DIRECTION('ref_axis',(1.,0.,0.));
#1661=DIRECTION('',(0.,-1.,0.));
#1662=DIRECTION('',(-1.,0.,0.));
#1663=DIRECTION('',(0.,-1.,0.));
#1664=DIRECTION('',(1.,0.,0.));
#1665=DIRECTION('',(0.,-1.,0.));
#1666=DIRECTION('',(0.,-1.,0.));
#1667=DIRECTION('',(-1.,0.,0.));
#1668=DIRECTION('',(0.,1.,0.));
#1669=DIRECTION('',(-1.,0.,0.));
#1670=DIRECTION('',(0.,-1.,0.));
#1671=DIRECTION('',(-1.,0.,0.));
#1672=DIRECTION('',(0.,1.,0.));
#1673=DIRECTION('',(-1.,0.,0.));
#1674=DIRECTION('',(0.,1.,0.));
#1675=DIRECTION('',(1.,0.,0.));
#1676=DIRECTION('',(0.,1.,0.));
#1677=DIRECTION('',(1.,0.,0.));
#1678=DIRECTION('',(0.,-1.,0.));
#1679=DIRECTION('',(1.,0.,0.));
#1680=DIRECTION('',(0.,1.,0.));
#1681=DIRECTION('',(1.,0.,0.));
#1682=DIRECTION('',(0.,-1.,0.));
#1683=DIRECTION('',(1.,0.,0.));
#1684=DIRECTION('',(0.,-1.,0.));
#1685=DIRECTION('',(-1.,0.,0.));
#1686=DIRECTION('center_axis',(0.,0.,1.));
#1687=DIRECTION('ref_axis',(1.,0.,0.));
#1688=DIRECTION('',(0.,1.,0.));
#1689=DIRECTION('',(1.,0.,0.));
#1690=DIRECTION('',(0.,1.,0.));
#1691=DIRECTION('center_axis',(1.,0.,0.));
#1692=DIRECTION('ref_axis',(0.,1.,0.));
#1693=DIRECTION('',(0.,0.,1.));
#1694=DIRECTION('center_axis',(0.,-1.,0.));
#1695=DIRECTION('ref_axis',(1.,0.,0.));
#1696=DIRECTION('',(0.,0.,1.));
#1697=DIRECTION('center_axis',(0.,1.,0.));
#1698=DIRECTION('ref_axis',(-1.,0.,0.));
#1699=DIRECTION('',(0.,0.,-1.));
#1700=DIRECTION('',(-1.,0.,0.));
#1701=DIRECTION('',(0.,0.,1.));
#1702=DIRECTION('center_axis',(1.,0.,0.));
#1703=DIRECTION('ref_axis',(0.,1.,0.));
#1704=DIRECTION('',(0.,1.,0.));
#1705=DIRECTION('center_axis',(0.,0.,1.));
#1706=DIRECTION('ref_axis',(1.,0.,0.));
#1707=DIRECTION('',(0.,1.,0.));
#1708=DIRECTION('center_axis',(-1.,0.,0.));
#1709=DIRECTION('ref_axis',(0.,-1.,0.));
#1710=DIRECTION('',(0.,-1.,0.));
#1711=DIRECTION('center_axis',(1.,0.,0.));
#1712=DIRECTION('ref_axis',(0.,1.,0.));
#1713=DIRECTION('',(0.,0.,1.));
#1714=DIRECTION('',(0.,0.,1.));
#1715=DIRECTION('',(0.,1.,0.));
#1716=DIRECTION('center_axis',(1.,0.,0.));
#1717=DIRECTION('ref_axis',(0.,1.,0.));
#1718=DIRECTION('',(0.,0.,-1.));
#1719=DIRECTION('',(0.,1.,0.));
#1720=DIRECTION('',(0.,0.,1.));
#1721=DIRECTION('center_axis',(-1.,0.,0.));
#1722=DIRECTION('ref_axis',(0.,-1.,0.));
#1723=DIRECTION('',(0.,0.,-1.));
#1724=DIRECTION('',(0.,-1.,0.));
#1725=DIRECTION('',(0.,0.,1.));
#1726=DIRECTION('center_axis',(0.,1.,0.));
#1727=DIRECTION('ref_axis',(-1.,0.,0.));
#1728=DIRECTION('',(-1.,0.,0.));
#1729=DIRECTION('center_axis',(0.,-1.,0.));
#1730=DIRECTION('ref_axis',(1.,0.,0.));
#1731=DIRECTION('',(1.,0.,0.));
#1732=DIRECTION('',(0.,0.,1.));
#1733=DIRECTION('center_axis',(-1.,0.,0.));
#1734=DIRECTION('ref_axis',(0.,-1.,0.));
#1735=DIRECTION('',(0.,0.,1.));
#1736=DIRECTION('',(0.,-1.,0.));
#1737=DIRECTION('center_axis',(0.,-1.,0.));
#1738=DIRECTION('ref_axis',(1.,0.,0.));
#1739=DIRECTION('',(1.,0.,0.));
#1740=DIRECTION('',(0.,0.,-1.));
#1741=DIRECTION('center_axis',(0.,1.,0.));
#1742=DIRECTION('ref_axis',(-1.,0.,0.));
#1743=DIRECTION('',(0.,0.,1.));
#1744=DIRECTION('',(-1.,0.,0.));
#1745=DIRECTION('center_axis',(1.,0.,0.));
#1746=DIRECTION('ref_axis',(0.,1.,0.));
#1747=DIRECTION('',(0.,1.,0.));
#1748=DIRECTION('',(0.,0.,1.));
#1749=DIRECTION('center_axis',(-1.,0.,0.));
#1750=DIRECTION('ref_axis',(0.,-1.,0.));
#1751=DIRECTION('',(0.,0.,1.));
#1752=DIRECTION('',(0.,0.,1.));
#1753=DIRECTION('',(0.,-1.,0.));
#1754=DIRECTION('center_axis',(-1.,0.,0.));
#1755=DIRECTION('ref_axis',(0.,-1.,0.));
#1756=DIRECTION('',(0.,0.,-1.));
#1757=DIRECTION('',(0.,-1.,0.));
#1758=DIRECTION('',(0.,0.,1.));
#1759=DIRECTION('center_axis',(0.,1.,0.));
#1760=DIRECTION('ref_axis',(-1.,0.,0.));
#1761=DIRECTION('',(-1.,0.,0.));
#1762=DIRECTION('',(0.,0.,1.));
#1763=DIRECTION('center_axis',(1.,0.,0.));
#1764=DIRECTION('ref_axis',(0.,1.,0.));
#1765=DIRECTION('',(0.,1.,0.));
#1766=DIRECTION('center_axis',(0.,-1.,0.));
#1767=DIRECTION('ref_axis',(1.,0.,0.));
#1768=DIRECTION('',(1.,0.,0.));
#1769=DIRECTION('center_axis',(0.,1.,0.));
#1770=DIRECTION('ref_axis',(-1.,0.,0.));
#1771=DIRECTION('',(0.,0.,1.));
#1772=DIRECTION('',(-1.,0.,0.));
#1773=DIRECTION('center_axis',(0.,1.,0.));
#1774=DIRECTION('ref_axis',(-1.,0.,0.));
#1775=DIRECTION('',(-1.,0.,0.));
#1776=DIRECTION('',(0.,0.,1.));
#1777=DIRECTION('center_axis',(0.,0.,1.));
#1778=DIRECTION('ref_axis',(1.,0.,0.));
#1779=DIRECTION('',(1.,0.,0.));
#1780=DIRECTION('',(0.,1.,0.));
#1781=DIRECTION('',(0.,-1.,0.));
#1782=DIRECTION('',(1.,0.,0.));
#1783=DIRECTION('center_axis',(0.,-1.,0.));
#1784=DIRECTION('ref_axis',(1.,0.,0.));
#1785=DIRECTION('',(0.,0.,1.));
#1786=DIRECTION('center_axis',(1.,0.,0.));
#1787=DIRECTION('ref_axis',(0.,1.,0.));
#1788=DIRECTION('',(0.,0.,1.));
#1789=DIRECTION('center_axis',(0.,-1.,0.));
#1790=DIRECTION('ref_axis',(1.,0.,0.));
#1791=DIRECTION('center_axis',(-1.,0.,0.));
#1792=DIRECTION('ref_axis',(0.,-1.,0.));
#1793=DIRECTION('center_axis',(1.,0.,0.));
#1794=DIRECTION('ref_axis',(0.,1.,0.));
#1795=DIRECTION('',(0.,-1.,0.));
#1796=DIRECTION('',(0.,0.,1.));
#1797=DIRECTION('',(0.,1.,0.));
#1798=DIRECTION('',(0.,0.,1.));
#1799=DIRECTION('',(0.,1.,0.));
#1800=DIRECTION('',(0.,0.,-1.));
#1801=DIRECTION('center_axis',(1.,0.,0.));
#1802=DIRECTION('ref_axis',(0.,1.,0.));
#1803=DIRECTION('',(0.,0.,-1.));
#1804=DIRECTION('',(0.,1.,0.));
#1805=DIRECTION('',(0.,0.,1.));
#1806=DIRECTION('',(0.,-1.,0.));
#1807=DIRECTION('',(0.,0.,1.));
#1808=DIRECTION('',(0.,1.,0.));
#1809=DIRECTION('center_axis',(0.,1.,0.));
#1810=DIRECTION('ref_axis',(-1.,0.,0.));
#1811=DIRECTION('',(-1.,0.,0.));
#1812=DIRECTION('',(-1.,0.,0.));
#1813=DIRECTION('center_axis',(0.,0.,1.));
#1814=DIRECTION('ref_axis',(1.,0.,0.));
#1815=DIRECTION('',(1.,6.04203006598725E-17,0.));
#1816=DIRECTION('',(0.,1.,0.));
#1817=DIRECTION('',(-1.,0.,0.));
#1818=DIRECTION('',(1.,0.,0.));
#1819=DIRECTION('center_axis',(-6.04203006598725E-17,1.,0.));
#1820=DIRECTION('ref_axis',(-1.,-6.04203006598725E-17,0.));
#1821=DIRECTION('',(-1.,-6.04203006598725E-17,0.));
#1822=DIRECTION('',(0.,0.,1.));
#1823=DIRECTION('',(-1.,-6.04203006598725E-17,0.));
#1824=DIRECTION('',(0.,0.,1.));
#1825=DIRECTION('center_axis',(0.,-1.,0.));
#1826=DIRECTION('ref_axis',(1.,0.,0.));
#1827=DIRECTION('',(0.,0.,1.));
#1828=DIRECTION('',(1.,0.,0.));
#1829=DIRECTION('',(0.,0.,1.));
#1830=DIRECTION('',(1.,0.,0.));
#1831=DIRECTION('center_axis',(-1.,0.,0.));
#1832=DIRECTION('ref_axis',(0.,-1.,0.));
#1833=DIRECTION('',(0.,-1.,0.));
#1834=DIRECTION('center_axis',(0.,0.,1.));
#1835=DIRECTION('ref_axis',(1.,0.,0.));
#1836=DIRECTION('',(1.,0.,0.));
#1837=DIRECTION('center_axis',(0.,-1.,0.));
#1838=DIRECTION('ref_axis',(1.,0.,0.));
#1839=DIRECTION('',(1.,0.,0.));
#1840=DIRECTION('center_axis',(0.,0.,1.));
#1841=DIRECTION('ref_axis',(1.,0.,0.));
#1842=DIRECTION('',(-1.,0.,0.));
#1843=DIRECTION('center_axis',(0.,-1.,0.));
#1844=DIRECTION('ref_axis',(1.,0.,0.));
#1845=DIRECTION('',(-1.,0.,0.));
#1846=DIRECTION('center_axis',(0.,1.,0.));
#1847=DIRECTION('ref_axis',(-1.,0.,0.));
#1848=DIRECTION('',(1.,0.,0.));
#1849=DIRECTION('center_axis',(1.,0.,0.));
#1850=DIRECTION('ref_axis',(0.,1.,0.));
#1851=DIRECTION('',(0.,1.,0.));
#1852=DIRECTION('',(0.,1.,0.));
#1853=DIRECTION('center_axis',(0.,0.,1.));
#1854=DIRECTION('ref_axis',(1.,0.,0.));
#1855=DIRECTION('center_axis',(0.,0.,1.));
#1856=DIRECTION('ref_axis',(1.,0.,0.));
#1857=CARTESIAN_POINT('',(0.,0.,0.));
#1858=CARTESIAN_POINT('Origin',(137.,44.,29.));
#1859=CARTESIAN_POINT('',(138.,44.,29.));
#1860=CARTESIAN_POINT('',(138.,28.,29.));
#1861=CARTESIAN_POINT('',(138.,20.5,29.));
#1862=CARTESIAN_POINT('',(141.,44.,29.));
#1863=CARTESIAN_POINT('',(137.,44.,29.));
#1864=CARTESIAN_POINT('',(141.,28.,29.));
#1865=CARTESIAN_POINT('',(141.,18.5,29.));
#1866=CARTESIAN_POINT('',(137.,28.,29.));
#1867=CARTESIAN_POINT('Origin',(137.,28.,29.));
#1868=CARTESIAN_POINT('',(138.,28.,19.5));
#1869=CARTESIAN_POINT('',(138.,28.,12.));
#1870=CARTESIAN_POINT('',(141.,28.,19.5));
#1871=CARTESIAN_POINT('',(141.,28.,10.5));
#1872=CARTESIAN_POINT('',(137.,28.,19.5));
#1873=CARTESIAN_POINT('Origin',(137.,28.,19.5));
#1874=CARTESIAN_POINT('',(138.,44.,19.5));
#1875=CARTESIAN_POINT('',(138.,12.5,19.5));
#1876=CARTESIAN_POINT('',(141.,44.,19.5));
#1877=CARTESIAN_POINT('',(141.,10.5,19.5));
#1878=CARTESIAN_POINT('',(137.,44.,19.5));
#1879=CARTESIAN_POINT('Origin',(137.,44.,19.5));
#1880=CARTESIAN_POINT('',(138.,44.,7.25));
#1881=CARTESIAN_POINT('',(141.,44.,5.75));
#1882=CARTESIAN_POINT('Origin',(137.,22.,8.5));
#1883=CARTESIAN_POINT('',(138.,22.,8.5));
#1884=CARTESIAN_POINT('',(138.,7.,8.5));
#1885=CARTESIAN_POINT('',(138.,9.5,8.5));
#1886=CARTESIAN_POINT('',(141.,22.,8.5));
#1887=CARTESIAN_POINT('',(137.,22.,8.5));
#1888=CARTESIAN_POINT('',(141.,7.,8.5));
#1889=CARTESIAN_POINT('',(141.,7.5,8.5));
#1890=CARTESIAN_POINT('',(137.,7.,8.5));
#1891=CARTESIAN_POINT('Origin',(137.,7.,8.5));
#1892=CARTESIAN_POINT('',(138.,7.,-0.5));
#1893=CARTESIAN_POINT('',(138.,7.,1.75));
#1894=CARTESIAN_POINT('',(141.,7.,-0.5));
#1895=CARTESIAN_POINT('',(141.,7.,0.25));
#1896=CARTESIAN_POINT('',(137.,7.,-0.5));
#1897=CARTESIAN_POINT('Origin',(137.,7.,-0.5));
#1898=CARTESIAN_POINT('',(138.,22.,-0.5));
#1899=CARTESIAN_POINT('',(138.,2.,-0.5));
#1900=CARTESIAN_POINT('',(141.,22.,-0.5));
#1901=CARTESIAN_POINT('',(141.,5.55111512312578E-16,-0.5));
#1902=CARTESIAN_POINT('',(137.,22.,-0.5));
#1903=CARTESIAN_POINT('Origin',(137.,22.,-0.5));
#1904=CARTESIAN_POINT('',(138.,22.,-2.75));
#1905=CARTESIAN_POINT('',(141.,22.,-4.25));
#1906=CARTESIAN_POINT('Origin',(-7.,43.5,8.5));
#1907=CARTESIAN_POINT('',(-3.,28.5,8.5));
#1908=CARTESIAN_POINT('',(-3.,43.5,8.5));
#1909=CARTESIAN_POINT('',(-3.,59.25,8.5));
#1910=CARTESIAN_POINT('',(-6.,28.5,8.5));
#1911=CARTESIAN_POINT('',(-7.,28.5,8.5));
#1912=CARTESIAN_POINT('',(-6.,43.5,8.5));
#1913=CARTESIAN_POINT('',(-6.,61.25,8.5));
#1914=CARTESIAN_POINT('',(-7.,43.5,8.5));
#1915=CARTESIAN_POINT('Origin',(-7.,43.5,-0.5));
#1916=CARTESIAN_POINT('',(-3.,43.5,-0.5));
#1917=CARTESIAN_POINT('',(-3.,43.5,-2.75));
#1918=CARTESIAN_POINT('',(-6.,43.5,-0.5));
#1919=CARTESIAN_POINT('',(-6.,43.5,-4.25));
#1920=CARTESIAN_POINT('',(-7.,43.5,-0.5));
#1921=CARTESIAN_POINT('Origin',(-7.,28.5,-0.5));
#1922=CARTESIAN_POINT('',(-3.,28.5,-0.5));
#1923=CARTESIAN_POINT('',(-3.,51.75,-0.5));
#1924=CARTESIAN_POINT('',(-6.,28.5,-0.5));
#1925=CARTESIAN_POINT('',(-6.,53.75,-0.5));
#1926=CARTESIAN_POINT('',(-7.,28.5,-0.5));
#1927=CARTESIAN_POINT('Origin',(-7.,28.5,8.5));
#1928=CARTESIAN_POINT('',(-3.,28.5,1.75));
#1929=CARTESIAN_POINT('',(-6.,28.5,0.25));
#1930=CARTESIAN_POINT('Origin',(125.,67.,-8.));
#1931=CARTESIAN_POINT('',(125.,67.,-8.));
#1932=CARTESIAN_POINT('',(10.,67.,-8.));
#1933=CARTESIAN_POINT('',(96.25,67.,-8.));
#1934=CARTESIAN_POINT('',(125.,67.,-6.5));
#1935=CARTESIAN_POINT('',(125.,67.,-8.));
#1936=CARTESIAN_POINT('',(10.,67.,-6.5));
#1937=CARTESIAN_POINT('',(125.,67.,-6.5));
#1938=CARTESIAN_POINT('',(10.,67.,-8.));
#1939=CARTESIAN_POINT('Origin',(125.,5.,-8.));
#1940=CARTESIAN_POINT('',(125.,5.,-8.));
#1941=CARTESIAN_POINT('',(125.,20.5,-8.));
#1942=CARTESIAN_POINT('',(125.,5.,-6.5));
#1943=CARTESIAN_POINT('',(125.,5.,-8.));
#1944=CARTESIAN_POINT('',(125.,5.,-6.5));
#1945=CARTESIAN_POINT('Origin',(10.,5.,-8.));
#1946=CARTESIAN_POINT('',(10.,5.,-8.));
#1947=CARTESIAN_POINT('',(38.75,5.,-8.));
#1948=CARTESIAN_POINT('',(10.,5.,-6.5));
#1949=CARTESIAN_POINT('',(10.,5.,-8.));
#1950=CARTESIAN_POINT('',(10.,5.,-6.5));
#1951=CARTESIAN_POINT('Origin',(10.,67.,-8.));
#1952=CARTESIAN_POINT('',(10.,51.5,-8.));
#1953=CARTESIAN_POINT('',(10.,67.,-6.5));
#1954=CARTESIAN_POINT('Origin',(67.5,36.,-6.5));
#1955=CARTESIAN_POINT('Origin',(135.,78.,-5.));
#1956=CARTESIAN_POINT('',(135.,75.,-5.));
#1957=CARTESIAN_POINT('',(135.,75.,3.));
#1958=CARTESIAN_POINT('',(135.,75.,-5.));
#1959=CARTESIAN_POINT('',(135.,72.,-5.));
#1960=CARTESIAN_POINT('',(135.,57.,-5.));
#1961=CARTESIAN_POINT('',(135.,72.,3.));
#1962=CARTESIAN_POINT('',(135.,72.,-5.));
#1963=CARTESIAN_POINT('',(135.,78.,3.));
#1964=CARTESIAN_POINT('Origin',(135.,72.,-5.));
#1965=CARTESIAN_POINT('',(138.,72.,-5.));
#1966=CARTESIAN_POINT('',(101.25,72.,-5.));
#1967=CARTESIAN_POINT('',(138.,72.,3.));
#1968=CARTESIAN_POINT('',(138.,72.,-5.));
#1969=CARTESIAN_POINT('',(135.,72.,3.));
#1970=CARTESIAN_POINT('Origin',(136.5,75.,3.));
#1971=CARTESIAN_POINT('',(138.,75.,3.));
#1972=CARTESIAN_POINT('',(137.25,75.,3.));
#1973=CARTESIAN_POINT('',(138.,36.,3.));
#1974=CARTESIAN_POINT('Origin',(138.,75.,-5.));
#1975=CARTESIAN_POINT('',(138.,75.,34.));
#1976=CARTESIAN_POINT('',(138.,75.,-5.));
#1977=CARTESIAN_POINT('',(-3.,75.,34.));
#1978=CARTESIAN_POINT('',(102.,75.,34.));
#1979=CARTESIAN_POINT('',(-3.,75.,3.));
#1980=CARTESIAN_POINT('',(-3.,75.,-5.));
#1981=CARTESIAN_POINT('',(0.,75.,3.));
#1982=CARTESIAN_POINT('',(68.25,75.,3.));
#1983=CARTESIAN_POINT('',(0.,75.,-5.));
#1984=CARTESIAN_POINT('',(0.,75.,-5.));
#1985=CARTESIAN_POINT('',(138.,75.,-5.));
#1986=CARTESIAN_POINT('Origin',(138.,-3.,-5.));
#1987=CARTESIAN_POINT('',(138.,3.,-5.));
#1988=CARTESIAN_POINT('',(138.,-3.,-5.));
#1989=CARTESIAN_POINT('',(138.,3.,3.));
#1990=CARTESIAN_POINT('',(138.,3.,-5.));
#1991=CARTESIAN_POINT('',(138.,-3.,3.));
#1992=CARTESIAN_POINT('',(138.,-1.5,3.));
#1993=CARTESIAN_POINT('',(138.,-3.,34.));
#1994=CARTESIAN_POINT('',(138.,-3.,-5.));
#1995=CARTESIAN_POINT('',(138.,-5.5,34.));
#1996=CARTESIAN_POINT('',(138.,-5.5,34.));
#1997=CARTESIAN_POINT('',(138.,-5.5,36.8));
#1998=CARTESIAN_POINT('',(138.,-5.5,34.));
#1999=CARTESIAN_POINT('',(138.,-3.,36.8));
#2000=CARTESIAN_POINT('',(138.,-5.5,36.8));
#2001=CARTESIAN_POINT('',(138.,-3.,38.5));
#2002=CARTESIAN_POINT('',(138.,-3.,-5.));
#2003=CARTESIAN_POINT('',(138.,75.,38.5));
#2004=CARTESIAN_POINT('',(138.,16.5,38.5));
#2005=CARTESIAN_POINT('',(138.,75.,36.8));
#2006=CARTESIAN_POINT('',(138.,75.,-5.));
#2007=CARTESIAN_POINT('',(138.,77.5,36.8));
#2008=CARTESIAN_POINT('',(138.,75.,36.8));
#2009=CARTESIAN_POINT('',(138.,77.5,34.));
#2010=CARTESIAN_POINT('',(138.,77.5,34.));
#2011=CARTESIAN_POINT('',(138.,75.,34.));
#2012=CARTESIAN_POINT('Origin',(138.,3.,-5.));
#2013=CARTESIAN_POINT('',(135.,3.,-5.));
#2014=CARTESIAN_POINT('',(102.75,3.,-5.));
#2015=CARTESIAN_POINT('',(135.,3.,3.));
#2016=CARTESIAN_POINT('',(135.,3.,-5.));
#2017=CARTESIAN_POINT('',(138.,3.,3.));
#2018=CARTESIAN_POINT('Origin',(135.,3.,-5.));
#2019=CARTESIAN_POINT('',(135.,-3.,-5.));
#2020=CARTESIAN_POINT('',(135.,19.5,-5.));
#2021=CARTESIAN_POINT('',(135.,-3.,3.));
#2022=CARTESIAN_POINT('',(135.,-3.,-5.));
#2023=CARTESIAN_POINT('',(135.,3.,3.));
#2024=CARTESIAN_POINT('Origin',(136.5,0.,3.));
#2025=CARTESIAN_POINT('',(66.75,-3.,3.));
#2026=CARTESIAN_POINT('Origin',(-3.,-3.,-5.));
#2027=CARTESIAN_POINT('',(0.,-3.,-5.));
#2028=CARTESIAN_POINT('',(-3.,-3.,-5.));
#2029=CARTESIAN_POINT('',(0.,-3.,3.));
#2030=CARTESIAN_POINT('',(0.,-3.,-5.));
#2031=CARTESIAN_POINT('',(-3.,-3.,3.));
#2032=CARTESIAN_POINT('',(-2.25,-3.,3.));
#2033=CARTESIAN_POINT('',(-3.00000000000001,-3.,34.));
#2034=CARTESIAN_POINT('',(-3.,-3.,-5.));
#2035=CARTESIAN_POINT('',(31.5,-3.,34.));
#2036=CARTESIAN_POINT('Origin',(67.5,36.,-5.));
#2037=CARTESIAN_POINT('',(0.,72.,-5.));
#2038=CARTESIAN_POINT('',(0.,54.,-5.));
#2039=CARTESIAN_POINT('',(-3.,72.,-5.));
#2040=CARTESIAN_POINT('',(32.25,72.,-5.));
#2041=CARTESIAN_POINT('',(-3.,3.,-5.));
#2042=CARTESIAN_POINT('',(-3.,75.,-5.));
#2043=CARTESIAN_POINT('',(0.,3.,-5.));
#2044=CARTESIAN_POINT('',(33.75,3.,-5.));
#2045=CARTESIAN_POINT('',(0.,16.5,-5.));
#2046=CARTESIAN_POINT('',(34.,34.,-5.));
#2047=CARTESIAN_POINT('',(34.,-2.,-5.));
#2048=CARTESIAN_POINT('',(34.,17.,-5.));
#2049=CARTESIAN_POINT('',(30.,-2.,-5.));
#2050=CARTESIAN_POINT('',(48.75,-2.,-5.));
#2051=CARTESIAN_POINT('',(30.,34.,-5.));
#2052=CARTESIAN_POINT('',(30.,55.,-5.));
#2053=CARTESIAN_POINT('',(8.,34.,-5.));
#2054=CARTESIAN_POINT('',(32.75,34.,-5.));
#2055=CARTESIAN_POINT('',(8.,-2.,-5.));
#2056=CARTESIAN_POINT('',(8.,17.,-5.));
#2057=CARTESIAN_POINT('',(4.,-2.,-5.));
#2058=CARTESIAN_POINT('',(35.75,-2.,-5.));
#2059=CARTESIAN_POINT('',(4.,34.,-5.));
#2060=CARTESIAN_POINT('',(4.,55.,-5.));
#2061=CARTESIAN_POINT('',(-2.,34.,-5.));
#2062=CARTESIAN_POINT('',(32.75,34.,-5.));
#2063=CARTESIAN_POINT('',(-2.,38.,-5.));
#2064=CARTESIAN_POINT('',(-2.,37.,-5.));
#2065=CARTESIAN_POINT('',(4.,38.,-5.));
#2066=CARTESIAN_POINT('',(101.25,38.,-5.));
#2067=CARTESIAN_POINT('',(4.,74.,-5.));
#2068=CARTESIAN_POINT('',(4.,55.,-5.));
#2069=CARTESIAN_POINT('',(8.,74.,-5.));
#2070=CARTESIAN_POINT('',(37.75,74.,-5.));
#2071=CARTESIAN_POINT('',(8.,38.,-5.));
#2072=CARTESIAN_POINT('',(8.,17.,-5.));
#2073=CARTESIAN_POINT('',(30.,38.,-5.));
#2074=CARTESIAN_POINT('',(101.25,38.,-5.));
#2075=CARTESIAN_POINT('',(30.,74.,-5.));
#2076=CARTESIAN_POINT('',(30.,55.,-5.));
#2077=CARTESIAN_POINT('',(34.,74.,-5.));
#2078=CARTESIAN_POINT('',(50.75,74.,-5.));
#2079=CARTESIAN_POINT('',(34.,38.,-5.));
#2080=CARTESIAN_POINT('',(34.,17.,-5.));
#2081=CARTESIAN_POINT('',(135.,38.,-5.));
#2082=CARTESIAN_POINT('',(101.25,38.,-5.));
#2083=CARTESIAN_POINT('',(135.,34.,-5.));
#2084=CARTESIAN_POINT('',(135.,35.,-5.));
#2085=CARTESIAN_POINT('',(32.75,34.,-5.));
#2086=CARTESIAN_POINT('Origin',(-1.5,75.,3.));
#2087=CARTESIAN_POINT('',(-3.,72.,3.));
#2088=CARTESIAN_POINT('',(-3.,75.,3.));
#2089=CARTESIAN_POINT('',(0.,72.,3.));
#2090=CARTESIAN_POINT('',(-3.,72.,3.));
#2091=CARTESIAN_POINT('',(0.,72.,3.));
#2092=CARTESIAN_POINT('Origin',(0.,72.,-5.));
#2093=CARTESIAN_POINT('',(0.,72.,-5.));
#2094=CARTESIAN_POINT('Origin',(-3.,72.,-5.));
#2095=CARTESIAN_POINT('',(-3.,72.,-5.));
#2096=CARTESIAN_POINT('Origin',(0.,3.,-5.));
#2097=CARTESIAN_POINT('',(-3.,3.,3.));
#2098=CARTESIAN_POINT('',(-3.,3.,-5.));
#2099=CARTESIAN_POINT('',(0.,3.,3.));
#2100=CARTESIAN_POINT('',(0.,3.,3.));
#2101=CARTESIAN_POINT('',(0.,3.,-5.));
#2102=CARTESIAN_POINT('Origin',(0.,-3.,-5.));
#2103=CARTESIAN_POINT('',(0.,-3.,3.));
#2104=CARTESIAN_POINT('Origin',(-1.5,0.,3.));
#2105=CARTESIAN_POINT('',(-3.,37.5,3.));
#2106=CARTESIAN_POINT('Origin',(-3.,75.,-5.));
#2107=CARTESIAN_POINT('',(-3.,55.5,34.));
#2108=CARTESIAN_POINT('Origin',(34.,-2.,-5.));
#2109=CARTESIAN_POINT('',(34.,38.,0.));
#2110=CARTESIAN_POINT('',(34.,38.,-5.));
#2111=CARTESIAN_POINT('',(34.,74.,0.));
#2112=CARTESIAN_POINT('',(34.,74.,-5.));
#2113=CARTESIAN_POINT('',(34.,-2.,0.));
#2114=CARTESIAN_POINT('Origin',(34.,-2.,-5.));
#2115=CARTESIAN_POINT('',(34.,34.,0.));
#2116=CARTESIAN_POINT('',(34.,34.,-5.));
#2117=CARTESIAN_POINT('',(34.,-2.,0.));
#2118=CARTESIAN_POINT('',(34.,-2.,0.));
#2119=CARTESIAN_POINT('',(34.,-2.,-5.));
#2120=CARTESIAN_POINT('Origin',(30.,74.,-5.));
#2121=CARTESIAN_POINT('',(30.,38.,0.));
#2122=CARTESIAN_POINT('',(30.,38.,-5.));
#2123=CARTESIAN_POINT('',(30.,74.,0.));
#2124=CARTESIAN_POINT('',(30.,74.,0.));
#2125=CARTESIAN_POINT('',(30.,74.,-5.));
#2126=CARTESIAN_POINT('Origin',(34.,74.,-5.));
#2127=CARTESIAN_POINT('',(34.,74.,0.));
#2128=CARTESIAN_POINT('Origin',(30.,-2.,-5.));
#2129=CARTESIAN_POINT('',(30.,-2.,0.));
#2130=CARTESIAN_POINT('',(30.,-2.,0.));
#2131=CARTESIAN_POINT('',(30.,-2.,-5.));
#2132=CARTESIAN_POINT('Origin',(30.,74.,-5.));
#2133=CARTESIAN_POINT('',(30.,34.,0.));
#2134=CARTESIAN_POINT('',(30.,34.,-5.));
#2135=CARTESIAN_POINT('',(30.,74.,0.));
#2136=CARTESIAN_POINT('Origin',(-2.,34.,-5.));
#2137=CARTESIAN_POINT('',(8.,34.,0.));
#2138=CARTESIAN_POINT('',(-2.,34.,0.));
#2139=CARTESIAN_POINT('',(8.,34.,-5.));
#2140=CARTESIAN_POINT('Origin',(135.,38.,-5.));
#2141=CARTESIAN_POINT('',(8.,38.,0.));
#2142=CARTESIAN_POINT('',(8.00000000000001,38.,-5.));
#2143=CARTESIAN_POINT('',(135.,38.,0.));
#2144=CARTESIAN_POINT('Origin',(8.,-2.,-5.));
#2145=CARTESIAN_POINT('',(8.,-2.,0.));
#2146=CARTESIAN_POINT('',(8.,-2.,0.));
#2147=CARTESIAN_POINT('',(8.,-2.,-5.));
#2148=CARTESIAN_POINT('Origin',(4.,74.,-5.));
#2149=CARTESIAN_POINT('',(4.,34.,0.));
#2150=CARTESIAN_POINT('',(4.,34.,-5.));
#2151=CARTESIAN_POINT('',(4.,-2.,0.));
#2152=CARTESIAN_POINT('',(4.,-2.,-5.));
#2153=CARTESIAN_POINT('',(4.,74.,0.));
#2154=CARTESIAN_POINT('Origin',(4.,74.,-5.));
#2155=CARTESIAN_POINT('',(4.,38.,0.));
#2156=CARTESIAN_POINT('',(4.,38.,-5.));
#2157=CARTESIAN_POINT('',(4.,74.,0.));
#2158=CARTESIAN_POINT('',(4.,74.,0.));
#2159=CARTESIAN_POINT('',(4.,74.,-5.));
#2160=CARTESIAN_POINT('Origin',(8.,74.,-5.));
#2161=CARTESIAN_POINT('',(8.,74.,0.));
#2162=CARTESIAN_POINT('',(8.,74.,0.));
#2163=CARTESIAN_POINT('',(8.,74.,-5.));
#2164=CARTESIAN_POINT('Origin',(8.,-2.,-5.));
#2165=CARTESIAN_POINT('',(8.,-2.,0.));
#2166=CARTESIAN_POINT('Origin',(4.,-2.,-5.));
#2167=CARTESIAN_POINT('',(4.,-2.,0.));
#2168=CARTESIAN_POINT('Origin',(135.,38.,-5.));
#2169=CARTESIAN_POINT('',(-2.,38.,0.));
#2170=CARTESIAN_POINT('',(-2.,38.,-5.));
#2171=CARTESIAN_POINT('',(135.,38.,0.));
#2172=CARTESIAN_POINT('Origin',(135.,38.,-5.));
#2173=CARTESIAN_POINT('',(135.,38.,0.));
#2174=CARTESIAN_POINT('',(135.,38.,0.));
#2175=CARTESIAN_POINT('',(135.,38.,-5.));
#2176=CARTESIAN_POINT('Origin',(66.5,36.,0.));
#2177=CARTESIAN_POINT('',(135.,34.,0.));
#2178=CARTESIAN_POINT('',(-2.,34.,0.));
#2179=CARTESIAN_POINT('',(135.,34.,0.));
#2180=CARTESIAN_POINT('',(-2.,34.,0.));
#2181=CARTESIAN_POINT('',(-2.,38.,0.));
#2182=CARTESIAN_POINT('',(-2.,34.,0.));
#2183=CARTESIAN_POINT('Origin',(-2.,34.,-5.));
#2184=CARTESIAN_POINT('',(-2.,34.,-5.));
#2185=CARTESIAN_POINT('Origin',(135.,34.,-5.));
#2186=CARTESIAN_POINT('',(135.,34.,-5.));
#2187=CARTESIAN_POINT('Origin',(-2.,34.,-5.));
#2188=CARTESIAN_POINT('Origin',(-2.,38.,-5.));
#2189=CARTESIAN_POINT('Origin',(-3.,-7.,34.));
#2190=CARTESIAN_POINT('',(-3.,-3.,38.5));
#2191=CARTESIAN_POINT('',(-3.,-7.,38.5));
#2192=CARTESIAN_POINT('',(-3.,14.5,38.5));
#2193=CARTESIAN_POINT('',(-3.00000000000001,-3.,36.8));
#2194=CARTESIAN_POINT('',(-3.,-3.,-5.));
#2195=CARTESIAN_POINT('',(-3.,-5.5,36.8));
#2196=CARTESIAN_POINT('',(-3.,-5.625,36.8));
#2197=CARTESIAN_POINT('',(-3.,-5.5,34.));
#2198=CARTESIAN_POINT('',(-3.,-5.5,34.));
#2199=CARTESIAN_POINT('',(-3.,-7.,34.));
#2200=CARTESIAN_POINT('',(-3.,-7.,34.));
#2201=CARTESIAN_POINT('',(-3.,-7.,13.));
#2202=CARTESIAN_POINT('Origin',(-3.,-7.,34.));
#2203=CARTESIAN_POINT('',(-3.00000000000001,77.5,36.8));
#2204=CARTESIAN_POINT('',(-3.,77.5,34.));
#2205=CARTESIAN_POINT('',(-3.00000000000001,77.5,34.));
#2206=CARTESIAN_POINT('',(-3.,75.,36.8));
#2207=CARTESIAN_POINT('',(-3.,34.625,36.8));
#2208=CARTESIAN_POINT('',(-3.,75.,38.5));
#2209=CARTESIAN_POINT('',(-3.,75.,-5.));
#2210=CARTESIAN_POINT('',(-3.,79.,38.5));
#2211=CARTESIAN_POINT('',(-3.,14.5,38.5));
#2212=CARTESIAN_POINT('',(-3.,79.,34.));
#2213=CARTESIAN_POINT('',(-3.00000000000001,79.,13.));
#2214=CARTESIAN_POINT('',(-3.,-7.,34.));
#2215=CARTESIAN_POINT('Origin',(138.,77.5,34.));
#2216=CARTESIAN_POINT('',(138.,77.5,34.));
#2217=CARTESIAN_POINT('',(138.,77.5,36.8));
#2218=CARTESIAN_POINT('Origin',(66.,76.25,34.));
#2219=CARTESIAN_POINT('',(-6.,79.,34.));
#2220=CARTESIAN_POINT('',(68.25,79.,34.));
#2221=CARTESIAN_POINT('',(-6.,-7.,34.));
#2222=CARTESIAN_POINT('',(-6.,57.5,34.));
#2223=CARTESIAN_POINT('',(-5.25,-7.,34.));
#2224=CARTESIAN_POINT('',(-6.,-5.5,34.));
#2225=CARTESIAN_POINT('Origin',(141.,79.,-8.));
#2226=CARTESIAN_POINT('',(141.,79.,38.5));
#2227=CARTESIAN_POINT('',(141.,79.,38.5));
#2228=CARTESIAN_POINT('',(141.,79.,-8.));
#2229=CARTESIAN_POINT('',(141.,79.,-8.));
#2230=CARTESIAN_POINT('',(-6.,79.,-8.));
#2231=CARTESIAN_POINT('',(141.,79.,-8.));
#2232=CARTESIAN_POINT('',(-6.,79.,-8.));
#2233=CARTESIAN_POINT('Origin',(-6.,-7.,-8.));
#2234=CARTESIAN_POINT('',(-6.,-7.,-8.));
#2235=CARTESIAN_POINT('',(-6.,-7.,-8.));
#2236=CARTESIAN_POINT('',(141.,-7.,-8.));
#2237=CARTESIAN_POINT('',(-6.,-7.,-8.));
#2238=CARTESIAN_POINT('',(141.,-7.,38.5));
#2239=CARTESIAN_POINT('',(141.,-7.,-8.));
#2240=CARTESIAN_POINT('',(-6.,-7.,38.5));
#2241=CARTESIAN_POINT('Origin',(-6.,79.,-8.));
#2242=CARTESIAN_POINT('',(-6.,79.,-8.));
#2243=CARTESIAN_POINT('Origin',(66.,76.25,36.8));
#2244=CARTESIAN_POINT('',(102.,75.,36.8));
#2245=CARTESIAN_POINT('Origin',(-6.,-5.5,34.));
#2246=CARTESIAN_POINT('',(-6.,-5.5,36.8));
#2247=CARTESIAN_POINT('Origin',(66.,-4.25,36.8));
#2248=CARTESIAN_POINT('',(31.5,-3.,36.8));
#2249=CARTESIAN_POINT('Origin',(-3.,-3.,-5.));
#2250=CARTESIAN_POINT('',(32.25,-3.,38.5));
#2251=CARTESIAN_POINT('Origin',(138.,75.,-5.));
#2252=CARTESIAN_POINT('',(102.75,75.,38.5));
#2253=CARTESIAN_POINT('Origin',(141.,-7.,-8.));
#2254=CARTESIAN_POINT('',(141.,-7.,-8.));
#2255=CARTESIAN_POINT('',(141.,-7.,38.5));
#2256=CARTESIAN_POINT('Origin',(67.5,36.,38.5));
#2257=CARTESIAN_POINT('Origin',(67.5,36.,-8.));
#2258=UNCERTAINTY_MEASURE_WITH_UNIT(LENGTH_MEASURE(0.01),#2262,
'DISTANCE_ACCURACY_VALUE',
'Maximum model space distance between geometric entities at asserted c
onnectivities');
#2259=UNCERTAINTY_MEASURE_WITH_UNIT(LENGTH_MEASURE(0.01),#2262,
'DISTANCE_ACCURACY_VALUE',
'Maximum model space distance between geometric entities at asserted c
onnectivities');
#2260=(
GEOMETRIC_REPRESENTATION_CONTEXT(3)
GLOBAL_UNCERTAINTY_ASSIGNED_CONTEXT((#2258))
GLOBAL_UNIT_ASSIGNED_CONTEXT((#2262,#2264,#2265))
REPRESENTATION_CONTEXT('','3D')
);
#2261=(
GEOMETRIC_REPRESENTATION_CONTEXT(3)
GLOBAL_UNCERTAINTY_ASSIGNED_CONTEXT((#2259))
GLOBAL_UNIT_ASSIGNED_CONTEXT((#2262,#2264,#2265))
REPRESENTATION_CONTEXT('','3D')
);
#2262=(
LENGTH_UNIT()
NAMED_UNIT(*)
SI_UNIT(.MILLI.,.METRE.)
);
#2263=(
LENGTH_UNIT()
NAMED_UNIT(*)
SI_UNIT($,.METRE.)
);
#2264=(
NAMED_UNIT(*)
PLANE_ANGLE_UNIT()
SI_UNIT($,.RADIAN.)
);
#2265=(
NAMED_UNIT(*)
SI_UNIT($,.STERADIAN.)
SOLID_ANGLE_UNIT()
);
#2266=SHAPE_DEFINITION_REPRESENTATION(#2267,#2268);
#2267=PRODUCT_DEFINITION_SHAPE('',$,#2270);
#2268=SHAPE_REPRESENTATION('',(#1446),#2260);
#2269=PRODUCT_DEFINITION_CONTEXT('part definition',#2274,'design');
#2270=PRODUCT_DEFINITION('2026-08-24-16-12-20-008','08_Case_Base',#2271,
#2269);
#2271=PRODUCT_DEFINITION_FORMATION('',$,#2276);
#2272=PRODUCT_RELATED_PRODUCT_CATEGORY('08_Case_Base','08_Case_Base',(#2276));
#2273=APPLICATION_PROTOCOL_DEFINITION('international standard',
'automotive_design',2009,#2274);
#2274=APPLICATION_CONTEXT(
'Core Data for Automotive Mechanical Design Process');
#2275=PRODUCT_CONTEXT('part definition',#2274,'mechanical');
#2276=PRODUCT('2026-08-24-16-12-20-008','08_Case_Base',$,(#2275));
#2277=PRESENTATION_STYLE_ASSIGNMENT((#2279));
#2278=PRESENTATION_STYLE_ASSIGNMENT((#2280));
#2279=SURFACE_STYLE_USAGE(.BOTH.,#2281);
#2280=SURFACE_STYLE_USAGE(.BOTH.,#2282);
#2281=SURFACE_SIDE_STYLE('',(#2283));
#2282=SURFACE_SIDE_STYLE('',(#2284));
#2283=SURFACE_STYLE_FILL_AREA(#2285);
#2284=SURFACE_STYLE_FILL_AREA(#2286);
#2285=FILL_AREA_STYLE('A\X\E7o - Acetinado',(#2287));
#2286=FILL_AREA_STYLE('Pl\X\E1stico - Fosco (Cinza)',(#2288));
#2287=FILL_AREA_STYLE_COLOUR('A\X\E7o - Acetinado',#2289);
#2288=FILL_AREA_STYLE_COLOUR('Pl\X\E1stico - Fosco (Cinza)',#2290);
#2289=COLOUR_RGB('A\X\E7o - Acetinado',0.627450980392157,0.627450980392157,
0.627450980392157);
#2290=COLOUR_RGB('Pl\X\E1stico - Fosco (Cinza)',0.701960784313725,0.701960784313725,
0.701960784313725);
ENDSEC;
END-ISO-10303-21;
