ISO-10303-21;
HEADER;
/* Generated by software containing ST-Developer
 * from STEP Tools, Inc. (www.steptools.com) 
 */

FILE_DESCRIPTION(
/* description */ (''),
/* implementation_level */ '2;1');

FILE_NAME(
/* name */ 'FA7155D_20Nm.step',
/* time_stamp */ '2026-08-11T10:55:15-03:00',
/* author */ (''),
/* organization */ (''),
/* preprocessor_version */ 'ST-DEVELOPER v20.1',
/* originating_system */ 'Autodesk Translation Framework v15.8.0.0',
/* authorisation */ '');

FILE_SCHEMA (('AUTOMOTIVE_DESIGN { 1 0 10303 214 3 1 1 }'));
ENDSEC;

DATA;
#10=MECHANICAL_DESIGN_GEOMETRIC_PRESENTATION_REPRESENTATION('',(#17),#1261);
#11=ITEM_DEFINED_TRANSFORMATION($,$,#686,#789);
#12=(
REPRESENTATION_RELATIONSHIP($,$,#1272,#1271)
REPRESENTATION_RELATIONSHIP_WITH_TRANSFORMATION(#11)
SHAPE_REPRESENTATION_RELATIONSHIP()
);
#13=CONTEXT_DEPENDENT_SHAPE_REPRESENTATION(#12,#1270);
#14=NEXT_ASSEMBLY_USAGE_OCCURRENCE('FA7155D_20Nm:1','FA7155D_20Nm:1',
'FA7155D_20Nm:1',#1274,#1275,'FA7155D_20Nm:1');
#15=SHAPE_REPRESENTATION_RELATIONSHIP('SRR','None',#1272,#16);
#16=ADVANCED_BREP_SHAPE_REPRESENTATION('',(#18),#1260);
#17=STYLED_ITEM('',(#1285),#18);
#18=MANIFOLD_SOLID_BREP('Corpo1',#672);
#19=FACE_BOUND('',#165,.T.);
#20=FACE_BOUND('',#166,.T.);
#21=FACE_BOUND('',#167,.T.);
#22=FACE_BOUND('',#168,.T.);
#23=FACE_BOUND('',#169,.T.);
#24=FACE_BOUND('',#170,.T.);
#25=FACE_BOUND('',#171,.T.);
#26=FACE_BOUND('',#173,.T.);
#27=FACE_BOUND('',#174,.T.);
#28=FACE_BOUND('',#175,.T.);
#29=FACE_BOUND('',#176,.T.);
#30=FACE_BOUND('',#177,.T.);
#31=FACE_BOUND('',#178,.T.);
#32=FACE_BOUND('',#179,.T.);
#33=FACE_BOUND('',#183,.T.);
#34=FACE_BOUND('',#184,.T.);
#35=FACE_BOUND('',#185,.T.);
#36=FACE_BOUND('',#186,.T.);
#37=FACE_BOUND('',#187,.T.);
#38=FACE_BOUND('',#188,.T.);
#39=FACE_BOUND('',#189,.T.);
#40=FACE_BOUND('',#190,.T.);
#41=PLANE('',#689);
#42=PLANE('',#697);
#43=PLANE('',#701);
#44=PLANE('',#705);
#45=PLANE('',#709);
#46=PLANE('',#713);
#47=PLANE('',#717);
#48=PLANE('',#721);
#49=PLANE('',#725);
#50=PLANE('',#729);
#51=PLANE('',#733);
#52=PLANE('',#737);
#53=PLANE('',#741);
#54=PLANE('',#745);
#55=PLANE('',#749);
#56=PLANE('',#753);
#57=PLANE('',#757);
#58=PLANE('',#761);
#59=PLANE('',#765);
#60=PLANE('',#769);
#61=PLANE('',#773);
#62=PLANE('',#777);
#63=PLANE('',#781);
#64=PLANE('',#782);
#65=PLANE('',#787);
#66=PLANE('',#788);
#67=FACE_OUTER_BOUND('',#118,.T.);
#68=FACE_OUTER_BOUND('',#119,.T.);
#69=FACE_OUTER_BOUND('',#120,.T.);
#70=FACE_OUTER_BOUND('',#121,.T.);
#71=FACE_OUTER_BOUND('',#122,.T.);
#72=FACE_OUTER_BOUND('',#123,.T.);
#73=FACE_OUTER_BOUND('',#124,.T.);
#74=FACE_OUTER_BOUND('',#125,.T.);
#75=FACE_OUTER_BOUND('',#126,.T.);
#76=FACE_OUTER_BOUND('',#127,.T.);
#77=FACE_OUTER_BOUND('',#128,.T.);
#78=FACE_OUTER_BOUND('',#129,.T.);
#79=FACE_OUTER_BOUND('',#130,.T.);
#80=FACE_OUTER_BOUND('',#131,.T.);
#81=FACE_OUTER_BOUND('',#132,.T.);
#82=FACE_OUTER_BOUND('',#133,.T.);
#83=FACE_OUTER_BOUND('',#134,.T.);
#84=FACE_OUTER_BOUND('',#135,.T.);
#85=FACE_OUTER_BOUND('',#136,.T.);
#86=FACE_OUTER_BOUND('',#137,.T.);
#87=FACE_OUTER_BOUND('',#138,.T.);
#88=FACE_OUTER_BOUND('',#139,.T.);
#89=FACE_OUTER_BOUND('',#140,.T.);
#90=FACE_OUTER_BOUND('',#141,.T.);
#91=FACE_OUTER_BOUND('',#142,.T.);
#92=FACE_OUTER_BOUND('',#143,.T.);
#93=FACE_OUTER_BOUND('',#144,.T.);
#94=FACE_OUTER_BOUND('',#145,.T.);
#95=FACE_OUTER_BOUND('',#146,.T.);
#96=FACE_OUTER_BOUND('',#147,.T.);
#97=FACE_OUTER_BOUND('',#148,.T.);
#98=FACE_OUTER_BOUND('',#149,.T.);
#99=FACE_OUTER_BOUND('',#150,.T.);
#100=FACE_OUTER_BOUND('',#151,.T.);
#101=FACE_OUTER_BOUND('',#152,.T.);
#102=FACE_OUTER_BOUND('',#153,.T.);
#103=FACE_OUTER_BOUND('',#154,.T.);
#104=FACE_OUTER_BOUND('',#155,.T.);
#105=FACE_OUTER_BOUND('',#156,.T.);
#106=FACE_OUTER_BOUND('',#157,.T.);
#107=FACE_OUTER_BOUND('',#158,.T.);
#108=FACE_OUTER_BOUND('',#159,.T.);
#109=FACE_OUTER_BOUND('',#160,.T.);
#110=FACE_OUTER_BOUND('',#161,.T.);
#111=FACE_OUTER_BOUND('',#162,.T.);
#112=FACE_OUTER_BOUND('',#163,.T.);
#113=FACE_OUTER_BOUND('',#164,.T.);
#114=FACE_OUTER_BOUND('',#172,.T.);
#115=FACE_OUTER_BOUND('',#180,.T.);
#116=FACE_OUTER_BOUND('',#181,.T.);
#117=FACE_OUTER_BOUND('',#182,.T.);
#118=EDGE_LOOP('',(#434,#435,#436,#437,#438,#439,#440,#441));
#119=EDGE_LOOP('',(#442));
#120=EDGE_LOOP('',(#443,#444,#445,#446,#447,#448,#449));
#121=EDGE_LOOP('',(#450,#451,#452,#453));
#122=EDGE_LOOP('',(#454));
#123=EDGE_LOOP('',(#455,#456,#457,#458));
#124=EDGE_LOOP('',(#459));
#125=EDGE_LOOP('',(#460,#461,#462,#463));
#126=EDGE_LOOP('',(#464));
#127=EDGE_LOOP('',(#465,#466,#467,#468));
#128=EDGE_LOOP('',(#469));
#129=EDGE_LOOP('',(#470,#471,#472,#473));
#130=EDGE_LOOP('',(#474));
#131=EDGE_LOOP('',(#475,#476,#477,#478));
#132=EDGE_LOOP('',(#479));
#133=EDGE_LOOP('',(#480,#481,#482,#483));
#134=EDGE_LOOP('',(#484));
#135=EDGE_LOOP('',(#485,#486,#487,#488));
#136=EDGE_LOOP('',(#489));
#137=EDGE_LOOP('',(#490,#491,#492,#493));
#138=EDGE_LOOP('',(#494));
#139=EDGE_LOOP('',(#495,#496,#497,#498));
#140=EDGE_LOOP('',(#499));
#141=EDGE_LOOP('',(#500,#501,#502,#503));
#142=EDGE_LOOP('',(#504));
#143=EDGE_LOOP('',(#505,#506,#507,#508));
#144=EDGE_LOOP('',(#509));
#145=EDGE_LOOP('',(#510,#511,#512,#513));
#146=EDGE_LOOP('',(#514));
#147=EDGE_LOOP('',(#515,#516,#517,#518));
#148=EDGE_LOOP('',(#519));
#149=EDGE_LOOP('',(#520,#521,#522,#523));
#150=EDGE_LOOP('',(#524));
#151=EDGE_LOOP('',(#525,#526,#527,#528));
#152=EDGE_LOOP('',(#529));
#153=EDGE_LOOP('',(#530,#531,#532,#533));
#154=EDGE_LOOP('',(#534));
#155=EDGE_LOOP('',(#535,#536,#537,#538));
#156=EDGE_LOOP('',(#539));
#157=EDGE_LOOP('',(#540,#541,#542,#543));
#158=EDGE_LOOP('',(#544));
#159=EDGE_LOOP('',(#545,#546,#547,#548));
#160=EDGE_LOOP('',(#549));
#161=EDGE_LOOP('',(#550,#551,#552,#553));
#162=EDGE_LOOP('',(#554));
#163=EDGE_LOOP('',(#555,#556,#557,#558));
#164=EDGE_LOOP('',(#559));
#165=EDGE_LOOP('',(#560));
#166=EDGE_LOOP('',(#561));
#167=EDGE_LOOP('',(#562));
#168=EDGE_LOOP('',(#563));
#169=EDGE_LOOP('',(#564));
#170=EDGE_LOOP('',(#565));
#171=EDGE_LOOP('',(#566));
#172=EDGE_LOOP('',(#567));
#173=EDGE_LOOP('',(#568));
#174=EDGE_LOOP('',(#569));
#175=EDGE_LOOP('',(#570));
#176=EDGE_LOOP('',(#571));
#177=EDGE_LOOP('',(#572));
#178=EDGE_LOOP('',(#573));
#179=EDGE_LOOP('',(#574));
#180=EDGE_LOOP('',(#575,#576,#577,#578,#579,#580));
#181=EDGE_LOOP('',(#581,#582,#583,#584,#585,#586));
#182=EDGE_LOOP('',(#587));
#183=EDGE_LOOP('',(#588));
#184=EDGE_LOOP('',(#589));
#185=EDGE_LOOP('',(#590));
#186=EDGE_LOOP('',(#591));
#187=EDGE_LOOP('',(#592));
#188=EDGE_LOOP('',(#593));
#189=EDGE_LOOP('',(#594));
#190=EDGE_LOOP('',(#595));
#191=B_SPLINE_CURVE_WITH_KNOTS('',3,(#1035,#1036,#1037,#1038,#1039,#1040,
#1041,#1042,#1043,#1044),.UNSPECIFIED.,.F.,.F.,(4,2,2,2,4),(1.15357412505667,
1.18761651506102,1.31957421055246,1.45153121995341,1.58348822935437),
 .UNSPECIFIED.);
#192=B_SPLINE_CURVE_WITH_KNOTS('',3,(#1048,#1049,#1050,#1051,#1052,#1053,
#1054,#1055,#1056,#1057,#1058,#1059,#1060,#1061,#1062,#1063,#1064,#1065,
#1066,#1067,#1068,#1069,#1070),.UNSPECIFIED.,.F.,.F.,(4,3,2,2,2,2,2,2,2,
2,4),(-0.097904230356246,0.,0.131922930128964,0.263845860257927,0.395768450056866,
0.527691039855804,0.659613629654743,0.791536219453681,0.923459149582645,
1.05538207971161,1.15328631011146),.UNSPECIFIED.);
#193=B_SPLINE_CURVE_WITH_KNOTS('',3,(#1073,#1074,#1075,#1076,#1077,#1078,
#1079,#1080,#1081,#1082),.UNSPECIFIED.,.F.,.F.,(4,2,2,2,4),(1.58348822935437,
1.71544523875532,1.84740224815628,1.97935994364772,2.01340233365207),
 .UNSPECIFIED.);
#194=LINE('',#1033,#221);
#195=LINE('',#1046,#222);
#196=LINE('',#1072,#223);
#197=LINE('',#1088,#224);
#198=LINE('',#1095,#225);
#199=LINE('',#1102,#226);
#200=LINE('',#1109,#227);
#201=LINE('',#1116,#228);
#202=LINE('',#1123,#229);
#203=LINE('',#1130,#230);
#204=LINE('',#1137,#231);
#205=LINE('',#1144,#232);
#206=LINE('',#1151,#233);
#207=LINE('',#1158,#234);
#208=LINE('',#1165,#235);
#209=LINE('',#1172,#236);
#210=LINE('',#1179,#237);
#211=LINE('',#1186,#238);
#212=LINE('',#1193,#239);
#213=LINE('',#1200,#240);
#214=LINE('',#1207,#241);
#215=LINE('',#1214,#242);
#216=LINE('',#1221,#243);
#217=LINE('',#1228,#244);
#218=LINE('',#1235,#245);
#219=LINE('',#1242,#246);
#220=LINE('',#1250,#247);
#221=VECTOR('',#798,3.5);
#222=VECTOR('',#799,10.);
#223=VECTOR('',#800,10.);
#224=VECTOR('',#807,31.5);
#225=VECTOR('',#816,2.);
#226=VECTOR('',#825,2.);
#227=VECTOR('',#834,2.);
#228=VECTOR('',#843,2.);
#229=VECTOR('',#852,2.);
#230=VECTOR('',#861,2.);
#231=VECTOR('',#870,2.5);
#232=VECTOR('',#879,2.5);
#233=VECTOR('',#888,3.);
#234=VECTOR('',#897,2.5);
#235=VECTOR('',#906,2.5);
#236=VECTOR('',#915,2.5);
#237=VECTOR('',#924,2.5);
#238=VECTOR('',#933,3.);
#239=VECTOR('',#942,3.);
#240=VECTOR('',#951,4.);
#241=VECTOR('',#960,3.);
#242=VECTOR('',#969,3.);
#243=VECTOR('',#978,3.);
#244=VECTOR('',#987,3.);
#245=VECTOR('',#996,3.);
#246=VECTOR('',#1005,19.);
#247=VECTOR('',#1016,37.5);
#248=CIRCLE('',#688,3.5);
#249=CIRCLE('',#691,31.5);
#250=CIRCLE('',#692,31.5);
#251=CIRCLE('',#693,31.5);
#252=CIRCLE('',#695,2.);
#253=CIRCLE('',#696,2.);
#254=CIRCLE('',#699,2.);
#255=CIRCLE('',#700,2.);
#256=CIRCLE('',#703,2.);
#257=CIRCLE('',#704,2.);
#258=CIRCLE('',#707,2.);
#259=CIRCLE('',#708,2.);
#260=CIRCLE('',#711,2.);
#261=CIRCLE('',#712,2.);
#262=CIRCLE('',#715,2.);
#263=CIRCLE('',#716,2.);
#264=CIRCLE('',#719,2.5);
#265=CIRCLE('',#720,2.5);
#266=CIRCLE('',#723,2.5);
#267=CIRCLE('',#724,2.5);
#268=CIRCLE('',#727,3.);
#269=CIRCLE('',#728,3.);
#270=CIRCLE('',#731,2.5);
#271=CIRCLE('',#732,2.5);
#272=CIRCLE('',#735,2.5);
#273=CIRCLE('',#736,2.5);
#274=CIRCLE('',#739,2.5);
#275=CIRCLE('',#740,2.5);
#276=CIRCLE('',#743,2.5);
#277=CIRCLE('',#744,2.5);
#278=CIRCLE('',#747,3.);
#279=CIRCLE('',#748,3.);
#280=CIRCLE('',#751,3.);
#281=CIRCLE('',#752,3.);
#282=CIRCLE('',#755,4.);
#283=CIRCLE('',#756,4.);
#284=CIRCLE('',#759,3.);
#285=CIRCLE('',#760,3.);
#286=CIRCLE('',#763,3.);
#287=CIRCLE('',#764,3.);
#288=CIRCLE('',#767,3.);
#289=CIRCLE('',#768,3.);
#290=CIRCLE('',#771,3.);
#291=CIRCLE('',#772,3.);
#292=CIRCLE('',#775,3.);
#293=CIRCLE('',#776,3.);
#294=CIRCLE('',#779,19.);
#295=CIRCLE('',#780,19.);
#296=CIRCLE('',#784,37.5);
#297=CIRCLE('',#785,37.5);
#298=CIRCLE('',#786,37.5);
#299=VERTEX_POINT('',#1030);
#300=VERTEX_POINT('',#1032);
#301=VERTEX_POINT('',#1034);
#302=VERTEX_POINT('',#1045);
#303=VERTEX_POINT('',#1047);
#304=VERTEX_POINT('',#1071);
#305=VERTEX_POINT('',#1085);
#306=VERTEX_POINT('',#1087);
#307=VERTEX_POINT('',#1092);
#308=VERTEX_POINT('',#1094);
#309=VERTEX_POINT('',#1099);
#310=VERTEX_POINT('',#1101);
#311=VERTEX_POINT('',#1106);
#312=VERTEX_POINT('',#1108);
#313=VERTEX_POINT('',#1113);
#314=VERTEX_POINT('',#1115);
#315=VERTEX_POINT('',#1120);
#316=VERTEX_POINT('',#1122);
#317=VERTEX_POINT('',#1127);
#318=VERTEX_POINT('',#1129);
#319=VERTEX_POINT('',#1134);
#320=VERTEX_POINT('',#1136);
#321=VERTEX_POINT('',#1141);
#322=VERTEX_POINT('',#1143);
#323=VERTEX_POINT('',#1148);
#324=VERTEX_POINT('',#1150);
#325=VERTEX_POINT('',#1155);
#326=VERTEX_POINT('',#1157);
#327=VERTEX_POINT('',#1162);
#328=VERTEX_POINT('',#1164);
#329=VERTEX_POINT('',#1169);
#330=VERTEX_POINT('',#1171);
#331=VERTEX_POINT('',#1176);
#332=VERTEX_POINT('',#1178);
#333=VERTEX_POINT('',#1183);
#334=VERTEX_POINT('',#1185);
#335=VERTEX_POINT('',#1190);
#336=VERTEX_POINT('',#1192);
#337=VERTEX_POINT('',#1197);
#338=VERTEX_POINT('',#1199);
#339=VERTEX_POINT('',#1204);
#340=VERTEX_POINT('',#1206);
#341=VERTEX_POINT('',#1211);
#342=VERTEX_POINT('',#1213);
#343=VERTEX_POINT('',#1218);
#344=VERTEX_POINT('',#1220);
#345=VERTEX_POINT('',#1225);
#346=VERTEX_POINT('',#1227);
#347=VERTEX_POINT('',#1232);
#348=VERTEX_POINT('',#1234);
#349=VERTEX_POINT('',#1239);
#350=VERTEX_POINT('',#1241);
#351=VERTEX_POINT('',#1247);
#352=VERTEX_POINT('',#1249);
#353=EDGE_CURVE('',#299,#299,#248,.T.);
#354=EDGE_CURVE('',#299,#300,#194,.T.);
#355=EDGE_CURVE('',#301,#300,#191,.T.);
#356=EDGE_CURVE('',#302,#301,#195,.T.);
#357=EDGE_CURVE('',#303,#302,#192,.T.);
#358=EDGE_CURVE('',#304,#303,#196,.T.);
#359=EDGE_CURVE('',#300,#304,#193,.T.);
#360=EDGE_CURVE('',#305,#305,#249,.T.);
#361=EDGE_CURVE('',#305,#306,#197,.T.);
#362=EDGE_CURVE('',#301,#306,#250,.T.);
#363=EDGE_CURVE('',#306,#304,#251,.T.);
#364=EDGE_CURVE('',#307,#307,#252,.T.);
#365=EDGE_CURVE('',#307,#308,#198,.T.);
#366=EDGE_CURVE('',#308,#308,#253,.T.);
#367=EDGE_CURVE('',#309,#309,#254,.T.);
#368=EDGE_CURVE('',#309,#310,#199,.T.);
#369=EDGE_CURVE('',#310,#310,#255,.T.);
#370=EDGE_CURVE('',#311,#311,#256,.T.);
#371=EDGE_CURVE('',#311,#312,#200,.T.);
#372=EDGE_CURVE('',#312,#312,#257,.T.);
#373=EDGE_CURVE('',#313,#313,#258,.T.);
#374=EDGE_CURVE('',#313,#314,#201,.T.);
#375=EDGE_CURVE('',#314,#314,#259,.T.);
#376=EDGE_CURVE('',#315,#315,#260,.T.);
#377=EDGE_CURVE('',#315,#316,#202,.T.);
#378=EDGE_CURVE('',#316,#316,#261,.T.);
#379=EDGE_CURVE('',#317,#317,#262,.T.);
#380=EDGE_CURVE('',#317,#318,#203,.T.);
#381=EDGE_CURVE('',#318,#318,#263,.T.);
#382=EDGE_CURVE('',#319,#319,#264,.T.);
#383=EDGE_CURVE('',#319,#320,#204,.T.);
#384=EDGE_CURVE('',#320,#320,#265,.T.);
#385=EDGE_CURVE('',#321,#321,#266,.T.);
#386=EDGE_CURVE('',#321,#322,#205,.T.);
#387=EDGE_CURVE('',#322,#322,#267,.T.);
#388=EDGE_CURVE('',#323,#323,#268,.T.);
#389=EDGE_CURVE('',#323,#324,#206,.T.);
#390=EDGE_CURVE('',#324,#324,#269,.T.);
#391=EDGE_CURVE('',#325,#325,#270,.T.);
#392=EDGE_CURVE('',#325,#326,#207,.T.);
#393=EDGE_CURVE('',#326,#326,#271,.T.);
#394=EDGE_CURVE('',#327,#327,#272,.T.);
#395=EDGE_CURVE('',#327,#328,#208,.T.);
#396=EDGE_CURVE('',#328,#328,#273,.T.);
#397=EDGE_CURVE('',#329,#329,#274,.T.);
#398=EDGE_CURVE('',#329,#330,#209,.T.);
#399=EDGE_CURVE('',#330,#330,#275,.T.);
#400=EDGE_CURVE('',#331,#331,#276,.T.);
#401=EDGE_CURVE('',#331,#332,#210,.T.);
#402=EDGE_CURVE('',#332,#332,#277,.T.);
#403=EDGE_CURVE('',#333,#333,#278,.T.);
#404=EDGE_CURVE('',#333,#334,#211,.T.);
#405=EDGE_CURVE('',#334,#334,#279,.T.);
#406=EDGE_CURVE('',#335,#335,#280,.T.);
#407=EDGE_CURVE('',#335,#336,#212,.T.);
#408=EDGE_CURVE('',#336,#336,#281,.T.);
#409=EDGE_CURVE('',#337,#337,#282,.T.);
#410=EDGE_CURVE('',#337,#338,#213,.T.);
#411=EDGE_CURVE('',#338,#338,#283,.T.);
#412=EDGE_CURVE('',#339,#339,#284,.T.);
#413=EDGE_CURVE('',#339,#340,#214,.T.);
#414=EDGE_CURVE('',#340,#340,#285,.T.);
#415=EDGE_CURVE('',#341,#341,#286,.T.);
#416=EDGE_CURVE('',#341,#342,#215,.T.);
#417=EDGE_CURVE('',#342,#342,#287,.T.);
#418=EDGE_CURVE('',#343,#343,#288,.T.);
#419=EDGE_CURVE('',#343,#344,#216,.T.);
#420=EDGE_CURVE('',#344,#344,#289,.T.);
#421=EDGE_CURVE('',#345,#345,#290,.T.);
#422=EDGE_CURVE('',#345,#346,#217,.T.);
#423=EDGE_CURVE('',#346,#346,#291,.T.);
#424=EDGE_CURVE('',#347,#347,#292,.T.);
#425=EDGE_CURVE('',#347,#348,#218,.T.);
#426=EDGE_CURVE('',#348,#348,#293,.T.);
#427=EDGE_CURVE('',#349,#349,#294,.T.);
#428=EDGE_CURVE('',#349,#350,#219,.T.);
#429=EDGE_CURVE('',#350,#350,#295,.T.);
#430=EDGE_CURVE('',#351,#302,#296,.T.);
#431=EDGE_CURVE('',#351,#352,#220,.T.);
#432=EDGE_CURVE('',#352,#352,#297,.T.);
#433=EDGE_CURVE('',#303,#351,#298,.T.);
#434=ORIENTED_EDGE('',*,*,#353,.F.);
#435=ORIENTED_EDGE('',*,*,#354,.T.);
#436=ORIENTED_EDGE('',*,*,#355,.F.);
#437=ORIENTED_EDGE('',*,*,#356,.F.);
#438=ORIENTED_EDGE('',*,*,#357,.F.);
#439=ORIENTED_EDGE('',*,*,#358,.F.);
#440=ORIENTED_EDGE('',*,*,#359,.F.);
#441=ORIENTED_EDGE('',*,*,#354,.F.);
#442=ORIENTED_EDGE('',*,*,#353,.T.);
#443=ORIENTED_EDGE('',*,*,#360,.F.);
#444=ORIENTED_EDGE('',*,*,#361,.T.);
#445=ORIENTED_EDGE('',*,*,#362,.F.);
#446=ORIENTED_EDGE('',*,*,#355,.T.);
#447=ORIENTED_EDGE('',*,*,#359,.T.);
#448=ORIENTED_EDGE('',*,*,#363,.F.);
#449=ORIENTED_EDGE('',*,*,#361,.F.);
#450=ORIENTED_EDGE('',*,*,#364,.F.);
#451=ORIENTED_EDGE('',*,*,#365,.T.);
#452=ORIENTED_EDGE('',*,*,#366,.F.);
#453=ORIENTED_EDGE('',*,*,#365,.F.);
#454=ORIENTED_EDGE('',*,*,#364,.T.);
#455=ORIENTED_EDGE('',*,*,#367,.F.);
#456=ORIENTED_EDGE('',*,*,#368,.T.);
#457=ORIENTED_EDGE('',*,*,#369,.F.);
#458=ORIENTED_EDGE('',*,*,#368,.F.);
#459=ORIENTED_EDGE('',*,*,#367,.T.);
#460=ORIENTED_EDGE('',*,*,#370,.F.);
#461=ORIENTED_EDGE('',*,*,#371,.T.);
#462=ORIENTED_EDGE('',*,*,#372,.F.);
#463=ORIENTED_EDGE('',*,*,#371,.F.);
#464=ORIENTED_EDGE('',*,*,#370,.T.);
#465=ORIENTED_EDGE('',*,*,#373,.F.);
#466=ORIENTED_EDGE('',*,*,#374,.T.);
#467=ORIENTED_EDGE('',*,*,#375,.F.);
#468=ORIENTED_EDGE('',*,*,#374,.F.);
#469=ORIENTED_EDGE('',*,*,#373,.T.);
#470=ORIENTED_EDGE('',*,*,#376,.F.);
#471=ORIENTED_EDGE('',*,*,#377,.T.);
#472=ORIENTED_EDGE('',*,*,#378,.F.);
#473=ORIENTED_EDGE('',*,*,#377,.F.);
#474=ORIENTED_EDGE('',*,*,#376,.T.);
#475=ORIENTED_EDGE('',*,*,#379,.F.);
#476=ORIENTED_EDGE('',*,*,#380,.T.);
#477=ORIENTED_EDGE('',*,*,#381,.F.);
#478=ORIENTED_EDGE('',*,*,#380,.F.);
#479=ORIENTED_EDGE('',*,*,#379,.T.);
#480=ORIENTED_EDGE('',*,*,#382,.F.);
#481=ORIENTED_EDGE('',*,*,#383,.T.);
#482=ORIENTED_EDGE('',*,*,#384,.T.);
#483=ORIENTED_EDGE('',*,*,#383,.F.);
#484=ORIENTED_EDGE('',*,*,#384,.F.);
#485=ORIENTED_EDGE('',*,*,#385,.F.);
#486=ORIENTED_EDGE('',*,*,#386,.T.);
#487=ORIENTED_EDGE('',*,*,#387,.T.);
#488=ORIENTED_EDGE('',*,*,#386,.F.);
#489=ORIENTED_EDGE('',*,*,#387,.F.);
#490=ORIENTED_EDGE('',*,*,#388,.F.);
#491=ORIENTED_EDGE('',*,*,#389,.T.);
#492=ORIENTED_EDGE('',*,*,#390,.T.);
#493=ORIENTED_EDGE('',*,*,#389,.F.);
#494=ORIENTED_EDGE('',*,*,#390,.F.);
#495=ORIENTED_EDGE('',*,*,#391,.F.);
#496=ORIENTED_EDGE('',*,*,#392,.T.);
#497=ORIENTED_EDGE('',*,*,#393,.T.);
#498=ORIENTED_EDGE('',*,*,#392,.F.);
#499=ORIENTED_EDGE('',*,*,#393,.F.);
#500=ORIENTED_EDGE('',*,*,#394,.F.);
#501=ORIENTED_EDGE('',*,*,#395,.T.);
#502=ORIENTED_EDGE('',*,*,#396,.T.);
#503=ORIENTED_EDGE('',*,*,#395,.F.);
#504=ORIENTED_EDGE('',*,*,#396,.F.);
#505=ORIENTED_EDGE('',*,*,#397,.F.);
#506=ORIENTED_EDGE('',*,*,#398,.T.);
#507=ORIENTED_EDGE('',*,*,#399,.T.);
#508=ORIENTED_EDGE('',*,*,#398,.F.);
#509=ORIENTED_EDGE('',*,*,#399,.F.);
#510=ORIENTED_EDGE('',*,*,#400,.F.);
#511=ORIENTED_EDGE('',*,*,#401,.T.);
#512=ORIENTED_EDGE('',*,*,#402,.T.);
#513=ORIENTED_EDGE('',*,*,#401,.F.);
#514=ORIENTED_EDGE('',*,*,#402,.F.);
#515=ORIENTED_EDGE('',*,*,#403,.F.);
#516=ORIENTED_EDGE('',*,*,#404,.T.);
#517=ORIENTED_EDGE('',*,*,#405,.T.);
#518=ORIENTED_EDGE('',*,*,#404,.F.);
#519=ORIENTED_EDGE('',*,*,#405,.F.);
#520=ORIENTED_EDGE('',*,*,#406,.F.);
#521=ORIENTED_EDGE('',*,*,#407,.T.);
#522=ORIENTED_EDGE('',*,*,#408,.T.);
#523=ORIENTED_EDGE('',*,*,#407,.F.);
#524=ORIENTED_EDGE('',*,*,#408,.F.);
#525=ORIENTED_EDGE('',*,*,#409,.F.);
#526=ORIENTED_EDGE('',*,*,#410,.T.);
#527=ORIENTED_EDGE('',*,*,#411,.T.);
#528=ORIENTED_EDGE('',*,*,#410,.F.);
#529=ORIENTED_EDGE('',*,*,#411,.F.);
#530=ORIENTED_EDGE('',*,*,#412,.F.);
#531=ORIENTED_EDGE('',*,*,#413,.T.);
#532=ORIENTED_EDGE('',*,*,#414,.T.);
#533=ORIENTED_EDGE('',*,*,#413,.F.);
#534=ORIENTED_EDGE('',*,*,#414,.F.);
#535=ORIENTED_EDGE('',*,*,#415,.F.);
#536=ORIENTED_EDGE('',*,*,#416,.T.);
#537=ORIENTED_EDGE('',*,*,#417,.T.);
#538=ORIENTED_EDGE('',*,*,#416,.F.);
#539=ORIENTED_EDGE('',*,*,#417,.F.);
#540=ORIENTED_EDGE('',*,*,#418,.F.);
#541=ORIENTED_EDGE('',*,*,#419,.T.);
#542=ORIENTED_EDGE('',*,*,#420,.T.);
#543=ORIENTED_EDGE('',*,*,#419,.F.);
#544=ORIENTED_EDGE('',*,*,#420,.F.);
#545=ORIENTED_EDGE('',*,*,#421,.F.);
#546=ORIENTED_EDGE('',*,*,#422,.T.);
#547=ORIENTED_EDGE('',*,*,#423,.T.);
#548=ORIENTED_EDGE('',*,*,#422,.F.);
#549=ORIENTED_EDGE('',*,*,#423,.F.);
#550=ORIENTED_EDGE('',*,*,#424,.F.);
#551=ORIENTED_EDGE('',*,*,#425,.T.);
#552=ORIENTED_EDGE('',*,*,#426,.T.);
#553=ORIENTED_EDGE('',*,*,#425,.F.);
#554=ORIENTED_EDGE('',*,*,#426,.F.);
#555=ORIENTED_EDGE('',*,*,#427,.F.);
#556=ORIENTED_EDGE('',*,*,#428,.T.);
#557=ORIENTED_EDGE('',*,*,#429,.T.);
#558=ORIENTED_EDGE('',*,*,#428,.F.);
#559=ORIENTED_EDGE('',*,*,#429,.F.);
#560=ORIENTED_EDGE('',*,*,#424,.T.);
#561=ORIENTED_EDGE('',*,*,#421,.T.);
#562=ORIENTED_EDGE('',*,*,#418,.T.);
#563=ORIENTED_EDGE('',*,*,#415,.T.);
#564=ORIENTED_EDGE('',*,*,#412,.T.);
#565=ORIENTED_EDGE('',*,*,#409,.T.);
#566=ORIENTED_EDGE('',*,*,#406,.T.);
#567=ORIENTED_EDGE('',*,*,#360,.T.);
#568=ORIENTED_EDGE('',*,*,#427,.T.);
#569=ORIENTED_EDGE('',*,*,#403,.T.);
#570=ORIENTED_EDGE('',*,*,#400,.T.);
#571=ORIENTED_EDGE('',*,*,#397,.T.);
#572=ORIENTED_EDGE('',*,*,#394,.T.);
#573=ORIENTED_EDGE('',*,*,#391,.T.);
#574=ORIENTED_EDGE('',*,*,#388,.T.);
#575=ORIENTED_EDGE('',*,*,#357,.T.);
#576=ORIENTED_EDGE('',*,*,#430,.F.);
#577=ORIENTED_EDGE('',*,*,#431,.T.);
#578=ORIENTED_EDGE('',*,*,#432,.T.);
#579=ORIENTED_EDGE('',*,*,#431,.F.);
#580=ORIENTED_EDGE('',*,*,#433,.F.);
#581=ORIENTED_EDGE('',*,*,#356,.T.);
#582=ORIENTED_EDGE('',*,*,#362,.T.);
#583=ORIENTED_EDGE('',*,*,#363,.T.);
#584=ORIENTED_EDGE('',*,*,#358,.T.);
#585=ORIENTED_EDGE('',*,*,#433,.T.);
#586=ORIENTED_EDGE('',*,*,#430,.T.);
#587=ORIENTED_EDGE('',*,*,#432,.F.);
#588=ORIENTED_EDGE('',*,*,#385,.T.);
#589=ORIENTED_EDGE('',*,*,#382,.T.);
#590=ORIENTED_EDGE('',*,*,#381,.T.);
#591=ORIENTED_EDGE('',*,*,#378,.T.);
#592=ORIENTED_EDGE('',*,*,#375,.T.);
#593=ORIENTED_EDGE('',*,*,#372,.T.);
#594=ORIENTED_EDGE('',*,*,#369,.T.);
#595=ORIENTED_EDGE('',*,*,#366,.T.);
#596=CYLINDRICAL_SURFACE('',#687,3.5);
#597=CYLINDRICAL_SURFACE('',#690,31.5);
#598=CYLINDRICAL_SURFACE('',#694,2.);
#599=CYLINDRICAL_SURFACE('',#698,2.);
#600=CYLINDRICAL_SURFACE('',#702,2.);
#601=CYLINDRICAL_SURFACE('',#706,2.);
#602=CYLINDRICAL_SURFACE('',#710,2.);
#603=CYLINDRICAL_SURFACE('',#714,2.);
#604=CYLINDRICAL_SURFACE('',#718,2.5);
#605=CYLINDRICAL_SURFACE('',#722,2.5);
#606=CYLINDRICAL_SURFACE('',#726,3.);
#607=CYLINDRICAL_SURFACE('',#730,2.5);
#608=CYLINDRICAL_SURFACE('',#734,2.5);
#609=CYLINDRICAL_SURFACE('',#738,2.5);
#610=CYLINDRICAL_SURFACE('',#742,2.5);
#611=CYLINDRICAL_SURFACE('',#746,3.);
#612=CYLINDRICAL_SURFACE('',#750,3.);
#613=CYLINDRICAL_SURFACE('',#754,4.);
#614=CYLINDRICAL_SURFACE('',#758,3.);
#615=CYLINDRICAL_SURFACE('',#762,3.);
#616=CYLINDRICAL_SURFACE('',#766,3.);
#617=CYLINDRICAL_SURFACE('',#770,3.);
#618=CYLINDRICAL_SURFACE('',#774,3.);
#619=CYLINDRICAL_SURFACE('',#778,19.);
#620=CYLINDRICAL_SURFACE('',#783,37.5);
#621=ADVANCED_FACE('',(#67),#596,.T.);
#622=ADVANCED_FACE('',(#68),#41,.T.);
#623=ADVANCED_FACE('',(#69),#597,.T.);
#624=ADVANCED_FACE('',(#70),#598,.T.);
#625=ADVANCED_FACE('',(#71),#42,.F.);
#626=ADVANCED_FACE('',(#72),#599,.T.);
#627=ADVANCED_FACE('',(#73),#43,.F.);
#628=ADVANCED_FACE('',(#74),#600,.T.);
#629=ADVANCED_FACE('',(#75),#44,.F.);
#630=ADVANCED_FACE('',(#76),#601,.T.);
#631=ADVANCED_FACE('',(#77),#45,.F.);
#632=ADVANCED_FACE('',(#78),#602,.T.);
#633=ADVANCED_FACE('',(#79),#46,.F.);
#634=ADVANCED_FACE('',(#80),#603,.T.);
#635=ADVANCED_FACE('',(#81),#47,.F.);
#636=ADVANCED_FACE('',(#82),#604,.F.);
#637=ADVANCED_FACE('',(#83),#48,.F.);
#638=ADVANCED_FACE('',(#84),#605,.F.);
#639=ADVANCED_FACE('',(#85),#49,.F.);
#640=ADVANCED_FACE('',(#86),#606,.F.);
#641=ADVANCED_FACE('',(#87),#50,.T.);
#642=ADVANCED_FACE('',(#88),#607,.F.);
#643=ADVANCED_FACE('',(#89),#51,.T.);
#644=ADVANCED_FACE('',(#90),#608,.F.);
#645=ADVANCED_FACE('',(#91),#52,.T.);
#646=ADVANCED_FACE('',(#92),#609,.F.);
#647=ADVANCED_FACE('',(#93),#53,.T.);
#648=ADVANCED_FACE('',(#94),#610,.F.);
#649=ADVANCED_FACE('',(#95),#54,.T.);
#650=ADVANCED_FACE('',(#96),#611,.F.);
#651=ADVANCED_FACE('',(#97),#55,.T.);
#652=ADVANCED_FACE('',(#98),#612,.F.);
#653=ADVANCED_FACE('',(#99),#56,.T.);
#654=ADVANCED_FACE('',(#100),#613,.F.);
#655=ADVANCED_FACE('',(#101),#57,.T.);
#656=ADVANCED_FACE('',(#102),#614,.F.);
#657=ADVANCED_FACE('',(#103),#58,.T.);
#658=ADVANCED_FACE('',(#104),#615,.F.);
#659=ADVANCED_FACE('',(#105),#59,.T.);
#660=ADVANCED_FACE('',(#106),#616,.F.);
#661=ADVANCED_FACE('',(#107),#60,.T.);
#662=ADVANCED_FACE('',(#108),#617,.F.);
#663=ADVANCED_FACE('',(#109),#61,.T.);
#664=ADVANCED_FACE('',(#110),#618,.F.);
#665=ADVANCED_FACE('',(#111),#62,.T.);
#666=ADVANCED_FACE('',(#112),#619,.F.);
#667=ADVANCED_FACE('',(#113,#19,#20,#21,#22,#23,#24,#25),#63,.T.);
#668=ADVANCED_FACE('',(#114,#26,#27,#28,#29,#30,#31,#32),#64,.T.);
#669=ADVANCED_FACE('',(#115),#620,.T.);
#670=ADVANCED_FACE('',(#116),#65,.T.);
#671=ADVANCED_FACE('',(#117,#33,#34,#35,#36,#37,#38,#39,#40),#66,.F.);
#672=CLOSED_SHELL('',(#621,#622,#623,#624,#625,#626,#627,#628,#629,#630,
#631,#632,#633,#634,#635,#636,#637,#638,#639,#640,#641,#642,#643,#644,#645,
#646,#647,#648,#649,#650,#651,#652,#653,#654,#655,#656,#657,#658,#659,#660,
#661,#662,#663,#664,#665,#666,#667,#668,#669,#670,#671));
#673=DERIVED_UNIT_ELEMENT(#675,1.);
#674=DERIVED_UNIT_ELEMENT(#1263,-3.);
#675=(
MASS_UNIT()
NAMED_UNIT(*)
SI_UNIT(.KILO.,.GRAM.)
);
#676=DERIVED_UNIT((#673,#674));
#677=MEASURE_REPRESENTATION_ITEM('density measure',
POSITIVE_RATIO_MEASURE(7850.),#676);
#678=PROPERTY_DEFINITION_REPRESENTATION(#683,#680);
#679=PROPERTY_DEFINITION_REPRESENTATION(#684,#681);
#680=REPRESENTATION('material name',(#682),#1260);
#681=REPRESENTATION('density',(#677),#1260);
#682=DESCRIPTIVE_REPRESENTATION_ITEM('A\X\E7o','A\X\E7o');
#683=PROPERTY_DEFINITION('material property','material name',#1275);
#684=PROPERTY_DEFINITION('material property','density of part',#1275);
#685=AXIS2_PLACEMENT_3D('',#1027,#790,#791);
#686=AXIS2_PLACEMENT_3D('',#1028,#792,#793);
#687=AXIS2_PLACEMENT_3D('',#1029,#794,#795);
#688=AXIS2_PLACEMENT_3D('',#1031,#796,#797);
#689=AXIS2_PLACEMENT_3D('',#1083,#801,#802);
#690=AXIS2_PLACEMENT_3D('',#1084,#803,#804);
#691=AXIS2_PLACEMENT_3D('',#1086,#805,#806);
#692=AXIS2_PLACEMENT_3D('',#1089,#808,#809);
#693=AXIS2_PLACEMENT_3D('',#1090,#810,#811);
#694=AXIS2_PLACEMENT_3D('',#1091,#812,#813);
#695=AXIS2_PLACEMENT_3D('',#1093,#814,#815);
#696=AXIS2_PLACEMENT_3D('',#1096,#817,#818);
#697=AXIS2_PLACEMENT_3D('',#1097,#819,#820);
#698=AXIS2_PLACEMENT_3D('',#1098,#821,#822);
#699=AXIS2_PLACEMENT_3D('',#1100,#823,#824);
#700=AXIS2_PLACEMENT_3D('',#1103,#826,#827);
#701=AXIS2_PLACEMENT_3D('',#1104,#828,#829);
#702=AXIS2_PLACEMENT_3D('',#1105,#830,#831);
#703=AXIS2_PLACEMENT_3D('',#1107,#832,#833);
#704=AXIS2_PLACEMENT_3D('',#1110,#835,#836);
#705=AXIS2_PLACEMENT_3D('',#1111,#837,#838);
#706=AXIS2_PLACEMENT_3D('',#1112,#839,#840);
#707=AXIS2_PLACEMENT_3D('',#1114,#841,#842);
#708=AXIS2_PLACEMENT_3D('',#1117,#844,#845);
#709=AXIS2_PLACEMENT_3D('',#1118,#846,#847);
#710=AXIS2_PLACEMENT_3D('',#1119,#848,#849);
#711=AXIS2_PLACEMENT_3D('',#1121,#850,#851);
#712=AXIS2_PLACEMENT_3D('',#1124,#853,#854);
#713=AXIS2_PLACEMENT_3D('',#1125,#855,#856);
#714=AXIS2_PLACEMENT_3D('',#1126,#857,#858);
#715=AXIS2_PLACEMENT_3D('',#1128,#859,#860);
#716=AXIS2_PLACEMENT_3D('',#1131,#862,#863);
#717=AXIS2_PLACEMENT_3D('',#1132,#864,#865);
#718=AXIS2_PLACEMENT_3D('',#1133,#866,#867);
#719=AXIS2_PLACEMENT_3D('',#1135,#868,#869);
#720=AXIS2_PLACEMENT_3D('',#1138,#871,#872);
#721=AXIS2_PLACEMENT_3D('',#1139,#873,#874);
#722=AXIS2_PLACEMENT_3D('',#1140,#875,#876);
#723=AXIS2_PLACEMENT_3D('',#1142,#877,#878);
#724=AXIS2_PLACEMENT_3D('',#1145,#880,#881);
#725=AXIS2_PLACEMENT_3D('',#1146,#882,#883);
#726=AXIS2_PLACEMENT_3D('',#1147,#884,#885);
#727=AXIS2_PLACEMENT_3D('',#1149,#886,#887);
#728=AXIS2_PLACEMENT_3D('',#1152,#889,#890);
#729=AXIS2_PLACEMENT_3D('',#1153,#891,#892);
#730=AXIS2_PLACEMENT_3D('',#1154,#893,#894);
#731=AXIS2_PLACEMENT_3D('',#1156,#895,#896);
#732=AXIS2_PLACEMENT_3D('',#1159,#898,#899);
#733=AXIS2_PLACEMENT_3D('',#1160,#900,#901);
#734=AXIS2_PLACEMENT_3D('',#1161,#902,#903);
#735=AXIS2_PLACEMENT_3D('',#1163,#904,#905);
#736=AXIS2_PLACEMENT_3D('',#1166,#907,#908);
#737=AXIS2_PLACEMENT_3D('',#1167,#909,#910);
#738=AXIS2_PLACEMENT_3D('',#1168,#911,#912);
#739=AXIS2_PLACEMENT_3D('',#1170,#913,#914);
#740=AXIS2_PLACEMENT_3D('',#1173,#916,#917);
#741=AXIS2_PLACEMENT_3D('',#1174,#918,#919);
#742=AXIS2_PLACEMENT_3D('',#1175,#920,#921);
#743=AXIS2_PLACEMENT_3D('',#1177,#922,#923);
#744=AXIS2_PLACEMENT_3D('',#1180,#925,#926);
#745=AXIS2_PLACEMENT_3D('',#1181,#927,#928);
#746=AXIS2_PLACEMENT_3D('',#1182,#929,#930);
#747=AXIS2_PLACEMENT_3D('',#1184,#931,#932);
#748=AXIS2_PLACEMENT_3D('',#1187,#934,#935);
#749=AXIS2_PLACEMENT_3D('',#1188,#936,#937);
#750=AXIS2_PLACEMENT_3D('',#1189,#938,#939);
#751=AXIS2_PLACEMENT_3D('',#1191,#940,#941);
#752=AXIS2_PLACEMENT_3D('',#1194,#943,#944);
#753=AXIS2_PLACEMENT_3D('',#1195,#945,#946);
#754=AXIS2_PLACEMENT_3D('',#1196,#947,#948);
#755=AXIS2_PLACEMENT_3D('',#1198,#949,#950);
#756=AXIS2_PLACEMENT_3D('',#1201,#952,#953);
#757=AXIS2_PLACEMENT_3D('',#1202,#954,#955);
#758=AXIS2_PLACEMENT_3D('',#1203,#956,#957);
#759=AXIS2_PLACEMENT_3D('',#1205,#958,#959);
#760=AXIS2_PLACEMENT_3D('',#1208,#961,#962);
#761=AXIS2_PLACEMENT_3D('',#1209,#963,#964);
#762=AXIS2_PLACEMENT_3D('',#1210,#965,#966);
#763=AXIS2_PLACEMENT_3D('',#1212,#967,#968);
#764=AXIS2_PLACEMENT_3D('',#1215,#970,#971);
#765=AXIS2_PLACEMENT_3D('',#1216,#972,#973);
#766=AXIS2_PLACEMENT_3D('',#1217,#974,#975);
#767=AXIS2_PLACEMENT_3D('',#1219,#976,#977);
#768=AXIS2_PLACEMENT_3D('',#1222,#979,#980);
#769=AXIS2_PLACEMENT_3D('',#1223,#981,#982);
#770=AXIS2_PLACEMENT_3D('',#1224,#983,#984);
#771=AXIS2_PLACEMENT_3D('',#1226,#985,#986);
#772=AXIS2_PLACEMENT_3D('',#1229,#988,#989);
#773=AXIS2_PLACEMENT_3D('',#1230,#990,#991);
#774=AXIS2_PLACEMENT_3D('',#1231,#992,#993);
#775=AXIS2_PLACEMENT_3D('',#1233,#994,#995);
#776=AXIS2_PLACEMENT_3D('',#1236,#997,#998);
#777=AXIS2_PLACEMENT_3D('',#1237,#999,#1000);
#778=AXIS2_PLACEMENT_3D('',#1238,#1001,#1002);
#779=AXIS2_PLACEMENT_3D('',#1240,#1003,#1004);
#780=AXIS2_PLACEMENT_3D('',#1243,#1006,#1007);
#781=AXIS2_PLACEMENT_3D('',#1244,#1008,#1009);
#782=AXIS2_PLACEMENT_3D('',#1245,#1010,#1011);
#783=AXIS2_PLACEMENT_3D('',#1246,#1012,#1013);
#784=AXIS2_PLACEMENT_3D('',#1248,#1014,#1015);
#785=AXIS2_PLACEMENT_3D('',#1251,#1017,#1018);
#786=AXIS2_PLACEMENT_3D('',#1252,#1019,#1020);
#787=AXIS2_PLACEMENT_3D('',#1253,#1021,#1022);
#788=AXIS2_PLACEMENT_3D('',#1254,#1023,#1024);
#789=AXIS2_PLACEMENT_3D('',#1255,#1025,#1026);
#790=DIRECTION('axis',(0.,0.,1.));
#791=DIRECTION('refdir',(1.,0.,0.));
#792=DIRECTION('axis',(0.,0.,1.));
#793=DIRECTION('refdir',(1.,0.,0.));
#794=DIRECTION('center_axis',(1.,0.,0.));
#795=DIRECTION('ref_axis',(0.,0.,-1.));
#796=DIRECTION('center_axis',(1.,0.,0.));
#797=DIRECTION('ref_axis',(0.,0.,-1.));
#798=DIRECTION('',(-1.,0.,0.));
#799=DIRECTION('',(-1.,0.,0.));
#800=DIRECTION('',(1.,0.,0.));
#801=DIRECTION('center_axis',(1.,0.,0.));
#802=DIRECTION('ref_axis',(0.,0.,-1.));
#803=DIRECTION('center_axis',(0.,0.,1.));
#804=DIRECTION('ref_axis',(1.,0.,0.));
#805=DIRECTION('center_axis',(0.,0.,1.));
#806=DIRECTION('ref_axis',(1.,0.,0.));
#807=DIRECTION('',(0.,0.,-1.));
#808=DIRECTION('center_axis',(0.,0.,-1.));
#809=DIRECTION('ref_axis',(1.,0.,0.));
#810=DIRECTION('center_axis',(0.,0.,-1.));
#811=DIRECTION('ref_axis',(1.,0.,0.));
#812=DIRECTION('center_axis',(0.,0.,-1.));
#813=DIRECTION('ref_axis',(1.,0.,0.));
#814=DIRECTION('center_axis',(0.,0.,-1.));
#815=DIRECTION('ref_axis',(1.,0.,0.));
#816=DIRECTION('',(0.,0.,1.));
#817=DIRECTION('center_axis',(0.,0.,1.));
#818=DIRECTION('ref_axis',(1.,0.,0.));
#819=DIRECTION('center_axis',(0.,0.,1.));
#820=DIRECTION('ref_axis',(1.,0.,0.));
#821=DIRECTION('center_axis',(0.,0.,-1.));
#822=DIRECTION('ref_axis',(1.,0.,0.));
#823=DIRECTION('center_axis',(0.,0.,-1.));
#824=DIRECTION('ref_axis',(1.,0.,0.));
#825=DIRECTION('',(0.,0.,1.));
#826=DIRECTION('center_axis',(0.,0.,1.));
#827=DIRECTION('ref_axis',(1.,0.,0.));
#828=DIRECTION('center_axis',(0.,0.,1.));
#829=DIRECTION('ref_axis',(1.,0.,0.));
#830=DIRECTION('center_axis',(0.,0.,-1.));
#831=DIRECTION('ref_axis',(1.,0.,0.));
#832=DIRECTION('center_axis',(0.,0.,-1.));
#833=DIRECTION('ref_axis',(1.,0.,0.));
#834=DIRECTION('',(0.,0.,1.));
#835=DIRECTION('center_axis',(0.,0.,1.));
#836=DIRECTION('ref_axis',(1.,0.,0.));
#837=DIRECTION('center_axis',(0.,0.,1.));
#838=DIRECTION('ref_axis',(1.,0.,0.));
#839=DIRECTION('center_axis',(0.,0.,-1.));
#840=DIRECTION('ref_axis',(1.,0.,0.));
#841=DIRECTION('center_axis',(0.,0.,-1.));
#842=DIRECTION('ref_axis',(1.,0.,0.));
#843=DIRECTION('',(0.,0.,1.));
#844=DIRECTION('center_axis',(0.,0.,1.));
#845=DIRECTION('ref_axis',(1.,0.,0.));
#846=DIRECTION('center_axis',(0.,0.,1.));
#847=DIRECTION('ref_axis',(1.,0.,0.));
#848=DIRECTION('center_axis',(0.,0.,-1.));
#849=DIRECTION('ref_axis',(1.,0.,0.));
#850=DIRECTION('center_axis',(0.,0.,-1.));
#851=DIRECTION('ref_axis',(1.,0.,0.));
#852=DIRECTION('',(0.,0.,1.));
#853=DIRECTION('center_axis',(0.,0.,1.));
#854=DIRECTION('ref_axis',(1.,0.,0.));
#855=DIRECTION('center_axis',(0.,0.,1.));
#856=DIRECTION('ref_axis',(1.,0.,0.));
#857=DIRECTION('center_axis',(0.,0.,-1.));
#858=DIRECTION('ref_axis',(1.,0.,0.));
#859=DIRECTION('center_axis',(0.,0.,-1.));
#860=DIRECTION('ref_axis',(1.,0.,0.));
#861=DIRECTION('',(0.,0.,1.));
#862=DIRECTION('center_axis',(0.,0.,1.));
#863=DIRECTION('ref_axis',(1.,0.,0.));
#864=DIRECTION('center_axis',(0.,0.,1.));
#865=DIRECTION('ref_axis',(1.,0.,0.));
#866=DIRECTION('center_axis',(0.,0.,1.));
#867=DIRECTION('ref_axis',(1.,0.,0.));
#868=DIRECTION('center_axis',(0.,0.,1.));
#869=DIRECTION('ref_axis',(1.,0.,0.));
#870=DIRECTION('',(0.,0.,1.));
#871=DIRECTION('center_axis',(0.,0.,1.));
#872=DIRECTION('ref_axis',(1.,0.,0.));
#873=DIRECTION('center_axis',(0.,0.,1.));
#874=DIRECTION('ref_axis',(1.,0.,0.));
#875=DIRECTION('center_axis',(0.,0.,1.));
#876=DIRECTION('ref_axis',(1.,0.,0.));
#877=DIRECTION('center_axis',(0.,0.,1.));
#878=DIRECTION('ref_axis',(1.,0.,0.));
#879=DIRECTION('',(0.,0.,1.));
#880=DIRECTION('center_axis',(0.,0.,1.));
#881=DIRECTION('ref_axis',(1.,0.,0.));
#882=DIRECTION('center_axis',(0.,0.,1.));
#883=DIRECTION('ref_axis',(1.,0.,0.));
#884=DIRECTION('center_axis',(0.,0.,-1.));
#885=DIRECTION('ref_axis',(1.,0.,0.));
#886=DIRECTION('center_axis',(0.,0.,-1.));
#887=DIRECTION('ref_axis',(1.,0.,0.));
#888=DIRECTION('',(0.,0.,-1.));
#889=DIRECTION('center_axis',(0.,0.,-1.));
#890=DIRECTION('ref_axis',(1.,0.,0.));
#891=DIRECTION('center_axis',(0.,0.,1.));
#892=DIRECTION('ref_axis',(1.,0.,0.));
#893=DIRECTION('center_axis',(0.,0.,-1.));
#894=DIRECTION('ref_axis',(1.,0.,0.));
#895=DIRECTION('center_axis',(0.,0.,-1.));
#896=DIRECTION('ref_axis',(1.,0.,0.));
#897=DIRECTION('',(0.,0.,-1.));
#898=DIRECTION('center_axis',(0.,0.,-1.));
#899=DIRECTION('ref_axis',(1.,0.,0.));
#900=DIRECTION('center_axis',(0.,0.,1.));
#901=DIRECTION('ref_axis',(1.,0.,0.));
#902=DIRECTION('center_axis',(0.,0.,-1.));
#903=DIRECTION('ref_axis',(1.,0.,0.));
#904=DIRECTION('center_axis',(0.,0.,-1.));
#905=DIRECTION('ref_axis',(1.,0.,0.));
#906=DIRECTION('',(0.,0.,-1.));
#907=DIRECTION('center_axis',(0.,0.,-1.));
#908=DIRECTION('ref_axis',(1.,0.,0.));
#909=DIRECTION('center_axis',(0.,0.,1.));
#910=DIRECTION('ref_axis',(1.,0.,0.));
#911=DIRECTION('center_axis',(0.,0.,-1.));
#912=DIRECTION('ref_axis',(1.,0.,0.));
#913=DIRECTION('center_axis',(0.,0.,-1.));
#914=DIRECTION('ref_axis',(1.,0.,0.));
#915=DIRECTION('',(0.,0.,-1.));
#916=DIRECTION('center_axis',(0.,0.,-1.));
#917=DIRECTION('ref_axis',(1.,0.,0.));
#918=DIRECTION('center_axis',(0.,0.,1.));
#919=DIRECTION('ref_axis',(1.,0.,0.));
#920=DIRECTION('center_axis',(0.,0.,-1.));
#921=DIRECTION('ref_axis',(1.,0.,0.));
#922=DIRECTION('center_axis',(0.,0.,-1.));
#923=DIRECTION('ref_axis',(1.,0.,0.));
#924=DIRECTION('',(0.,0.,-1.));
#925=DIRECTION('center_axis',(0.,0.,-1.));
#926=DIRECTION('ref_axis',(1.,0.,0.));
#927=DIRECTION('center_axis',(0.,0.,1.));
#928=DIRECTION('ref_axis',(1.,0.,0.));
#929=DIRECTION('center_axis',(0.,0.,-1.));
#930=DIRECTION('ref_axis',(1.,0.,0.));
#931=DIRECTION('center_axis',(0.,0.,-1.));
#932=DIRECTION('ref_axis',(1.,0.,0.));
#933=DIRECTION('',(0.,0.,-1.));
#934=DIRECTION('center_axis',(0.,0.,-1.));
#935=DIRECTION('ref_axis',(1.,0.,0.));
#936=DIRECTION('center_axis',(0.,0.,1.));
#937=DIRECTION('ref_axis',(1.,0.,0.));
#938=DIRECTION('center_axis',(0.,0.,-1.));
#939=DIRECTION('ref_axis',(1.,0.,0.));
#940=DIRECTION('center_axis',(0.,0.,-1.));
#941=DIRECTION('ref_axis',(1.,0.,0.));
#942=DIRECTION('',(0.,0.,-1.));
#943=DIRECTION('center_axis',(0.,0.,-1.));
#944=DIRECTION('ref_axis',(1.,0.,0.));
#945=DIRECTION('center_axis',(0.,0.,1.));
#946=DIRECTION('ref_axis',(1.,0.,0.));
#947=DIRECTION('center_axis',(0.,0.,-1.));
#948=DIRECTION('ref_axis',(1.,0.,0.));
#949=DIRECTION('center_axis',(0.,0.,-1.));
#950=DIRECTION('ref_axis',(1.,0.,0.));
#951=DIRECTION('',(0.,0.,-1.));
#952=DIRECTION('center_axis',(0.,0.,-1.));
#953=DIRECTION('ref_axis',(1.,0.,0.));
#954=DIRECTION('center_axis',(0.,0.,1.));
#955=DIRECTION('ref_axis',(1.,0.,0.));
#956=DIRECTION('center_axis',(0.,0.,-1.));
#957=DIRECTION('ref_axis',(1.,0.,0.));
#958=DIRECTION('center_axis',(0.,0.,-1.));
#959=DIRECTION('ref_axis',(1.,0.,0.));
#960=DIRECTION('',(0.,0.,-1.));
#961=DIRECTION('center_axis',(0.,0.,-1.));
#962=DIRECTION('ref_axis',(1.,0.,0.));
#963=DIRECTION('center_axis',(0.,0.,1.));
#964=DIRECTION('ref_axis',(1.,0.,0.));
#965=DIRECTION('center_axis',(0.,0.,-1.));
#966=DIRECTION('ref_axis',(1.,0.,0.));
#967=DIRECTION('center_axis',(0.,0.,-1.));
#968=DIRECTION('ref_axis',(1.,0.,0.));
#969=DIRECTION('',(0.,0.,-1.));
#970=DIRECTION('center_axis',(0.,0.,-1.));
#971=DIRECTION('ref_axis',(1.,0.,0.));
#972=DIRECTION('center_axis',(0.,0.,1.));
#973=DIRECTION('ref_axis',(1.,0.,0.));
#974=DIRECTION('center_axis',(0.,0.,-1.));
#975=DIRECTION('ref_axis',(1.,0.,0.));
#976=DIRECTION('center_axis',(0.,0.,-1.));
#977=DIRECTION('ref_axis',(1.,0.,0.));
#978=DIRECTION('',(0.,0.,-1.));
#979=DIRECTION('center_axis',(0.,0.,-1.));
#980=DIRECTION('ref_axis',(1.,0.,0.));
#981=DIRECTION('center_axis',(0.,0.,1.));
#982=DIRECTION('ref_axis',(1.,0.,0.));
#983=DIRECTION('center_axis',(0.,0.,-1.));
#984=DIRECTION('ref_axis',(1.,0.,0.));
#985=DIRECTION('center_axis',(0.,0.,-1.));
#986=DIRECTION('ref_axis',(1.,0.,0.));
#987=DIRECTION('',(0.,0.,-1.));
#988=DIRECTION('center_axis',(0.,0.,-1.));
#989=DIRECTION('ref_axis',(1.,0.,0.));
#990=DIRECTION('center_axis',(0.,0.,1.));
#991=DIRECTION('ref_axis',(1.,0.,0.));
#992=DIRECTION('center_axis',(0.,0.,-1.));
#993=DIRECTION('ref_axis',(1.,0.,0.));
#994=DIRECTION('center_axis',(0.,0.,-1.));
#995=DIRECTION('ref_axis',(1.,0.,0.));
#996=DIRECTION('',(0.,0.,-1.));
#997=DIRECTION('center_axis',(0.,0.,-1.));
#998=DIRECTION('ref_axis',(1.,0.,0.));
#999=DIRECTION('center_axis',(0.,0.,1.));
#1000=DIRECTION('ref_axis',(1.,0.,0.));
#1001=DIRECTION('center_axis',(0.,0.,-1.));
#1002=DIRECTION('ref_axis',(1.,0.,0.));
#1003=DIRECTION('center_axis',(0.,0.,-1.));
#1004=DIRECTION('ref_axis',(1.,0.,0.));
#1005=DIRECTION('',(0.,0.,-1.));
#1006=DIRECTION('center_axis',(0.,0.,-1.));
#1007=DIRECTION('ref_axis',(1.,0.,0.));
#1008=DIRECTION('center_axis',(0.,0.,1.));
#1009=DIRECTION('ref_axis',(1.,0.,0.));
#1010=DIRECTION('center_axis',(0.,0.,1.));
#1011=DIRECTION('ref_axis',(1.,0.,0.));
#1012=DIRECTION('center_axis',(0.,0.,1.));
#1013=DIRECTION('ref_axis',(1.,0.,0.));
#1014=DIRECTION('center_axis',(0.,0.,1.));
#1015=DIRECTION('ref_axis',(1.,0.,0.));
#1016=DIRECTION('',(0.,0.,-1.));
#1017=DIRECTION('center_axis',(0.,0.,1.));
#1018=DIRECTION('ref_axis',(1.,0.,0.));
#1019=DIRECTION('center_axis',(0.,0.,1.));
#1020=DIRECTION('ref_axis',(1.,0.,0.));
#1021=DIRECTION('center_axis',(0.,0.,1.));
#1022=DIRECTION('ref_axis',(1.,0.,0.));
#1023=DIRECTION('center_axis',(0.,0.,1.));
#1024=DIRECTION('ref_axis',(1.,0.,0.));
#1025=DIRECTION('',(0.,0.,1.));
#1026=DIRECTION('',(1.,0.,0.));
#1027=CARTESIAN_POINT('',(0.,0.,0.));
#1028=CARTESIAN_POINT('',(0.,0.,0.));
#1029=CARTESIAN_POINT('Origin',(37.,0.,127.7));
#1030=CARTESIAN_POINT('',(44.,-4.28626379701574E-16,131.2));
#1031=CARTESIAN_POINT('Origin',(44.,0.,127.7));
#1032=CARTESIAN_POINT('',(31.5,-4.91868946007076E-16,131.2));
#1033=CARTESIAN_POINT('',(37.,-4.28626379701574E-16,131.2));
#1034=CARTESIAN_POINT('',(31.3209195267317,-3.35410196624969,128.7));
#1035=CARTESIAN_POINT('Ctrl Pts',(31.3209195267317,-3.35410196624968,128.7));
#1036=CARTESIAN_POINT('Ctrl Pts',(31.3245922466187,-3.31980576262039,128.815032964028));
#1037=CARTESIAN_POINT('Ctrl Pts',(31.3288573793367,-3.27945758597068,128.92867870073));
#1038=CARTESIAN_POINT('Ctrl Pts',(31.3520485037576,-3.05471934322633,129.471005686476));
#1039=CARTESIAN_POINT('Ctrl Pts',(31.3781528700079,-2.78541916559827,129.864328302708));
#1040=CARTESIAN_POINT('Ctrl Pts',(31.427101559984,-2.16432991733311,130.485417550973));
#1041=CARTESIAN_POINT('Ctrl Pts',(31.453135439559,-1.77100659601442,130.754718991365));
#1042=CARTESIAN_POINT('Ctrl Pts',(31.4898444403298,-0.908785157073003,131.112020230227));
#1043=CARTESIAN_POINT('Ctrl Pts',(31.5,-0.439856698003183,131.2));
#1044=CARTESIAN_POINT('Ctrl Pts',(31.5,-9.71445146547012E-16,131.2));
#1045=CARTESIAN_POINT('',(37.3496987939662,-3.35410196624971,128.7));
#1046=CARTESIAN_POINT('',(37.,-3.35410196624968,128.7));
#1047=CARTESIAN_POINT('',(37.3496987939662,3.35410196624971,128.7));
#1048=CARTESIAN_POINT('Ctrl Pts',(37.3496987939662,3.35410196624968,128.7));
#1049=CARTESIAN_POINT('Ctrl Pts',(37.3408392585334,3.45275757755784,128.36909902013));
#1050=CARTESIAN_POINT('Ctrl Pts',(37.3363094051889,3.5,128.026347434521));
#1051=CARTESIAN_POINT('Ctrl Pts',(37.3363094051889,3.5,127.7));
#1052=CARTESIAN_POINT('Ctrl Pts',(37.3363094051889,3.5,127.26025689957));
#1053=CARTESIAN_POINT('Ctrl Pts',(37.3448786692932,3.41206480329404,126.791378476021));
#1054=CARTESIAN_POINT('Ctrl Pts',(37.3757991306403,3.05479758263333,125.929127004209));
#1055=CARTESIAN_POINT('Ctrl Pts',(37.3977004865028,2.7854795532133,125.535732084907));
#1056=CARTESIAN_POINT('Ctrl Pts',(37.4387878869346,2.16426871638224,124.914521248076));
#1057=CARTESIAN_POINT('Ctrl Pts',(37.4606475477479,1.77087344481383,124.645202594602));
#1058=CARTESIAN_POINT('Ctrl Pts',(37.4914725730695,0.908620797493555,124.287934904506));
#1059=CARTESIAN_POINT('Ctrl Pts',(37.5,0.439741965996462,124.2));
#1060=CARTESIAN_POINT('Ctrl Pts',(37.5,-0.439741965996462,124.2));
#1061=CARTESIAN_POINT('Ctrl Pts',(37.4914725730695,-0.908620797493556,124.287934904506));
#1062=CARTESIAN_POINT('Ctrl Pts',(37.4606475477479,-1.77087344481383,124.645202594602));
#1063=CARTESIAN_POINT('Ctrl Pts',(37.4387878869346,-2.16426871638224,124.914521248076));
#1064=CARTESIAN_POINT('Ctrl Pts',(37.3977004865028,-2.7854795532133,125.535732084907));
#1065=CARTESIAN_POINT('Ctrl Pts',(37.3757991306403,-3.05479758263333,125.929127004209));
#1066=CARTESIAN_POINT('Ctrl Pts',(37.3448786692932,-3.41206480329404,126.791378476021));
#1067=CARTESIAN_POINT('Ctrl Pts',(37.3363094051889,-3.5,127.26025689957));
#1068=CARTESIAN_POINT('Ctrl Pts',(37.3363094051889,-3.5,128.026347434666));
#1069=CARTESIAN_POINT('Ctrl Pts',(37.3408392585259,-3.45275757764103,128.369099019851));
#1070=CARTESIAN_POINT('Ctrl Pts',(37.3496987939662,-3.35410196624968,128.7));
#1071=CARTESIAN_POINT('',(31.3209195267317,3.35410196624969,128.7));
#1072=CARTESIAN_POINT('',(37.,3.35410196624968,128.7));
#1073=CARTESIAN_POINT('Ctrl Pts',(31.5,4.16333634234434E-16,131.2));
#1074=CARTESIAN_POINT('Ctrl Pts',(31.5,0.439856698003182,131.2));
#1075=CARTESIAN_POINT('Ctrl Pts',(31.4898444403298,0.908785157073002,131.112020230227));
#1076=CARTESIAN_POINT('Ctrl Pts',(31.453135439559,1.77100659601442,130.754718991365));
#1077=CARTESIAN_POINT('Ctrl Pts',(31.427101559984,2.16432991733311,130.485417550973));
#1078=CARTESIAN_POINT('Ctrl Pts',(31.3781528700079,2.78541916559827,129.864328302708));
#1079=CARTESIAN_POINT('Ctrl Pts',(31.3520485037576,3.05471934322633,129.471005686476));
#1080=CARTESIAN_POINT('Ctrl Pts',(31.3288573793367,3.27945758597068,128.92867870073));
#1081=CARTESIAN_POINT('Ctrl Pts',(31.3245922466187,3.31980576262039,128.815032964028));
#1082=CARTESIAN_POINT('Ctrl Pts',(31.3209195267317,3.35410196624968,128.7));
#1083=CARTESIAN_POINT('Origin',(44.,0.,127.7));
#1084=CARTESIAN_POINT('Origin',(0.,0.,128.7));
#1085=CARTESIAN_POINT('',(-31.5,-3.85763741731416E-15,135.7));
#1086=CARTESIAN_POINT('Origin',(0.,0.,135.7));
#1087=CARTESIAN_POINT('',(-31.5,-3.85763741731416E-15,128.7));
#1088=CARTESIAN_POINT('',(-31.5,-3.85763741731416E-15,128.7));
#1089=CARTESIAN_POINT('Origin',(0.,0.,128.7));
#1090=CARTESIAN_POINT('Origin',(0.,0.,128.7));
#1091=CARTESIAN_POINT('Origin',(32.4986558494029,-5.7303898630087,104.2));
#1092=CARTESIAN_POINT('',(30.4986558494029,-5.7303898630087,99.2));
#1093=CARTESIAN_POINT('Origin',(32.4986558494029,-5.7303898630087,99.2));
#1094=CARTESIAN_POINT('',(30.4986558494029,-5.7303898630087,104.2));
#1095=CARTESIAN_POINT('',(30.4986558494029,-5.7303898630087,104.2));
#1096=CARTESIAN_POINT('Origin',(32.4986558494029,-5.7303898630087,104.2));
#1097=CARTESIAN_POINT('Origin',(32.4986558494029,-5.7303898630087,99.2));
#1098=CARTESIAN_POINT('Origin',(-21.2119911196558,-25.2794666229263,104.2));
#1099=CARTESIAN_POINT('',(-23.2119911196558,-25.2794666229263,99.2));
#1100=CARTESIAN_POINT('Origin',(-21.2119911196558,-25.2794666229263,99.2));
#1101=CARTESIAN_POINT('',(-23.2119911196558,-25.2794666229263,104.2));
#1102=CARTESIAN_POINT('',(-23.2119911196558,-25.2794666229263,104.2));
#1103=CARTESIAN_POINT('Origin',(-21.2119911196558,-25.2794666229263,104.2));
#1104=CARTESIAN_POINT('Origin',(-21.2119911196558,-25.2794666229263,99.2));
#1105=CARTESIAN_POINT('Origin',(-32.4986558494029,-5.73038986300871,104.2));
#1106=CARTESIAN_POINT('',(-34.4986558494029,-5.73038986300871,99.2));
#1107=CARTESIAN_POINT('Origin',(-32.4986558494029,-5.73038986300871,99.2));
#1108=CARTESIAN_POINT('',(-34.4986558494029,-5.73038986300871,104.2));
#1109=CARTESIAN_POINT('',(-34.4986558494029,-5.73038986300871,104.2));
#1110=CARTESIAN_POINT('Origin',(-32.4986558494029,-5.73038986300871,104.2));
#1111=CARTESIAN_POINT('Origin',(-32.4986558494029,-5.73038986300871,99.2));
#1112=CARTESIAN_POINT('Origin',(-11.2866647297471,31.009856485935,104.2));
#1113=CARTESIAN_POINT('',(-13.2866647297471,31.009856485935,99.2));
#1114=CARTESIAN_POINT('Origin',(-11.2866647297471,31.009856485935,99.2));
#1115=CARTESIAN_POINT('',(-13.2866647297471,31.009856485935,104.2));
#1116=CARTESIAN_POINT('',(-13.2866647297471,31.009856485935,104.2));
#1117=CARTESIAN_POINT('Origin',(-11.2866647297471,31.009856485935,104.2));
#1118=CARTESIAN_POINT('Origin',(-11.2866647297471,31.009856485935,99.2));
#1119=CARTESIAN_POINT('Origin',(11.2866647297471,31.009856485935,104.2));
#1120=CARTESIAN_POINT('',(9.28666472974707,31.009856485935,99.2));
#1121=CARTESIAN_POINT('Origin',(11.2866647297471,31.009856485935,99.2));
#1122=CARTESIAN_POINT('',(9.28666472974707,31.009856485935,104.2));
#1123=CARTESIAN_POINT('',(9.28666472974707,31.009856485935,104.2));
#1124=CARTESIAN_POINT('Origin',(11.2866647297471,31.009856485935,104.2));
#1125=CARTESIAN_POINT('Origin',(11.2866647297471,31.009856485935,99.2));
#1126=CARTESIAN_POINT('Origin',(21.2119911196558,-25.2794666229263,104.2));
#1127=CARTESIAN_POINT('',(19.2119911196558,-25.2794666229263,99.2));
#1128=CARTESIAN_POINT('Origin',(21.2119911196558,-25.2794666229263,99.2));
#1129=CARTESIAN_POINT('',(19.2119911196558,-25.2794666229263,104.2));
#1130=CARTESIAN_POINT('',(19.2119911196558,-25.2794666229263,104.2));
#1131=CARTESIAN_POINT('Origin',(21.2119911196558,-25.2794666229263,104.2));
#1132=CARTESIAN_POINT('Origin',(21.2119911196558,-25.2794666229263,99.2));
#1133=CARTESIAN_POINT('Origin',(-11.2866647297471,-31.009856485935,104.2));
#1134=CARTESIAN_POINT('',(-13.7866647297471,-31.009856485935,104.2));
#1135=CARTESIAN_POINT('Origin',(-11.2866647297471,-31.009856485935,104.2));
#1136=CARTESIAN_POINT('',(-13.7866647297471,-31.009856485935,112.2));
#1137=CARTESIAN_POINT('',(-13.7866647297471,-31.009856485935,104.2));
#1138=CARTESIAN_POINT('Origin',(-11.2866647297471,-31.009856485935,112.2));
#1139=CARTESIAN_POINT('Origin',(-11.2866647297471,-31.009856485935,112.2));
#1140=CARTESIAN_POINT('Origin',(11.2866647297471,-31.009856485935,104.2));
#1141=CARTESIAN_POINT('',(8.78666472974708,-31.009856485935,104.2));
#1142=CARTESIAN_POINT('Origin',(11.2866647297471,-31.009856485935,104.2));
#1143=CARTESIAN_POINT('',(8.78666472974708,-31.009856485935,112.2));
#1144=CARTESIAN_POINT('',(8.78666472974708,-31.009856485935,104.2));
#1145=CARTESIAN_POINT('Origin',(11.2866647297471,-31.009856485935,112.2));
#1146=CARTESIAN_POINT('Origin',(11.2866647297471,-31.009856485935,112.2));
#1147=CARTESIAN_POINT('Origin',(1.53080849893419E-15,25.,135.7));
#1148=CARTESIAN_POINT('',(-3.,25.,135.7));
#1149=CARTESIAN_POINT('Origin',(1.53080849893419E-15,25.,135.7));
#1150=CARTESIAN_POINT('',(-3.,25.,127.7));
#1151=CARTESIAN_POINT('',(-3.,25.,135.7));
#1152=CARTESIAN_POINT('Origin',(1.53080849893419E-15,25.,127.7));
#1153=CARTESIAN_POINT('Origin',(1.66533453693773E-15,25.,127.7));
#1154=CARTESIAN_POINT('Origin',(17.6776695296637,17.6776695296637,135.7));
#1155=CARTESIAN_POINT('',(15.1776695296637,17.6776695296637,135.7));
#1156=CARTESIAN_POINT('Origin',(17.6776695296637,17.6776695296637,135.7));
#1157=CARTESIAN_POINT('',(15.1776695296637,17.6776695296637,127.7));
#1158=CARTESIAN_POINT('',(15.1776695296637,17.6776695296637,135.7));
#1159=CARTESIAN_POINT('Origin',(17.6776695296637,17.6776695296637,127.7));
#1160=CARTESIAN_POINT('Origin',(17.6776695296637,17.6776695296637,127.7));
#1161=CARTESIAN_POINT('Origin',(-17.6776695296637,17.6776695296637,135.7));
#1162=CARTESIAN_POINT('',(-20.1776695296637,17.6776695296637,135.7));
#1163=CARTESIAN_POINT('Origin',(-17.6776695296637,17.6776695296637,135.7));
#1164=CARTESIAN_POINT('',(-20.1776695296637,17.6776695296637,127.7));
#1165=CARTESIAN_POINT('',(-20.1776695296637,17.6776695296637,135.7));
#1166=CARTESIAN_POINT('Origin',(-17.6776695296637,17.6776695296637,127.7));
#1167=CARTESIAN_POINT('Origin',(-17.6776695296637,17.6776695296637,127.7));
#1168=CARTESIAN_POINT('Origin',(-17.6776695296637,-17.6776695296637,135.7));
#1169=CARTESIAN_POINT('',(-20.1776695296637,-17.6776695296637,135.7));
#1170=CARTESIAN_POINT('Origin',(-17.6776695296637,-17.6776695296637,135.7));
#1171=CARTESIAN_POINT('',(-20.1776695296637,-17.6776695296637,127.7));
#1172=CARTESIAN_POINT('',(-20.1776695296637,-17.6776695296637,135.7));
#1173=CARTESIAN_POINT('Origin',(-17.6776695296637,-17.6776695296637,127.7));
#1174=CARTESIAN_POINT('Origin',(-17.6776695296637,-17.6776695296637,127.7));
#1175=CARTESIAN_POINT('Origin',(17.6776695296637,-17.6776695296637,135.7));
#1176=CARTESIAN_POINT('',(15.1776695296637,-17.6776695296637,135.7));
#1177=CARTESIAN_POINT('Origin',(17.6776695296637,-17.6776695296637,135.7));
#1178=CARTESIAN_POINT('',(15.1776695296637,-17.6776695296637,127.7));
#1179=CARTESIAN_POINT('',(15.1776695296637,-17.6776695296637,135.7));
#1180=CARTESIAN_POINT('Origin',(17.6776695296637,-17.6776695296637,127.7));
#1181=CARTESIAN_POINT('Origin',(17.6776695296637,-17.6776695296637,127.7));
#1182=CARTESIAN_POINT('Origin',(-4.59242549680257E-15,-25.,135.7));
#1183=CARTESIAN_POINT('',(-3.,-25.,135.7));
#1184=CARTESIAN_POINT('Origin',(-4.59242549680257E-15,-25.,135.7));
#1185=CARTESIAN_POINT('',(-3.,-25.,127.7));
#1186=CARTESIAN_POINT('',(-3.,-25.,135.7));
#1187=CARTESIAN_POINT('Origin',(-4.59242549680257E-15,-25.,127.7));
#1188=CARTESIAN_POINT('Origin',(-4.44089209850063E-15,-25.,127.7));
#1189=CARTESIAN_POINT('Origin',(-5.50000000000001,-9.52627944162882,135.7));
#1190=CARTESIAN_POINT('',(-8.50000000000001,-9.52627944162882,132.7));
#1191=CARTESIAN_POINT('Origin',(-5.50000000000001,-9.52627944162882,132.7));
#1192=CARTESIAN_POINT('',(-8.50000000000001,-9.52627944162882,130.7));
#1193=CARTESIAN_POINT('',(-8.50000000000001,-9.52627944162882,135.7));
#1194=CARTESIAN_POINT('Origin',(-5.50000000000001,-9.52627944162882,130.7));
#1195=CARTESIAN_POINT('Origin',(-5.50000000000001,-9.52627944162882,130.7));
#1196=CARTESIAN_POINT('Origin',(0.,0.,135.7));
#1197=CARTESIAN_POINT('',(-4.,4.89858719658941E-16,132.7));
#1198=CARTESIAN_POINT('Origin',(0.,0.,132.7));
#1199=CARTESIAN_POINT('',(-4.,-4.89858719658941E-16,130.7));
#1200=CARTESIAN_POINT('',(-4.,4.89858719658941E-16,135.7));
#1201=CARTESIAN_POINT('Origin',(0.,0.,130.7));
#1202=CARTESIAN_POINT('Origin',(0.,0.,130.7));
#1203=CARTESIAN_POINT('Origin',(5.5,9.52627944162882,135.7));
#1204=CARTESIAN_POINT('',(2.5,9.52627944162882,132.7));
#1205=CARTESIAN_POINT('Origin',(5.5,9.52627944162882,132.7));
#1206=CARTESIAN_POINT('',(2.5,9.52627944162882,130.7));
#1207=CARTESIAN_POINT('',(2.5,9.52627944162882,135.7));
#1208=CARTESIAN_POINT('Origin',(5.5,9.52627944162882,130.7));
#1209=CARTESIAN_POINT('Origin',(5.5,9.52627944162882,130.7));
#1210=CARTESIAN_POINT('Origin',(11.,0.,135.7));
#1211=CARTESIAN_POINT('',(8.,3.67394039744206E-16,132.7));
#1212=CARTESIAN_POINT('Origin',(11.,0.,132.7));
#1213=CARTESIAN_POINT('',(8.,-3.67394039744206E-16,130.7));
#1214=CARTESIAN_POINT('',(8.,3.67394039744206E-16,135.7));
#1215=CARTESIAN_POINT('Origin',(11.,0.,130.7));
#1216=CARTESIAN_POINT('Origin',(11.,0.,130.7));
#1217=CARTESIAN_POINT('Origin',(-5.5,9.52627944162883,135.7));
#1218=CARTESIAN_POINT('',(-8.5,9.52627944162883,132.7));
#1219=CARTESIAN_POINT('Origin',(-5.5,9.52627944162883,132.7));
#1220=CARTESIAN_POINT('',(-8.5,9.52627944162883,130.7));
#1221=CARTESIAN_POINT('',(-8.5,9.52627944162883,135.7));
#1222=CARTESIAN_POINT('Origin',(-5.5,9.52627944162883,130.7));
#1223=CARTESIAN_POINT('Origin',(-5.5,9.52627944162883,130.7));
#1224=CARTESIAN_POINT('Origin',(-11.,1.34711147906209E-15,135.7));
#1225=CARTESIAN_POINT('',(-14.,1.71450551880629E-15,132.7));
#1226=CARTESIAN_POINT('Origin',(-11.,1.34711147906209E-15,132.7));
#1227=CARTESIAN_POINT('',(-14.,9.79717439317883E-16,130.7));
#1228=CARTESIAN_POINT('',(-14.,1.71450551880629E-15,135.7));
#1229=CARTESIAN_POINT('Origin',(-11.,1.34711147906209E-15,130.7));
#1230=CARTESIAN_POINT('Origin',(-11.,1.11022302462516E-15,130.7));
#1231=CARTESIAN_POINT('Origin',(5.5,-9.52627944162882,135.7));
#1232=CARTESIAN_POINT('',(2.5,-9.52627944162882,132.7));
#1233=CARTESIAN_POINT('Origin',(5.5,-9.52627944162882,132.7));
#1234=CARTESIAN_POINT('',(2.5,-9.52627944162882,130.7));
#1235=CARTESIAN_POINT('',(2.5,-9.52627944162882,135.7));
#1236=CARTESIAN_POINT('Origin',(5.5,-9.52627944162882,130.7));
#1237=CARTESIAN_POINT('Origin',(5.5,-9.52627944162882,130.7));
#1238=CARTESIAN_POINT('Origin',(0.,0.,135.7));
#1239=CARTESIAN_POINT('',(-19.,-2.32682891837997E-15,135.7));
#1240=CARTESIAN_POINT('Origin',(0.,0.,135.7));
#1241=CARTESIAN_POINT('',(-19.,-2.32682891837997E-15,132.7));
#1242=CARTESIAN_POINT('',(-19.,2.32682891837997E-15,135.7));
#1243=CARTESIAN_POINT('Origin',(0.,0.,132.7));
#1244=CARTESIAN_POINT('Origin',(0.,0.,132.7));
#1245=CARTESIAN_POINT('Origin',(0.,0.,135.7));
#1246=CARTESIAN_POINT('Origin',(0.,0.,104.2));
#1247=CARTESIAN_POINT('',(-37.5,-4.59242549680258E-15,128.7));
#1248=CARTESIAN_POINT('Origin',(0.,0.,128.7));
#1249=CARTESIAN_POINT('',(-37.5,-4.59242549680258E-15,104.2));
#1250=CARTESIAN_POINT('',(-37.5,-4.59242549680258E-15,104.2));
#1251=CARTESIAN_POINT('Origin',(0.,0.,104.2));
#1252=CARTESIAN_POINT('Origin',(0.,0.,128.7));
#1253=CARTESIAN_POINT('Origin',(0.,0.,128.7));
#1254=CARTESIAN_POINT('Origin',(0.,0.,104.2));
#1255=CARTESIAN_POINT('',(0.,0.,0.));
#1256=UNCERTAINTY_MEASURE_WITH_UNIT(LENGTH_MEASURE(0.01),#1262,
'DISTANCE_ACCURACY_VALUE',
'Maximum model space distance between geometric entities at asserted c
onnectivities');
#1257=UNCERTAINTY_MEASURE_WITH_UNIT(LENGTH_MEASURE(0.01),#1262,
'DISTANCE_ACCURACY_VALUE',
'Maximum model space distance between geometric entities at asserted c
onnectivities');
#1258=UNCERTAINTY_MEASURE_WITH_UNIT(LENGTH_MEASURE(0.01),#1262,
'DISTANCE_ACCURACY_VALUE',
'Maximum model space distance between geometric entities at asserted c
onnectivities');
#1259=(
GEOMETRIC_REPRESENTATION_CONTEXT(3)
GLOBAL_UNCERTAINTY_ASSIGNED_CONTEXT((#1256))
GLOBAL_UNIT_ASSIGNED_CONTEXT((#1262,#1264,#1265))
REPRESENTATION_CONTEXT('','3D')
);
#1260=(
GEOMETRIC_REPRESENTATION_CONTEXT(3)
GLOBAL_UNCERTAINTY_ASSIGNED_CONTEXT((#1257))
GLOBAL_UNIT_ASSIGNED_CONTEXT((#1262,#1264,#1265))
REPRESENTATION_CONTEXT('','3D')
);
#1261=(
GEOMETRIC_REPRESENTATION_CONTEXT(3)
GLOBAL_UNCERTAINTY_ASSIGNED_CONTEXT((#1258))
GLOBAL_UNIT_ASSIGNED_CONTEXT((#1262,#1264,#1265))
REPRESENTATION_CONTEXT('','3D')
);
#1262=(
LENGTH_UNIT()
NAMED_UNIT(*)
SI_UNIT(.MILLI.,.METRE.)
);
#1263=(
LENGTH_UNIT()
NAMED_UNIT(*)
SI_UNIT($,.METRE.)
);
#1264=(
NAMED_UNIT(*)
PLANE_ANGLE_UNIT()
SI_UNIT($,.RADIAN.)
);
#1265=(
NAMED_UNIT(*)
SI_UNIT($,.STERADIAN.)
SOLID_ANGLE_UNIT()
);
#1266=SHAPE_DEFINITION_REPRESENTATION(#1268,#1271);
#1267=SHAPE_DEFINITION_REPRESENTATION(#1269,#1272);
#1268=PRODUCT_DEFINITION_SHAPE('',$,#1274);
#1269=PRODUCT_DEFINITION_SHAPE('',$,#1275);
#1270=PRODUCT_DEFINITION_SHAPE($,$,#14);
#1271=SHAPE_REPRESENTATION('',(#685,#789),#1259);
#1272=SHAPE_REPRESENTATION('',(#686),#1260);
#1273=PRODUCT_DEFINITION_CONTEXT('part definition',#1281,'design');
#1274=PRODUCT_DEFINITION('2026-08-11-10-52-38-052','FA7155D_20Nm (1)',#1276,
#1273);
#1275=PRODUCT_DEFINITION('2026-08-11-10-52-38-334','FA7155D_20Nm',#1277,
#1273);
#1276=PRODUCT_DEFINITION_FORMATION('',$,#1283);
#1277=PRODUCT_DEFINITION_FORMATION('',$,#1284);
#1278=PRODUCT_RELATED_PRODUCT_CATEGORY('FA7155D_20Nm (1)',
'FA7155D_20Nm (1)',(#1283));
#1279=PRODUCT_RELATED_PRODUCT_CATEGORY('FA7155D_20Nm','FA7155D_20Nm',(#1284));
#1280=APPLICATION_PROTOCOL_DEFINITION('international standard',
'automotive_design',2009,#1281);
#1281=APPLICATION_CONTEXT(
'Core Data for Automotive Mechanical Design Process');
#1282=PRODUCT_CONTEXT('part definition',#1281,'mechanical');
#1283=PRODUCT('2026-08-11-10-52-38-052','FA7155D_20Nm (1)',$,(#1282));
#1284=PRODUCT('2026-08-11-10-52-38-334','FA7155D_20Nm',$,(#1282));
#1285=PRESENTATION_STYLE_ASSIGNMENT((#1286));
#1286=SURFACE_STYLE_USAGE(.BOTH.,#1287);
#1287=SURFACE_SIDE_STYLE('',(#1288));
#1288=SURFACE_STYLE_FILL_AREA(#1289);
#1289=FILL_AREA_STYLE('A\X\E7o - Acetinado',(#1290));
#1290=FILL_AREA_STYLE_COLOUR('A\X\E7o - Acetinado',#1291);
#1291=COLOUR_RGB('A\X\E7o - Acetinado',0.627450980392157,0.627450980392157,
0.627450980392157);
ENDSEC;
END-ISO-10303-21;
