ISO-10303-21;
HEADER;
/* Generated by software containing ST-Developer
 * from STEP Tools, Inc. (www.steptools.com) 
 */

FILE_DESCRIPTION(
/* description */ ('Open CASCADE Model'),
/* implementation_level */ '2;1');

FILE_NAME(
/* name */ 'molde_corpo_1.step',
/* time_stamp */ '2026-08-17T09:26:39-03:00',
/* author */ (''),
/* organization */ (''),
/* preprocessor_version */ 'ST-DEVELOPER v20.1',
/* originating_system */ 'Autodesk Translation Framework v15.8.0.0',
/* authorisation */ '');

FILE_SCHEMA (('AUTOMOTIVE_DESIGN { 1 0 10303 214 3 1 1 }'));
ENDSEC;

DATA;
#10=MECHANICAL_DESIGN_GEOMETRIC_PRESENTATION_REPRESENTATION('',(#13),#1037);
#11=SHAPE_REPRESENTATION_RELATIONSHIP('SRR','None',#1044,#12);
#12=ADVANCED_BREP_SHAPE_REPRESENTATION('',(#14),#1036);
#13=STYLED_ITEM('',(#1053),#14);
#14=MANIFOLD_SOLID_BREP('Corpo1',#441);
#15=B_SPLINE_CURVE_WITH_KNOTS('',3,(#1005,#1006,#1007,#1008,#1009,#1010,
#1011,#1012,#1013,#1014,#1015,#1016,#1017,#1018,#1019,#1020,#1021,#1022,
#1023,#1024,#1025,#1026,#1027,#1028,#1029,#1030,#1031),.UNSPECIFIED.,.F.,
 .F.,(4,1,1,1,1,1,1,1,1,1,1,1,1,1,1,1,1,1,1,1,1,1,1,1,4),(0.,0.253003029381,
0.514351857973,0.791507258368,1.090506604679,1.415843888595,1.77061843203,
2.156778937105,2.575361457693,3.026684754592,3.510499581275,4.026099863751,
4.572405430973,5.148024446645,5.751301640554,6.380356675876,7.033115670955,
7.707337961775,8.400639547163,9.110514217307,9.834353063788,10.569462861633,
11.313083670925,12.062405907199,12.814587062975),.UNSPECIFIED.);
#16=(
BOUNDED_SURFACE()
B_SPLINE_SURFACE(3,2,((#761,#762,#763,#764,#765,#766,#767,#768,#769),(#770,
#771,#772,#773,#774,#775,#776,#777,#778),(#779,#780,#781,#782,#783,#784,
#785,#786,#787),(#788,#789,#790,#791,#792,#793,#794,#795,#796),(#797,#798,
#799,#800,#801,#802,#803,#804,#805),(#806,#807,#808,#809,#810,#811,#812,
#813,#814),(#815,#816,#817,#818,#819,#820,#821,#822,#823),(#824,#825,#826,
#827,#828,#829,#830,#831,#832),(#833,#834,#835,#836,#837,#838,#839,#840,
#841),(#842,#843,#844,#845,#846,#847,#848,#849,#850),(#851,#852,#853,#854,
#855,#856,#857,#858,#859),(#860,#861,#862,#863,#864,#865,#866,#867,#868),
(#869,#870,#871,#872,#873,#874,#875,#876,#877),(#878,#879,#880,#881,#882,
#883,#884,#885,#886),(#887,#888,#889,#890,#891,#892,#893,#894,#895),(#896,
#897,#898,#899,#900,#901,#902,#903,#904),(#905,#906,#907,#908,#909,#910,
#911,#912,#913),(#914,#915,#916,#917,#918,#919,#920,#921,#922),(#923,#924,
#925,#926,#927,#928,#929,#930,#931),(#932,#933,#934,#935,#936,#937,#938,
#939,#940),(#941,#942,#943,#944,#945,#946,#947,#948,#949),(#950,#951,#952,
#953,#954,#955,#956,#957,#958),(#959,#960,#961,#962,#963,#964,#965,#966,
#967),(#968,#969,#970,#971,#972,#973,#974,#975,#976),(#977,#978,#979,#980,
#981,#982,#983,#984,#985),(#986,#987,#988,#989,#990,#991,#992,#993,#994),
(#995,#996,#997,#998,#999,#1000,#1001,#1002,#1003)),.UNSPECIFIED.,.F.,.T.,
 .F.)
B_SPLINE_SURFACE_WITH_KNOTS((4,1,1,1,1,1,1,1,1,1,1,1,1,1,1,1,1,1,1,1,1,
1,1,1,4),(3,2,2,2,3),(0.,0.253003029381,0.514351857973,0.791507258368,1.090506604679,
1.415843888595,1.77061843203,2.156778937105,2.575361457693,3.026684754592,
3.510499581275,4.026099863751,4.572405430973,5.148024446645,5.751301640554,
6.380356675876,7.033115670955,7.707337961775,8.400639547163,9.110514217307,
9.834353063788,10.569462861633,11.313083670925,12.062405907199,12.814587062975),
(0.,1.5707963267949,3.14159265358979,4.71238898038469,6.28318530717959),
 .UNSPECIFIED.)
GEOMETRIC_REPRESENTATION_ITEM()
RATIONAL_B_SPLINE_SURFACE(((1.,0.707106781186548,1.,0.707106781186548,1.,
0.707106781186548,1.,0.707106781186548,1.),(1.,0.707106781186548,1.,0.707106781186548,
1.,0.707106781186548,1.,0.707106781186548,1.),(1.,0.707106781186548,1.,
0.707106781186548,1.,0.707106781186548,1.,0.707106781186548,1.),(1.,0.707106781186548,
1.,0.707106781186548,1.,0.707106781186548,1.,0.707106781186548,1.),(1.,
0.707106781186548,1.,0.707106781186548,1.,0.707106781186548,1.,0.707106781186548,
1.),(1.,0.707106781186548,1.,0.707106781186548,1.,0.707106781186548,1.,
0.707106781186548,1.),(1.,0.707106781186548,1.,0.707106781186548,1.,0.707106781186548,
1.,0.707106781186548,1.),(1.,0.707106781186548,1.,0.707106781186548,1.,
0.707106781186548,1.,0.707106781186548,1.),(1.,0.707106781186548,1.,0.707106781186548,
1.,0.707106781186548,1.,0.707106781186548,1.),(1.,0.707106781186548,1.,
0.707106781186548,1.,0.707106781186548,1.,0.707106781186548,1.),(1.,0.707106781186548,
1.,0.707106781186548,1.,0.707106781186548,1.,0.707106781186548,1.),(1.,
0.707106781186548,1.,0.707106781186548,1.,0.707106781186548,1.,0.707106781186548,
1.),(1.,0.707106781186548,1.,0.707106781186548,1.,0.707106781186548,1.,
0.707106781186548,1.),(1.,0.707106781186548,1.,0.707106781186548,1.,0.707106781186548,
1.,0.707106781186548,1.),(1.,0.707106781186548,1.,0.707106781186548,1.,
0.707106781186548,1.,0.707106781186548,1.),(1.,0.707106781186548,1.,0.707106781186548,
1.,0.707106781186548,1.,0.707106781186548,1.),(1.,0.707106781186548,1.,
0.707106781186548,1.,0.707106781186548,1.,0.707106781186548,1.),(1.,0.707106781186548,
1.,0.707106781186548,1.,0.707106781186548,1.,0.707106781186548,1.),(1.,
0.707106781186548,1.,0.707106781186548,1.,0.707106781186548,1.,0.707106781186548,
1.),(1.,0.707106781186548,1.,0.707106781186548,1.,0.707106781186548,1.,
0.707106781186548,1.),(1.,0.707106781186548,1.,0.707106781186548,1.,0.707106781186548,
1.,0.707106781186548,1.),(1.,0.707106781186548,1.,0.707106781186548,1.,
0.707106781186548,1.,0.707106781186548,1.),(1.,0.707106781186548,1.,0.707106781186548,
1.,0.707106781186548,1.,0.707106781186548,1.),(1.,0.707106781186548,1.,
0.707106781186548,1.,0.707106781186548,1.,0.707106781186548,1.),(1.,0.707106781186548,
1.,0.707106781186548,1.,0.707106781186548,1.,0.707106781186548,1.),(1.,
0.707106781186548,1.,0.707106781186548,1.,0.707106781186548,1.,0.707106781186548,
1.),(1.,0.707106781186548,1.,0.707106781186548,1.,0.707106781186548,1.,
0.707106781186548,1.)))
REPRESENTATION_ITEM('')
SURFACE()
);
#17=FACE_BOUND('',#64,.T.);
#18=FACE_BOUND('',#73,.T.);
#19=PLANE('',#466);
#20=PLANE('',#469);
#21=PLANE('',#470);
#22=PLANE('',#472);
#23=PLANE('',#473);
#24=PLANE('',#475);
#25=PLANE('',#476);
#26=PLANE('',#478);
#27=PLANE('',#479);
#28=PLANE('',#483);
#29=PLANE('',#484);
#30=PLANE('',#486);
#31=PLANE('',#487);
#32=PLANE('',#489);
#33=PLANE('',#490);
#34=PLANE('',#492);
#35=PLANE('',#493);
#36=PLANE('',#501);
#37=PLANE('',#502);
#38=FACE_OUTER_BOUND('',#62,.T.);
#39=FACE_OUTER_BOUND('',#63,.T.);
#40=FACE_OUTER_BOUND('',#65,.T.);
#41=FACE_OUTER_BOUND('',#66,.T.);
#42=FACE_OUTER_BOUND('',#67,.T.);
#43=FACE_OUTER_BOUND('',#68,.T.);
#44=FACE_OUTER_BOUND('',#69,.T.);
#45=FACE_OUTER_BOUND('',#70,.T.);
#46=FACE_OUTER_BOUND('',#71,.T.);
#47=FACE_OUTER_BOUND('',#72,.T.);
#48=FACE_OUTER_BOUND('',#74,.T.);
#49=FACE_OUTER_BOUND('',#75,.T.);
#50=FACE_OUTER_BOUND('',#76,.T.);
#51=FACE_OUTER_BOUND('',#77,.T.);
#52=FACE_OUTER_BOUND('',#78,.T.);
#53=FACE_OUTER_BOUND('',#79,.T.);
#54=FACE_OUTER_BOUND('',#80,.T.);
#55=FACE_OUTER_BOUND('',#81,.T.);
#56=FACE_OUTER_BOUND('',#82,.T.);
#57=FACE_OUTER_BOUND('',#83,.T.);
#58=FACE_OUTER_BOUND('',#84,.T.);
#59=FACE_OUTER_BOUND('',#85,.T.);
#60=FACE_OUTER_BOUND('',#86,.T.);
#61=FACE_OUTER_BOUND('',#87,.T.);
#62=EDGE_LOOP('',(#289,#290,#291,#292,#293,#294,#295,#296,#297,#298,#299,
#300,#301,#302,#303,#304,#305,#306,#307,#308));
#63=EDGE_LOOP('',(#309,#310,#311,#312));
#64=EDGE_LOOP('',(#313));
#65=EDGE_LOOP('',(#314,#315,#316,#317));
#66=EDGE_LOOP('',(#318,#319,#320,#321));
#67=EDGE_LOOP('',(#322,#323,#324,#325));
#68=EDGE_LOOP('',(#326,#327,#328,#329));
#69=EDGE_LOOP('',(#330,#331,#332,#333));
#70=EDGE_LOOP('',(#334,#335,#336,#337));
#71=EDGE_LOOP('',(#338,#339,#340,#341));
#72=EDGE_LOOP('',(#342,#343,#344,#345,#346,#347));
#73=EDGE_LOOP('',(#348));
#74=EDGE_LOOP('',(#349,#350,#351,#352));
#75=EDGE_LOOP('',(#353,#354,#355,#356));
#76=EDGE_LOOP('',(#357,#358,#359,#360));
#77=EDGE_LOOP('',(#361,#362,#363,#364));
#78=EDGE_LOOP('',(#365,#366,#367,#368));
#79=EDGE_LOOP('',(#369,#370,#371,#372));
#80=EDGE_LOOP('',(#373,#374,#375,#376));
#81=EDGE_LOOP('',(#377));
#82=EDGE_LOOP('',(#378,#379,#380,#381,#382,#383,#384,#385,#386,#387,#388,
#389,#390,#391,#392,#393,#394,#395,#396,#397,#398));
#83=EDGE_LOOP('',(#399,#400,#401,#402));
#84=EDGE_LOOP('',(#403,#404,#405,#406));
#85=EDGE_LOOP('',(#407,#408,#409,#410));
#86=EDGE_LOOP('',(#411));
#87=EDGE_LOOP('',(#412));
#88=LINE('',#643,#124);
#89=LINE('',#647,#125);
#90=LINE('',#651,#126);
#91=LINE('',#655,#127);
#92=LINE('',#659,#128);
#93=LINE('',#664,#129);
#94=LINE('',#668,#130);
#95=LINE('',#672,#131);
#96=LINE('',#675,#132);
#97=LINE('',#680,#133);
#98=LINE('',#681,#134);
#99=LINE('',#686,#135);
#100=LINE('',#687,#136);
#101=LINE('',#690,#137);
#102=LINE('',#694,#138);
#103=LINE('',#695,#139);
#104=LINE('',#698,#140);
#105=LINE('',#702,#141);
#106=LINE('',#703,#142);
#107=LINE('',#706,#143);
#108=LINE('',#710,#144);
#109=LINE('',#711,#145);
#110=LINE('',#717,#146);
#111=LINE('',#722,#147);
#112=LINE('',#723,#148);
#113=LINE('',#726,#149);
#114=LINE('',#730,#150);
#115=LINE('',#731,#151);
#116=LINE('',#734,#152);
#117=LINE('',#738,#153);
#118=LINE('',#739,#154);
#119=LINE('',#742,#155);
#120=LINE('',#745,#156);
#121=LINE('',#749,#157);
#122=LINE('',#756,#158);
#123=LINE('',#760,#159);
#124=VECTOR('',#509,1.);
#125=VECTOR('',#512,1.);
#126=VECTOR('',#515,1.);
#127=VECTOR('',#518,1.);
#128=VECTOR('',#521,17.500009038555);
#129=VECTOR('',#526,1.);
#130=VECTOR('',#529,1.);
#131=VECTOR('',#532,1.);
#132=VECTOR('',#535,1.);
#133=VECTOR('',#540,1.00000000000064);
#134=VECTOR('',#541,1.00000000000064);
#135=VECTOR('',#546,1.00000000000064);
#136=VECTOR('',#547,1.);
#137=VECTOR('',#550,1.00000000000064);
#138=VECTOR('',#555,1.00000000000064);
#139=VECTOR('',#556,1.);
#140=VECTOR('',#559,1.00000000000064);
#141=VECTOR('',#564,1.00000000000064);
#142=VECTOR('',#565,1.);
#143=VECTOR('',#568,1.00000000000064);
#144=VECTOR('',#573,1.00000000000064);
#145=VECTOR('',#574,1.);
#146=VECTOR('',#581,1.00000000000064);
#147=VECTOR('',#586,1.00000000000064);
#148=VECTOR('',#587,1.);
#149=VECTOR('',#590,1.00000000000064);
#150=VECTOR('',#595,1.00000000000064);
#151=VECTOR('',#596,1.);
#152=VECTOR('',#599,1.00000000000064);
#153=VECTOR('',#604,1.00000000000064);
#154=VECTOR('',#605,1.);
#155=VECTOR('',#608,1.00000000000064);
#156=VECTOR('',#613,1.);
#157=VECTOR('',#618,11.5);
#158=VECTOR('',#627,1.5);
#159=VECTOR('',#632,1.5);
#160=CIRCLE('',#456,17.500009038555);
#161=CIRCLE('',#457,17.500009038555);
#162=CIRCLE('',#458,17.500009038555);
#163=CIRCLE('',#459,17.500009038555);
#164=CIRCLE('',#460,17.500009038555);
#165=CIRCLE('',#461,17.500009038555);
#166=CIRCLE('',#462,17.500009038555);
#167=CIRCLE('',#463,17.500009038555);
#168=CIRCLE('',#464,17.500009038555);
#169=CIRCLE('',#465,17.500009038555);
#170=CIRCLE('',#467,11.5);
#171=CIRCLE('',#468,1.5);
#172=CIRCLE('',#471,11.5);
#173=CIRCLE('',#474,11.5);
#174=CIRCLE('',#477,11.5);
#175=CIRCLE('',#480,11.5);
#176=CIRCLE('',#481,11.5);
#177=CIRCLE('',#482,1.5);
#178=CIRCLE('',#485,11.5);
#179=CIRCLE('',#488,11.5);
#180=CIRCLE('',#491,11.5);
#181=CIRCLE('',#495,11.5);
#182=CIRCLE('',#496,11.5);
#183=CIRCLE('',#498,1.5);
#184=CIRCLE('',#500,1.5);
#185=VERTEX_POINT('',#639);
#186=VERTEX_POINT('',#640);
#187=VERTEX_POINT('',#642);
#188=VERTEX_POINT('',#644);
#189=VERTEX_POINT('',#646);
#190=VERTEX_POINT('',#648);
#191=VERTEX_POINT('',#650);
#192=VERTEX_POINT('',#652);
#193=VERTEX_POINT('',#654);
#194=VERTEX_POINT('',#656);
#195=VERTEX_POINT('',#658);
#196=VERTEX_POINT('',#661);
#197=VERTEX_POINT('',#663);
#198=VERTEX_POINT('',#665);
#199=VERTEX_POINT('',#667);
#200=VERTEX_POINT('',#669);
#201=VERTEX_POINT('',#671);
#202=VERTEX_POINT('',#673);
#203=VERTEX_POINT('',#677);
#204=VERTEX_POINT('',#678);
#205=VERTEX_POINT('',#682);
#206=VERTEX_POINT('',#685);
#207=VERTEX_POINT('',#689);
#208=VERTEX_POINT('',#693);
#209=VERTEX_POINT('',#697);
#210=VERTEX_POINT('',#701);
#211=VERTEX_POINT('',#705);
#212=VERTEX_POINT('',#709);
#213=VERTEX_POINT('',#713);
#214=VERTEX_POINT('',#714);
#215=VERTEX_POINT('',#718);
#216=VERTEX_POINT('',#721);
#217=VERTEX_POINT('',#725);
#218=VERTEX_POINT('',#729);
#219=VERTEX_POINT('',#733);
#220=VERTEX_POINT('',#737);
#221=VERTEX_POINT('',#741);
#222=VERTEX_POINT('',#748);
#223=VERTEX_POINT('',#750);
#224=VERTEX_POINT('',#754);
#225=VERTEX_POINT('',#758);
#226=VERTEX_POINT('',#1004);
#227=EDGE_CURVE('',#185,#186,#160,.T.);
#228=EDGE_CURVE('',#187,#185,#88,.T.);
#229=EDGE_CURVE('',#188,#187,#161,.T.);
#230=EDGE_CURVE('',#188,#189,#89,.T.);
#231=EDGE_CURVE('',#190,#189,#162,.T.);
#232=EDGE_CURVE('',#191,#190,#90,.T.);
#233=EDGE_CURVE('',#192,#191,#163,.T.);
#234=EDGE_CURVE('',#192,#193,#91,.T.);
#235=EDGE_CURVE('',#194,#193,#164,.T.);
#236=EDGE_CURVE('',#194,#195,#92,.T.);
#237=EDGE_CURVE('',#195,#195,#165,.T.);
#238=EDGE_CURVE('',#196,#194,#166,.T.);
#239=EDGE_CURVE('',#197,#196,#93,.T.);
#240=EDGE_CURVE('',#198,#197,#167,.T.);
#241=EDGE_CURVE('',#198,#199,#94,.T.);
#242=EDGE_CURVE('',#200,#199,#168,.T.);
#243=EDGE_CURVE('',#201,#200,#95,.T.);
#244=EDGE_CURVE('',#202,#201,#169,.T.);
#245=EDGE_CURVE('',#202,#186,#96,.T.);
#246=EDGE_CURVE('',#203,#204,#170,.T.);
#247=EDGE_CURVE('',#204,#185,#97,.T.);
#248=EDGE_CURVE('',#203,#186,#98,.T.);
#249=EDGE_CURVE('',#205,#205,#171,.T.);
#250=EDGE_CURVE('',#206,#202,#99,.T.);
#251=EDGE_CURVE('',#203,#206,#100,.T.);
#252=EDGE_CURVE('',#207,#201,#101,.T.);
#253=EDGE_CURVE('',#207,#206,#172,.T.);
#254=EDGE_CURVE('',#208,#200,#102,.T.);
#255=EDGE_CURVE('',#208,#207,#103,.T.);
#256=EDGE_CURVE('',#209,#199,#104,.T.);
#257=EDGE_CURVE('',#209,#208,#173,.T.);
#258=EDGE_CURVE('',#210,#198,#105,.T.);
#259=EDGE_CURVE('',#209,#210,#106,.T.);
#260=EDGE_CURVE('',#211,#197,#107,.T.);
#261=EDGE_CURVE('',#211,#210,#174,.T.);
#262=EDGE_CURVE('',#212,#196,#108,.T.);
#263=EDGE_CURVE('',#212,#211,#109,.T.);
#264=EDGE_CURVE('',#213,#214,#175,.T.);
#265=EDGE_CURVE('',#214,#212,#176,.T.);
#266=EDGE_CURVE('',#213,#193,#110,.T.);
#267=EDGE_CURVE('',#215,#215,#177,.T.);
#268=EDGE_CURVE('',#216,#192,#111,.T.);
#269=EDGE_CURVE('',#213,#216,#112,.T.);
#270=EDGE_CURVE('',#217,#191,#113,.T.);
#271=EDGE_CURVE('',#217,#216,#178,.T.);
#272=EDGE_CURVE('',#218,#190,#114,.T.);
#273=EDGE_CURVE('',#218,#217,#115,.T.);
#274=EDGE_CURVE('',#219,#189,#116,.T.);
#275=EDGE_CURVE('',#219,#218,#179,.T.);
#276=EDGE_CURVE('',#220,#188,#117,.T.);
#277=EDGE_CURVE('',#219,#220,#118,.T.);
#278=EDGE_CURVE('',#221,#187,#119,.T.);
#279=EDGE_CURVE('',#221,#220,#180,.T.);
#280=EDGE_CURVE('',#204,#221,#120,.T.);
#281=EDGE_CURVE('',#214,#222,#121,.T.);
#282=EDGE_CURVE('',#222,#223,#181,.T.);
#283=EDGE_CURVE('',#223,#222,#182,.T.);
#284=EDGE_CURVE('',#224,#224,#183,.T.);
#285=EDGE_CURVE('',#224,#205,#122,.T.);
#286=EDGE_CURVE('',#225,#225,#184,.T.);
#287=EDGE_CURVE('',#225,#215,#123,.T.);
#288=EDGE_CURVE('',#223,#226,#15,.T.);
#289=ORIENTED_EDGE('',*,*,#227,.F.);
#290=ORIENTED_EDGE('',*,*,#228,.F.);
#291=ORIENTED_EDGE('',*,*,#229,.F.);
#292=ORIENTED_EDGE('',*,*,#230,.T.);
#293=ORIENTED_EDGE('',*,*,#231,.F.);
#294=ORIENTED_EDGE('',*,*,#232,.F.);
#295=ORIENTED_EDGE('',*,*,#233,.F.);
#296=ORIENTED_EDGE('',*,*,#234,.T.);
#297=ORIENTED_EDGE('',*,*,#235,.F.);
#298=ORIENTED_EDGE('',*,*,#236,.T.);
#299=ORIENTED_EDGE('',*,*,#237,.T.);
#300=ORIENTED_EDGE('',*,*,#236,.F.);
#301=ORIENTED_EDGE('',*,*,#238,.F.);
#302=ORIENTED_EDGE('',*,*,#239,.F.);
#303=ORIENTED_EDGE('',*,*,#240,.F.);
#304=ORIENTED_EDGE('',*,*,#241,.T.);
#305=ORIENTED_EDGE('',*,*,#242,.F.);
#306=ORIENTED_EDGE('',*,*,#243,.F.);
#307=ORIENTED_EDGE('',*,*,#244,.F.);
#308=ORIENTED_EDGE('',*,*,#245,.T.);
#309=ORIENTED_EDGE('',*,*,#246,.T.);
#310=ORIENTED_EDGE('',*,*,#247,.T.);
#311=ORIENTED_EDGE('',*,*,#227,.T.);
#312=ORIENTED_EDGE('',*,*,#248,.F.);
#313=ORIENTED_EDGE('',*,*,#249,.F.);
#314=ORIENTED_EDGE('',*,*,#250,.F.);
#315=ORIENTED_EDGE('',*,*,#251,.F.);
#316=ORIENTED_EDGE('',*,*,#248,.T.);
#317=ORIENTED_EDGE('',*,*,#245,.F.);
#318=ORIENTED_EDGE('',*,*,#252,.F.);
#319=ORIENTED_EDGE('',*,*,#253,.T.);
#320=ORIENTED_EDGE('',*,*,#250,.T.);
#321=ORIENTED_EDGE('',*,*,#244,.T.);
#322=ORIENTED_EDGE('',*,*,#252,.T.);
#323=ORIENTED_EDGE('',*,*,#243,.T.);
#324=ORIENTED_EDGE('',*,*,#254,.F.);
#325=ORIENTED_EDGE('',*,*,#255,.T.);
#326=ORIENTED_EDGE('',*,*,#254,.T.);
#327=ORIENTED_EDGE('',*,*,#242,.T.);
#328=ORIENTED_EDGE('',*,*,#256,.F.);
#329=ORIENTED_EDGE('',*,*,#257,.T.);
#330=ORIENTED_EDGE('',*,*,#258,.F.);
#331=ORIENTED_EDGE('',*,*,#259,.F.);
#332=ORIENTED_EDGE('',*,*,#256,.T.);
#333=ORIENTED_EDGE('',*,*,#241,.F.);
#334=ORIENTED_EDGE('',*,*,#260,.F.);
#335=ORIENTED_EDGE('',*,*,#261,.T.);
#336=ORIENTED_EDGE('',*,*,#258,.T.);
#337=ORIENTED_EDGE('',*,*,#240,.T.);
#338=ORIENTED_EDGE('',*,*,#260,.T.);
#339=ORIENTED_EDGE('',*,*,#239,.T.);
#340=ORIENTED_EDGE('',*,*,#262,.F.);
#341=ORIENTED_EDGE('',*,*,#263,.T.);
#342=ORIENTED_EDGE('',*,*,#264,.T.);
#343=ORIENTED_EDGE('',*,*,#265,.T.);
#344=ORIENTED_EDGE('',*,*,#262,.T.);
#345=ORIENTED_EDGE('',*,*,#238,.T.);
#346=ORIENTED_EDGE('',*,*,#235,.T.);
#347=ORIENTED_EDGE('',*,*,#266,.F.);
#348=ORIENTED_EDGE('',*,*,#267,.F.);
#349=ORIENTED_EDGE('',*,*,#268,.F.);
#350=ORIENTED_EDGE('',*,*,#269,.F.);
#351=ORIENTED_EDGE('',*,*,#266,.T.);
#352=ORIENTED_EDGE('',*,*,#234,.F.);
#353=ORIENTED_EDGE('',*,*,#270,.F.);
#354=ORIENTED_EDGE('',*,*,#271,.T.);
#355=ORIENTED_EDGE('',*,*,#268,.T.);
#356=ORIENTED_EDGE('',*,*,#233,.T.);
#357=ORIENTED_EDGE('',*,*,#270,.T.);
#358=ORIENTED_EDGE('',*,*,#232,.T.);
#359=ORIENTED_EDGE('',*,*,#272,.F.);
#360=ORIENTED_EDGE('',*,*,#273,.T.);
#361=ORIENTED_EDGE('',*,*,#274,.F.);
#362=ORIENTED_EDGE('',*,*,#275,.T.);
#363=ORIENTED_EDGE('',*,*,#272,.T.);
#364=ORIENTED_EDGE('',*,*,#231,.T.);
#365=ORIENTED_EDGE('',*,*,#276,.F.);
#366=ORIENTED_EDGE('',*,*,#277,.F.);
#367=ORIENTED_EDGE('',*,*,#274,.T.);
#368=ORIENTED_EDGE('',*,*,#230,.F.);
#369=ORIENTED_EDGE('',*,*,#278,.F.);
#370=ORIENTED_EDGE('',*,*,#279,.T.);
#371=ORIENTED_EDGE('',*,*,#276,.T.);
#372=ORIENTED_EDGE('',*,*,#229,.T.);
#373=ORIENTED_EDGE('',*,*,#278,.T.);
#374=ORIENTED_EDGE('',*,*,#228,.T.);
#375=ORIENTED_EDGE('',*,*,#247,.F.);
#376=ORIENTED_EDGE('',*,*,#280,.T.);
#377=ORIENTED_EDGE('',*,*,#237,.F.);
#378=ORIENTED_EDGE('',*,*,#246,.F.);
#379=ORIENTED_EDGE('',*,*,#251,.T.);
#380=ORIENTED_EDGE('',*,*,#253,.F.);
#381=ORIENTED_EDGE('',*,*,#255,.F.);
#382=ORIENTED_EDGE('',*,*,#257,.F.);
#383=ORIENTED_EDGE('',*,*,#259,.T.);
#384=ORIENTED_EDGE('',*,*,#261,.F.);
#385=ORIENTED_EDGE('',*,*,#263,.F.);
#386=ORIENTED_EDGE('',*,*,#265,.F.);
#387=ORIENTED_EDGE('',*,*,#281,.T.);
#388=ORIENTED_EDGE('',*,*,#282,.T.);
#389=ORIENTED_EDGE('',*,*,#283,.T.);
#390=ORIENTED_EDGE('',*,*,#281,.F.);
#391=ORIENTED_EDGE('',*,*,#264,.F.);
#392=ORIENTED_EDGE('',*,*,#269,.T.);
#393=ORIENTED_EDGE('',*,*,#271,.F.);
#394=ORIENTED_EDGE('',*,*,#273,.F.);
#395=ORIENTED_EDGE('',*,*,#275,.F.);
#396=ORIENTED_EDGE('',*,*,#277,.T.);
#397=ORIENTED_EDGE('',*,*,#279,.F.);
#398=ORIENTED_EDGE('',*,*,#280,.F.);
#399=ORIENTED_EDGE('',*,*,#284,.F.);
#400=ORIENTED_EDGE('',*,*,#285,.T.);
#401=ORIENTED_EDGE('',*,*,#249,.T.);
#402=ORIENTED_EDGE('',*,*,#285,.F.);
#403=ORIENTED_EDGE('',*,*,#286,.F.);
#404=ORIENTED_EDGE('',*,*,#287,.T.);
#405=ORIENTED_EDGE('',*,*,#267,.T.);
#406=ORIENTED_EDGE('',*,*,#287,.F.);
#407=ORIENTED_EDGE('',*,*,#288,.T.);
#408=ORIENTED_EDGE('',*,*,#288,.F.);
#409=ORIENTED_EDGE('',*,*,#282,.F.);
#410=ORIENTED_EDGE('',*,*,#283,.F.);
#411=ORIENTED_EDGE('',*,*,#284,.T.);
#412=ORIENTED_EDGE('',*,*,#286,.T.);
#413=CYLINDRICAL_SURFACE('',#455,17.500009038555);
#414=CYLINDRICAL_SURFACE('',#494,11.5);
#415=CYLINDRICAL_SURFACE('',#497,1.5);
#416=CYLINDRICAL_SURFACE('',#499,1.5);
#417=ADVANCED_FACE('',(#38),#413,.T.);
#418=ADVANCED_FACE('',(#39,#17),#19,.T.);
#419=ADVANCED_FACE('',(#40),#20,.T.);
#420=ADVANCED_FACE('',(#41),#21,.T.);
#421=ADVANCED_FACE('',(#42),#22,.F.);
#422=ADVANCED_FACE('',(#43),#23,.T.);
#423=ADVANCED_FACE('',(#44),#24,.T.);
#424=ADVANCED_FACE('',(#45),#25,.T.);
#425=ADVANCED_FACE('',(#46),#26,.F.);
#426=ADVANCED_FACE('',(#47,#18),#27,.T.);
#427=ADVANCED_FACE('',(#48),#28,.T.);
#428=ADVANCED_FACE('',(#49),#29,.T.);
#429=ADVANCED_FACE('',(#50),#30,.F.);
#430=ADVANCED_FACE('',(#51),#31,.T.);
#431=ADVANCED_FACE('',(#52),#32,.T.);
#432=ADVANCED_FACE('',(#53),#33,.T.);
#433=ADVANCED_FACE('',(#54),#34,.F.);
#434=ADVANCED_FACE('',(#55),#35,.F.);
#435=ADVANCED_FACE('',(#56),#414,.F.);
#436=ADVANCED_FACE('',(#57),#415,.T.);
#437=ADVANCED_FACE('',(#58),#416,.T.);
#438=ADVANCED_FACE('',(#59),#16,.F.);
#439=ADVANCED_FACE('',(#60),#36,.T.);
#440=ADVANCED_FACE('',(#61),#37,.T.);
#441=CLOSED_SHELL('',(#417,#418,#419,#420,#421,#422,#423,#424,#425,#426,
#427,#428,#429,#430,#431,#432,#433,#434,#435,#436,#437,#438,#439,#440));
#442=DERIVED_UNIT_ELEMENT(#444,1.);
#443=DERIVED_UNIT_ELEMENT(#1039,-3.);
#444=(
MASS_UNIT()
NAMED_UNIT(*)
SI_UNIT(.KILO.,.GRAM.)
);
#445=DERIVED_UNIT((#442,#443));
#446=MEASURE_REPRESENTATION_ITEM('density measure',
POSITIVE_RATIO_MEASURE(7850.),#445);
#447=PROPERTY_DEFINITION_REPRESENTATION(#452,#449);
#448=PROPERTY_DEFINITION_REPRESENTATION(#453,#450);
#449=REPRESENTATION('material name',(#451),#1036);
#450=REPRESENTATION('density',(#446),#1036);
#451=DESCRIPTIVE_REPRESENTATION_ITEM('A\X\E7o','A\X\E7o');
#452=PROPERTY_DEFINITION('material property','material name',#1046);
#453=PROPERTY_DEFINITION('material property','density of part',#1046);
#454=AXIS2_PLACEMENT_3D('',#637,#503,#504);
#455=AXIS2_PLACEMENT_3D('',#638,#505,#506);
#456=AXIS2_PLACEMENT_3D('',#641,#507,#508);
#457=AXIS2_PLACEMENT_3D('',#645,#510,#511);
#458=AXIS2_PLACEMENT_3D('',#649,#513,#514);
#459=AXIS2_PLACEMENT_3D('',#653,#516,#517);
#460=AXIS2_PLACEMENT_3D('',#657,#519,#520);
#461=AXIS2_PLACEMENT_3D('',#660,#522,#523);
#462=AXIS2_PLACEMENT_3D('',#662,#524,#525);
#463=AXIS2_PLACEMENT_3D('',#666,#527,#528);
#464=AXIS2_PLACEMENT_3D('',#670,#530,#531);
#465=AXIS2_PLACEMENT_3D('',#674,#533,#534);
#466=AXIS2_PLACEMENT_3D('',#676,#536,#537);
#467=AXIS2_PLACEMENT_3D('',#679,#538,#539);
#468=AXIS2_PLACEMENT_3D('',#683,#542,#543);
#469=AXIS2_PLACEMENT_3D('',#684,#544,#545);
#470=AXIS2_PLACEMENT_3D('',#688,#548,#549);
#471=AXIS2_PLACEMENT_3D('',#691,#551,#552);
#472=AXIS2_PLACEMENT_3D('',#692,#553,#554);
#473=AXIS2_PLACEMENT_3D('',#696,#557,#558);
#474=AXIS2_PLACEMENT_3D('',#699,#560,#561);
#475=AXIS2_PLACEMENT_3D('',#700,#562,#563);
#476=AXIS2_PLACEMENT_3D('',#704,#566,#567);
#477=AXIS2_PLACEMENT_3D('',#707,#569,#570);
#478=AXIS2_PLACEMENT_3D('',#708,#571,#572);
#479=AXIS2_PLACEMENT_3D('',#712,#575,#576);
#480=AXIS2_PLACEMENT_3D('',#715,#577,#578);
#481=AXIS2_PLACEMENT_3D('',#716,#579,#580);
#482=AXIS2_PLACEMENT_3D('',#719,#582,#583);
#483=AXIS2_PLACEMENT_3D('',#720,#584,#585);
#484=AXIS2_PLACEMENT_3D('',#724,#588,#589);
#485=AXIS2_PLACEMENT_3D('',#727,#591,#592);
#486=AXIS2_PLACEMENT_3D('',#728,#593,#594);
#487=AXIS2_PLACEMENT_3D('',#732,#597,#598);
#488=AXIS2_PLACEMENT_3D('',#735,#600,#601);
#489=AXIS2_PLACEMENT_3D('',#736,#602,#603);
#490=AXIS2_PLACEMENT_3D('',#740,#606,#607);
#491=AXIS2_PLACEMENT_3D('',#743,#609,#610);
#492=AXIS2_PLACEMENT_3D('',#744,#611,#612);
#493=AXIS2_PLACEMENT_3D('',#746,#614,#615);
#494=AXIS2_PLACEMENT_3D('',#747,#616,#617);
#495=AXIS2_PLACEMENT_3D('',#751,#619,#620);
#496=AXIS2_PLACEMENT_3D('',#752,#621,#622);
#497=AXIS2_PLACEMENT_3D('',#753,#623,#624);
#498=AXIS2_PLACEMENT_3D('',#755,#625,#626);
#499=AXIS2_PLACEMENT_3D('',#757,#628,#629);
#500=AXIS2_PLACEMENT_3D('',#759,#630,#631);
#501=AXIS2_PLACEMENT_3D('',#1032,#633,#634);
#502=AXIS2_PLACEMENT_3D('',#1033,#635,#636);
#503=DIRECTION('axis',(0.,0.,1.));
#504=DIRECTION('refdir',(1.,0.,0.));
#505=DIRECTION('center_axis',(0.,0.,1.));
#506=DIRECTION('ref_axis',(1.,0.,0.));
#507=DIRECTION('center_axis',(0.,0.,1.));
#508=DIRECTION('ref_axis',(1.,0.,0.));
#509=DIRECTION('',(0.,0.,1.));
#510=DIRECTION('center_axis',(0.,0.,1.));
#511=DIRECTION('ref_axis',(1.,0.,0.));
#512=DIRECTION('',(0.,0.,1.));
#513=DIRECTION('center_axis',(0.,0.,1.));
#514=DIRECTION('ref_axis',(1.,0.,0.));
#515=DIRECTION('',(0.,0.,1.));
#516=DIRECTION('center_axis',(0.,0.,1.));
#517=DIRECTION('ref_axis',(1.,0.,0.));
#518=DIRECTION('',(0.,0.,1.));
#519=DIRECTION('center_axis',(0.,0.,1.));
#520=DIRECTION('ref_axis',(1.,0.,0.));
#521=DIRECTION('',(0.,0.,-1.));
#522=DIRECTION('center_axis',(0.,0.,1.));
#523=DIRECTION('ref_axis',(1.,0.,0.));
#524=DIRECTION('center_axis',(0.,0.,1.));
#525=DIRECTION('ref_axis',(1.,0.,0.));
#526=DIRECTION('',(0.,0.,1.));
#527=DIRECTION('center_axis',(0.,0.,1.));
#528=DIRECTION('ref_axis',(1.,0.,0.));
#529=DIRECTION('',(0.,0.,1.));
#530=DIRECTION('center_axis',(0.,0.,1.));
#531=DIRECTION('ref_axis',(1.,0.,0.));
#532=DIRECTION('',(0.,0.,1.));
#533=DIRECTION('center_axis',(0.,0.,1.));
#534=DIRECTION('ref_axis',(1.,0.,0.));
#535=DIRECTION('',(0.,0.,1.));
#536=DIRECTION('center_axis',(0.,0.,1.));
#537=DIRECTION('ref_axis',(1.,0.,0.));
#538=DIRECTION('center_axis',(0.,-1.224646799147E-16,-1.));
#539=DIRECTION('ref_axis',(1.,0.,0.));
#540=DIRECTION('',(0.707106781186548,-0.707106781186548,0.));
#541=DIRECTION('',(0.707106781186548,0.707106781186548,0.));
#542=DIRECTION('center_axis',(0.,0.,1.));
#543=DIRECTION('ref_axis',(1.,0.,0.));
#544=DIRECTION('center_axis',(-0.707106781186548,0.707106781186548,0.));
#545=DIRECTION('ref_axis',(0.,0.,1.));
#546=DIRECTION('',(0.707106781186548,0.707106781186548,0.));
#547=DIRECTION('',(0.,-1.224646799147E-16,-1.));
#548=DIRECTION('center_axis',(0.,0.,1.));
#549=DIRECTION('ref_axis',(0.707106781186548,0.707106781186548,0.));
#550=DIRECTION('',(0.707106781186548,0.707106781186548,0.));
#551=DIRECTION('center_axis',(0.,-1.224646799147E-16,-1.));
#552=DIRECTION('ref_axis',(1.,0.,0.));
#553=DIRECTION('center_axis',(-0.707106781186548,0.707106781186548,0.));
#554=DIRECTION('ref_axis',(0.,0.,1.));
#555=DIRECTION('',(0.707106781186548,0.707106781186548,0.));
#556=DIRECTION('',(0.,-1.224646799147E-16,-1.));
#557=DIRECTION('center_axis',(0.,0.,1.));
#558=DIRECTION('ref_axis',(1.,0.,0.));
#559=DIRECTION('',(-0.707106781186548,0.707106781186548,0.));
#560=DIRECTION('center_axis',(0.,-1.224646799147E-16,-1.));
#561=DIRECTION('ref_axis',(1.,0.,0.));
#562=DIRECTION('center_axis',(-0.707106781186548,-0.707106781186548,0.));
#563=DIRECTION('ref_axis',(0.,0.,1.));
#564=DIRECTION('',(-0.707106781186548,0.707106781186548,0.));
#565=DIRECTION('',(0.,-1.224646799147E-16,-1.));
#566=DIRECTION('center_axis',(0.,0.,1.));
#567=DIRECTION('ref_axis',(-0.707106781186548,0.707106781186548,0.));
#568=DIRECTION('',(-0.707106781186548,0.707106781186548,0.));
#569=DIRECTION('center_axis',(0.,-1.224646799147E-16,-1.));
#570=DIRECTION('ref_axis',(1.,0.,0.));
#571=DIRECTION('center_axis',(-0.707106781186548,-0.707106781186548,0.));
#572=DIRECTION('ref_axis',(0.,0.,1.));
#573=DIRECTION('',(-0.707106781186548,0.707106781186548,0.));
#574=DIRECTION('',(0.,-1.224646799147E-16,-1.));
#575=DIRECTION('center_axis',(0.,0.,1.));
#576=DIRECTION('ref_axis',(1.,0.,0.));
#577=DIRECTION('center_axis',(0.,-1.224646799147E-16,-1.));
#578=DIRECTION('ref_axis',(1.,0.,0.));
#579=DIRECTION('center_axis',(0.,-1.224646799147E-16,-1.));
#580=DIRECTION('ref_axis',(1.,0.,0.));
#581=DIRECTION('',(-0.707106781186548,-0.707106781186548,0.));
#582=DIRECTION('center_axis',(0.,0.,1.));
#583=DIRECTION('ref_axis',(1.,0.,0.));
#584=DIRECTION('center_axis',(0.707106781186548,-0.707106781186548,0.));
#585=DIRECTION('ref_axis',(0.,0.,1.));
#586=DIRECTION('',(-0.707106781186548,-0.707106781186548,0.));
#587=DIRECTION('',(0.,-1.224646799147E-16,-1.));
#588=DIRECTION('center_axis',(0.,0.,1.));
#589=DIRECTION('ref_axis',(-0.707106781186548,-0.707106781186548,0.));
#590=DIRECTION('',(-0.707106781186548,-0.707106781186548,0.));
#591=DIRECTION('center_axis',(0.,-1.224646799147E-16,-1.));
#592=DIRECTION('ref_axis',(1.,0.,0.));
#593=DIRECTION('center_axis',(0.707106781186548,-0.707106781186548,0.));
#594=DIRECTION('ref_axis',(0.,0.,1.));
#595=DIRECTION('',(-0.707106781186548,-0.707106781186548,0.));
#596=DIRECTION('',(0.,-1.224646799147E-16,-1.));
#597=DIRECTION('center_axis',(0.,0.,1.));
#598=DIRECTION('ref_axis',(1.,0.,0.));
#599=DIRECTION('',(0.707106781186548,-0.707106781186548,0.));
#600=DIRECTION('center_axis',(0.,-1.224646799147E-16,-1.));
#601=DIRECTION('ref_axis',(1.,0.,0.));
#602=DIRECTION('center_axis',(0.707106781186548,0.707106781186548,0.));
#603=DIRECTION('ref_axis',(0.,0.,1.));
#604=DIRECTION('',(0.707106781186548,-0.707106781186548,0.));
#605=DIRECTION('',(0.,-1.224646799147E-16,-1.));
#606=DIRECTION('center_axis',(0.,0.,1.));
#607=DIRECTION('ref_axis',(0.707106781186548,-0.707106781186548,0.));
#608=DIRECTION('',(0.707106781186548,-0.707106781186548,0.));
#609=DIRECTION('center_axis',(0.,-1.224646799147E-16,-1.));
#610=DIRECTION('ref_axis',(1.,0.,0.));
#611=DIRECTION('center_axis',(0.707106781186548,0.707106781186548,0.));
#612=DIRECTION('ref_axis',(0.,0.,1.));
#613=DIRECTION('',(0.,-1.224646799147E-16,-1.));
#614=DIRECTION('center_axis',(0.,0.,1.));
#615=DIRECTION('ref_axis',(1.,0.,0.));
#616=DIRECTION('center_axis',(0.,-1.224646799147E-16,-1.));
#617=DIRECTION('ref_axis',(1.,0.,0.));
#618=DIRECTION('',(0.,-1.224646799147E-16,-1.));
#619=DIRECTION('center_axis',(0.,-1.224646799147E-16,-1.));
#620=DIRECTION('ref_axis',(1.,0.,0.));
#621=DIRECTION('center_axis',(0.,-1.224646799147E-16,-1.));
#622=DIRECTION('ref_axis',(1.,0.,0.));
#623=DIRECTION('center_axis',(0.,0.,1.));
#624=DIRECTION('ref_axis',(1.,0.,0.));
#625=DIRECTION('center_axis',(0.,0.,1.));
#626=DIRECTION('ref_axis',(1.,0.,0.));
#627=DIRECTION('',(0.,0.,-1.));
#628=DIRECTION('center_axis',(0.,0.,1.));
#629=DIRECTION('ref_axis',(1.,0.,0.));
#630=DIRECTION('center_axis',(0.,0.,1.));
#631=DIRECTION('ref_axis',(1.,0.,0.));
#632=DIRECTION('',(0.,0.,-1.));
#633=DIRECTION('center_axis',(0.,0.,1.));
#634=DIRECTION('ref_axis',(1.,0.,0.));
#635=DIRECTION('center_axis',(0.,0.,1.));
#636=DIRECTION('ref_axis',(1.,0.,0.));
#637=CARTESIAN_POINT('',(0.,0.,0.));
#638=CARTESIAN_POINT('Origin',(0.,0.,-36.5000001));
#639=CARTESIAN_POINT('',(12.584688689096,-12.16042462038,0.));
#640=CARTESIAN_POINT('',(12.584688689096,12.160424620384,0.));
#641=CARTESIAN_POINT('Origin',(0.,0.,0.));
#642=CARTESIAN_POINT('',(12.584688689096,-12.16042462038,-0.6));
#643=CARTESIAN_POINT('',(12.584688689096,-12.16042462038,-36.5000001));
#644=CARTESIAN_POINT('',(12.160424620384,-12.58468868909,-0.6));
#645=CARTESIAN_POINT('Origin',(0.,0.,-0.6));
#646=CARTESIAN_POINT('',(12.160424620384,-12.58468868909,0.));
#647=CARTESIAN_POINT('',(12.160424620384,-12.58468868909,-36.5000001));
#648=CARTESIAN_POINT('',(-12.16042462038,-12.58468868909,0.));
#649=CARTESIAN_POINT('Origin',(0.,0.,0.));
#650=CARTESIAN_POINT('',(-12.16042462038,-12.58468868909,-0.6));
#651=CARTESIAN_POINT('',(-12.16042462038,-12.58468868909,-36.5000001));
#652=CARTESIAN_POINT('',(-12.58468868909,-12.16042462038,-0.6));
#653=CARTESIAN_POINT('Origin',(0.,0.,-0.6));
#654=CARTESIAN_POINT('',(-12.58468868909,-12.16042462038,0.));
#655=CARTESIAN_POINT('',(-12.58468868909,-12.16042462038,-36.5000001));
#656=CARTESIAN_POINT('',(-17.500009038555,-2.14313300541161E-15,-4.44089209850063E-15));
#657=CARTESIAN_POINT('Origin',(0.,0.,0.));
#658=CARTESIAN_POINT('',(-17.500009038555,-2.14313300541161E-15,-36.5000001));
#659=CARTESIAN_POINT('',(-17.500009038555,-2.14313300541161E-15,-36.5000001));
#660=CARTESIAN_POINT('Origin',(0.,0.,-36.5000001));
#661=CARTESIAN_POINT('',(-12.58468868909,12.160424620384,0.));
#662=CARTESIAN_POINT('Origin',(0.,0.,0.));
#663=CARTESIAN_POINT('',(-12.58468868909,12.160424620384,-0.6));
#664=CARTESIAN_POINT('',(-12.58468868909,12.160424620384,-36.5000001));
#665=CARTESIAN_POINT('',(-12.16042462038,12.584688689096,-0.6));
#666=CARTESIAN_POINT('Origin',(0.,0.,-0.6));
#667=CARTESIAN_POINT('',(-12.16042462038,12.584688689096,0.));
#668=CARTESIAN_POINT('',(-12.16042462038,12.584688689096,-36.5000001));
#669=CARTESIAN_POINT('',(12.160424620384,12.584688689096,0.));
#670=CARTESIAN_POINT('Origin',(0.,0.,0.));
#671=CARTESIAN_POINT('',(12.160424620384,12.584688689096,-0.6));
#672=CARTESIAN_POINT('',(12.160424620384,12.584688689096,-36.5000001));
#673=CARTESIAN_POINT('',(12.584688689096,12.160424620384,-0.6));
#674=CARTESIAN_POINT('Origin',(0.,0.,-0.6));
#675=CARTESIAN_POINT('',(12.584688689096,12.160424620384,-36.5000001));
#676=CARTESIAN_POINT('Origin',(0.,0.,0.));
#677=CARTESIAN_POINT('',(8.341092607517,7.916828538805,-4.847659364723E-16));
#678=CARTESIAN_POINT('',(8.341092607517,-7.916828538805,4.847659364723E-16));
#679=CARTESIAN_POINT('Origin',(0.,0.,0.));
#680=CARTESIAN_POINT('',(6.929652846852,-6.50538877814,0.));
#681=CARTESIAN_POINT('',(6.929652846852,6.50538877814,0.));
#682=CARTESIAN_POINT('',(13.000009038555,-1.83697019872103E-16,0.));
#683=CARTESIAN_POINT('Origin',(14.500009038555,0.,0.));
#684=CARTESIAN_POINT('Origin',(6.929652846852,6.50538877814,-0.6));
#685=CARTESIAN_POINT('',(8.341092607517,7.916828538805,-0.6));
#686=CARTESIAN_POINT('',(6.929652846852,6.50538877814,-0.6));
#687=CARTESIAN_POINT('',(8.341092607517,7.916828538805,-9.955105546316E-16));
#688=CARTESIAN_POINT('Origin',(6.929652846852,6.50538877814,-0.6));
#689=CARTESIAN_POINT('',(7.916828538805,8.341092607517,-0.6));
#690=CARTESIAN_POINT('',(6.50538877814,6.929652846852,-0.6));
#691=CARTESIAN_POINT('Origin',(0.,-7.347880794884E-17,-0.6));
#692=CARTESIAN_POINT('Origin',(6.50538877814,6.929652846852,-0.6));
#693=CARTESIAN_POINT('',(7.916828538805,8.341092607517,-5.107446181593E-16));
#694=CARTESIAN_POINT('',(6.50538877814,6.929652846852,0.));
#695=CARTESIAN_POINT('',(7.916828538805,8.341092607517,-9.955105546316E-16));
#696=CARTESIAN_POINT('Origin',(0.,0.,0.));
#697=CARTESIAN_POINT('',(-7.916828538805,8.341092607517,-5.107446181593E-16));
#698=CARTESIAN_POINT('',(-6.50538877814,6.929652846852,0.));
#699=CARTESIAN_POINT('Origin',(0.,0.,0.));
#700=CARTESIAN_POINT('Origin',(-6.50538877814,6.929652846852,-0.6));
#701=CARTESIAN_POINT('',(-7.916828538805,8.341092607517,-0.6));
#702=CARTESIAN_POINT('',(-6.50538877814,6.929652846852,-0.6));
#703=CARTESIAN_POINT('',(-7.916828538805,8.341092607517,-9.955105546316E-16));
#704=CARTESIAN_POINT('Origin',(-6.50538877814,6.929652846852,-0.6));
#705=CARTESIAN_POINT('',(-8.341092607517,7.916828538805,-0.6));
#706=CARTESIAN_POINT('',(-6.929652846852,6.50538877814,-0.6));
#707=CARTESIAN_POINT('Origin',(0.,-7.347880794884E-17,-0.6));
#708=CARTESIAN_POINT('Origin',(-6.929652846852,6.50538877814,-0.6));
#709=CARTESIAN_POINT('',(-8.341092607517,7.916828538805,-4.847659364723E-16));
#710=CARTESIAN_POINT('',(-6.929652846852,6.50538877814,0.));
#711=CARTESIAN_POINT('',(-8.341092607517,7.916828538805,-9.955105546316E-16));
#712=CARTESIAN_POINT('Origin',(0.,0.,0.));
#713=CARTESIAN_POINT('',(-8.341092607517,-7.916828538805,4.847659364723E-16));
#714=CARTESIAN_POINT('',(-11.5,1.40834381901946E-15,5.10744618159139E-16));
#715=CARTESIAN_POINT('Origin',(0.,0.,0.));
#716=CARTESIAN_POINT('Origin',(0.,0.,0.));
#717=CARTESIAN_POINT('',(-6.929652846852,-6.50538877814,0.));
#718=CARTESIAN_POINT('',(-16.00000903855,-1.83697019872103E-16,0.));
#719=CARTESIAN_POINT('Origin',(-14.50000903855,0.,0.));
#720=CARTESIAN_POINT('Origin',(-6.929652846852,-6.50538877814,-0.6));
#721=CARTESIAN_POINT('',(-8.341092607517,-7.916828538805,-0.6));
#722=CARTESIAN_POINT('',(-6.929652846852,-6.50538877814,-0.6));
#723=CARTESIAN_POINT('',(-8.341092607517,-7.916828538805,9.955105546316E-16));
#724=CARTESIAN_POINT('Origin',(-6.929652846852,-6.50538877814,-0.6));
#725=CARTESIAN_POINT('',(-7.916828538805,-8.341092607517,-0.6));
#726=CARTESIAN_POINT('',(-6.50538877814,-6.929652846852,-0.6));
#727=CARTESIAN_POINT('Origin',(0.,-7.347880794884E-17,-0.6));
#728=CARTESIAN_POINT('Origin',(-6.50538877814,-6.929652846852,-0.6));
#729=CARTESIAN_POINT('',(-7.916828538805,-8.341092607517,5.107446181593E-16));
#730=CARTESIAN_POINT('',(-6.50538877814,-6.929652846852,0.));
#731=CARTESIAN_POINT('',(-7.916828538805,-8.341092607517,9.955105546316E-16));
#732=CARTESIAN_POINT('Origin',(0.,0.,0.));
#733=CARTESIAN_POINT('',(7.916828538805,-8.341092607517,5.107446181593E-16));
#734=CARTESIAN_POINT('',(6.50538877814,-6.929652846852,0.));
#735=CARTESIAN_POINT('Origin',(0.,0.,0.));
#736=CARTESIAN_POINT('Origin',(6.50538877814,-6.929652846852,-0.6));
#737=CARTESIAN_POINT('',(7.916828538805,-8.341092607517,-0.6));
#738=CARTESIAN_POINT('',(6.50538877814,-6.929652846852,-0.6));
#739=CARTESIAN_POINT('',(7.916828538805,-8.341092607517,9.955105546316E-16));
#740=CARTESIAN_POINT('Origin',(6.50538877814,-6.929652846852,-0.6));
#741=CARTESIAN_POINT('',(8.341092607517,-7.916828538805,-0.6));
#742=CARTESIAN_POINT('',(6.929652846852,-6.50538877814,-0.6));
#743=CARTESIAN_POINT('Origin',(0.,-7.347880794884E-17,-0.6));
#744=CARTESIAN_POINT('Origin',(6.929652846852,-6.50538877814,-0.6));
#745=CARTESIAN_POINT('',(8.341092607517,-7.916828538805,9.955105546316E-16));
#746=CARTESIAN_POINT('Origin',(0.,0.,-36.5000001));
#747=CARTESIAN_POINT('Origin',(0.,0.,0.));
#748=CARTESIAN_POINT('',(-11.5,-2.1002692605367E-15,-28.65));
#749=CARTESIAN_POINT('',(-11.5,1.40834381901946E-15,-1.72472375006064E-31));
#750=CARTESIAN_POINT('',(11.5,-2.100269264949E-15,-28.65));
#751=CARTESIAN_POINT('Origin',(0.,-3.508613079557E-15,-28.65));
#752=CARTESIAN_POINT('Origin',(0.,-3.508613079557E-15,-28.65));
#753=CARTESIAN_POINT('Origin',(14.500009038555,0.,0.));
#754=CARTESIAN_POINT('',(13.000009038555,-1.83697019872103E-16,4.));
#755=CARTESIAN_POINT('Origin',(14.500009038555,0.,4.));
#756=CARTESIAN_POINT('',(13.000009038555,-1.83697019872103E-16,0.));
#757=CARTESIAN_POINT('Origin',(-14.50000903855,0.,0.));
#758=CARTESIAN_POINT('',(-16.00000903855,-1.83697019872103E-16,4.));
#759=CARTESIAN_POINT('Origin',(-14.50000903855,0.,4.));
#760=CARTESIAN_POINT('',(-16.00000903855,-1.83697019872103E-16,0.));
#761=CARTESIAN_POINT('Ctrl Pts',(11.5,-3.508613079557E-15,-28.65));
#762=CARTESIAN_POINT('Ctrl Pts',(11.5,11.5,-28.65));
#763=CARTESIAN_POINT('Ctrl Pts',(8.45067244718009E-28,11.5,-28.65));
#764=CARTESIAN_POINT('Ctrl Pts',(-11.5,11.5,-28.65));
#765=CARTESIAN_POINT('Ctrl Pts',(-11.5,-3.50861307955531E-15,-28.65));
#766=CARTESIAN_POINT('Ctrl Pts',(-11.5,-11.5,-28.65));
#767=CARTESIAN_POINT('Ctrl Pts',(-8.45067244718009E-28,-11.5,-28.65));
#768=CARTESIAN_POINT('Ctrl Pts',(11.5,-11.5,-28.65));
#769=CARTESIAN_POINT('Ctrl Pts',(11.5,-3.508613079557E-15,-28.65));
#770=CARTESIAN_POINT('Ctrl Pts',(11.500326776494,-3.518995987374E-15,-28.73478287637));
#771=CARTESIAN_POINT('Ctrl Pts',(11.500326776494,11.500326776494,-28.73478287637));
#772=CARTESIAN_POINT('Ctrl Pts',(9.45647010133688E-28,11.500326776494,-28.73478287637));
#773=CARTESIAN_POINT('Ctrl Pts',(-11.500326776494,11.500326776494,-28.73478287637));
#774=CARTESIAN_POINT('Ctrl Pts',(-11.500326776494,-3.51899598737211E-15,
-28.73478287637));
#775=CARTESIAN_POINT('Ctrl Pts',(-11.500326776494,-11.500326776494,-28.73478287637));
#776=CARTESIAN_POINT('Ctrl Pts',(-9.45647010133688E-28,-11.500326776494,
-28.73478287637));
#777=CARTESIAN_POINT('Ctrl Pts',(11.500326776494,-11.500326776494,-28.73478287637));
#778=CARTESIAN_POINT('Ctrl Pts',(11.500326776494,-3.518995987374E-15,-28.73478287637));
#779=CARTESIAN_POINT('Ctrl Pts',(11.482759996153,-3.539965432407E-15,-28.90601138934));
#780=CARTESIAN_POINT('Ctrl Pts',(11.482759996153,11.482759996153,-28.90601138934));
#781=CARTESIAN_POINT('Ctrl Pts',(8.04145085259669E-28,11.482759996153,-28.90601138934));
#782=CARTESIAN_POINT('Ctrl Pts',(-11.482759996153,11.482759996153,-28.90601138934));
#783=CARTESIAN_POINT('Ctrl Pts',(-11.482759996153,-3.53996543240539E-15,
-28.90601138934));
#784=CARTESIAN_POINT('Ctrl Pts',(-11.482759996153,-11.482759996153,-28.90601138934));
#785=CARTESIAN_POINT('Ctrl Pts',(-8.04145085259669E-28,-11.482759996153,
-28.90601138934));
#786=CARTESIAN_POINT('Ctrl Pts',(11.482759996153,-11.482759996153,-28.90601138934));
#787=CARTESIAN_POINT('Ctrl Pts',(11.482759996153,-3.539965432407E-15,-28.90601138934));
#788=CARTESIAN_POINT('Ctrl Pts',(11.406961955476,-3.57111953904E-15,-29.16040397546));
#789=CARTESIAN_POINT('Ctrl Pts',(11.406961955476,11.406961955476,-29.16040397546));
#790=CARTESIAN_POINT('Ctrl Pts',(1.94602124556708E-27,11.406961955476,-29.16040397546));
#791=CARTESIAN_POINT('Ctrl Pts',(-11.406961955476,11.406961955476,-29.16040397546));
#792=CARTESIAN_POINT('Ctrl Pts',(-11.406961955476,-3.57111953903611E-15,
-29.16040397546));
#793=CARTESIAN_POINT('Ctrl Pts',(-11.406961955476,-11.406961955476,-29.16040397546));
#794=CARTESIAN_POINT('Ctrl Pts',(-1.94602124556708E-27,-11.406961955476,
-29.16040397546));
#795=CARTESIAN_POINT('Ctrl Pts',(11.406961955476,-11.406961955476,-29.16040397546));
#796=CARTESIAN_POINT('Ctrl Pts',(11.406961955476,-3.57111953904E-15,-29.16040397546));
#797=CARTESIAN_POINT('Ctrl Pts',(11.281464857243,-3.601821671651E-15,-29.41110591363));
#798=CARTESIAN_POINT('Ctrl Pts',(11.281464857243,11.281464857243,-29.41110591363));
#799=CARTESIAN_POINT('Ctrl Pts',(9.61917266303871E-28,11.281464857243,-29.41110591363));
#800=CARTESIAN_POINT('Ctrl Pts',(-11.281464857243,11.281464857243,-29.41110591363));
#801=CARTESIAN_POINT('Ctrl Pts',(-11.281464857243,-3.60182167164908E-15,
-29.41110591363));
#802=CARTESIAN_POINT('Ctrl Pts',(-11.281464857243,-11.281464857243,-29.41110591363));
#803=CARTESIAN_POINT('Ctrl Pts',(-9.61917266303871E-28,-11.281464857243,
-29.41110591363));
#804=CARTESIAN_POINT('Ctrl Pts',(11.281464857243,-11.281464857243,-29.41110591363));
#805=CARTESIAN_POINT('Ctrl Pts',(11.281464857243,-3.601821671651E-15,-29.41110591363));
#806=CARTESIAN_POINT('Ctrl Pts',(11.107787887391,-3.631996742314E-15,-29.65750406438));
#807=CARTESIAN_POINT('Ctrl Pts',(11.107787887391,11.107787887391,-29.65750406438));
#808=CARTESIAN_POINT('Ctrl Pts',(7.89353943286775E-28,11.107787887391,-29.65750406438));
#809=CARTESIAN_POINT('Ctrl Pts',(-11.107787887391,11.107787887391,-29.65750406438));
#810=CARTESIAN_POINT('Ctrl Pts',(-11.107787887391,-3.63199674231242E-15,
-29.65750406438));
#811=CARTESIAN_POINT('Ctrl Pts',(-11.107787887391,-11.107787887391,-29.65750406438));
#812=CARTESIAN_POINT('Ctrl Pts',(-7.89353943286775E-28,-11.107787887391,
-29.65750406438));
#813=CARTESIAN_POINT('Ctrl Pts',(11.107787887391,-11.107787887391,-29.65750406438));
#814=CARTESIAN_POINT('Ctrl Pts',(11.107787887391,-3.631996742314E-15,-29.65750406438));
#815=CARTESIAN_POINT('Ctrl Pts',(10.886917277345,-3.661544342723E-15,-29.89877853167));
#816=CARTESIAN_POINT('Ctrl Pts',(10.886917277345,10.886917277345,-29.89877853167));
#817=CARTESIAN_POINT('Ctrl Pts',(1.529897118063E-27,10.886917277345,-29.89877853167));
#818=CARTESIAN_POINT('Ctrl Pts',(-10.886917277345,10.886917277345,-29.89877853167));
#819=CARTESIAN_POINT('Ctrl Pts',(-10.886917277345,-3.66154434271994E-15,
-29.89877853167));
#820=CARTESIAN_POINT('Ctrl Pts',(-10.886917277345,-10.886917277345,-29.89877853167));
#821=CARTESIAN_POINT('Ctrl Pts',(-1.529897118063E-27,-10.886917277345,-29.89877853167));
#822=CARTESIAN_POINT('Ctrl Pts',(10.886917277345,-10.886917277345,-29.89877853167));
#823=CARTESIAN_POINT('Ctrl Pts',(10.886917277345,-3.661544342723E-15,-29.89877853167));
#824=CARTESIAN_POINT('Ctrl Pts',(10.61992902853,-3.690380658042E-15,-30.13424491544));
#825=CARTESIAN_POINT('Ctrl Pts',(10.61992902853,10.61992902853,-30.13424491544));
#826=CARTESIAN_POINT('Ctrl Pts',(1.4643230553165E-27,10.61992902853,-30.13424491544));
#827=CARTESIAN_POINT('Ctrl Pts',(-10.61992902853,10.61992902853,-30.13424491544));
#828=CARTESIAN_POINT('Ctrl Pts',(-10.61992902853,-3.69038065803907E-15,
-30.13424491544));
#829=CARTESIAN_POINT('Ctrl Pts',(-10.61992902853,-10.61992902853,-30.13424491544));
#830=CARTESIAN_POINT('Ctrl Pts',(-1.4643230553165E-27,-10.61992902853,-30.13424491544));
#831=CARTESIAN_POINT('Ctrl Pts',(10.61992902853,-10.61992902853,-30.13424491544));
#832=CARTESIAN_POINT('Ctrl Pts',(10.61992902853,-3.690380658042E-15,-30.13424491544));
#833=CARTESIAN_POINT('Ctrl Pts',(10.307932719617,-3.71840949641E-15,-30.36311774953));
#834=CARTESIAN_POINT('Ctrl Pts',(10.307932719617,10.307932719617,-30.36311774953));
#835=CARTESIAN_POINT('Ctrl Pts',(1.46235090305345E-27,10.307932719617,-30.36311774953));
#836=CARTESIAN_POINT('Ctrl Pts',(-10.307932719617,10.307932719617,-30.36311774953));
#837=CARTESIAN_POINT('Ctrl Pts',(-10.307932719617,-3.71840949640708E-15,
-30.36311774953));
#838=CARTESIAN_POINT('Ctrl Pts',(-10.307932719617,-10.307932719617,-30.36311774953));
#839=CARTESIAN_POINT('Ctrl Pts',(-1.46235090305345E-27,-10.307932719617,
-30.36311774953));
#840=CARTESIAN_POINT('Ctrl Pts',(10.307932719617,-10.307932719617,-30.36311774953));
#841=CARTESIAN_POINT('Ctrl Pts',(10.307932719617,-3.71840949641E-15,-30.36311774953));
#842=CARTESIAN_POINT('Ctrl Pts',(9.952197116961,-3.745529189259E-15,-30.58456684708));
#843=CARTESIAN_POINT('Ctrl Pts',(9.952197116961,9.952197116961,-30.58456684708));
#844=CARTESIAN_POINT('Ctrl Pts',(1.60237371373018E-27,9.952197116961,-30.58456684708));
#845=CARTESIAN_POINT('Ctrl Pts',(-9.952197116961,9.952197116961,-30.58456684708));
#846=CARTESIAN_POINT('Ctrl Pts',(-9.952197116961,-3.7455291892558E-15,-30.58456684708));
#847=CARTESIAN_POINT('Ctrl Pts',(-9.952197116961,-9.952197116961,-30.58456684708));
#848=CARTESIAN_POINT('Ctrl Pts',(-1.60237371373018E-27,-9.952197116961,
-30.58456684708));
#849=CARTESIAN_POINT('Ctrl Pts',(9.952197116961,-9.952197116961,-30.58456684708));
#850=CARTESIAN_POINT('Ctrl Pts',(9.952197116961,-3.745529189259E-15,-30.58456684708));
#851=CARTESIAN_POINT('Ctrl Pts',(9.554168476902,-3.771634076674E-15,-30.79772942941));
#852=CARTESIAN_POINT('Ctrl Pts',(9.554168476902,9.55416847690199,-30.79772942941));
#853=CARTESIAN_POINT('Ctrl Pts',(1.76803450382659E-27,9.554168476902,-30.79772942941));
#854=CARTESIAN_POINT('Ctrl Pts',(-9.554168476902,9.55416847690199,-30.79772942941));
#855=CARTESIAN_POINT('Ctrl Pts',(-9.554168476902,-3.77163407667046E-15,
-30.79772942941));
#856=CARTESIAN_POINT('Ctrl Pts',(-9.554168476902,-9.554168476902,-30.79772942941));
#857=CARTESIAN_POINT('Ctrl Pts',(-1.76803450382659E-27,-9.554168476902,
-30.79772942941));
#858=CARTESIAN_POINT('Ctrl Pts',(9.554168476902,-9.554168476902,-30.79772942941));
#859=CARTESIAN_POINT('Ctrl Pts',(9.554168476902,-3.771634076674E-15,-30.79772942941));
#860=CARTESIAN_POINT('Ctrl Pts',(9.115483977097,-3.796618237291E-15,-31.00174058295));
#861=CARTESIAN_POINT('Ctrl Pts',(9.115483977097,9.11548397709699,-31.00174058295));
#862=CARTESIAN_POINT('Ctrl Pts',(1.46333697918498E-27,9.115483977097,-31.00174058295));
#863=CARTESIAN_POINT('Ctrl Pts',(-9.115483977097,9.11548397709699,-31.00174058295));
#864=CARTESIAN_POINT('Ctrl Pts',(-9.115483977097,-3.79661823728807E-15,
-31.00174058295));
#865=CARTESIAN_POINT('Ctrl Pts',(-9.115483977097,-9.115483977097,-31.00174058295));
#866=CARTESIAN_POINT('Ctrl Pts',(-1.46333697918498E-27,-9.115483977097,
-31.00174058295));
#867=CARTESIAN_POINT('Ctrl Pts',(9.115483977097,-9.115483977097,-31.00174058295));
#868=CARTESIAN_POINT('Ctrl Pts',(9.115483977097,-3.796618237291E-15,-31.00174058295));
#869=CARTESIAN_POINT('Ctrl Pts',(8.637966972464,-3.820377678733E-15,-31.19575114549));
#870=CARTESIAN_POINT('Ctrl Pts',(8.637966972464,8.63796697246399,-31.19575114549));
#871=CARTESIAN_POINT('Ctrl Pts',(1.93123010359419E-27,8.637966972464,-31.19575114549));
#872=CARTESIAN_POINT('Ctrl Pts',(-8.637966972464,8.63796697246399,-31.19575114549));
#873=CARTESIAN_POINT('Ctrl Pts',(-8.637966972464,-3.82037767872914E-15,
-31.19575114549));
#874=CARTESIAN_POINT('Ctrl Pts',(-8.637966972464,-8.637966972464,-31.19575114549));
#875=CARTESIAN_POINT('Ctrl Pts',(-1.93123010359419E-27,-8.637966972464,
-31.19575114549));
#876=CARTESIAN_POINT('Ctrl Pts',(8.637966972464,-8.637966972464,-31.19575114549));
#877=CARTESIAN_POINT('Ctrl Pts',(8.637966972464,-3.820377678733E-15,-31.19575114549));
#878=CARTESIAN_POINT('Ctrl Pts',(8.123618902999,-3.842812037189E-15,-31.37894158433));
#879=CARTESIAN_POINT('Ctrl Pts',(8.123618902999,8.123618902999,-31.37894158433));
#880=CARTESIAN_POINT('Ctrl Pts',(1.95736112107964E-27,8.123618902999,-31.37894158433));
#881=CARTESIAN_POINT('Ctrl Pts',(-8.123618902999,8.123618902999,-31.37894158433));
#882=CARTESIAN_POINT('Ctrl Pts',(-8.123618902999,-3.84281203718509E-15,
-31.37894158433));
#883=CARTESIAN_POINT('Ctrl Pts',(-8.123618902999,-8.123618902999,-31.37894158433));
#884=CARTESIAN_POINT('Ctrl Pts',(-1.95736112107964E-27,-8.123618902999,
-31.37894158433));
#885=CARTESIAN_POINT('Ctrl Pts',(8.123618902999,-8.123618902999,-31.37894158433));
#886=CARTESIAN_POINT('Ctrl Pts',(8.123618902999,-3.842812037189E-15,-31.37894158433));
#887=CARTESIAN_POINT('Ctrl Pts',(7.574608589726,-3.8638257129E-15,-31.5505312682));
#888=CARTESIAN_POINT('Ctrl Pts',(7.574608589726,7.574608589726,-31.5505312682));
#889=CARTESIAN_POINT('Ctrl Pts',(1.1527229977542E-27,7.574608589726,-31.5505312682));
#890=CARTESIAN_POINT('Ctrl Pts',(-7.574608589726,7.574608589726,-31.5505312682));
#891=CARTESIAN_POINT('Ctrl Pts',(-7.574608589726,-3.86382571289769E-15,
-31.5505312682));
#892=CARTESIAN_POINT('Ctrl Pts',(-7.574608589726,-7.574608589726,-31.5505312682));
#893=CARTESIAN_POINT('Ctrl Pts',(-1.1527229977542E-27,-7.574608589726,-31.5505312682));
#894=CARTESIAN_POINT('Ctrl Pts',(7.574608589726,-7.574608589726,-31.5505312682));
#895=CARTESIAN_POINT('Ctrl Pts',(7.574608589726,-3.8638257129E-15,-31.5505312682));
#896=CARTESIAN_POINT('Ctrl Pts',(6.993260887272,-3.883328705002E-15,-31.70978528425));
#897=CARTESIAN_POINT('Ctrl Pts',(6.993260887272,6.993260887272,-31.70978528425));
#898=CARTESIAN_POINT('Ctrl Pts',(2.45976691009227E-27,6.993260887272,-31.70978528425));
#899=CARTESIAN_POINT('Ctrl Pts',(-6.993260887272,6.993260887272,-31.70978528425));
#900=CARTESIAN_POINT('Ctrl Pts',(-6.993260887272,-3.88332870499708E-15,
-31.70978528425));
#901=CARTESIAN_POINT('Ctrl Pts',(-6.993260887272,-6.993260887272,-31.70978528425));
#902=CARTESIAN_POINT('Ctrl Pts',(-2.45976691009227E-27,-6.993260887272,
-31.70978528425));
#903=CARTESIAN_POINT('Ctrl Pts',(6.993260887272,-6.993260887272,-31.70978528425));
#904=CARTESIAN_POINT('Ctrl Pts',(6.993260887272,-3.883328705002E-15,-31.70978528425));
#905=CARTESIAN_POINT('Ctrl Pts',(6.382044923295,-3.901237237815E-15,-31.85601955218));
#906=CARTESIAN_POINT('Ctrl Pts',(6.382044923295,6.38204492329499,-31.85601955218));
#907=CARTESIAN_POINT('Ctrl Pts',(8.50983701507166E-28,6.382044923295,-31.85601955218));
#908=CARTESIAN_POINT('Ctrl Pts',(-6.382044923295,6.38204492329499,-31.85601955218));
#909=CARTESIAN_POINT('Ctrl Pts',(-6.382044923295,-3.9012372378133E-15,-31.85601955218));
#910=CARTESIAN_POINT('Ctrl Pts',(-6.382044923295,-6.382044923295,-31.85601955218));
#911=CARTESIAN_POINT('Ctrl Pts',(-8.50983701507166E-28,-6.38204492329501,
-31.85601955218));
#912=CARTESIAN_POINT('Ctrl Pts',(6.382044923295,-6.382044923295,-31.85601955218));
#913=CARTESIAN_POINT('Ctrl Pts',(6.382044923295,-3.901237237815E-15,-31.85601955218));
#914=CARTESIAN_POINT('Ctrl Pts',(5.743562107474,-3.917474257417E-15,-31.98860487893));
#915=CARTESIAN_POINT('Ctrl Pts',(5.743562107474,5.74356210747399,-31.98860487893));
#916=CARTESIAN_POINT('Ctrl Pts',(1.02650525291884E-27,5.743562107474,-31.98860487893));
#917=CARTESIAN_POINT('Ctrl Pts',(-5.743562107474,5.74356210747399,-31.98860487893));
#918=CARTESIAN_POINT('Ctrl Pts',(-5.743562107474,-3.91747425741495E-15,
-31.98860487893));
#919=CARTESIAN_POINT('Ctrl Pts',(-5.743562107474,-5.743562107474,-31.98860487893));
#920=CARTESIAN_POINT('Ctrl Pts',(-1.02650525291884E-27,-5.74356210747401,
-31.98860487893));
#921=CARTESIAN_POINT('Ctrl Pts',(5.743562107474,-5.743562107474,-31.98860487893));
#922=CARTESIAN_POINT('Ctrl Pts',(5.743562107474,-3.917474257417E-15,-31.98860487893));
#923=CARTESIAN_POINT('Ctrl Pts',(5.080533904395,-3.931969839561E-15,-32.1069702897));
#924=CARTESIAN_POINT('Ctrl Pts',(5.080533904395,5.080533904395,-32.1069702897));
#925=CARTESIAN_POINT('Ctrl Pts',(2.10724469307163E-27,5.080533904395,-32.1069702897));
#926=CARTESIAN_POINT('Ctrl Pts',(-5.080533904395,5.080533904395,-32.1069702897));
#927=CARTESIAN_POINT('Ctrl Pts',(-5.080533904395,-3.93196983955679E-15,
-32.1069702897));
#928=CARTESIAN_POINT('Ctrl Pts',(-5.080533904395,-5.080533904395,-32.1069702897));
#929=CARTESIAN_POINT('Ctrl Pts',(-2.10724469307163E-27,-5.08053390439501,
-32.1069702897));
#930=CARTESIAN_POINT('Ctrl Pts',(5.080533904395,-5.080533904395,-32.1069702897));
#931=CARTESIAN_POINT('Ctrl Pts',(5.080533904395,-3.931969839561E-15,-32.1069702897));
#932=CARTESIAN_POINT('Ctrl Pts',(4.395789356013,-3.944661528131E-15,-32.21060579162));
#933=CARTESIAN_POINT('Ctrl Pts',(4.395789356013,4.39578935601299,-32.21060579162));
#934=CARTESIAN_POINT('Ctrl Pts',(1.67583638552889E-27,4.395789356013,-32.21060579162));
#935=CARTESIAN_POINT('Ctrl Pts',(-4.395789356013,4.39578935601299,-32.21060579162));
#936=CARTESIAN_POINT('Ctrl Pts',(-4.395789356013,-3.94466152812765E-15,
-32.21060579162));
#937=CARTESIAN_POINT('Ctrl Pts',(-4.395789356013,-4.395789356013,-32.21060579162));
#938=CARTESIAN_POINT('Ctrl Pts',(-1.67583638552889E-27,-4.395789356013,
-32.21060579162));
#939=CARTESIAN_POINT('Ctrl Pts',(4.395789356013,-4.395789356013,-32.21060579162));
#940=CARTESIAN_POINT('Ctrl Pts',(4.395789356013,-3.944661528131E-15,-32.21060579162));
#941=CARTESIAN_POINT('Ctrl Pts',(3.692252360371,-3.955494638414E-15,-32.29906485011));
#942=CARTESIAN_POINT('Ctrl Pts',(3.692252360371,3.692252360371,-32.29906485011));
#943=CARTESIAN_POINT('Ctrl Pts',(1.14089008417589E-27,3.692252360371,-32.29906485011));
#944=CARTESIAN_POINT('Ctrl Pts',(-3.692252360371,3.692252360371,-32.29906485011));
#945=CARTESIAN_POINT('Ctrl Pts',(-3.692252360371,-3.95549463841172E-15,
-32.29906485011));
#946=CARTESIAN_POINT('Ctrl Pts',(-3.692252360371,-3.692252360371,-32.29906485011));
#947=CARTESIAN_POINT('Ctrl Pts',(-1.14089008417589E-27,-3.692252360371,
-32.29906485011));
#948=CARTESIAN_POINT('Ctrl Pts',(3.692252360371,-3.692252360371,-32.29906485011));
#949=CARTESIAN_POINT('Ctrl Pts',(3.692252360371,-3.955494638414E-15,-32.29906485011));
#950=CARTESIAN_POINT('Ctrl Pts',(2.97292863604,-3.964422451276E-15,-32.37196597448));
#951=CARTESIAN_POINT('Ctrl Pts',(2.97292863604,2.97292863604,-32.37196597448));
#952=CARTESIAN_POINT('Ctrl Pts',(1.7478199431303E-27,2.97292863604,-32.37196597448));
#953=CARTESIAN_POINT('Ctrl Pts',(-2.97292863604,2.97292863604,-32.37196597448));
#954=CARTESIAN_POINT('Ctrl Pts',(-2.97292863604,-3.9644224512725E-15,-32.37196597448));
#955=CARTESIAN_POINT('Ctrl Pts',(-2.97292863604,-2.97292863604,-32.37196597448));
#956=CARTESIAN_POINT('Ctrl Pts',(-1.7478199431303E-27,-2.97292863604,-32.37196597448));
#957=CARTESIAN_POINT('Ctrl Pts',(2.97292863604,-2.97292863604,-32.37196597448));
#958=CARTESIAN_POINT('Ctrl Pts',(2.97292863604,-3.964422451276E-15,-32.37196597448));
#959=CARTESIAN_POINT('Ctrl Pts',(2.240892667097,-3.971406615201E-15,-32.42899600085));
#960=CARTESIAN_POINT('Ctrl Pts',(2.240892667097,2.240892667097,-32.42899600085));
#961=CARTESIAN_POINT('Ctrl Pts',(1.81931046266596E-27,2.240892667097,-32.42899600085));
#962=CARTESIAN_POINT('Ctrl Pts',(-2.240892667097,2.240892667097,-32.42899600085));
#963=CARTESIAN_POINT('Ctrl Pts',(-2.240892667097,-3.97140661519736E-15,
-32.42899600085));
#964=CARTESIAN_POINT('Ctrl Pts',(-2.240892667097,-2.240892667097,-32.42899600085));
#965=CARTESIAN_POINT('Ctrl Pts',(-1.81931046266596E-27,-2.240892667097,
-32.42899600085));
#966=CARTESIAN_POINT('Ctrl Pts',(2.240892667097,-2.240892667097,-32.42899600085));
#967=CARTESIAN_POINT('Ctrl Pts',(2.240892667097,-3.971406615201E-15,-32.42899600085));
#968=CARTESIAN_POINT('Ctrl Pts',(1.499273583718,-3.976416561573E-15,-32.46990531752));
#969=CARTESIAN_POINT('Ctrl Pts',(1.499273583718,1.499273583718,-32.46990531752));
#970=CARTESIAN_POINT('Ctrl Pts',(2.29805042452196E-27,1.499273583718,-32.46990531752));
#971=CARTESIAN_POINT('Ctrl Pts',(-1.499273583718,1.499273583718,-32.46990531752));
#972=CARTESIAN_POINT('Ctrl Pts',(-1.499273583718,-3.9764165615684E-15,-32.46990531752));
#973=CARTESIAN_POINT('Ctrl Pts',(-1.499273583718,-1.499273583718,-32.46990531752));
#974=CARTESIAN_POINT('Ctrl Pts',(-2.29805042452196E-27,-1.499273583718,
-32.46990531752));
#975=CARTESIAN_POINT('Ctrl Pts',(1.499273583718,-1.499273583718,-32.46990531752));
#976=CARTESIAN_POINT('Ctrl Pts',(1.499273583718,-3.976416561573E-15,-32.46990531752));
#977=CARTESIAN_POINT('Ctrl Pts',(0.751244082452,-3.979432482379E-15,-32.4945321798));
#978=CARTESIAN_POINT('Ctrl Pts',(0.751244082452,0.751244082451996,-32.4945321798));
#979=CARTESIAN_POINT('Ctrl Pts',(1.87502376409719E-27,0.751244082451996,
-32.4945321798));
#980=CARTESIAN_POINT('Ctrl Pts',(-0.751244082452,0.751244082451996,-32.4945321798));
#981=CARTESIAN_POINT('Ctrl Pts',(-0.751244082452,-3.97943248237525E-15,
-32.4945321798));
#982=CARTESIAN_POINT('Ctrl Pts',(-0.751244082452,-0.751244082452004,-32.4945321798));
#983=CARTESIAN_POINT('Ctrl Pts',(-1.87502376409719E-27,-0.751244082452004,
-32.4945321798));
#984=CARTESIAN_POINT('Ctrl Pts',(0.751244082452,-0.751244082452004,-32.4945321798));
#985=CARTESIAN_POINT('Ctrl Pts',(0.751244082452,-3.979432482379E-15,-32.4945321798));
#986=CARTESIAN_POINT('Ctrl Pts',(0.250730392184,-3.980100193452E-15,-32.49998445448));
#987=CARTESIAN_POINT('Ctrl Pts',(0.250730392184,0.250730392183996,-32.49998445448));
#988=CARTESIAN_POINT('Ctrl Pts',(1.3814926602683E-27,0.250730392183996,
-32.49998445448));
#989=CARTESIAN_POINT('Ctrl Pts',(-0.250730392184,0.250730392183996,-32.49998445448));
#990=CARTESIAN_POINT('Ctrl Pts',(-0.250730392184,-3.98010019344924E-15,
-32.49998445448));
#991=CARTESIAN_POINT('Ctrl Pts',(-0.250730392184,-0.250730392184004,-32.49998445448));
#992=CARTESIAN_POINT('Ctrl Pts',(-1.3814926602683E-27,-0.250730392184004,
-32.49998445448));
#993=CARTESIAN_POINT('Ctrl Pts',(0.250730392184,-0.250730392184004,-32.49998445448));
#994=CARTESIAN_POINT('Ctrl Pts',(0.250730392184,-3.980100193452E-15,-32.49998445448));
#995=CARTESIAN_POINT('Ctrl Pts',(7.041719095097E-16,-3.980102097229E-15,
-32.5));
#996=CARTESIAN_POINT('Ctrl Pts',(7.04171909510951E-16,-3.2759301877193E-15,
-32.5));
#997=CARTESIAN_POINT('Ctrl Pts',(1.25083757284107E-27,-3.27593018771805E-15,
-32.5));
#998=CARTESIAN_POINT('Ctrl Pts',(-7.04171909508449E-16,-3.2759301877168E-15,
-32.5));
#999=CARTESIAN_POINT('Ctrl Pts',(-7.041719095097E-16,-3.9801020972265E-15,
-32.5));
#1000=CARTESIAN_POINT('Ctrl Pts',(-7.04171909510951E-16,-4.6842740067362E-15,
-32.5));
#1001=CARTESIAN_POINT('Ctrl Pts',(-1.25083757284107E-27,-4.68427400673745E-15,
-32.5));
#1002=CARTESIAN_POINT('Ctrl Pts',(7.04171909508449E-16,-4.6842740067387E-15,
-32.5));
#1003=CARTESIAN_POINT('Ctrl Pts',(7.041719095097E-16,-3.980102097229E-15,
-32.5));
#1004=CARTESIAN_POINT('',(3.520859547549E-16,-3.980102097229E-15,-32.5));
#1005=CARTESIAN_POINT('Ctrl Pts',(11.5,-3.508613079557E-15,-28.65));
#1006=CARTESIAN_POINT('Ctrl Pts',(11.500326776494,-3.518995987374E-15,-28.73478287637));
#1007=CARTESIAN_POINT('Ctrl Pts',(11.482759996153,-3.539965432407E-15,-28.90601138934));
#1008=CARTESIAN_POINT('Ctrl Pts',(11.406961955476,-3.57111953904E-15,-29.16040397546));
#1009=CARTESIAN_POINT('Ctrl Pts',(11.281464857243,-3.601821671651E-15,-29.41110591363));
#1010=CARTESIAN_POINT('Ctrl Pts',(11.107787887391,-3.631996742314E-15,-29.65750406438));
#1011=CARTESIAN_POINT('Ctrl Pts',(10.886917277345,-3.661544342723E-15,-29.89877853167));
#1012=CARTESIAN_POINT('Ctrl Pts',(10.61992902853,-3.690380658042E-15,-30.13424491544));
#1013=CARTESIAN_POINT('Ctrl Pts',(10.307932719617,-3.71840949641E-15,-30.36311774953));
#1014=CARTESIAN_POINT('Ctrl Pts',(9.952197116961,-3.745529189259E-15,-30.58456684708));
#1015=CARTESIAN_POINT('Ctrl Pts',(9.554168476902,-3.771634076674E-15,-30.79772942941));
#1016=CARTESIAN_POINT('Ctrl Pts',(9.115483977097,-3.796618237291E-15,-31.00174058295));
#1017=CARTESIAN_POINT('Ctrl Pts',(8.637966972464,-3.820377678733E-15,-31.19575114549));
#1018=CARTESIAN_POINT('Ctrl Pts',(8.123618902999,-3.842812037189E-15,-31.37894158433));
#1019=CARTESIAN_POINT('Ctrl Pts',(7.574608589726,-3.8638257129E-15,-31.5505312682));
#1020=CARTESIAN_POINT('Ctrl Pts',(6.993260887272,-3.883328705002E-15,-31.70978528425));
#1021=CARTESIAN_POINT('Ctrl Pts',(6.382044923295,-3.901237237815E-15,-31.85601955218));
#1022=CARTESIAN_POINT('Ctrl Pts',(5.743562107474,-3.917474257417E-15,-31.98860487893));
#1023=CARTESIAN_POINT('Ctrl Pts',(5.080533904395,-3.931969839561E-15,-32.1069702897));
#1024=CARTESIAN_POINT('Ctrl Pts',(4.395789356013,-3.944661528131E-15,-32.21060579162));
#1025=CARTESIAN_POINT('Ctrl Pts',(3.692252360371,-3.955494638414E-15,-32.29906485011));
#1026=CARTESIAN_POINT('Ctrl Pts',(2.97292863604,-3.964422451276E-15,-32.37196597448));
#1027=CARTESIAN_POINT('Ctrl Pts',(2.240892667097,-3.971406615201E-15,-32.42899600085));
#1028=CARTESIAN_POINT('Ctrl Pts',(1.499273583718,-3.976416561573E-15,-32.46990531752));
#1029=CARTESIAN_POINT('Ctrl Pts',(0.751244082452,-3.979432482379E-15,-32.4945321798));
#1030=CARTESIAN_POINT('Ctrl Pts',(0.250730392184,-3.980100193452E-15,-32.49998445448));
#1031=CARTESIAN_POINT('Ctrl Pts',(7.041719095097E-16,-3.980102097229E-15,
-32.5));
#1032=CARTESIAN_POINT('Origin',(14.500009038555,0.,4.));
#1033=CARTESIAN_POINT('Origin',(-14.50000903855,0.,4.));
#1034=UNCERTAINTY_MEASURE_WITH_UNIT(LENGTH_MEASURE(0.01),#1038,
'DISTANCE_ACCURACY_VALUE',
'Maximum model space distance between geometric entities at asserted c
onnectivities');
#1035=UNCERTAINTY_MEASURE_WITH_UNIT(LENGTH_MEASURE(0.01),#1038,
'DISTANCE_ACCURACY_VALUE',
'Maximum model space distance between geometric entities at asserted c
onnectivities');
#1036=(
GEOMETRIC_REPRESENTATION_CONTEXT(3)
GLOBAL_UNCERTAINTY_ASSIGNED_CONTEXT((#1034))
GLOBAL_UNIT_ASSIGNED_CONTEXT((#1038,#1040,#1041))
REPRESENTATION_CONTEXT('','3D')
);
#1037=(
GEOMETRIC_REPRESENTATION_CONTEXT(3)
GLOBAL_UNCERTAINTY_ASSIGNED_CONTEXT((#1035))
GLOBAL_UNIT_ASSIGNED_CONTEXT((#1038,#1040,#1041))
REPRESENTATION_CONTEXT('','3D')
);
#1038=(
LENGTH_UNIT()
NAMED_UNIT(*)
SI_UNIT(.MILLI.,.METRE.)
);
#1039=(
LENGTH_UNIT()
NAMED_UNIT(*)
SI_UNIT($,.METRE.)
);
#1040=(
NAMED_UNIT(*)
PLANE_ANGLE_UNIT()
SI_UNIT($,.RADIAN.)
);
#1041=(
NAMED_UNIT(*)
SI_UNIT($,.STERADIAN.)
SOLID_ANGLE_UNIT()
);
#1042=SHAPE_DEFINITION_REPRESENTATION(#1043,#1044);
#1043=PRODUCT_DEFINITION_SHAPE('',$,#1046);
#1044=SHAPE_REPRESENTATION('',(#454),#1036);
#1045=PRODUCT_DEFINITION_CONTEXT('part definition',#1050,'design');
#1046=PRODUCT_DEFINITION('SOLID','molde_corpo_1',#1047,#1045);
#1047=PRODUCT_DEFINITION_FORMATION('',$,#1052);
#1048=PRODUCT_RELATED_PRODUCT_CATEGORY('molde_corpo_1','molde_corpo_1',
(#1052));
#1049=APPLICATION_PROTOCOL_DEFINITION('international standard',
'automotive_design',2009,#1050);
#1050=APPLICATION_CONTEXT(
'Core Data for Automotive Mechanical Design Process');
#1051=PRODUCT_CONTEXT('part definition',#1050,'mechanical');
#1052=PRODUCT('SOLID','molde_corpo_1','Open CASCADE Model',(#1051));
#1053=PRESENTATION_STYLE_ASSIGNMENT((#1054));
#1054=SURFACE_STYLE_USAGE(.BOTH.,#1055);
#1055=SURFACE_SIDE_STYLE('',(#1056));
#1056=SURFACE_STYLE_FILL_AREA(#1057);
#1057=FILL_AREA_STYLE('A\X\E7o - Acetinado',(#1058));
#1058=FILL_AREA_STYLE_COLOUR('A\X\E7o - Acetinado',#1059);
#1059=COLOUR_RGB('A\X\E7o - Acetinado',0.627450980392157,0.627450980392157,
0.627450980392157);
ENDSEC;
END-ISO-10303-21;
