ISO-10303-21;
HEADER;
/* Generated by software containing ST-Developer
 * from STEP Tools, Inc. (www.steptools.com) 
 */

FILE_DESCRIPTION(
/* description */ (''),
/* implementation_level */ '2;1');

FILE_NAME(
/* name */ 'molde_D.step',
/* time_stamp */ '2026-09-02T21:51:11-03:00',
/* author */ (''),
/* organization */ (''),
/* preprocessor_version */ 'ST-DEVELOPER v20.1',
/* originating_system */ 'Autodesk Translation Framework v15.8.0.0',
/* authorisation */ '');

FILE_SCHEMA (('AUTOMOTIVE_DESIGN { 1 0 10303 214 3 1 1 }'));
ENDSEC;

DATA;
#10=MECHANICAL_DESIGN_GEOMETRIC_PRESENTATION_REPRESENTATION('',(#13),#1016);
#11=SHAPE_REPRESENTATION_RELATIONSHIP('SRR','None',#1023,#12);
#12=ADVANCED_BREP_SHAPE_REPRESENTATION('',(#14),#1015);
#13=STYLED_ITEM('',(#1032),#14);
#14=MANIFOLD_SOLID_BREP('molde_D',#558);
#15=(
BOUNDED_SURFACE()
B_SPLINE_SURFACE(2,2,((#929,#930,#931),(#932,#933,#934),(#935,#936,#937)),
 .UNSPECIFIED.,.F.,.F.,.F.)
B_SPLINE_SURFACE_WITH_KNOTS((3,3),(3,3),(0.,1.5707963267949),(-3.14159265358979,
-1.5707963267949),.UNSPECIFIED.)
GEOMETRIC_REPRESENTATION_ITEM()
RATIONAL_B_SPLINE_SURFACE(((1.,0.707106781186547,1.),(0.707106781186548,
0.5,0.707106781186548),(1.,0.707106781186547,1.)))
REPRESENTATION_ITEM('')
SURFACE()
);
#16=(
BOUNDED_SURFACE()
B_SPLINE_SURFACE(2,2,((#951,#952,#953),(#954,#955,#956),(#957,#958,#959)),
 .UNSPECIFIED.,.F.,.F.,.F.)
B_SPLINE_SURFACE_WITH_KNOTS((3,3),(3,3),(0.,1.5707963267949),(-1.5707963267949,
0.),.UNSPECIFIED.)
GEOMETRIC_REPRESENTATION_ITEM()
RATIONAL_B_SPLINE_SURFACE(((1.,0.707106781186547,1.),(0.707106781186548,
0.5,0.707106781186548),(1.,0.707106781186547,1.)))
REPRESENTATION_ITEM('')
SURFACE()
);
#17=(
BOUNDED_SURFACE()
B_SPLINE_SURFACE(2,2,((#970,#971,#972),(#973,#974,#975),(#976,#977,#978)),
 .UNSPECIFIED.,.F.,.F.,.F.)
B_SPLINE_SURFACE_WITH_KNOTS((3,3),(3,3),(0.,1.5707963267949),(-2.22044604925032E-15,
1.5707963267949),.UNSPECIFIED.)
GEOMETRIC_REPRESENTATION_ITEM()
RATIONAL_B_SPLINE_SURFACE(((1.,0.707106781186547,1.),(0.707106781186547,
0.499999999999999,0.707106781186547),(1.,0.707106781186547,1.)))
REPRESENTATION_ITEM('')
SURFACE()
);
#18=(
BOUNDED_SURFACE()
B_SPLINE_SURFACE(2,2,((#986,#987,#988),(#989,#990,#991),(#992,#993,#994)),
 .UNSPECIFIED.,.F.,.F.,.F.)
B_SPLINE_SURFACE_WITH_KNOTS((3,3),(3,3),(0.,1.5707963267949),(1.5707963267949,
3.14159265358979),.UNSPECIFIED.)
GEOMETRIC_REPRESENTATION_ITEM()
RATIONAL_B_SPLINE_SURFACE(((1.,0.707106781186547,1.),(0.707106781186547,
0.499999999999999,0.707106781186547),(1.,0.707106781186547,1.)))
REPRESENTATION_ITEM('')
SURFACE()
);
#19=CYLINDRICAL_SURFACE('',#583,3.);
#20=CYLINDRICAL_SURFACE('',#588,3.);
#21=CYLINDRICAL_SURFACE('',#593,6.99999999999999);
#22=CYLINDRICAL_SURFACE('',#596,6.99999999999999);
#23=CYLINDRICAL_SURFACE('',#599,6.99999999999999);
#24=CYLINDRICAL_SURFACE('',#602,6.99999999999999);
#25=CYLINDRICAL_SURFACE('',#610,4.);
#26=CYLINDRICAL_SURFACE('',#613,4.);
#27=CYLINDRICAL_SURFACE('',#619,3.);
#28=CYLINDRICAL_SURFACE('',#624,3.);
#29=CYLINDRICAL_SURFACE('',#628,3.);
#30=CYLINDRICAL_SURFACE('',#632,3.);
#31=CYLINDRICAL_SURFACE('',#634,4.);
#32=CYLINDRICAL_SURFACE('',#636,4.);
#33=CYLINDRICAL_SURFACE('',#638,30.);
#34=LINE('',#834,#73);
#35=LINE('',#838,#74);
#36=LINE('',#842,#75);
#37=LINE('',#846,#76);
#38=LINE('',#851,#77);
#39=LINE('',#859,#78);
#40=LINE('',#864,#79);
#41=LINE('',#866,#80);
#42=LINE('',#867,#81);
#43=LINE('',#870,#82);
#44=LINE('',#874,#83);
#45=LINE('',#875,#84);
#46=LINE('',#878,#85);
#47=LINE('',#882,#86);
#48=LINE('',#883,#87);
#49=LINE('',#886,#88);
#50=LINE('',#890,#89);
#51=LINE('',#891,#90);
#52=LINE('',#897,#91);
#53=LINE('',#901,#92);
#54=LINE('',#905,#93);
#55=LINE('',#909,#94);
#56=LINE('',#913,#95);
#57=LINE('',#915,#96);
#58=LINE('',#916,#97);
#59=LINE('',#919,#98);
#60=LINE('',#923,#99);
#61=LINE('',#924,#100);
#62=LINE('',#927,#101);
#63=LINE('',#949,#102);
#64=LINE('',#950,#103);
#65=LINE('',#968,#104);
#66=LINE('',#969,#105);
#67=LINE('',#985,#106);
#68=LINE('',#999,#107);
#69=LINE('',#1001,#108);
#70=LINE('',#1003,#109);
#71=LINE('',#1005,#110);
#72=LINE('',#1011,#111);
#73=VECTOR('',#657,10.);
#74=VECTOR('',#660,10.);
#75=VECTOR('',#663,10.);
#76=VECTOR('',#666,10.);
#77=VECTOR('',#673,3.);
#78=VECTOR('',#684,3.);
#79=VECTOR('',#691,10.);
#80=VECTOR('',#692,10.);
#81=VECTOR('',#693,10.);
#82=VECTOR('',#696,10.);
#83=VECTOR('',#701,10.);
#84=VECTOR('',#702,10.);
#85=VECTOR('',#705,10.);
#86=VECTOR('',#710,10.);
#87=VECTOR('',#711,10.);
#88=VECTOR('',#714,10.);
#89=VECTOR('',#719,10.);
#90=VECTOR('',#720,10.);
#91=VECTOR('',#727,10.);
#92=VECTOR('',#730,10.);
#93=VECTOR('',#733,10.);
#94=VECTOR('',#736,10.);
#95=VECTOR('',#741,10.);
#96=VECTOR('',#742,10.);
#97=VECTOR('',#743,10.);
#98=VECTOR('',#746,10.);
#99=VECTOR('',#751,10.);
#100=VECTOR('',#752,10.);
#101=VECTOR('',#755,10.);
#102=VECTOR('',#770,10.);
#103=VECTOR('',#771,10.);
#104=VECTOR('',#782,10.);
#105=VECTOR('',#783,10.);
#106=VECTOR('',#792,10.);
#107=VECTOR('',#799,10.);
#108=VECTOR('',#802,10.);
#109=VECTOR('',#805,10.);
#110=VECTOR('',#808,10.);
#111=VECTOR('',#817,30.);
#112=FACE_BOUND('',#167,.T.);
#113=FACE_BOUND('',#168,.T.);
#114=FACE_BOUND('',#169,.T.);
#115=FACE_BOUND('',#184,.T.);
#116=PLANE('',#576);
#117=PLANE('',#590);
#118=PLANE('',#591);
#119=PLANE('',#592);
#120=PLANE('',#595);
#121=PLANE('',#598);
#122=PLANE('',#601);
#123=PLANE('',#604);
#124=PLANE('',#609);
#125=PLANE('',#612);
#126=PLANE('',#633);
#127=PLANE('',#635);
#128=PLANE('',#637);
#129=PLANE('',#640);
#130=FACE_OUTER_BOUND('',#165,.T.);
#131=FACE_OUTER_BOUND('',#166,.T.);
#132=FACE_OUTER_BOUND('',#170,.T.);
#133=FACE_OUTER_BOUND('',#171,.T.);
#134=FACE_OUTER_BOUND('',#172,.T.);
#135=FACE_OUTER_BOUND('',#173,.T.);
#136=FACE_OUTER_BOUND('',#174,.T.);
#137=FACE_OUTER_BOUND('',#175,.T.);
#138=FACE_OUTER_BOUND('',#176,.T.);
#139=FACE_OUTER_BOUND('',#177,.T.);
#140=FACE_OUTER_BOUND('',#178,.T.);
#141=FACE_OUTER_BOUND('',#179,.T.);
#142=FACE_OUTER_BOUND('',#180,.T.);
#143=FACE_OUTER_BOUND('',#181,.T.);
#144=FACE_OUTER_BOUND('',#182,.T.);
#145=FACE_OUTER_BOUND('',#183,.T.);
#146=FACE_OUTER_BOUND('',#185,.T.);
#147=FACE_OUTER_BOUND('',#186,.T.);
#148=FACE_OUTER_BOUND('',#187,.T.);
#149=FACE_OUTER_BOUND('',#188,.T.);
#150=FACE_OUTER_BOUND('',#189,.T.);
#151=FACE_OUTER_BOUND('',#190,.T.);
#152=FACE_OUTER_BOUND('',#191,.T.);
#153=FACE_OUTER_BOUND('',#192,.T.);
#154=FACE_OUTER_BOUND('',#193,.T.);
#155=FACE_OUTER_BOUND('',#194,.T.);
#156=FACE_OUTER_BOUND('',#195,.T.);
#157=FACE_OUTER_BOUND('',#196,.T.);
#158=FACE_OUTER_BOUND('',#197,.T.);
#159=FACE_OUTER_BOUND('',#198,.T.);
#160=FACE_OUTER_BOUND('',#199,.T.);
#161=FACE_OUTER_BOUND('',#200,.T.);
#162=FACE_OUTER_BOUND('',#201,.T.);
#163=FACE_OUTER_BOUND('',#202,.T.);
#164=FACE_OUTER_BOUND('',#203,.T.);
#165=EDGE_LOOP('',(#367,#368,#369,#370));
#166=EDGE_LOOP('',(#371));
#167=EDGE_LOOP('',(#372));
#168=EDGE_LOOP('',(#373,#374,#375,#376,#377,#378,#379,#380));
#169=EDGE_LOOP('',(#381));
#170=EDGE_LOOP('',(#382,#383,#384,#385));
#171=EDGE_LOOP('',(#386,#387,#388,#389));
#172=EDGE_LOOP('',(#390,#391,#392,#393));
#173=EDGE_LOOP('',(#394));
#174=EDGE_LOOP('',(#395));
#175=EDGE_LOOP('',(#396,#397,#398,#399));
#176=EDGE_LOOP('',(#400,#401,#402,#403));
#177=EDGE_LOOP('',(#404,#405,#406,#407));
#178=EDGE_LOOP('',(#408,#409,#410,#411));
#179=EDGE_LOOP('',(#412,#413,#414,#415));
#180=EDGE_LOOP('',(#416,#417,#418,#419));
#181=EDGE_LOOP('',(#420,#421,#422,#423));
#182=EDGE_LOOP('',(#424,#425,#426,#427));
#183=EDGE_LOOP('',(#428,#429,#430,#431,#432,#433,#434,#435));
#184=EDGE_LOOP('',(#436,#437,#438,#439,#440,#441,#442,#443));
#185=EDGE_LOOP('',(#444,#445,#446,#447));
#186=EDGE_LOOP('',(#448,#449,#450,#451));
#187=EDGE_LOOP('',(#452,#453,#454,#455));
#188=EDGE_LOOP('',(#456,#457,#458,#459));
#189=EDGE_LOOP('',(#460,#461,#462,#463));
#190=EDGE_LOOP('',(#464,#465,#466,#467));
#191=EDGE_LOOP('',(#468,#469,#470,#471));
#192=EDGE_LOOP('',(#472,#473,#474,#475));
#193=EDGE_LOOP('',(#476,#477,#478,#479));
#194=EDGE_LOOP('',(#480,#481,#482,#483));
#195=EDGE_LOOP('',(#484,#485,#486,#487));
#196=EDGE_LOOP('',(#488,#489,#490,#491));
#197=EDGE_LOOP('',(#492,#493,#494,#495));
#198=EDGE_LOOP('',(#496,#497,#498,#499));
#199=EDGE_LOOP('',(#500,#501,#502,#503));
#200=EDGE_LOOP('',(#504,#505,#506,#507));
#201=EDGE_LOOP('',(#508,#509,#510,#511,#512,#513,#514,#515));
#202=EDGE_LOOP('',(#516,#517,#518,#519));
#203=EDGE_LOOP('',(#520));
#204=CIRCLE('',#573,3.);
#205=CIRCLE('',#574,1.);
#206=CIRCLE('',#575,4.);
#207=CIRCLE('',#577,30.);
#208=CIRCLE('',#578,4.);
#209=CIRCLE('',#579,6.99999999999999);
#210=CIRCLE('',#580,6.99999999999999);
#211=CIRCLE('',#581,6.99999999999999);
#212=CIRCLE('',#582,6.99999999999999);
#213=CIRCLE('',#584,3.);
#214=CIRCLE('',#586,3.);
#215=CIRCLE('',#587,1.);
#216=CIRCLE('',#589,3.);
#217=CIRCLE('',#594,6.99999999999999);
#218=CIRCLE('',#597,6.99999999999999);
#219=CIRCLE('',#600,6.99999999999999);
#220=CIRCLE('',#603,6.99999999999999);
#221=CIRCLE('',#605,4.);
#222=CIRCLE('',#606,4.);
#223=CIRCLE('',#607,4.);
#224=CIRCLE('',#608,4.);
#225=CIRCLE('',#611,4.);
#226=CIRCLE('',#614,4.);
#227=CIRCLE('',#615,3.);
#228=CIRCLE('',#616,0.999999999999998);
#229=CIRCLE('',#617,3.);
#230=CIRCLE('',#618,4.);
#231=CIRCLE('',#620,3.);
#232=CIRCLE('',#621,3.);
#233=CIRCLE('',#622,4.);
#234=CIRCLE('',#623,0.999999999999999);
#235=CIRCLE('',#625,3.);
#236=CIRCLE('',#626,3.);
#237=CIRCLE('',#627,0.999999999999998);
#238=CIRCLE('',#629,3.);
#239=CIRCLE('',#630,3.);
#240=CIRCLE('',#631,0.999999999999999);
#241=CIRCLE('',#639,30.);
#242=VERTEX_POINT('',#822);
#243=VERTEX_POINT('',#824);
#244=VERTEX_POINT('',#828);
#245=VERTEX_POINT('',#830);
#246=VERTEX_POINT('',#832);
#247=VERTEX_POINT('',#833);
#248=VERTEX_POINT('',#835);
#249=VERTEX_POINT('',#837);
#250=VERTEX_POINT('',#839);
#251=VERTEX_POINT('',#841);
#252=VERTEX_POINT('',#843);
#253=VERTEX_POINT('',#845);
#254=VERTEX_POINT('',#849);
#255=VERTEX_POINT('',#853);
#256=VERTEX_POINT('',#857);
#257=VERTEX_POINT('',#863);
#258=VERTEX_POINT('',#865);
#259=VERTEX_POINT('',#869);
#260=VERTEX_POINT('',#873);
#261=VERTEX_POINT('',#877);
#262=VERTEX_POINT('',#881);
#263=VERTEX_POINT('',#885);
#264=VERTEX_POINT('',#889);
#265=VERTEX_POINT('',#895);
#266=VERTEX_POINT('',#896);
#267=VERTEX_POINT('',#898);
#268=VERTEX_POINT('',#900);
#269=VERTEX_POINT('',#902);
#270=VERTEX_POINT('',#904);
#271=VERTEX_POINT('',#906);
#272=VERTEX_POINT('',#908);
#273=VERTEX_POINT('',#912);
#274=VERTEX_POINT('',#914);
#275=VERTEX_POINT('',#918);
#276=VERTEX_POINT('',#922);
#277=VERTEX_POINT('',#926);
#278=VERTEX_POINT('',#938);
#279=VERTEX_POINT('',#940);
#280=VERTEX_POINT('',#942);
#281=VERTEX_POINT('',#946);
#282=VERTEX_POINT('',#947);
#283=VERTEX_POINT('',#960);
#284=VERTEX_POINT('',#961);
#285=VERTEX_POINT('',#966);
#286=VERTEX_POINT('',#979);
#287=VERTEX_POINT('',#983);
#288=VERTEX_POINT('',#995);
#289=VERTEX_POINT('',#1009);
#290=EDGE_CURVE('',#242,#242,#204,.T.);
#291=EDGE_CURVE('',#242,#243,#205,.T.);
#292=EDGE_CURVE('',#243,#243,#206,.T.);
#293=EDGE_CURVE('',#244,#244,#207,.T.);
#294=EDGE_CURVE('',#245,#245,#208,.T.);
#295=EDGE_CURVE('',#246,#247,#34,.T.);
#296=EDGE_CURVE('',#247,#248,#209,.T.);
#297=EDGE_CURVE('',#248,#249,#35,.T.);
#298=EDGE_CURVE('',#249,#250,#210,.T.);
#299=EDGE_CURVE('',#250,#251,#36,.T.);
#300=EDGE_CURVE('',#251,#252,#211,.T.);
#301=EDGE_CURVE('',#252,#253,#37,.T.);
#302=EDGE_CURVE('',#253,#246,#212,.T.);
#303=EDGE_CURVE('',#254,#254,#213,.T.);
#304=EDGE_CURVE('',#254,#242,#38,.T.);
#305=EDGE_CURVE('',#255,#255,#214,.T.);
#306=EDGE_CURVE('',#255,#245,#215,.T.);
#307=EDGE_CURVE('',#256,#256,#216,.T.);
#308=EDGE_CURVE('',#256,#255,#39,.T.);
#309=EDGE_CURVE('',#246,#257,#40,.T.);
#310=EDGE_CURVE('',#257,#258,#41,.T.);
#311=EDGE_CURVE('',#247,#258,#42,.T.);
#312=EDGE_CURVE('',#253,#259,#43,.T.);
#313=EDGE_CURVE('',#259,#257,#217,.T.);
#314=EDGE_CURVE('',#252,#260,#44,.T.);
#315=EDGE_CURVE('',#260,#259,#45,.T.);
#316=EDGE_CURVE('',#251,#261,#46,.T.);
#317=EDGE_CURVE('',#261,#260,#218,.T.);
#318=EDGE_CURVE('',#250,#262,#47,.T.);
#319=EDGE_CURVE('',#262,#261,#48,.T.);
#320=EDGE_CURVE('',#249,#263,#49,.T.);
#321=EDGE_CURVE('',#263,#262,#219,.T.);
#322=EDGE_CURVE('',#248,#264,#50,.T.);
#323=EDGE_CURVE('',#264,#263,#51,.T.);
#324=EDGE_CURVE('',#258,#264,#220,.T.);
#325=EDGE_CURVE('',#265,#266,#52,.T.);
#326=EDGE_CURVE('',#267,#265,#221,.T.);
#327=EDGE_CURVE('',#268,#267,#53,.T.);
#328=EDGE_CURVE('',#269,#268,#222,.T.);
#329=EDGE_CURVE('',#270,#269,#54,.T.);
#330=EDGE_CURVE('',#271,#270,#223,.T.);
#331=EDGE_CURVE('',#272,#271,#55,.T.);
#332=EDGE_CURVE('',#266,#272,#224,.T.);
#333=EDGE_CURVE('',#269,#273,#56,.T.);
#334=EDGE_CURVE('',#273,#274,#57,.T.);
#335=EDGE_CURVE('',#270,#274,#58,.T.);
#336=EDGE_CURVE('',#268,#275,#59,.T.);
#337=EDGE_CURVE('',#275,#273,#225,.T.);
#338=EDGE_CURVE('',#267,#276,#60,.T.);
#339=EDGE_CURVE('',#276,#275,#61,.T.);
#340=EDGE_CURVE('',#265,#277,#62,.T.);
#341=EDGE_CURVE('',#277,#276,#226,.T.);
#342=EDGE_CURVE('',#278,#274,#227,.T.);
#343=EDGE_CURVE('',#279,#278,#228,.T.);
#344=EDGE_CURVE('',#280,#279,#229,.T.);
#345=EDGE_CURVE('',#274,#280,#230,.T.);
#346=EDGE_CURVE('',#281,#282,#231,.T.);
#347=EDGE_CURVE('',#280,#281,#63,.T.);
#348=EDGE_CURVE('',#282,#279,#64,.T.);
#349=EDGE_CURVE('',#283,#284,#232,.T.);
#350=EDGE_CURVE('',#281,#283,#233,.T.);
#351=EDGE_CURVE('',#284,#282,#234,.T.);
#352=EDGE_CURVE('',#277,#285,#235,.T.);
#353=EDGE_CURVE('',#283,#277,#65,.T.);
#354=EDGE_CURVE('',#285,#284,#66,.T.);
#355=EDGE_CURVE('',#276,#286,#236,.T.);
#356=EDGE_CURVE('',#286,#285,#237,.T.);
#357=EDGE_CURVE('',#275,#287,#238,.T.);
#358=EDGE_CURVE('',#287,#286,#67,.T.);
#359=EDGE_CURVE('',#273,#288,#239,.T.);
#360=EDGE_CURVE('',#288,#287,#240,.T.);
#361=EDGE_CURVE('',#278,#288,#68,.T.);
#362=EDGE_CURVE('',#266,#283,#69,.T.);
#363=EDGE_CURVE('',#272,#281,#70,.T.);
#364=EDGE_CURVE('',#271,#280,#71,.T.);
#365=EDGE_CURVE('',#289,#289,#241,.T.);
#366=EDGE_CURVE('',#289,#244,#72,.T.);
#367=ORIENTED_EDGE('',*,*,#290,.T.);
#368=ORIENTED_EDGE('',*,*,#291,.T.);
#369=ORIENTED_EDGE('',*,*,#292,.T.);
#370=ORIENTED_EDGE('',*,*,#291,.F.);
#371=ORIENTED_EDGE('',*,*,#293,.F.);
#372=ORIENTED_EDGE('',*,*,#294,.F.);
#373=ORIENTED_EDGE('',*,*,#295,.T.);
#374=ORIENTED_EDGE('',*,*,#296,.T.);
#375=ORIENTED_EDGE('',*,*,#297,.T.);
#376=ORIENTED_EDGE('',*,*,#298,.T.);
#377=ORIENTED_EDGE('',*,*,#299,.T.);
#378=ORIENTED_EDGE('',*,*,#300,.T.);
#379=ORIENTED_EDGE('',*,*,#301,.T.);
#380=ORIENTED_EDGE('',*,*,#302,.T.);
#381=ORIENTED_EDGE('',*,*,#292,.F.);
#382=ORIENTED_EDGE('',*,*,#303,.F.);
#383=ORIENTED_EDGE('',*,*,#304,.T.);
#384=ORIENTED_EDGE('',*,*,#290,.F.);
#385=ORIENTED_EDGE('',*,*,#304,.F.);
#386=ORIENTED_EDGE('',*,*,#305,.T.);
#387=ORIENTED_EDGE('',*,*,#306,.T.);
#388=ORIENTED_EDGE('',*,*,#294,.T.);
#389=ORIENTED_EDGE('',*,*,#306,.F.);
#390=ORIENTED_EDGE('',*,*,#307,.F.);
#391=ORIENTED_EDGE('',*,*,#308,.T.);
#392=ORIENTED_EDGE('',*,*,#305,.F.);
#393=ORIENTED_EDGE('',*,*,#308,.F.);
#394=ORIENTED_EDGE('',*,*,#307,.T.);
#395=ORIENTED_EDGE('',*,*,#303,.T.);
#396=ORIENTED_EDGE('',*,*,#295,.F.);
#397=ORIENTED_EDGE('',*,*,#309,.T.);
#398=ORIENTED_EDGE('',*,*,#310,.T.);
#399=ORIENTED_EDGE('',*,*,#311,.F.);
#400=ORIENTED_EDGE('',*,*,#302,.F.);
#401=ORIENTED_EDGE('',*,*,#312,.T.);
#402=ORIENTED_EDGE('',*,*,#313,.T.);
#403=ORIENTED_EDGE('',*,*,#309,.F.);
#404=ORIENTED_EDGE('',*,*,#301,.F.);
#405=ORIENTED_EDGE('',*,*,#314,.T.);
#406=ORIENTED_EDGE('',*,*,#315,.T.);
#407=ORIENTED_EDGE('',*,*,#312,.F.);
#408=ORIENTED_EDGE('',*,*,#300,.F.);
#409=ORIENTED_EDGE('',*,*,#316,.T.);
#410=ORIENTED_EDGE('',*,*,#317,.T.);
#411=ORIENTED_EDGE('',*,*,#314,.F.);
#412=ORIENTED_EDGE('',*,*,#299,.F.);
#413=ORIENTED_EDGE('',*,*,#318,.T.);
#414=ORIENTED_EDGE('',*,*,#319,.T.);
#415=ORIENTED_EDGE('',*,*,#316,.F.);
#416=ORIENTED_EDGE('',*,*,#298,.F.);
#417=ORIENTED_EDGE('',*,*,#320,.T.);
#418=ORIENTED_EDGE('',*,*,#321,.T.);
#419=ORIENTED_EDGE('',*,*,#318,.F.);
#420=ORIENTED_EDGE('',*,*,#297,.F.);
#421=ORIENTED_EDGE('',*,*,#322,.T.);
#422=ORIENTED_EDGE('',*,*,#323,.T.);
#423=ORIENTED_EDGE('',*,*,#320,.F.);
#424=ORIENTED_EDGE('',*,*,#296,.F.);
#425=ORIENTED_EDGE('',*,*,#311,.T.);
#426=ORIENTED_EDGE('',*,*,#324,.T.);
#427=ORIENTED_EDGE('',*,*,#322,.F.);
#428=ORIENTED_EDGE('',*,*,#324,.F.);
#429=ORIENTED_EDGE('',*,*,#310,.F.);
#430=ORIENTED_EDGE('',*,*,#313,.F.);
#431=ORIENTED_EDGE('',*,*,#315,.F.);
#432=ORIENTED_EDGE('',*,*,#317,.F.);
#433=ORIENTED_EDGE('',*,*,#319,.F.);
#434=ORIENTED_EDGE('',*,*,#321,.F.);
#435=ORIENTED_EDGE('',*,*,#323,.F.);
#436=ORIENTED_EDGE('',*,*,#325,.F.);
#437=ORIENTED_EDGE('',*,*,#326,.F.);
#438=ORIENTED_EDGE('',*,*,#327,.F.);
#439=ORIENTED_EDGE('',*,*,#328,.F.);
#440=ORIENTED_EDGE('',*,*,#329,.F.);
#441=ORIENTED_EDGE('',*,*,#330,.F.);
#442=ORIENTED_EDGE('',*,*,#331,.F.);
#443=ORIENTED_EDGE('',*,*,#332,.F.);
#444=ORIENTED_EDGE('',*,*,#329,.T.);
#445=ORIENTED_EDGE('',*,*,#333,.T.);
#446=ORIENTED_EDGE('',*,*,#334,.T.);
#447=ORIENTED_EDGE('',*,*,#335,.F.);
#448=ORIENTED_EDGE('',*,*,#328,.T.);
#449=ORIENTED_EDGE('',*,*,#336,.T.);
#450=ORIENTED_EDGE('',*,*,#337,.T.);
#451=ORIENTED_EDGE('',*,*,#333,.F.);
#452=ORIENTED_EDGE('',*,*,#327,.T.);
#453=ORIENTED_EDGE('',*,*,#338,.T.);
#454=ORIENTED_EDGE('',*,*,#339,.T.);
#455=ORIENTED_EDGE('',*,*,#336,.F.);
#456=ORIENTED_EDGE('',*,*,#326,.T.);
#457=ORIENTED_EDGE('',*,*,#340,.T.);
#458=ORIENTED_EDGE('',*,*,#341,.T.);
#459=ORIENTED_EDGE('',*,*,#338,.F.);
#460=ORIENTED_EDGE('',*,*,#342,.F.);
#461=ORIENTED_EDGE('',*,*,#343,.F.);
#462=ORIENTED_EDGE('',*,*,#344,.F.);
#463=ORIENTED_EDGE('',*,*,#345,.F.);
#464=ORIENTED_EDGE('',*,*,#346,.F.);
#465=ORIENTED_EDGE('',*,*,#347,.F.);
#466=ORIENTED_EDGE('',*,*,#344,.T.);
#467=ORIENTED_EDGE('',*,*,#348,.F.);
#468=ORIENTED_EDGE('',*,*,#349,.F.);
#469=ORIENTED_EDGE('',*,*,#350,.F.);
#470=ORIENTED_EDGE('',*,*,#346,.T.);
#471=ORIENTED_EDGE('',*,*,#351,.F.);
#472=ORIENTED_EDGE('',*,*,#352,.F.);
#473=ORIENTED_EDGE('',*,*,#353,.F.);
#474=ORIENTED_EDGE('',*,*,#349,.T.);
#475=ORIENTED_EDGE('',*,*,#354,.F.);
#476=ORIENTED_EDGE('',*,*,#355,.F.);
#477=ORIENTED_EDGE('',*,*,#341,.F.);
#478=ORIENTED_EDGE('',*,*,#352,.T.);
#479=ORIENTED_EDGE('',*,*,#356,.F.);
#480=ORIENTED_EDGE('',*,*,#357,.F.);
#481=ORIENTED_EDGE('',*,*,#339,.F.);
#482=ORIENTED_EDGE('',*,*,#355,.T.);
#483=ORIENTED_EDGE('',*,*,#358,.F.);
#484=ORIENTED_EDGE('',*,*,#359,.F.);
#485=ORIENTED_EDGE('',*,*,#337,.F.);
#486=ORIENTED_EDGE('',*,*,#357,.T.);
#487=ORIENTED_EDGE('',*,*,#360,.F.);
#488=ORIENTED_EDGE('',*,*,#342,.T.);
#489=ORIENTED_EDGE('',*,*,#334,.F.);
#490=ORIENTED_EDGE('',*,*,#359,.T.);
#491=ORIENTED_EDGE('',*,*,#361,.F.);
#492=ORIENTED_EDGE('',*,*,#325,.T.);
#493=ORIENTED_EDGE('',*,*,#362,.T.);
#494=ORIENTED_EDGE('',*,*,#353,.T.);
#495=ORIENTED_EDGE('',*,*,#340,.F.);
#496=ORIENTED_EDGE('',*,*,#332,.T.);
#497=ORIENTED_EDGE('',*,*,#363,.T.);
#498=ORIENTED_EDGE('',*,*,#350,.T.);
#499=ORIENTED_EDGE('',*,*,#362,.F.);
#500=ORIENTED_EDGE('',*,*,#331,.T.);
#501=ORIENTED_EDGE('',*,*,#364,.T.);
#502=ORIENTED_EDGE('',*,*,#347,.T.);
#503=ORIENTED_EDGE('',*,*,#363,.F.);
#504=ORIENTED_EDGE('',*,*,#330,.T.);
#505=ORIENTED_EDGE('',*,*,#335,.T.);
#506=ORIENTED_EDGE('',*,*,#345,.T.);
#507=ORIENTED_EDGE('',*,*,#364,.F.);
#508=ORIENTED_EDGE('',*,*,#343,.T.);
#509=ORIENTED_EDGE('',*,*,#361,.T.);
#510=ORIENTED_EDGE('',*,*,#360,.T.);
#511=ORIENTED_EDGE('',*,*,#358,.T.);
#512=ORIENTED_EDGE('',*,*,#356,.T.);
#513=ORIENTED_EDGE('',*,*,#354,.T.);
#514=ORIENTED_EDGE('',*,*,#351,.T.);
#515=ORIENTED_EDGE('',*,*,#348,.T.);
#516=ORIENTED_EDGE('',*,*,#365,.F.);
#517=ORIENTED_EDGE('',*,*,#366,.T.);
#518=ORIENTED_EDGE('',*,*,#293,.T.);
#519=ORIENTED_EDGE('',*,*,#366,.F.);
#520=ORIENTED_EDGE('',*,*,#365,.T.);
#521=TOROIDAL_SURFACE('',#572,4.,1.);
#522=TOROIDAL_SURFACE('',#585,4.,1.);
#523=ADVANCED_FACE('',(#130),#521,.F.);
#524=ADVANCED_FACE('',(#131,#112,#113,#114),#116,.F.);
#525=ADVANCED_FACE('',(#132),#19,.T.);
#526=ADVANCED_FACE('',(#133),#522,.F.);
#527=ADVANCED_FACE('',(#134),#20,.T.);
#528=ADVANCED_FACE('',(#135),#117,.F.);
#529=ADVANCED_FACE('',(#136),#118,.F.);
#530=ADVANCED_FACE('',(#137),#119,.F.);
#531=ADVANCED_FACE('',(#138),#21,.F.);
#532=ADVANCED_FACE('',(#139),#120,.F.);
#533=ADVANCED_FACE('',(#140),#22,.F.);
#534=ADVANCED_FACE('',(#141),#121,.F.);
#535=ADVANCED_FACE('',(#142),#23,.F.);
#536=ADVANCED_FACE('',(#143),#122,.F.);
#537=ADVANCED_FACE('',(#144),#24,.F.);
#538=ADVANCED_FACE('',(#145,#115),#123,.F.);
#539=ADVANCED_FACE('',(#146),#124,.F.);
#540=ADVANCED_FACE('',(#147),#25,.F.);
#541=ADVANCED_FACE('',(#148),#125,.F.);
#542=ADVANCED_FACE('',(#149),#26,.F.);
#543=ADVANCED_FACE('',(#150),#15,.T.);
#544=ADVANCED_FACE('',(#151),#27,.F.);
#545=ADVANCED_FACE('',(#152),#16,.T.);
#546=ADVANCED_FACE('',(#153),#28,.F.);
#547=ADVANCED_FACE('',(#154),#17,.T.);
#548=ADVANCED_FACE('',(#155),#29,.F.);
#549=ADVANCED_FACE('',(#156),#18,.T.);
#550=ADVANCED_FACE('',(#157),#30,.F.);
#551=ADVANCED_FACE('',(#158),#126,.F.);
#552=ADVANCED_FACE('',(#159),#31,.F.);
#553=ADVANCED_FACE('',(#160),#127,.F.);
#554=ADVANCED_FACE('',(#161),#32,.F.);
#555=ADVANCED_FACE('',(#162),#128,.F.);
#556=ADVANCED_FACE('',(#163),#33,.T.);
#557=ADVANCED_FACE('',(#164),#129,.T.);
#558=CLOSED_SHELL('',(#523,#524,#525,#526,#527,#528,#529,#530,#531,#532,
#533,#534,#535,#536,#537,#538,#539,#540,#541,#542,#543,#544,#545,#546,#547,
#548,#549,#550,#551,#552,#553,#554,#555,#556,#557));
#559=DERIVED_UNIT_ELEMENT(#561,1.);
#560=DERIVED_UNIT_ELEMENT(#1018,-3.);
#561=(
MASS_UNIT()
NAMED_UNIT(*)
SI_UNIT(.KILO.,.GRAM.)
);
#562=DERIVED_UNIT((#559,#560));
#563=MEASURE_REPRESENTATION_ITEM('density measure',
POSITIVE_RATIO_MEASURE(7850.),#562);
#564=PROPERTY_DEFINITION_REPRESENTATION(#569,#566);
#565=PROPERTY_DEFINITION_REPRESENTATION(#570,#567);
#566=REPRESENTATION('material name',(#568),#1015);
#567=REPRESENTATION('density',(#563),#1015);
#568=DESCRIPTIVE_REPRESENTATION_ITEM('A\X\E7o','A\X\E7o');
#569=PROPERTY_DEFINITION('material property','material name',#1025);
#570=PROPERTY_DEFINITION('material property','density of part',#1025);
#571=AXIS2_PLACEMENT_3D('',#820,#641,#642);
#572=AXIS2_PLACEMENT_3D('',#821,#643,#644);
#573=AXIS2_PLACEMENT_3D('',#823,#645,#646);
#574=AXIS2_PLACEMENT_3D('',#825,#647,#648);
#575=AXIS2_PLACEMENT_3D('',#826,#649,#650);
#576=AXIS2_PLACEMENT_3D('',#827,#651,#652);
#577=AXIS2_PLACEMENT_3D('',#829,#653,#654);
#578=AXIS2_PLACEMENT_3D('',#831,#655,#656);
#579=AXIS2_PLACEMENT_3D('',#836,#658,#659);
#580=AXIS2_PLACEMENT_3D('',#840,#661,#662);
#581=AXIS2_PLACEMENT_3D('',#844,#664,#665);
#582=AXIS2_PLACEMENT_3D('',#847,#667,#668);
#583=AXIS2_PLACEMENT_3D('',#848,#669,#670);
#584=AXIS2_PLACEMENT_3D('',#850,#671,#672);
#585=AXIS2_PLACEMENT_3D('',#852,#674,#675);
#586=AXIS2_PLACEMENT_3D('',#854,#676,#677);
#587=AXIS2_PLACEMENT_3D('',#855,#678,#679);
#588=AXIS2_PLACEMENT_3D('',#856,#680,#681);
#589=AXIS2_PLACEMENT_3D('',#858,#682,#683);
#590=AXIS2_PLACEMENT_3D('',#860,#685,#686);
#591=AXIS2_PLACEMENT_3D('',#861,#687,#688);
#592=AXIS2_PLACEMENT_3D('',#862,#689,#690);
#593=AXIS2_PLACEMENT_3D('',#868,#694,#695);
#594=AXIS2_PLACEMENT_3D('',#871,#697,#698);
#595=AXIS2_PLACEMENT_3D('',#872,#699,#700);
#596=AXIS2_PLACEMENT_3D('',#876,#703,#704);
#597=AXIS2_PLACEMENT_3D('',#879,#706,#707);
#598=AXIS2_PLACEMENT_3D('',#880,#708,#709);
#599=AXIS2_PLACEMENT_3D('',#884,#712,#713);
#600=AXIS2_PLACEMENT_3D('',#887,#715,#716);
#601=AXIS2_PLACEMENT_3D('',#888,#717,#718);
#602=AXIS2_PLACEMENT_3D('',#892,#721,#722);
#603=AXIS2_PLACEMENT_3D('',#893,#723,#724);
#604=AXIS2_PLACEMENT_3D('',#894,#725,#726);
#605=AXIS2_PLACEMENT_3D('',#899,#728,#729);
#606=AXIS2_PLACEMENT_3D('',#903,#731,#732);
#607=AXIS2_PLACEMENT_3D('',#907,#734,#735);
#608=AXIS2_PLACEMENT_3D('',#910,#737,#738);
#609=AXIS2_PLACEMENT_3D('',#911,#739,#740);
#610=AXIS2_PLACEMENT_3D('',#917,#744,#745);
#611=AXIS2_PLACEMENT_3D('',#920,#747,#748);
#612=AXIS2_PLACEMENT_3D('',#921,#749,#750);
#613=AXIS2_PLACEMENT_3D('',#925,#753,#754);
#614=AXIS2_PLACEMENT_3D('',#928,#756,#757);
#615=AXIS2_PLACEMENT_3D('',#939,#758,#759);
#616=AXIS2_PLACEMENT_3D('',#941,#760,#761);
#617=AXIS2_PLACEMENT_3D('',#943,#762,#763);
#618=AXIS2_PLACEMENT_3D('',#944,#764,#765);
#619=AXIS2_PLACEMENT_3D('',#945,#766,#767);
#620=AXIS2_PLACEMENT_3D('',#948,#768,#769);
#621=AXIS2_PLACEMENT_3D('',#962,#772,#773);
#622=AXIS2_PLACEMENT_3D('',#963,#774,#775);
#623=AXIS2_PLACEMENT_3D('',#964,#776,#777);
#624=AXIS2_PLACEMENT_3D('',#965,#778,#779);
#625=AXIS2_PLACEMENT_3D('',#967,#780,#781);
#626=AXIS2_PLACEMENT_3D('',#980,#784,#785);
#627=AXIS2_PLACEMENT_3D('',#981,#786,#787);
#628=AXIS2_PLACEMENT_3D('',#982,#788,#789);
#629=AXIS2_PLACEMENT_3D('',#984,#790,#791);
#630=AXIS2_PLACEMENT_3D('',#996,#793,#794);
#631=AXIS2_PLACEMENT_3D('',#997,#795,#796);
#632=AXIS2_PLACEMENT_3D('',#998,#797,#798);
#633=AXIS2_PLACEMENT_3D('',#1000,#800,#801);
#634=AXIS2_PLACEMENT_3D('',#1002,#803,#804);
#635=AXIS2_PLACEMENT_3D('',#1004,#806,#807);
#636=AXIS2_PLACEMENT_3D('',#1006,#809,#810);
#637=AXIS2_PLACEMENT_3D('',#1007,#811,#812);
#638=AXIS2_PLACEMENT_3D('',#1008,#813,#814);
#639=AXIS2_PLACEMENT_3D('',#1010,#815,#816);
#640=AXIS2_PLACEMENT_3D('',#1012,#818,#819);
#641=DIRECTION('axis',(0.,0.,1.));
#642=DIRECTION('refdir',(1.,0.,0.));
#643=DIRECTION('center_axis',(0.,0.,1.));
#644=DIRECTION('ref_axis',(1.,0.,0.));
#645=DIRECTION('center_axis',(0.,0.,1.));
#646=DIRECTION('ref_axis',(1.,0.,0.));
#647=DIRECTION('center_axis',(0.,-1.,0.));
#648=DIRECTION('ref_axis',(-1.,0.,0.));
#649=DIRECTION('center_axis',(0.,0.,-1.));
#650=DIRECTION('ref_axis',(1.,0.,0.));
#651=DIRECTION('center_axis',(0.,0.,1.));
#652=DIRECTION('ref_axis',(1.,0.,0.));
#653=DIRECTION('center_axis',(0.,0.,1.));
#654=DIRECTION('ref_axis',(1.,0.,0.));
#655=DIRECTION('center_axis',(0.,0.,-1.));
#656=DIRECTION('ref_axis',(1.,0.,0.));
#657=DIRECTION('',(0.,-1.,0.));
#658=DIRECTION('center_axis',(0.,0.,1.));
#659=DIRECTION('ref_axis',(-1.,1.26882631385732E-15,0.));
#660=DIRECTION('',(1.,0.,0.));
#661=DIRECTION('center_axis',(0.,0.,1.));
#662=DIRECTION('ref_axis',(-1.26882631385732E-15,-1.,0.));
#663=DIRECTION('',(0.,1.,0.));
#664=DIRECTION('center_axis',(0.,0.,1.));
#665=DIRECTION('ref_axis',(1.,-9.51619735392992E-16,0.));
#666=DIRECTION('',(-1.,0.,0.));
#667=DIRECTION('center_axis',(0.,0.,1.));
#668=DIRECTION('ref_axis',(1.42742960308949E-15,1.,0.));
#669=DIRECTION('center_axis',(0.,0.,-1.));
#670=DIRECTION('ref_axis',(1.,0.,0.));
#671=DIRECTION('center_axis',(0.,0.,-1.));
#672=DIRECTION('ref_axis',(1.,0.,0.));
#673=DIRECTION('',(0.,0.,1.));
#674=DIRECTION('center_axis',(0.,0.,1.));
#675=DIRECTION('ref_axis',(1.,0.,0.));
#676=DIRECTION('center_axis',(0.,0.,1.));
#677=DIRECTION('ref_axis',(1.,0.,0.));
#678=DIRECTION('center_axis',(0.,-1.,0.));
#679=DIRECTION('ref_axis',(-1.,0.,0.));
#680=DIRECTION('center_axis',(0.,0.,-1.));
#681=DIRECTION('ref_axis',(1.,0.,0.));
#682=DIRECTION('center_axis',(0.,0.,-1.));
#683=DIRECTION('ref_axis',(1.,0.,0.));
#684=DIRECTION('',(0.,0.,1.));
#685=DIRECTION('center_axis',(0.,0.,1.));
#686=DIRECTION('ref_axis',(1.,0.,0.));
#687=DIRECTION('center_axis',(0.,0.,1.));
#688=DIRECTION('ref_axis',(1.,0.,0.));
#689=DIRECTION('center_axis',(-1.,0.,0.));
#690=DIRECTION('ref_axis',(0.,-1.,0.));
#691=DIRECTION('',(0.,0.,1.));
#692=DIRECTION('',(0.,-1.,0.));
#693=DIRECTION('',(0.,0.,1.));
#694=DIRECTION('center_axis',(0.,0.,1.));
#695=DIRECTION('ref_axis',(1.42742960308949E-15,1.,0.));
#696=DIRECTION('',(0.,0.,1.));
#697=DIRECTION('center_axis',(0.,0.,1.));
#698=DIRECTION('ref_axis',(1.42742960308949E-15,1.,0.));
#699=DIRECTION('center_axis',(0.,1.,0.));
#700=DIRECTION('ref_axis',(-1.,0.,0.));
#701=DIRECTION('',(0.,0.,1.));
#702=DIRECTION('',(-1.,0.,0.));
#703=DIRECTION('center_axis',(0.,0.,1.));
#704=DIRECTION('ref_axis',(1.,-9.51619735392992E-16,0.));
#705=DIRECTION('',(0.,0.,1.));
#706=DIRECTION('center_axis',(0.,0.,1.));
#707=DIRECTION('ref_axis',(1.,-9.51619735392992E-16,0.));
#708=DIRECTION('center_axis',(1.,0.,0.));
#709=DIRECTION('ref_axis',(0.,1.,0.));
#710=DIRECTION('',(0.,0.,1.));
#711=DIRECTION('',(0.,1.,0.));
#712=DIRECTION('center_axis',(0.,0.,1.));
#713=DIRECTION('ref_axis',(-1.26882631385732E-15,-1.,0.));
#714=DIRECTION('',(0.,0.,1.));
#715=DIRECTION('center_axis',(0.,0.,1.));
#716=DIRECTION('ref_axis',(-1.26882631385732E-15,-1.,0.));
#717=DIRECTION('center_axis',(0.,-1.,0.));
#718=DIRECTION('ref_axis',(1.,0.,0.));
#719=DIRECTION('',(0.,0.,1.));
#720=DIRECTION('',(1.,0.,0.));
#721=DIRECTION('center_axis',(0.,0.,1.));
#722=DIRECTION('ref_axis',(-1.,1.26882631385732E-15,0.));
#723=DIRECTION('center_axis',(0.,0.,1.));
#724=DIRECTION('ref_axis',(-1.,1.26882631385732E-15,0.));
#725=DIRECTION('center_axis',(0.,0.,1.));
#726=DIRECTION('ref_axis',(1.,0.,0.));
#727=DIRECTION('',(1.06343201592448E-16,-1.,0.));
#728=DIRECTION('center_axis',(0.,0.,-1.));
#729=DIRECTION('ref_axis',(1.,-5.55111512312579E-16,0.));
#730=DIRECTION('',(1.,0.,0.));
#731=DIRECTION('center_axis',(0.,0.,-1.));
#732=DIRECTION('ref_axis',(2.77555756156289E-16,1.,0.));
#733=DIRECTION('',(-1.06343201592448E-16,1.,0.));
#734=DIRECTION('center_axis',(0.,0.,-1.));
#735=DIRECTION('ref_axis',(-1.,5.55111512312579E-16,0.));
#736=DIRECTION('',(-1.,0.,0.));
#737=DIRECTION('center_axis',(0.,0.,-1.));
#738=DIRECTION('ref_axis',(-2.77555756156289E-16,-1.,0.));
#739=DIRECTION('center_axis',(-1.,-1.06343201592448E-16,0.));
#740=DIRECTION('ref_axis',(1.06343201592448E-16,-1.,0.));
#741=DIRECTION('',(0.,0.,1.));
#742=DIRECTION('',(1.06343201592448E-16,-1.,0.));
#743=DIRECTION('',(0.,0.,1.));
#744=DIRECTION('center_axis',(0.,0.,1.));
#745=DIRECTION('ref_axis',(2.77555756156289E-16,1.,0.));
#746=DIRECTION('',(0.,0.,1.));
#747=DIRECTION('center_axis',(0.,0.,1.));
#748=DIRECTION('ref_axis',(-0.707106781186548,0.707106781186547,0.));
#749=DIRECTION('center_axis',(0.,1.,0.));
#750=DIRECTION('ref_axis',(-1.,0.,0.));
#751=DIRECTION('',(0.,0.,1.));
#752=DIRECTION('',(-1.,0.,0.));
#753=DIRECTION('center_axis',(0.,0.,1.));
#754=DIRECTION('ref_axis',(1.,-5.55111512312579E-16,0.));
#755=DIRECTION('',(0.,0.,1.));
#756=DIRECTION('center_axis',(0.,0.,1.));
#757=DIRECTION('ref_axis',(0.707106781186548,0.707106781186547,0.));
#758=DIRECTION('center_axis',(-7.40148683083438E-16,-1.,0.));
#759=DIRECTION('ref_axis',(0.,0.,1.));
#760=DIRECTION('center_axis',(0.,0.,-1.));
#761=DIRECTION('ref_axis',(-0.707106781186548,-0.707106781186547,0.));
#762=DIRECTION('center_axis',(-1.,-3.70074341541719E-16,0.));
#763=DIRECTION('ref_axis',(3.70074341541719E-16,-1.,0.));
#764=DIRECTION('center_axis',(0.,0.,1.));
#765=DIRECTION('ref_axis',(-0.707106781186548,-0.707106781186547,0.));
#766=DIRECTION('center_axis',(1.,0.,0.));
#767=DIRECTION('ref_axis',(0.,-0.707106781186547,0.707106781186547));
#768=DIRECTION('center_axis',(-1.,3.70074341541719E-16,0.));
#769=DIRECTION('ref_axis',(-3.70074341541719E-16,-1.,0.));
#770=DIRECTION('',(1.,0.,0.));
#771=DIRECTION('',(-1.,0.,0.));
#772=DIRECTION('center_axis',(0.,-1.,0.));
#773=DIRECTION('ref_axis',(1.,0.,0.));
#774=DIRECTION('center_axis',(0.,0.,1.));
#775=DIRECTION('ref_axis',(0.707106781186548,-0.707106781186547,0.));
#776=DIRECTION('center_axis',(0.,0.,-1.));
#777=DIRECTION('ref_axis',(0.707106781186548,-0.707106781186547,0.));
#778=DIRECTION('center_axis',(-1.06343201592448E-16,1.,0.));
#779=DIRECTION('ref_axis',(0.707106781186547,0.,0.707106781186547));
#780=DIRECTION('center_axis',(0.,-1.,0.));
#781=DIRECTION('ref_axis',(1.,0.,0.));
#782=DIRECTION('',(-1.06343201592448E-16,1.,0.));
#783=DIRECTION('',(1.06343201592448E-16,-1.,0.));
#784=DIRECTION('center_axis',(1.,3.70074341541719E-16,0.));
#785=DIRECTION('ref_axis',(-3.70074341541719E-16,1.,0.));
#786=DIRECTION('center_axis',(0.,0.,-1.));
#787=DIRECTION('ref_axis',(0.707106781186548,0.707106781186547,0.));
#788=DIRECTION('center_axis',(-1.,0.,0.));
#789=DIRECTION('ref_axis',(0.,0.707106781186547,0.707106781186547));
#790=DIRECTION('center_axis',(1.,-3.70074341541719E-16,0.));
#791=DIRECTION('ref_axis',(3.70074341541719E-16,1.,0.));
#792=DIRECTION('',(1.,0.,0.));
#793=DIRECTION('center_axis',(0.,1.,0.));
#794=DIRECTION('ref_axis',(-1.,0.,0.));
#795=DIRECTION('center_axis',(0.,0.,-1.));
#796=DIRECTION('ref_axis',(-0.707106781186548,0.707106781186547,0.));
#797=DIRECTION('center_axis',(1.06343201592448E-16,-1.,0.));
#798=DIRECTION('ref_axis',(-0.707106781186547,0.,0.707106781186547));
#799=DIRECTION('',(-1.06343201592448E-16,1.,0.));
#800=DIRECTION('center_axis',(1.,1.06343201592448E-16,0.));
#801=DIRECTION('ref_axis',(-1.06343201592448E-16,1.,0.));
#802=DIRECTION('',(0.,0.,1.));
#803=DIRECTION('center_axis',(0.,0.,1.));
#804=DIRECTION('ref_axis',(-2.77555756156289E-16,-1.,0.));
#805=DIRECTION('',(0.,0.,1.));
#806=DIRECTION('center_axis',(0.,-1.,0.));
#807=DIRECTION('ref_axis',(1.,0.,0.));
#808=DIRECTION('',(0.,0.,1.));
#809=DIRECTION('center_axis',(0.,0.,1.));
#810=DIRECTION('ref_axis',(-1.,5.55111512312579E-16,0.));
#811=DIRECTION('center_axis',(0.,0.,1.));
#812=DIRECTION('ref_axis',(1.,0.,0.));
#813=DIRECTION('center_axis',(0.,0.,1.));
#814=DIRECTION('ref_axis',(1.,0.,0.));
#815=DIRECTION('center_axis',(0.,0.,1.));
#816=DIRECTION('ref_axis',(1.,0.,0.));
#817=DIRECTION('',(0.,0.,-1.));
#818=DIRECTION('center_axis',(0.,0.,1.));
#819=DIRECTION('ref_axis',(1.,0.,0.));
#820=CARTESIAN_POINT('',(0.,0.,0.));
#821=CARTESIAN_POINT('Origin',(0.,-23.,-1.));
#822=CARTESIAN_POINT('',(-3.,-23.,-1.));
#823=CARTESIAN_POINT('Origin',(0.,-23.,-1.));
#824=CARTESIAN_POINT('',(-4.,-23.,0.));
#825=CARTESIAN_POINT('Origin',(-4.,-23.,-1.));
#826=CARTESIAN_POINT('Origin',(0.,-23.,0.));
#827=CARTESIAN_POINT('Origin',(0.,0.,0.));
#828=CARTESIAN_POINT('',(-30.,-3.67394039744206E-15,0.));
#829=CARTESIAN_POINT('Origin',(0.,0.,0.));
#830=CARTESIAN_POINT('',(-4.,23.,0.));
#831=CARTESIAN_POINT('Origin',(0.,23.,0.));
#832=CARTESIAN_POINT('',(-16.2,10.44,0.));
#833=CARTESIAN_POINT('',(-16.2,-10.44,0.));
#834=CARTESIAN_POINT('',(-16.2,5.22,0.));
#835=CARTESIAN_POINT('',(-9.2,-17.44,0.));
#836=CARTESIAN_POINT('Origin',(-9.20000000000001,-10.44,0.));
#837=CARTESIAN_POINT('',(9.2,-17.44,0.));
#838=CARTESIAN_POINT('',(-4.6,-17.44,0.));
#839=CARTESIAN_POINT('',(16.2,-10.44,0.));
#840=CARTESIAN_POINT('Origin',(9.20000000000001,-10.44,0.));
#841=CARTESIAN_POINT('',(16.2,10.44,0.));
#842=CARTESIAN_POINT('',(16.2,-5.22,0.));
#843=CARTESIAN_POINT('',(9.2,17.44,0.));
#844=CARTESIAN_POINT('Origin',(9.20000000000001,10.44,0.));
#845=CARTESIAN_POINT('',(-9.2,17.44,0.));
#846=CARTESIAN_POINT('',(4.6,17.44,0.));
#847=CARTESIAN_POINT('Origin',(-9.20000000000001,10.44,0.));
#848=CARTESIAN_POINT('Origin',(0.,-23.,0.));
#849=CARTESIAN_POINT('',(-3.,-23.,-6.));
#850=CARTESIAN_POINT('Origin',(0.,-23.,-6.));
#851=CARTESIAN_POINT('',(-3.,-23.,0.));
#852=CARTESIAN_POINT('Origin',(0.,23.,-1.));
#853=CARTESIAN_POINT('',(-3.,23.,-1.));
#854=CARTESIAN_POINT('Origin',(0.,23.,-1.));
#855=CARTESIAN_POINT('Origin',(-4.,23.,-1.));
#856=CARTESIAN_POINT('Origin',(0.,23.,0.));
#857=CARTESIAN_POINT('',(-3.,23.,-6.));
#858=CARTESIAN_POINT('Origin',(0.,23.,-6.));
#859=CARTESIAN_POINT('',(-3.,23.,0.));
#860=CARTESIAN_POINT('Origin',(0.,23.,-6.));
#861=CARTESIAN_POINT('Origin',(0.,-23.,-6.));
#862=CARTESIAN_POINT('Origin',(-16.2,10.44,0.));
#863=CARTESIAN_POINT('',(-16.2,10.44,0.6));
#864=CARTESIAN_POINT('',(-16.2,10.44,0.));
#865=CARTESIAN_POINT('',(-16.2,-10.44,0.6));
#866=CARTESIAN_POINT('',(-16.2,10.44,0.6));
#867=CARTESIAN_POINT('',(-16.2,-10.44,0.));
#868=CARTESIAN_POINT('Origin',(-9.20000000000001,10.44,0.));
#869=CARTESIAN_POINT('',(-9.2,17.44,0.6));
#870=CARTESIAN_POINT('',(-9.2,17.44,0.));
#871=CARTESIAN_POINT('Origin',(-9.20000000000001,10.44,0.6));
#872=CARTESIAN_POINT('Origin',(9.2,17.44,0.));
#873=CARTESIAN_POINT('',(9.2,17.44,0.6));
#874=CARTESIAN_POINT('',(9.2,17.44,0.));
#875=CARTESIAN_POINT('',(9.2,17.44,0.6));
#876=CARTESIAN_POINT('Origin',(9.20000000000001,10.44,0.));
#877=CARTESIAN_POINT('',(16.2,10.44,0.6));
#878=CARTESIAN_POINT('',(16.2,10.44,0.));
#879=CARTESIAN_POINT('Origin',(9.20000000000001,10.44,0.6));
#880=CARTESIAN_POINT('Origin',(16.2,-10.44,0.));
#881=CARTESIAN_POINT('',(16.2,-10.44,0.6));
#882=CARTESIAN_POINT('',(16.2,-10.44,0.));
#883=CARTESIAN_POINT('',(16.2,-10.44,0.6));
#884=CARTESIAN_POINT('Origin',(9.20000000000001,-10.44,0.));
#885=CARTESIAN_POINT('',(9.2,-17.44,0.6));
#886=CARTESIAN_POINT('',(9.2,-17.44,0.));
#887=CARTESIAN_POINT('Origin',(9.20000000000001,-10.44,0.6));
#888=CARTESIAN_POINT('Origin',(-9.2,-17.44,0.));
#889=CARTESIAN_POINT('',(-9.2,-17.44,0.6));
#890=CARTESIAN_POINT('',(-9.2,-17.44,0.));
#891=CARTESIAN_POINT('',(-9.2,-17.44,0.6));
#892=CARTESIAN_POINT('Origin',(-9.20000000000001,-10.44,0.));
#893=CARTESIAN_POINT('Origin',(-9.20000000000001,-10.44,0.6));
#894=CARTESIAN_POINT('Origin',(0.,0.,0.6));
#895=CARTESIAN_POINT('',(13.2,10.44,0.6));
#896=CARTESIAN_POINT('',(13.2,-10.44,0.6));
#897=CARTESIAN_POINT('',(13.2,-5.22,0.6));
#898=CARTESIAN_POINT('',(9.2,14.44,0.6));
#899=CARTESIAN_POINT('Origin',(9.2,10.44,0.6));
#900=CARTESIAN_POINT('',(-9.2,14.44,0.6));
#901=CARTESIAN_POINT('',(4.6,14.44,0.6));
#902=CARTESIAN_POINT('',(-13.2,10.44,0.6));
#903=CARTESIAN_POINT('Origin',(-9.2,10.44,0.6));
#904=CARTESIAN_POINT('',(-13.2,-10.44,0.6));
#905=CARTESIAN_POINT('',(-13.2,5.22,0.6));
#906=CARTESIAN_POINT('',(-9.2,-14.44,0.6));
#907=CARTESIAN_POINT('Origin',(-9.2,-10.44,0.6));
#908=CARTESIAN_POINT('',(9.2,-14.44,0.6));
#909=CARTESIAN_POINT('',(-4.6,-14.44,0.6));
#910=CARTESIAN_POINT('Origin',(9.2,-10.44,0.6));
#911=CARTESIAN_POINT('Origin',(-13.2,10.44,0.));
#912=CARTESIAN_POINT('',(-13.2,10.44,12.));
#913=CARTESIAN_POINT('',(-13.2,10.44,0.));
#914=CARTESIAN_POINT('',(-13.2,-10.44,12.));
#915=CARTESIAN_POINT('',(-13.2,5.22,12.));
#916=CARTESIAN_POINT('',(-13.2,-10.44,0.));
#917=CARTESIAN_POINT('Origin',(-9.2,10.44,0.));
#918=CARTESIAN_POINT('',(-9.2,14.44,12.));
#919=CARTESIAN_POINT('',(-9.2,14.44,0.));
#920=CARTESIAN_POINT('Origin',(-9.2,10.44,12.));
#921=CARTESIAN_POINT('Origin',(9.2,14.44,0.));
#922=CARTESIAN_POINT('',(9.2,14.44,12.));
#923=CARTESIAN_POINT('',(9.2,14.44,0.));
#924=CARTESIAN_POINT('',(4.6,14.44,12.));
#925=CARTESIAN_POINT('Origin',(9.2,10.44,0.));
#926=CARTESIAN_POINT('',(13.2,10.44,12.));
#927=CARTESIAN_POINT('',(13.2,10.44,0.));
#928=CARTESIAN_POINT('Origin',(9.2,10.44,12.));
#929=CARTESIAN_POINT('Ctrl Pts',(-13.2,-10.44,12.));
#930=CARTESIAN_POINT('Ctrl Pts',(-13.2,-14.44,12.));
#931=CARTESIAN_POINT('Ctrl Pts',(-9.2,-14.44,12.));
#932=CARTESIAN_POINT('Ctrl Pts',(-13.2,-10.44,15.));
#933=CARTESIAN_POINT('Ctrl Pts',(-13.2,-14.44,15.));
#934=CARTESIAN_POINT('Ctrl Pts',(-9.2,-14.44,15.));
#935=CARTESIAN_POINT('Ctrl Pts',(-10.2,-10.44,15.));
#936=CARTESIAN_POINT('Ctrl Pts',(-10.2,-11.44,15.));
#937=CARTESIAN_POINT('Ctrl Pts',(-9.2,-11.44,15.));
#938=CARTESIAN_POINT('',(-10.2,-10.44,15.));
#939=CARTESIAN_POINT('Origin',(-10.2,-10.44,12.));
#940=CARTESIAN_POINT('',(-9.2,-11.44,15.));
#941=CARTESIAN_POINT('Origin',(-9.2,-10.44,15.));
#942=CARTESIAN_POINT('',(-9.2,-14.44,12.));
#943=CARTESIAN_POINT('Origin',(-9.2,-11.44,12.));
#944=CARTESIAN_POINT('Origin',(-9.2,-10.44,12.));
#945=CARTESIAN_POINT('Origin',(-4.6,-11.44,12.));
#946=CARTESIAN_POINT('',(9.2,-14.44,12.));
#947=CARTESIAN_POINT('',(9.2,-11.44,15.));
#948=CARTESIAN_POINT('Origin',(9.2,-11.44,12.));
#949=CARTESIAN_POINT('',(-4.6,-14.44,12.));
#950=CARTESIAN_POINT('',(-4.6,-11.44,15.));
#951=CARTESIAN_POINT('Ctrl Pts',(9.2,-14.44,12.));
#952=CARTESIAN_POINT('Ctrl Pts',(13.2,-14.44,12.));
#953=CARTESIAN_POINT('Ctrl Pts',(13.2,-10.44,12.));
#954=CARTESIAN_POINT('Ctrl Pts',(9.2,-14.44,15.));
#955=CARTESIAN_POINT('Ctrl Pts',(13.2,-14.44,15.));
#956=CARTESIAN_POINT('Ctrl Pts',(13.2,-10.44,15.));
#957=CARTESIAN_POINT('Ctrl Pts',(9.2,-11.44,15.));
#958=CARTESIAN_POINT('Ctrl Pts',(10.2,-11.44,15.));
#959=CARTESIAN_POINT('Ctrl Pts',(10.2,-10.44,15.));
#960=CARTESIAN_POINT('',(13.2,-10.44,12.));
#961=CARTESIAN_POINT('',(10.2,-10.44,15.));
#962=CARTESIAN_POINT('Origin',(10.2,-10.44,12.));
#963=CARTESIAN_POINT('Origin',(9.2,-10.44,12.));
#964=CARTESIAN_POINT('Origin',(9.2,-10.44,15.));
#965=CARTESIAN_POINT('Origin',(10.2,-5.22,12.));
#966=CARTESIAN_POINT('',(10.2,10.44,15.));
#967=CARTESIAN_POINT('Origin',(10.2,10.44,12.));
#968=CARTESIAN_POINT('',(13.2,-5.22,12.));
#969=CARTESIAN_POINT('',(10.2,-5.22,15.));
#970=CARTESIAN_POINT('Ctrl Pts',(13.2,10.44,12.));
#971=CARTESIAN_POINT('Ctrl Pts',(13.2,14.44,12.));
#972=CARTESIAN_POINT('Ctrl Pts',(9.2,14.44,12.));
#973=CARTESIAN_POINT('Ctrl Pts',(13.2,10.44,15.));
#974=CARTESIAN_POINT('Ctrl Pts',(13.2,14.44,15.));
#975=CARTESIAN_POINT('Ctrl Pts',(9.2,14.44,15.));
#976=CARTESIAN_POINT('Ctrl Pts',(10.2,10.44,15.));
#977=CARTESIAN_POINT('Ctrl Pts',(10.2,11.44,15.));
#978=CARTESIAN_POINT('Ctrl Pts',(9.2,11.44,15.));
#979=CARTESIAN_POINT('',(9.2,11.44,15.));
#980=CARTESIAN_POINT('Origin',(9.2,11.44,12.));
#981=CARTESIAN_POINT('Origin',(9.2,10.44,15.));
#982=CARTESIAN_POINT('Origin',(4.6,11.44,12.));
#983=CARTESIAN_POINT('',(-9.2,11.44,15.));
#984=CARTESIAN_POINT('Origin',(-9.2,11.44,12.));
#985=CARTESIAN_POINT('',(4.6,11.44,15.));
#986=CARTESIAN_POINT('Ctrl Pts',(-9.2,14.44,12.));
#987=CARTESIAN_POINT('Ctrl Pts',(-13.2,14.44,12.));
#988=CARTESIAN_POINT('Ctrl Pts',(-13.2,10.44,12.));
#989=CARTESIAN_POINT('Ctrl Pts',(-9.2,14.44,15.));
#990=CARTESIAN_POINT('Ctrl Pts',(-13.2,14.44,15.));
#991=CARTESIAN_POINT('Ctrl Pts',(-13.2,10.44,15.));
#992=CARTESIAN_POINT('Ctrl Pts',(-9.2,11.44,15.));
#993=CARTESIAN_POINT('Ctrl Pts',(-10.2,11.44,15.));
#994=CARTESIAN_POINT('Ctrl Pts',(-10.2,10.44,15.));
#995=CARTESIAN_POINT('',(-10.2,10.44,15.));
#996=CARTESIAN_POINT('Origin',(-10.2,10.44,12.));
#997=CARTESIAN_POINT('Origin',(-9.2,10.44,15.));
#998=CARTESIAN_POINT('Origin',(-10.2,5.22,12.));
#999=CARTESIAN_POINT('',(-10.2,5.22,15.));
#1000=CARTESIAN_POINT('Origin',(13.2,-10.44,0.));
#1001=CARTESIAN_POINT('',(13.2,-10.44,0.));
#1002=CARTESIAN_POINT('Origin',(9.2,-10.44,0.));
#1003=CARTESIAN_POINT('',(9.2,-14.44,0.));
#1004=CARTESIAN_POINT('Origin',(-9.2,-14.44,0.));
#1005=CARTESIAN_POINT('',(-9.2,-14.44,0.));
#1006=CARTESIAN_POINT('Origin',(-9.2,-10.44,0.));
#1007=CARTESIAN_POINT('Origin',(0.,0.,15.));
#1008=CARTESIAN_POINT('Origin',(0.,0.,0.));
#1009=CARTESIAN_POINT('',(-30.,-3.67394039744206E-15,21.));
#1010=CARTESIAN_POINT('Origin',(0.,0.,21.));
#1011=CARTESIAN_POINT('',(-30.,-3.67394039744206E-15,0.));
#1012=CARTESIAN_POINT('Origin',(0.,0.,21.));
#1013=UNCERTAINTY_MEASURE_WITH_UNIT(LENGTH_MEASURE(0.01),#1017,
'DISTANCE_ACCURACY_VALUE',
'Maximum model space distance between geometric entities at asserted c
onnectivities');
#1014=UNCERTAINTY_MEASURE_WITH_UNIT(LENGTH_MEASURE(0.01),#1017,
'DISTANCE_ACCURACY_VALUE',
'Maximum model space distance between geometric entities at asserted c
onnectivities');
#1015=(
GEOMETRIC_REPRESENTATION_CONTEXT(3)
GLOBAL_UNCERTAINTY_ASSIGNED_CONTEXT((#1013))
GLOBAL_UNIT_ASSIGNED_CONTEXT((#1017,#1019,#1020))
REPRESENTATION_CONTEXT('','3D')
);
#1016=(
GEOMETRIC_REPRESENTATION_CONTEXT(3)
GLOBAL_UNCERTAINTY_ASSIGNED_CONTEXT((#1014))
GLOBAL_UNIT_ASSIGNED_CONTEXT((#1017,#1019,#1020))
REPRESENTATION_CONTEXT('','3D')
);
#1017=(
LENGTH_UNIT()
NAMED_UNIT(*)
SI_UNIT(.MILLI.,.METRE.)
);
#1018=(
LENGTH_UNIT()
NAMED_UNIT(*)
SI_UNIT($,.METRE.)
);
#1019=(
NAMED_UNIT(*)
PLANE_ANGLE_UNIT()
SI_UNIT($,.RADIAN.)
);
#1020=(
NAMED_UNIT(*)
SI_UNIT($,.STERADIAN.)
SOLID_ANGLE_UNIT()
);
#1021=SHAPE_DEFINITION_REPRESENTATION(#1022,#1023);
#1022=PRODUCT_DEFINITION_SHAPE('',$,#1025);
#1023=SHAPE_REPRESENTATION('',(#571),#1015);
#1024=PRODUCT_DEFINITION_CONTEXT('part definition',#1029,'design');
#1025=PRODUCT_DEFINITION('2026-09-02-21-51-11-301','molde_D',#1026,#1024);
#1026=PRODUCT_DEFINITION_FORMATION('',$,#1031);
#1027=PRODUCT_RELATED_PRODUCT_CATEGORY('molde_D','molde_D',(#1031));
#1028=APPLICATION_PROTOCOL_DEFINITION('international standard',
'automotive_design',2009,#1029);
#1029=APPLICATION_CONTEXT(
'Core Data for Automotive Mechanical Design Process');
#1030=PRODUCT_CONTEXT('part definition',#1029,'mechanical');
#1031=PRODUCT('2026-09-02-21-51-11-301','molde_D',$,(#1030));
#1032=PRESENTATION_STYLE_ASSIGNMENT((#1033));
#1033=SURFACE_STYLE_USAGE(.BOTH.,#1034);
#1034=SURFACE_SIDE_STYLE('',(#1035));
#1035=SURFACE_STYLE_FILL_AREA(#1036);
#1036=FILL_AREA_STYLE('A\X\E7o - Acetinado',(#1037));
#1037=FILL_AREA_STYLE_COLOUR('A\X\E7o - Acetinado',#1038);
#1038=COLOUR_RGB('A\X\E7o - Acetinado',0.627450980392157,0.627450980392157,
0.627450980392157);
ENDSEC;
END-ISO-10303-21;
