ISO-10303-21;
HEADER;
/* Generated by software containing ST-Developer
 * from STEP Tools, Inc. (www.steptools.com) 
 */

FILE_DESCRIPTION(
/* description */ (''),
/* implementation_level */ '2;1');

FILE_NAME(
/* name */ 'Placa STM32 - case.step',
/* time_stamp */ '2026-08-25T07:54:04-03:00',
/* author */ (''),
/* organization */ (''),
/* preprocessor_version */ 'ST-DEVELOPER v20.1',
/* originating_system */ 'Autodesk Translation Framework v15.8.0.0',
/* authorisation */ '');

FILE_SCHEMA (('AUTOMOTIVE_DESIGN { 1 0 10303 214 3 1 1 }'));
ENDSEC;

DATA;
#10=MECHANICAL_DESIGN_GEOMETRIC_PRESENTATION_REPRESENTATION('',(#17),#2275);
#11=ITEM_DEFINED_TRANSFORMATION($,$,#1451,#1522);
#12=(
REPRESENTATION_RELATIONSHIP($,$,#2286,#2285)
REPRESENTATION_RELATIONSHIP_WITH_TRANSFORMATION(#11)
SHAPE_REPRESENTATION_RELATIONSHIP()
);
#13=CONTEXT_DEPENDENT_SHAPE_REPRESENTATION(#12,#2284);
#14=NEXT_ASSEMBLY_USAGE_OCCURRENCE('08_Case_Base:1','08_Case_Base:1',
'08_Case_Base:1',#2288,#2289,'08_Case_Base:1');
#15=SHAPE_REPRESENTATION_RELATIONSHIP('SRR','None',#2286,#16);
#16=ADVANCED_BREP_SHAPE_REPRESENTATION('',(#18),#2274);
#17=STYLED_ITEM('',(#2300),#18);
#18=MANIFOLD_SOLID_BREP('Case_Base',#1437);
#19=FACE_BOUND('',#119,.T.);
#20=FACE_BOUND('',#120,.T.);
#21=FACE_BOUND('',#126,.T.);
#22=FACE_BOUND('',#134,.T.);
#23=FACE_BOUND('',#163,.T.);
#24=FACE_BOUND('',#170,.T.);
#25=FACE_BOUND('',#171,.T.);
#26=FACE_BOUND('',#174,.T.);
#27=FACE_OUTER_BOUND('',#97,.T.);
#28=FACE_OUTER_BOUND('',#98,.T.);
#29=FACE_OUTER_BOUND('',#99,.T.);
#30=FACE_OUTER_BOUND('',#100,.T.);
#31=FACE_OUTER_BOUND('',#101,.T.);
#32=FACE_OUTER_BOUND('',#102,.T.);
#33=FACE_OUTER_BOUND('',#103,.T.);
#34=FACE_OUTER_BOUND('',#104,.T.);
#35=FACE_OUTER_BOUND('',#105,.T.);
#36=FACE_OUTER_BOUND('',#106,.T.);
#37=FACE_OUTER_BOUND('',#107,.T.);
#38=FACE_OUTER_BOUND('',#108,.T.);
#39=FACE_OUTER_BOUND('',#109,.T.);
#40=FACE_OUTER_BOUND('',#110,.T.);
#41=FACE_OUTER_BOUND('',#111,.T.);
#42=FACE_OUTER_BOUND('',#112,.T.);
#43=FACE_OUTER_BOUND('',#113,.T.);
#44=FACE_OUTER_BOUND('',#114,.T.);
#45=FACE_OUTER_BOUND('',#115,.T.);
#46=FACE_OUTER_BOUND('',#116,.T.);
#47=FACE_OUTER_BOUND('',#117,.T.);
#48=FACE_OUTER_BOUND('',#118,.T.);
#49=FACE_OUTER_BOUND('',#121,.T.);
#50=FACE_OUTER_BOUND('',#122,.T.);
#51=FACE_OUTER_BOUND('',#123,.T.);
#52=FACE_OUTER_BOUND('',#124,.T.);
#53=FACE_OUTER_BOUND('',#125,.T.);
#54=FACE_OUTER_BOUND('',#127,.T.);
#55=FACE_OUTER_BOUND('',#128,.T.);
#56=FACE_OUTER_BOUND('',#129,.T.);
#57=FACE_OUTER_BOUND('',#130,.T.);
#58=FACE_OUTER_BOUND('',#131,.T.);
#59=FACE_OUTER_BOUND('',#132,.T.);
#60=FACE_OUTER_BOUND('',#133,.T.);
#61=FACE_OUTER_BOUND('',#135,.T.);
#62=FACE_OUTER_BOUND('',#136,.T.);
#63=FACE_OUTER_BOUND('',#137,.T.);
#64=FACE_OUTER_BOUND('',#138,.T.);
#65=FACE_OUTER_BOUND('',#139,.T.);
#66=FACE_OUTER_BOUND('',#140,.T.);
#67=FACE_OUTER_BOUND('',#141,.T.);
#68=FACE_OUTER_BOUND('',#142,.T.);
#69=FACE_OUTER_BOUND('',#143,.T.);
#70=FACE_OUTER_BOUND('',#144,.T.);
#71=FACE_OUTER_BOUND('',#145,.T.);
#72=FACE_OUTER_BOUND('',#146,.T.);
#73=FACE_OUTER_BOUND('',#147,.T.);
#74=FACE_OUTER_BOUND('',#148,.T.);
#75=FACE_OUTER_BOUND('',#149,.T.);
#76=FACE_OUTER_BOUND('',#150,.T.);
#77=FACE_OUTER_BOUND('',#151,.T.);
#78=FACE_OUTER_BOUND('',#152,.T.);
#79=FACE_OUTER_BOUND('',#153,.T.);
#80=FACE_OUTER_BOUND('',#154,.T.);
#81=FACE_OUTER_BOUND('',#155,.T.);
#82=FACE_OUTER_BOUND('',#156,.T.);
#83=FACE_OUTER_BOUND('',#157,.T.);
#84=FACE_OUTER_BOUND('',#158,.T.);
#85=FACE_OUTER_BOUND('',#159,.T.);
#86=FACE_OUTER_BOUND('',#160,.T.);
#87=FACE_OUTER_BOUND('',#161,.T.);
#88=FACE_OUTER_BOUND('',#162,.T.);
#89=FACE_OUTER_BOUND('',#164,.T.);
#90=FACE_OUTER_BOUND('',#165,.T.);
#91=FACE_OUTER_BOUND('',#166,.T.);
#92=FACE_OUTER_BOUND('',#167,.T.);
#93=FACE_OUTER_BOUND('',#168,.T.);
#94=FACE_OUTER_BOUND('',#169,.T.);
#95=FACE_OUTER_BOUND('',#172,.T.);
#96=FACE_OUTER_BOUND('',#173,.T.);
#97=EDGE_LOOP('',(#901,#902,#903,#904));
#98=EDGE_LOOP('',(#905,#906,#907,#908));
#99=EDGE_LOOP('',(#909,#910,#911,#912));
#100=EDGE_LOOP('',(#913,#914,#915,#916));
#101=EDGE_LOOP('',(#917,#918,#919,#920));
#102=EDGE_LOOP('',(#921,#922,#923,#924));
#103=EDGE_LOOP('',(#925,#926,#927,#928));
#104=EDGE_LOOP('',(#929,#930,#931,#932));
#105=EDGE_LOOP('',(#933,#934,#935,#936));
#106=EDGE_LOOP('',(#937,#938,#939,#940));
#107=EDGE_LOOP('',(#941,#942,#943,#944));
#108=EDGE_LOOP('',(#945,#946,#947,#948));
#109=EDGE_LOOP('',(#949,#950,#951,#952));
#110=EDGE_LOOP('',(#953,#954,#955,#956));
#111=EDGE_LOOP('',(#957,#958,#959,#960));
#112=EDGE_LOOP('',(#961,#962,#963,#964));
#113=EDGE_LOOP('',(#965,#966,#967,#968));
#114=EDGE_LOOP('',(#969,#970,#971,#972));
#115=EDGE_LOOP('',(#973,#974,#975,#976));
#116=EDGE_LOOP('',(#977,#978,#979,#980));
#117=EDGE_LOOP('',(#981,#982,#983,#984,#985,#986,#987,#988));
#118=EDGE_LOOP('',(#989,#990,#991,#992,#993,#994,#995,#996,#997,#998,#999,
#1000,#1001,#1002,#1003,#1004));
#119=EDGE_LOOP('',(#1005,#1006,#1007,#1008));
#120=EDGE_LOOP('',(#1009,#1010,#1011,#1012));
#121=EDGE_LOOP('',(#1013,#1014,#1015,#1016));
#122=EDGE_LOOP('',(#1017,#1018,#1019,#1020));
#123=EDGE_LOOP('',(#1021,#1022,#1023,#1024));
#124=EDGE_LOOP('',(#1025,#1026,#1027,#1028,#1029,#1030,#1031,#1032));
#125=EDGE_LOOP('',(#1033,#1034,#1035,#1036,#1037,#1038,#1039,#1040,#1041,
#1042,#1043,#1044));
#126=EDGE_LOOP('',(#1045,#1046,#1047,#1048,#1049,#1050,#1051,#1052,#1053,
#1054,#1055,#1056,#1057,#1058,#1059,#1060,#1061,#1062,#1063,#1064));
#127=EDGE_LOOP('',(#1065,#1066,#1067,#1068));
#128=EDGE_LOOP('',(#1069,#1070,#1071,#1072));
#129=EDGE_LOOP('',(#1073,#1074,#1075,#1076));
#130=EDGE_LOOP('',(#1077,#1078,#1079,#1080));
#131=EDGE_LOOP('',(#1081,#1082,#1083,#1084));
#132=EDGE_LOOP('',(#1085,#1086,#1087,#1088));
#133=EDGE_LOOP('',(#1089,#1090,#1091,#1092,#1093,#1094,#1095,#1096));
#134=EDGE_LOOP('',(#1097,#1098,#1099,#1100));
#135=EDGE_LOOP('',(#1101,#1102,#1103,#1104));
#136=EDGE_LOOP('',(#1105,#1106,#1107,#1108));
#137=EDGE_LOOP('',(#1109,#1110,#1111,#1112));
#138=EDGE_LOOP('',(#1113,#1114,#1115,#1116));
#139=EDGE_LOOP('',(#1117,#1118,#1119,#1120));
#140=EDGE_LOOP('',(#1121,#1122,#1123,#1124));
#141=EDGE_LOOP('',(#1125,#1126,#1127,#1128));
#142=EDGE_LOOP('',(#1129,#1130,#1131,#1132));
#143=EDGE_LOOP('',(#1133,#1134,#1135,#1136));
#144=EDGE_LOOP('',(#1137,#1138,#1139,#1140));
#145=EDGE_LOOP('',(#1141,#1142,#1143,#1144));
#146=EDGE_LOOP('',(#1145,#1146,#1147,#1148));
#147=EDGE_LOOP('',(#1149,#1150,#1151,#1152));
#148=EDGE_LOOP('',(#1153,#1154,#1155,#1156));
#149=EDGE_LOOP('',(#1157,#1158,#1159,#1160));
#150=EDGE_LOOP('',(#1161,#1162,#1163,#1164));
#151=EDGE_LOOP('',(#1165,#1166,#1167,#1168,#1169,#1170,#1171,#1172,#1173,
#1174,#1175,#1176,#1177,#1178,#1179,#1180,#1181,#1182,#1183,#1184));
#152=EDGE_LOOP('',(#1185,#1186,#1187,#1188));
#153=EDGE_LOOP('',(#1189,#1190,#1191,#1192));
#154=EDGE_LOOP('',(#1193,#1194,#1195,#1196));
#155=EDGE_LOOP('',(#1197,#1198,#1199,#1200));
#156=EDGE_LOOP('',(#1201,#1202,#1203,#1204,#1205,#1206));
#157=EDGE_LOOP('',(#1207,#1208,#1209,#1210,#1211,#1212));
#158=EDGE_LOOP('',(#1213,#1214,#1215,#1216));
#159=EDGE_LOOP('',(#1217,#1218,#1219,#1220,#1221,#1222,#1223,#1224,#1225,
#1226,#1227,#1228));
#160=EDGE_LOOP('',(#1229,#1230,#1231,#1232,#1233,#1234));
#161=EDGE_LOOP('',(#1235,#1236,#1237,#1238,#1239,#1240));
#162=EDGE_LOOP('',(#1241,#1242,#1243,#1244));
#163=EDGE_LOOP('',(#1245,#1246,#1247,#1248));
#164=EDGE_LOOP('',(#1249,#1250,#1251,#1252));
#165=EDGE_LOOP('',(#1253,#1254,#1255,#1256));
#166=EDGE_LOOP('',(#1257,#1258,#1259,#1260));
#167=EDGE_LOOP('',(#1261,#1262,#1263,#1264));
#168=EDGE_LOOP('',(#1265,#1266,#1267,#1268));
#169=EDGE_LOOP('',(#1269,#1270,#1271,#1272));
#170=EDGE_LOOP('',(#1273,#1274,#1275,#1276));
#171=EDGE_LOOP('',(#1277,#1278,#1279,#1280));
#172=EDGE_LOOP('',(#1281,#1282,#1283,#1284,#1285,#1286,#1287,#1288));
#173=EDGE_LOOP('',(#1289,#1290,#1291,#1292));
#174=EDGE_LOOP('',(#1293,#1294,#1295,#1296));
#175=LINE('',#1872,#373);
#176=LINE('',#1874,#374);
#177=LINE('',#1876,#375);
#178=LINE('',#1877,#376);
#179=LINE('',#1880,#377);
#180=LINE('',#1882,#378);
#181=LINE('',#1883,#379);
#182=LINE('',#1886,#380);
#183=LINE('',#1888,#381);
#184=LINE('',#1889,#382);
#185=LINE('',#1891,#383);
#186=LINE('',#1892,#384);
#187=LINE('',#1896,#385);
#188=LINE('',#1898,#386);
#189=LINE('',#1900,#387);
#190=LINE('',#1901,#388);
#191=LINE('',#1904,#389);
#192=LINE('',#1906,#390);
#193=LINE('',#1907,#391);
#194=LINE('',#1910,#392);
#195=LINE('',#1912,#393);
#196=LINE('',#1913,#394);
#197=LINE('',#1915,#395);
#198=LINE('',#1916,#396);
#199=LINE('',#1920,#397);
#200=LINE('',#1922,#398);
#201=LINE('',#1924,#399);
#202=LINE('',#1925,#400);
#203=LINE('',#1928,#401);
#204=LINE('',#1930,#402);
#205=LINE('',#1931,#403);
#206=LINE('',#1934,#404);
#207=LINE('',#1936,#405);
#208=LINE('',#1937,#406);
#209=LINE('',#1939,#407);
#210=LINE('',#1940,#408);
#211=LINE('',#1944,#409);
#212=LINE('',#1946,#410);
#213=LINE('',#1948,#411);
#214=LINE('',#1949,#412);
#215=LINE('',#1952,#413);
#216=LINE('',#1954,#414);
#217=LINE('',#1955,#415);
#218=LINE('',#1958,#416);
#219=LINE('',#1960,#417);
#220=LINE('',#1961,#418);
#221=LINE('',#1963,#419);
#222=LINE('',#1964,#420);
#223=LINE('',#1969,#421);
#224=LINE('',#1971,#422);
#225=LINE('',#1973,#423);
#226=LINE('',#1974,#424);
#227=LINE('',#1977,#425);
#228=LINE('',#1979,#426);
#229=LINE('',#1980,#427);
#230=LINE('',#1983,#428);
#231=LINE('',#1984,#429);
#232=LINE('',#1987,#430);
#233=LINE('',#1989,#431);
#234=LINE('',#1991,#432);
#235=LINE('',#1993,#433);
#236=LINE('',#1995,#434);
#237=LINE('',#1996,#435);
#238=LINE('',#1999,#436);
#239=LINE('',#2001,#437);
#240=LINE('',#2003,#438);
#241=LINE('',#2005,#439);
#242=LINE('',#2007,#440);
#243=LINE('',#2009,#441);
#244=LINE('',#2011,#442);
#245=LINE('',#2013,#443);
#246=LINE('',#2015,#444);
#247=LINE('',#2017,#445);
#248=LINE('',#2019,#446);
#249=LINE('',#2021,#447);
#250=LINE('',#2022,#448);
#251=LINE('',#2025,#449);
#252=LINE('',#2027,#450);
#253=LINE('',#2028,#451);
#254=LINE('',#2031,#452);
#255=LINE('',#2033,#453);
#256=LINE('',#2034,#454);
#257=LINE('',#2036,#455);
#258=LINE('',#2039,#456);
#259=LINE('',#2041,#457);
#260=LINE('',#2043,#458);
#261=LINE('',#2045,#459);
#262=LINE('',#2046,#460);
#263=LINE('',#2049,#461);
#264=LINE('',#2051,#462);
#265=LINE('',#2053,#463);
#266=LINE('',#2055,#464);
#267=LINE('',#2056,#465);
#268=LINE('',#2059,#466);
#269=LINE('',#2061,#467);
#270=LINE('',#2063,#468);
#271=LINE('',#2065,#469);
#272=LINE('',#2067,#470);
#273=LINE('',#2069,#471);
#274=LINE('',#2071,#472);
#275=LINE('',#2073,#473);
#276=LINE('',#2075,#474);
#277=LINE('',#2077,#475);
#278=LINE('',#2079,#476);
#279=LINE('',#2081,#477);
#280=LINE('',#2083,#478);
#281=LINE('',#2085,#479);
#282=LINE('',#2087,#480);
#283=LINE('',#2089,#481);
#284=LINE('',#2091,#482);
#285=LINE('',#2093,#483);
#286=LINE('',#2095,#484);
#287=LINE('',#2096,#485);
#288=LINE('',#2099,#486);
#289=LINE('',#2101,#487);
#290=LINE('',#2102,#488);
#291=LINE('',#2104,#489);
#292=LINE('',#2106,#490);
#293=LINE('',#2109,#491);
#294=LINE('',#2111,#492);
#295=LINE('',#2112,#493);
#296=LINE('',#2114,#494);
#297=LINE('',#2116,#495);
#298=LINE('',#2118,#496);
#299=LINE('',#2121,#497);
#300=LINE('',#2123,#498);
#301=LINE('',#2124,#499);
#302=LINE('',#2127,#500);
#303=LINE('',#2129,#501);
#304=LINE('',#2130,#502);
#305=LINE('',#2133,#503);
#306=LINE('',#2135,#504);
#307=LINE('',#2136,#505);
#308=LINE('',#2138,#506);
#309=LINE('',#2141,#507);
#310=LINE('',#2142,#508);
#311=LINE('',#2145,#509);
#312=LINE('',#2146,#510);
#313=LINE('',#2149,#511);
#314=LINE('',#2150,#512);
#315=LINE('',#2153,#513);
#316=LINE('',#2154,#514);
#317=LINE('',#2157,#515);
#318=LINE('',#2158,#516);
#319=LINE('',#2161,#517);
#320=LINE('',#2163,#518);
#321=LINE('',#2164,#519);
#322=LINE('',#2167,#520);
#323=LINE('',#2169,#521);
#324=LINE('',#2170,#522);
#325=LINE('',#2173,#523);
#326=LINE('',#2174,#524);
#327=LINE('',#2176,#525);
#328=LINE('',#2178,#526);
#329=LINE('',#2181,#527);
#330=LINE('',#2182,#528);
#331=LINE('',#2185,#529);
#332=LINE('',#2186,#530);
#333=LINE('',#2189,#531);
#334=LINE('',#2190,#532);
#335=LINE('',#2192,#533);
#336=LINE('',#2193,#534);
#337=LINE('',#2195,#535);
#338=LINE('',#2197,#536);
#339=LINE('',#2203,#537);
#340=LINE('',#2205,#538);
#341=LINE('',#2207,#539);
#342=LINE('',#2209,#540);
#343=LINE('',#2211,#541);
#344=LINE('',#2212,#542);
#345=LINE('',#2216,#543);
#346=LINE('',#2218,#544);
#347=LINE('',#2220,#545);
#348=LINE('',#2222,#546);
#349=LINE('',#2224,#547);
#350=LINE('',#2225,#548);
#351=LINE('',#2227,#549);
#352=LINE('',#2228,#550);
#353=LINE('',#2231,#551);
#354=LINE('',#2233,#552);
#355=LINE('',#2234,#553);
#356=LINE('',#2235,#554);
#357=LINE('',#2238,#555);
#358=LINE('',#2240,#556);
#359=LINE('',#2242,#557);
#360=LINE('',#2243,#558);
#361=LINE('',#2246,#559);
#362=LINE('',#2248,#560);
#363=LINE('',#2250,#561);
#364=LINE('',#2251,#562);
#365=LINE('',#2253,#563);
#366=LINE('',#2255,#564);
#367=LINE('',#2257,#565);
#368=LINE('',#2259,#566);
#369=LINE('',#2261,#567);
#370=LINE('',#2263,#568);
#371=LINE('',#2265,#569);
#372=LINE('',#2266,#570);
#373=VECTOR('',#1529,10.);
#374=VECTOR('',#1530,10.);
#375=VECTOR('',#1531,10.);
#376=VECTOR('',#1532,10.);
#377=VECTOR('',#1535,10.);
#378=VECTOR('',#1536,10.);
#379=VECTOR('',#1537,10.);
#380=VECTOR('',#1540,10.);
#381=VECTOR('',#1541,10.);
#382=VECTOR('',#1542,10.);
#383=VECTOR('',#1545,10.);
#384=VECTOR('',#1546,10.);
#385=VECTOR('',#1549,10.);
#386=VECTOR('',#1550,10.);
#387=VECTOR('',#1551,10.);
#388=VECTOR('',#1552,10.);
#389=VECTOR('',#1555,10.);
#390=VECTOR('',#1556,10.);
#391=VECTOR('',#1557,10.);
#392=VECTOR('',#1560,10.);
#393=VECTOR('',#1561,10.);
#394=VECTOR('',#1562,10.);
#395=VECTOR('',#1565,10.);
#396=VECTOR('',#1566,10.);
#397=VECTOR('',#1569,10.);
#398=VECTOR('',#1570,10.);
#399=VECTOR('',#1571,10.);
#400=VECTOR('',#1572,10.);
#401=VECTOR('',#1575,10.);
#402=VECTOR('',#1576,10.);
#403=VECTOR('',#1577,10.);
#404=VECTOR('',#1580,10.);
#405=VECTOR('',#1581,10.);
#406=VECTOR('',#1582,10.);
#407=VECTOR('',#1585,10.);
#408=VECTOR('',#1586,10.);
#409=VECTOR('',#1589,10.);
#410=VECTOR('',#1590,10.);
#411=VECTOR('',#1591,10.);
#412=VECTOR('',#1592,10.);
#413=VECTOR('',#1595,10.);
#414=VECTOR('',#1596,10.);
#415=VECTOR('',#1597,10.);
#416=VECTOR('',#1600,10.);
#417=VECTOR('',#1601,10.);
#418=VECTOR('',#1602,10.);
#419=VECTOR('',#1605,10.);
#420=VECTOR('',#1606,10.);
#421=VECTOR('',#1611,10.);
#422=VECTOR('',#1612,10.);
#423=VECTOR('',#1613,10.);
#424=VECTOR('',#1614,10.);
#425=VECTOR('',#1617,10.);
#426=VECTOR('',#1618,10.);
#427=VECTOR('',#1619,10.);
#428=VECTOR('',#1622,10.);
#429=VECTOR('',#1623,10.);
#430=VECTOR('',#1626,10.);
#431=VECTOR('',#1627,10.);
#432=VECTOR('',#1628,10.);
#433=VECTOR('',#1629,10.);
#434=VECTOR('',#1630,10.);
#435=VECTOR('',#1631,10.);
#436=VECTOR('',#1634,10.);
#437=VECTOR('',#1635,10.);
#438=VECTOR('',#1636,10.);
#439=VECTOR('',#1637,10.);
#440=VECTOR('',#1638,10.);
#441=VECTOR('',#1639,10.);
#442=VECTOR('',#1640,10.);
#443=VECTOR('',#1641,10.);
#444=VECTOR('',#1642,10.);
#445=VECTOR('',#1643,10.);
#446=VECTOR('',#1644,10.);
#447=VECTOR('',#1645,10.);
#448=VECTOR('',#1646,10.);
#449=VECTOR('',#1649,10.);
#450=VECTOR('',#1650,10.);
#451=VECTOR('',#1651,10.);
#452=VECTOR('',#1654,10.);
#453=VECTOR('',#1655,10.);
#454=VECTOR('',#1656,10.);
#455=VECTOR('',#1659,10.);
#456=VECTOR('',#1662,10.);
#457=VECTOR('',#1663,10.);
#458=VECTOR('',#1664,10.);
#459=VECTOR('',#1665,10.);
#460=VECTOR('',#1666,10.);
#461=VECTOR('',#1669,10.);
#462=VECTOR('',#1670,10.);
#463=VECTOR('',#1671,10.);
#464=VECTOR('',#1672,10.);
#465=VECTOR('',#1673,10.);
#466=VECTOR('',#1674,10.);
#467=VECTOR('',#1675,10.);
#468=VECTOR('',#1676,10.);
#469=VECTOR('',#1677,10.);
#470=VECTOR('',#1678,10.);
#471=VECTOR('',#1679,10.);
#472=VECTOR('',#1680,10.);
#473=VECTOR('',#1681,10.);
#474=VECTOR('',#1682,10.);
#475=VECTOR('',#1683,10.);
#476=VECTOR('',#1684,10.);
#477=VECTOR('',#1685,10.);
#478=VECTOR('',#1686,10.);
#479=VECTOR('',#1687,10.);
#480=VECTOR('',#1688,10.);
#481=VECTOR('',#1689,10.);
#482=VECTOR('',#1690,10.);
#483=VECTOR('',#1691,10.);
#484=VECTOR('',#1692,10.);
#485=VECTOR('',#1693,10.);
#486=VECTOR('',#1696,10.);
#487=VECTOR('',#1697,10.);
#488=VECTOR('',#1698,10.);
#489=VECTOR('',#1701,10.);
#490=VECTOR('',#1704,10.);
#491=VECTOR('',#1707,10.);
#492=VECTOR('',#1708,10.);
#493=VECTOR('',#1709,10.);
#494=VECTOR('',#1712,10.);
#495=VECTOR('',#1715,10.);
#496=VECTOR('',#1718,10.);
#497=VECTOR('',#1721,10.);
#498=VECTOR('',#1722,10.);
#499=VECTOR('',#1723,10.);
#500=VECTOR('',#1726,10.);
#501=VECTOR('',#1727,10.);
#502=VECTOR('',#1728,10.);
#503=VECTOR('',#1731,10.);
#504=VECTOR('',#1732,10.);
#505=VECTOR('',#1733,10.);
#506=VECTOR('',#1736,10.);
#507=VECTOR('',#1739,10.);
#508=VECTOR('',#1740,10.);
#509=VECTOR('',#1743,10.);
#510=VECTOR('',#1744,10.);
#511=VECTOR('',#1747,10.);
#512=VECTOR('',#1748,10.);
#513=VECTOR('',#1751,10.);
#514=VECTOR('',#1752,10.);
#515=VECTOR('',#1755,10.);
#516=VECTOR('',#1756,10.);
#517=VECTOR('',#1759,10.);
#518=VECTOR('',#1760,10.);
#519=VECTOR('',#1761,10.);
#520=VECTOR('',#1764,10.);
#521=VECTOR('',#1765,10.);
#522=VECTOR('',#1766,10.);
#523=VECTOR('',#1769,10.);
#524=VECTOR('',#1770,10.);
#525=VECTOR('',#1773,10.);
#526=VECTOR('',#1776,10.);
#527=VECTOR('',#1779,10.);
#528=VECTOR('',#1780,10.);
#529=VECTOR('',#1783,10.);
#530=VECTOR('',#1784,10.);
#531=VECTOR('',#1787,10.);
#532=VECTOR('',#1788,10.);
#533=VECTOR('',#1789,10.);
#534=VECTOR('',#1790,10.);
#535=VECTOR('',#1793,10.);
#536=VECTOR('',#1796,10.);
#537=VECTOR('',#1803,10.);
#538=VECTOR('',#1804,10.);
#539=VECTOR('',#1805,10.);
#540=VECTOR('',#1806,10.);
#541=VECTOR('',#1807,10.);
#542=VECTOR('',#1808,10.);
#543=VECTOR('',#1811,10.);
#544=VECTOR('',#1812,10.);
#545=VECTOR('',#1813,10.);
#546=VECTOR('',#1814,10.);
#547=VECTOR('',#1815,10.);
#548=VECTOR('',#1816,10.);
#549=VECTOR('',#1819,10.);
#550=VECTOR('',#1820,10.);
#551=VECTOR('',#1823,10.);
#552=VECTOR('',#1824,10.);
#553=VECTOR('',#1825,10.);
#554=VECTOR('',#1826,10.);
#555=VECTOR('',#1829,10.);
#556=VECTOR('',#1830,10.);
#557=VECTOR('',#1831,10.);
#558=VECTOR('',#1832,10.);
#559=VECTOR('',#1835,10.);
#560=VECTOR('',#1836,10.);
#561=VECTOR('',#1837,10.);
#562=VECTOR('',#1838,10.);
#563=VECTOR('',#1841,10.);
#564=VECTOR('',#1844,10.);
#565=VECTOR('',#1847,10.);
#566=VECTOR('',#1850,10.);
#567=VECTOR('',#1853,10.);
#568=VECTOR('',#1856,10.);
#569=VECTOR('',#1859,10.);
#570=VECTOR('',#1860,10.);
#571=VERTEX_POINT('',#1870);
#572=VERTEX_POINT('',#1871);
#573=VERTEX_POINT('',#1873);
#574=VERTEX_POINT('',#1875);
#575=VERTEX_POINT('',#1879);
#576=VERTEX_POINT('',#1881);
#577=VERTEX_POINT('',#1885);
#578=VERTEX_POINT('',#1887);
#579=VERTEX_POINT('',#1894);
#580=VERTEX_POINT('',#1895);
#581=VERTEX_POINT('',#1897);
#582=VERTEX_POINT('',#1899);
#583=VERTEX_POINT('',#1903);
#584=VERTEX_POINT('',#1905);
#585=VERTEX_POINT('',#1909);
#586=VERTEX_POINT('',#1911);
#587=VERTEX_POINT('',#1918);
#588=VERTEX_POINT('',#1919);
#589=VERTEX_POINT('',#1921);
#590=VERTEX_POINT('',#1923);
#591=VERTEX_POINT('',#1927);
#592=VERTEX_POINT('',#1929);
#593=VERTEX_POINT('',#1933);
#594=VERTEX_POINT('',#1935);
#595=VERTEX_POINT('',#1942);
#596=VERTEX_POINT('',#1943);
#597=VERTEX_POINT('',#1945);
#598=VERTEX_POINT('',#1947);
#599=VERTEX_POINT('',#1951);
#600=VERTEX_POINT('',#1953);
#601=VERTEX_POINT('',#1957);
#602=VERTEX_POINT('',#1959);
#603=VERTEX_POINT('',#1967);
#604=VERTEX_POINT('',#1968);
#605=VERTEX_POINT('',#1970);
#606=VERTEX_POINT('',#1972);
#607=VERTEX_POINT('',#1976);
#608=VERTEX_POINT('',#1978);
#609=VERTEX_POINT('',#1982);
#610=VERTEX_POINT('',#1986);
#611=VERTEX_POINT('',#1988);
#612=VERTEX_POINT('',#1990);
#613=VERTEX_POINT('',#1992);
#614=VERTEX_POINT('',#1994);
#615=VERTEX_POINT('',#1998);
#616=VERTEX_POINT('',#2000);
#617=VERTEX_POINT('',#2002);
#618=VERTEX_POINT('',#2004);
#619=VERTEX_POINT('',#2006);
#620=VERTEX_POINT('',#2008);
#621=VERTEX_POINT('',#2010);
#622=VERTEX_POINT('',#2012);
#623=VERTEX_POINT('',#2014);
#624=VERTEX_POINT('',#2016);
#625=VERTEX_POINT('',#2018);
#626=VERTEX_POINT('',#2020);
#627=VERTEX_POINT('',#2024);
#628=VERTEX_POINT('',#2026);
#629=VERTEX_POINT('',#2030);
#630=VERTEX_POINT('',#2032);
#631=VERTEX_POINT('',#2038);
#632=VERTEX_POINT('',#2040);
#633=VERTEX_POINT('',#2042);
#634=VERTEX_POINT('',#2044);
#635=VERTEX_POINT('',#2048);
#636=VERTEX_POINT('',#2050);
#637=VERTEX_POINT('',#2052);
#638=VERTEX_POINT('',#2054);
#639=VERTEX_POINT('',#2057);
#640=VERTEX_POINT('',#2058);
#641=VERTEX_POINT('',#2060);
#642=VERTEX_POINT('',#2062);
#643=VERTEX_POINT('',#2064);
#644=VERTEX_POINT('',#2066);
#645=VERTEX_POINT('',#2068);
#646=VERTEX_POINT('',#2070);
#647=VERTEX_POINT('',#2072);
#648=VERTEX_POINT('',#2074);
#649=VERTEX_POINT('',#2076);
#650=VERTEX_POINT('',#2078);
#651=VERTEX_POINT('',#2080);
#652=VERTEX_POINT('',#2082);
#653=VERTEX_POINT('',#2084);
#654=VERTEX_POINT('',#2086);
#655=VERTEX_POINT('',#2088);
#656=VERTEX_POINT('',#2090);
#657=VERTEX_POINT('',#2092);
#658=VERTEX_POINT('',#2094);
#659=VERTEX_POINT('',#2098);
#660=VERTEX_POINT('',#2100);
#661=VERTEX_POINT('',#2108);
#662=VERTEX_POINT('',#2110);
#663=VERTEX_POINT('',#2120);
#664=VERTEX_POINT('',#2122);
#665=VERTEX_POINT('',#2126);
#666=VERTEX_POINT('',#2128);
#667=VERTEX_POINT('',#2132);
#668=VERTEX_POINT('',#2134);
#669=VERTEX_POINT('',#2140);
#670=VERTEX_POINT('',#2144);
#671=VERTEX_POINT('',#2148);
#672=VERTEX_POINT('',#2152);
#673=VERTEX_POINT('',#2156);
#674=VERTEX_POINT('',#2160);
#675=VERTEX_POINT('',#2162);
#676=VERTEX_POINT('',#2166);
#677=VERTEX_POINT('',#2168);
#678=VERTEX_POINT('',#2172);
#679=VERTEX_POINT('',#2180);
#680=VERTEX_POINT('',#2184);
#681=VERTEX_POINT('',#2188);
#682=VERTEX_POINT('',#2191);
#683=VERTEX_POINT('',#2201);
#684=VERTEX_POINT('',#2202);
#685=VERTEX_POINT('',#2204);
#686=VERTEX_POINT('',#2206);
#687=VERTEX_POINT('',#2208);
#688=VERTEX_POINT('',#2210);
#689=VERTEX_POINT('',#2214);
#690=VERTEX_POINT('',#2215);
#691=VERTEX_POINT('',#2217);
#692=VERTEX_POINT('',#2219);
#693=VERTEX_POINT('',#2221);
#694=VERTEX_POINT('',#2223);
#695=VERTEX_POINT('',#2230);
#696=VERTEX_POINT('',#2232);
#697=VERTEX_POINT('',#2237);
#698=VERTEX_POINT('',#2239);
#699=VERTEX_POINT('',#2241);
#700=VERTEX_POINT('',#2245);
#701=VERTEX_POINT('',#2247);
#702=VERTEX_POINT('',#2249);
#703=EDGE_CURVE('',#571,#572,#175,.T.);
#704=EDGE_CURVE('',#571,#573,#176,.T.);
#705=EDGE_CURVE('',#574,#573,#177,.T.);
#706=EDGE_CURVE('',#572,#574,#178,.T.);
#707=EDGE_CURVE('',#572,#575,#179,.T.);
#708=EDGE_CURVE('',#576,#574,#180,.T.);
#709=EDGE_CURVE('',#575,#576,#181,.T.);
#710=EDGE_CURVE('',#575,#577,#182,.T.);
#711=EDGE_CURVE('',#578,#576,#183,.T.);
#712=EDGE_CURVE('',#577,#578,#184,.T.);
#713=EDGE_CURVE('',#577,#571,#185,.T.);
#714=EDGE_CURVE('',#573,#578,#186,.T.);
#715=EDGE_CURVE('',#579,#580,#187,.T.);
#716=EDGE_CURVE('',#579,#581,#188,.T.);
#717=EDGE_CURVE('',#582,#581,#189,.T.);
#718=EDGE_CURVE('',#580,#582,#190,.T.);
#719=EDGE_CURVE('',#580,#583,#191,.T.);
#720=EDGE_CURVE('',#584,#582,#192,.T.);
#721=EDGE_CURVE('',#583,#584,#193,.T.);
#722=EDGE_CURVE('',#583,#585,#194,.T.);
#723=EDGE_CURVE('',#586,#584,#195,.T.);
#724=EDGE_CURVE('',#585,#586,#196,.T.);
#725=EDGE_CURVE('',#585,#579,#197,.T.);
#726=EDGE_CURVE('',#581,#586,#198,.T.);
#727=EDGE_CURVE('',#587,#588,#199,.T.);
#728=EDGE_CURVE('',#589,#587,#200,.T.);
#729=EDGE_CURVE('',#590,#589,#201,.T.);
#730=EDGE_CURVE('',#590,#588,#202,.T.);
#731=EDGE_CURVE('',#588,#591,#203,.T.);
#732=EDGE_CURVE('',#592,#590,#204,.T.);
#733=EDGE_CURVE('',#592,#591,#205,.T.);
#734=EDGE_CURVE('',#591,#593,#206,.T.);
#735=EDGE_CURVE('',#594,#592,#207,.T.);
#736=EDGE_CURVE('',#594,#593,#208,.T.);
#737=EDGE_CURVE('',#593,#587,#209,.T.);
#738=EDGE_CURVE('',#589,#594,#210,.T.);
#739=EDGE_CURVE('',#595,#596,#211,.T.);
#740=EDGE_CURVE('',#595,#597,#212,.T.);
#741=EDGE_CURVE('',#597,#598,#213,.T.);
#742=EDGE_CURVE('',#596,#598,#214,.T.);
#743=EDGE_CURVE('',#599,#595,#215,.T.);
#744=EDGE_CURVE('',#599,#600,#216,.T.);
#745=EDGE_CURVE('',#600,#597,#217,.T.);
#746=EDGE_CURVE('',#601,#599,#218,.T.);
#747=EDGE_CURVE('',#601,#602,#219,.T.);
#748=EDGE_CURVE('',#602,#600,#220,.T.);
#749=EDGE_CURVE('',#596,#601,#221,.T.);
#750=EDGE_CURVE('',#598,#602,#222,.T.);
#751=EDGE_CURVE('',#603,#604,#223,.T.);
#752=EDGE_CURVE('',#605,#603,#224,.T.);
#753=EDGE_CURVE('',#605,#606,#225,.T.);
#754=EDGE_CURVE('',#604,#606,#226,.T.);
#755=EDGE_CURVE('',#607,#605,#227,.T.);
#756=EDGE_CURVE('',#608,#607,#228,.T.);
#757=EDGE_CURVE('',#606,#608,#229,.T.);
#758=EDGE_CURVE('',#604,#609,#230,.T.);
#759=EDGE_CURVE('',#609,#608,#231,.T.);
#760=EDGE_CURVE('',#609,#610,#232,.T.);
#761=EDGE_CURVE('',#610,#611,#233,.T.);
#762=EDGE_CURVE('',#612,#611,#234,.T.);
#763=EDGE_CURVE('',#612,#613,#235,.T.);
#764=EDGE_CURVE('',#613,#614,#236,.T.);
#765=EDGE_CURVE('',#603,#614,#237,.T.);
#766=EDGE_CURVE('',#615,#607,#238,.T.);
#767=EDGE_CURVE('',#615,#616,#239,.T.);
#768=EDGE_CURVE('',#616,#617,#240,.T.);
#769=EDGE_CURVE('',#617,#618,#241,.T.);
#770=EDGE_CURVE('',#619,#618,#242,.T.);
#771=EDGE_CURVE('',#619,#620,#243,.T.);
#772=EDGE_CURVE('',#620,#621,#244,.T.);
#773=EDGE_CURVE('',#621,#622,#245,.T.);
#774=EDGE_CURVE('',#623,#622,#246,.T.);
#775=EDGE_CURVE('',#624,#623,#247,.T.);
#776=EDGE_CURVE('',#624,#625,#248,.T.);
#777=EDGE_CURVE('',#626,#625,#249,.T.);
#778=EDGE_CURVE('',#610,#626,#250,.T.);
#779=EDGE_CURVE('',#627,#615,#251,.T.);
#780=EDGE_CURVE('',#627,#628,#252,.T.);
#781=EDGE_CURVE('',#616,#628,#253,.T.);
#782=EDGE_CURVE('',#629,#627,#254,.T.);
#783=EDGE_CURVE('',#630,#629,#255,.T.);
#784=EDGE_CURVE('',#628,#630,#256,.T.);
#785=EDGE_CURVE('',#617,#630,#257,.T.);
#786=EDGE_CURVE('',#631,#629,#258,.T.);
#787=EDGE_CURVE('',#631,#632,#259,.T.);
#788=EDGE_CURVE('',#632,#633,#260,.T.);
#789=EDGE_CURVE('',#633,#634,#261,.T.);
#790=EDGE_CURVE('',#634,#618,#262,.T.);
#791=EDGE_CURVE('',#614,#635,#263,.T.);
#792=EDGE_CURVE('',#635,#636,#264,.T.);
#793=EDGE_CURVE('',#636,#637,#265,.T.);
#794=EDGE_CURVE('',#637,#638,#266,.T.);
#795=EDGE_CURVE('',#638,#631,#267,.T.);
#796=EDGE_CURVE('',#639,#640,#268,.T.);
#797=EDGE_CURVE('',#640,#641,#269,.T.);
#798=EDGE_CURVE('',#641,#642,#270,.T.);
#799=EDGE_CURVE('',#642,#643,#271,.T.);
#800=EDGE_CURVE('',#643,#644,#272,.T.);
#801=EDGE_CURVE('',#644,#645,#273,.T.);
#802=EDGE_CURVE('',#645,#646,#274,.T.);
#803=EDGE_CURVE('',#646,#647,#275,.T.);
#804=EDGE_CURVE('',#647,#648,#276,.T.);
#805=EDGE_CURVE('',#648,#649,#277,.T.);
#806=EDGE_CURVE('',#649,#650,#278,.T.);
#807=EDGE_CURVE('',#650,#651,#279,.T.);
#808=EDGE_CURVE('',#651,#652,#280,.T.);
#809=EDGE_CURVE('',#652,#653,#281,.T.);
#810=EDGE_CURVE('',#653,#654,#282,.T.);
#811=EDGE_CURVE('',#654,#655,#283,.T.);
#812=EDGE_CURVE('',#655,#656,#284,.T.);
#813=EDGE_CURVE('',#656,#657,#285,.T.);
#814=EDGE_CURVE('',#657,#658,#286,.T.);
#815=EDGE_CURVE('',#658,#639,#287,.T.);
#816=EDGE_CURVE('',#659,#612,#288,.T.);
#817=EDGE_CURVE('',#659,#660,#289,.T.);
#818=EDGE_CURVE('',#660,#613,#290,.T.);
#819=EDGE_CURVE('',#635,#660,#291,.T.);
#820=EDGE_CURVE('',#636,#659,#292,.T.);
#821=EDGE_CURVE('',#661,#637,#293,.T.);
#822=EDGE_CURVE('',#662,#661,#294,.T.);
#823=EDGE_CURVE('',#638,#662,#295,.T.);
#824=EDGE_CURVE('',#632,#662,#296,.T.);
#825=EDGE_CURVE('',#633,#661,#297,.T.);
#826=EDGE_CURVE('',#611,#634,#298,.T.);
#827=EDGE_CURVE('',#656,#663,#299,.T.);
#828=EDGE_CURVE('',#655,#664,#300,.T.);
#829=EDGE_CURVE('',#663,#664,#301,.T.);
#830=EDGE_CURVE('',#665,#639,#302,.T.);
#831=EDGE_CURVE('',#666,#665,#303,.T.);
#832=EDGE_CURVE('',#640,#666,#304,.T.);
#833=EDGE_CURVE('',#667,#653,#305,.T.);
#834=EDGE_CURVE('',#668,#667,#306,.T.);
#835=EDGE_CURVE('',#654,#668,#307,.T.);
#836=EDGE_CURVE('',#664,#668,#308,.T.);
#837=EDGE_CURVE('',#669,#666,#309,.T.);
#838=EDGE_CURVE('',#641,#669,#310,.T.);
#839=EDGE_CURVE('',#642,#670,#311,.T.);
#840=EDGE_CURVE('',#670,#669,#312,.T.);
#841=EDGE_CURVE('',#671,#670,#313,.T.);
#842=EDGE_CURVE('',#671,#643,#314,.T.);
#843=EDGE_CURVE('',#652,#672,#315,.T.);
#844=EDGE_CURVE('',#667,#672,#316,.T.);
#845=EDGE_CURVE('',#673,#671,#317,.T.);
#846=EDGE_CURVE('',#644,#673,#318,.T.);
#847=EDGE_CURVE('',#646,#674,#319,.T.);
#848=EDGE_CURVE('',#645,#675,#320,.T.);
#849=EDGE_CURVE('',#674,#675,#321,.T.);
#850=EDGE_CURVE('',#676,#649,#322,.T.);
#851=EDGE_CURVE('',#677,#676,#323,.T.);
#852=EDGE_CURVE('',#650,#677,#324,.T.);
#853=EDGE_CURVE('',#678,#677,#325,.T.);
#854=EDGE_CURVE('',#651,#678,#326,.T.);
#855=EDGE_CURVE('',#672,#678,#327,.T.);
#856=EDGE_CURVE('',#675,#673,#328,.T.);
#857=EDGE_CURVE('',#648,#679,#329,.T.);
#858=EDGE_CURVE('',#676,#679,#330,.T.);
#859=EDGE_CURVE('',#680,#663,#331,.T.);
#860=EDGE_CURVE('',#657,#680,#332,.T.);
#861=EDGE_CURVE('',#665,#681,#333,.T.);
#862=EDGE_CURVE('',#681,#680,#334,.T.);
#863=EDGE_CURVE('',#679,#682,#335,.T.);
#864=EDGE_CURVE('',#682,#674,#336,.T.);
#865=EDGE_CURVE('',#647,#682,#337,.T.);
#866=EDGE_CURVE('',#658,#681,#338,.T.);
#867=EDGE_CURVE('',#683,#684,#339,.T.);
#868=EDGE_CURVE('',#685,#683,#340,.T.);
#869=EDGE_CURVE('',#686,#685,#341,.T.);
#870=EDGE_CURVE('',#687,#686,#342,.T.);
#871=EDGE_CURVE('',#688,#687,#343,.T.);
#872=EDGE_CURVE('',#684,#688,#344,.T.);
#873=EDGE_CURVE('',#689,#690,#345,.T.);
#874=EDGE_CURVE('',#691,#689,#346,.T.);
#875=EDGE_CURVE('',#691,#692,#347,.T.);
#876=EDGE_CURVE('',#693,#692,#348,.T.);
#877=EDGE_CURVE('',#694,#693,#349,.T.);
#878=EDGE_CURVE('',#690,#694,#350,.T.);
#879=EDGE_CURVE('',#626,#690,#351,.T.);
#880=EDGE_CURVE('',#625,#689,#352,.T.);
#881=EDGE_CURVE('',#695,#694,#353,.T.);
#882=EDGE_CURVE('',#696,#695,#354,.T.);
#883=EDGE_CURVE('',#688,#696,#355,.T.);
#884=EDGE_CURVE('',#687,#619,#356,.T.);
#885=EDGE_CURVE('',#697,#693,#357,.T.);
#886=EDGE_CURVE('',#698,#697,#358,.T.);
#887=EDGE_CURVE('',#698,#699,#359,.T.);
#888=EDGE_CURVE('',#699,#695,#360,.T.);
#889=EDGE_CURVE('',#700,#696,#361,.T.);
#890=EDGE_CURVE('',#700,#701,#362,.T.);
#891=EDGE_CURVE('',#701,#702,#363,.T.);
#892=EDGE_CURVE('',#684,#702,#364,.T.);
#893=EDGE_CURVE('',#699,#700,#365,.T.);
#894=EDGE_CURVE('',#691,#624,#366,.T.);
#895=EDGE_CURVE('',#686,#620,#367,.T.);
#896=EDGE_CURVE('',#621,#685,#368,.T.);
#897=EDGE_CURVE('',#622,#683,#369,.T.);
#898=EDGE_CURVE('',#692,#623,#370,.T.);
#899=EDGE_CURVE('',#701,#698,#371,.T.);
#900=EDGE_CURVE('',#702,#697,#372,.T.);
#901=ORIENTED_EDGE('',*,*,#703,.F.);
#902=ORIENTED_EDGE('',*,*,#704,.T.);
#903=ORIENTED_EDGE('',*,*,#705,.F.);
#904=ORIENTED_EDGE('',*,*,#706,.F.);
#905=ORIENTED_EDGE('',*,*,#707,.F.);
#906=ORIENTED_EDGE('',*,*,#706,.T.);
#907=ORIENTED_EDGE('',*,*,#708,.F.);
#908=ORIENTED_EDGE('',*,*,#709,.F.);
#909=ORIENTED_EDGE('',*,*,#710,.F.);
#910=ORIENTED_EDGE('',*,*,#709,.T.);
#911=ORIENTED_EDGE('',*,*,#711,.F.);
#912=ORIENTED_EDGE('',*,*,#712,.F.);
#913=ORIENTED_EDGE('',*,*,#713,.F.);
#914=ORIENTED_EDGE('',*,*,#712,.T.);
#915=ORIENTED_EDGE('',*,*,#714,.F.);
#916=ORIENTED_EDGE('',*,*,#704,.F.);
#917=ORIENTED_EDGE('',*,*,#715,.F.);
#918=ORIENTED_EDGE('',*,*,#716,.T.);
#919=ORIENTED_EDGE('',*,*,#717,.F.);
#920=ORIENTED_EDGE('',*,*,#718,.F.);
#921=ORIENTED_EDGE('',*,*,#719,.F.);
#922=ORIENTED_EDGE('',*,*,#718,.T.);
#923=ORIENTED_EDGE('',*,*,#720,.F.);
#924=ORIENTED_EDGE('',*,*,#721,.F.);
#925=ORIENTED_EDGE('',*,*,#722,.F.);
#926=ORIENTED_EDGE('',*,*,#721,.T.);
#927=ORIENTED_EDGE('',*,*,#723,.F.);
#928=ORIENTED_EDGE('',*,*,#724,.F.);
#929=ORIENTED_EDGE('',*,*,#725,.F.);
#930=ORIENTED_EDGE('',*,*,#724,.T.);
#931=ORIENTED_EDGE('',*,*,#726,.F.);
#932=ORIENTED_EDGE('',*,*,#716,.F.);
#933=ORIENTED_EDGE('',*,*,#727,.F.);
#934=ORIENTED_EDGE('',*,*,#728,.F.);
#935=ORIENTED_EDGE('',*,*,#729,.F.);
#936=ORIENTED_EDGE('',*,*,#730,.T.);
#937=ORIENTED_EDGE('',*,*,#731,.F.);
#938=ORIENTED_EDGE('',*,*,#730,.F.);
#939=ORIENTED_EDGE('',*,*,#732,.F.);
#940=ORIENTED_EDGE('',*,*,#733,.T.);
#941=ORIENTED_EDGE('',*,*,#734,.F.);
#942=ORIENTED_EDGE('',*,*,#733,.F.);
#943=ORIENTED_EDGE('',*,*,#735,.F.);
#944=ORIENTED_EDGE('',*,*,#736,.T.);
#945=ORIENTED_EDGE('',*,*,#737,.F.);
#946=ORIENTED_EDGE('',*,*,#736,.F.);
#947=ORIENTED_EDGE('',*,*,#738,.F.);
#948=ORIENTED_EDGE('',*,*,#728,.T.);
#949=ORIENTED_EDGE('',*,*,#739,.F.);
#950=ORIENTED_EDGE('',*,*,#740,.T.);
#951=ORIENTED_EDGE('',*,*,#741,.T.);
#952=ORIENTED_EDGE('',*,*,#742,.F.);
#953=ORIENTED_EDGE('',*,*,#743,.F.);
#954=ORIENTED_EDGE('',*,*,#744,.T.);
#955=ORIENTED_EDGE('',*,*,#745,.T.);
#956=ORIENTED_EDGE('',*,*,#740,.F.);
#957=ORIENTED_EDGE('',*,*,#746,.F.);
#958=ORIENTED_EDGE('',*,*,#747,.T.);
#959=ORIENTED_EDGE('',*,*,#748,.T.);
#960=ORIENTED_EDGE('',*,*,#744,.F.);
#961=ORIENTED_EDGE('',*,*,#749,.F.);
#962=ORIENTED_EDGE('',*,*,#742,.T.);
#963=ORIENTED_EDGE('',*,*,#750,.T.);
#964=ORIENTED_EDGE('',*,*,#747,.F.);
#965=ORIENTED_EDGE('',*,*,#750,.F.);
#966=ORIENTED_EDGE('',*,*,#741,.F.);
#967=ORIENTED_EDGE('',*,*,#745,.F.);
#968=ORIENTED_EDGE('',*,*,#748,.F.);
#969=ORIENTED_EDGE('',*,*,#751,.F.);
#970=ORIENTED_EDGE('',*,*,#752,.F.);
#971=ORIENTED_EDGE('',*,*,#753,.T.);
#972=ORIENTED_EDGE('',*,*,#754,.F.);
#973=ORIENTED_EDGE('',*,*,#755,.F.);
#974=ORIENTED_EDGE('',*,*,#756,.F.);
#975=ORIENTED_EDGE('',*,*,#757,.F.);
#976=ORIENTED_EDGE('',*,*,#753,.F.);
#977=ORIENTED_EDGE('',*,*,#758,.F.);
#978=ORIENTED_EDGE('',*,*,#754,.T.);
#979=ORIENTED_EDGE('',*,*,#757,.T.);
#980=ORIENTED_EDGE('',*,*,#759,.F.);
#981=ORIENTED_EDGE('',*,*,#751,.T.);
#982=ORIENTED_EDGE('',*,*,#758,.T.);
#983=ORIENTED_EDGE('',*,*,#760,.T.);
#984=ORIENTED_EDGE('',*,*,#761,.T.);
#985=ORIENTED_EDGE('',*,*,#762,.F.);
#986=ORIENTED_EDGE('',*,*,#763,.T.);
#987=ORIENTED_EDGE('',*,*,#764,.T.);
#988=ORIENTED_EDGE('',*,*,#765,.F.);
#989=ORIENTED_EDGE('',*,*,#759,.T.);
#990=ORIENTED_EDGE('',*,*,#756,.T.);
#991=ORIENTED_EDGE('',*,*,#766,.F.);
#992=ORIENTED_EDGE('',*,*,#767,.T.);
#993=ORIENTED_EDGE('',*,*,#768,.T.);
#994=ORIENTED_EDGE('',*,*,#769,.T.);
#995=ORIENTED_EDGE('',*,*,#770,.F.);
#996=ORIENTED_EDGE('',*,*,#771,.T.);
#997=ORIENTED_EDGE('',*,*,#772,.T.);
#998=ORIENTED_EDGE('',*,*,#773,.T.);
#999=ORIENTED_EDGE('',*,*,#774,.F.);
#1000=ORIENTED_EDGE('',*,*,#775,.F.);
#1001=ORIENTED_EDGE('',*,*,#776,.T.);
#1002=ORIENTED_EDGE('',*,*,#777,.F.);
#1003=ORIENTED_EDGE('',*,*,#778,.F.);
#1004=ORIENTED_EDGE('',*,*,#760,.F.);
#1005=ORIENTED_EDGE('',*,*,#710,.T.);
#1006=ORIENTED_EDGE('',*,*,#713,.T.);
#1007=ORIENTED_EDGE('',*,*,#703,.T.);
#1008=ORIENTED_EDGE('',*,*,#707,.T.);
#1009=ORIENTED_EDGE('',*,*,#722,.T.);
#1010=ORIENTED_EDGE('',*,*,#725,.T.);
#1011=ORIENTED_EDGE('',*,*,#715,.T.);
#1012=ORIENTED_EDGE('',*,*,#719,.T.);
#1013=ORIENTED_EDGE('',*,*,#779,.F.);
#1014=ORIENTED_EDGE('',*,*,#780,.T.);
#1015=ORIENTED_EDGE('',*,*,#781,.F.);
#1016=ORIENTED_EDGE('',*,*,#767,.F.);
#1017=ORIENTED_EDGE('',*,*,#782,.F.);
#1018=ORIENTED_EDGE('',*,*,#783,.F.);
#1019=ORIENTED_EDGE('',*,*,#784,.F.);
#1020=ORIENTED_EDGE('',*,*,#780,.F.);
#1021=ORIENTED_EDGE('',*,*,#784,.T.);
#1022=ORIENTED_EDGE('',*,*,#785,.F.);
#1023=ORIENTED_EDGE('',*,*,#768,.F.);
#1024=ORIENTED_EDGE('',*,*,#781,.T.);
#1025=ORIENTED_EDGE('',*,*,#785,.T.);
#1026=ORIENTED_EDGE('',*,*,#783,.T.);
#1027=ORIENTED_EDGE('',*,*,#786,.F.);
#1028=ORIENTED_EDGE('',*,*,#787,.T.);
#1029=ORIENTED_EDGE('',*,*,#788,.T.);
#1030=ORIENTED_EDGE('',*,*,#789,.T.);
#1031=ORIENTED_EDGE('',*,*,#790,.T.);
#1032=ORIENTED_EDGE('',*,*,#769,.F.);
#1033=ORIENTED_EDGE('',*,*,#752,.T.);
#1034=ORIENTED_EDGE('',*,*,#765,.T.);
#1035=ORIENTED_EDGE('',*,*,#791,.T.);
#1036=ORIENTED_EDGE('',*,*,#792,.T.);
#1037=ORIENTED_EDGE('',*,*,#793,.T.);
#1038=ORIENTED_EDGE('',*,*,#794,.T.);
#1039=ORIENTED_EDGE('',*,*,#795,.T.);
#1040=ORIENTED_EDGE('',*,*,#786,.T.);
#1041=ORIENTED_EDGE('',*,*,#782,.T.);
#1042=ORIENTED_EDGE('',*,*,#779,.T.);
#1043=ORIENTED_EDGE('',*,*,#766,.T.);
#1044=ORIENTED_EDGE('',*,*,#755,.T.);
#1045=ORIENTED_EDGE('',*,*,#796,.T.);
#1046=ORIENTED_EDGE('',*,*,#797,.T.);
#1047=ORIENTED_EDGE('',*,*,#798,.T.);
#1048=ORIENTED_EDGE('',*,*,#799,.T.);
#1049=ORIENTED_EDGE('',*,*,#800,.T.);
#1050=ORIENTED_EDGE('',*,*,#801,.T.);
#1051=ORIENTED_EDGE('',*,*,#802,.T.);
#1052=ORIENTED_EDGE('',*,*,#803,.T.);
#1053=ORIENTED_EDGE('',*,*,#804,.T.);
#1054=ORIENTED_EDGE('',*,*,#805,.T.);
#1055=ORIENTED_EDGE('',*,*,#806,.T.);
#1056=ORIENTED_EDGE('',*,*,#807,.T.);
#1057=ORIENTED_EDGE('',*,*,#808,.T.);
#1058=ORIENTED_EDGE('',*,*,#809,.T.);
#1059=ORIENTED_EDGE('',*,*,#810,.T.);
#1060=ORIENTED_EDGE('',*,*,#811,.T.);
#1061=ORIENTED_EDGE('',*,*,#812,.T.);
#1062=ORIENTED_EDGE('',*,*,#813,.T.);
#1063=ORIENTED_EDGE('',*,*,#814,.T.);
#1064=ORIENTED_EDGE('',*,*,#815,.T.);
#1065=ORIENTED_EDGE('',*,*,#763,.F.);
#1066=ORIENTED_EDGE('',*,*,#816,.F.);
#1067=ORIENTED_EDGE('',*,*,#817,.T.);
#1068=ORIENTED_EDGE('',*,*,#818,.T.);
#1069=ORIENTED_EDGE('',*,*,#764,.F.);
#1070=ORIENTED_EDGE('',*,*,#818,.F.);
#1071=ORIENTED_EDGE('',*,*,#819,.F.);
#1072=ORIENTED_EDGE('',*,*,#791,.F.);
#1073=ORIENTED_EDGE('',*,*,#792,.F.);
#1074=ORIENTED_EDGE('',*,*,#819,.T.);
#1075=ORIENTED_EDGE('',*,*,#817,.F.);
#1076=ORIENTED_EDGE('',*,*,#820,.F.);
#1077=ORIENTED_EDGE('',*,*,#794,.F.);
#1078=ORIENTED_EDGE('',*,*,#821,.F.);
#1079=ORIENTED_EDGE('',*,*,#822,.F.);
#1080=ORIENTED_EDGE('',*,*,#823,.F.);
#1081=ORIENTED_EDGE('',*,*,#795,.F.);
#1082=ORIENTED_EDGE('',*,*,#823,.T.);
#1083=ORIENTED_EDGE('',*,*,#824,.F.);
#1084=ORIENTED_EDGE('',*,*,#787,.F.);
#1085=ORIENTED_EDGE('',*,*,#825,.F.);
#1086=ORIENTED_EDGE('',*,*,#788,.F.);
#1087=ORIENTED_EDGE('',*,*,#824,.T.);
#1088=ORIENTED_EDGE('',*,*,#822,.T.);
#1089=ORIENTED_EDGE('',*,*,#816,.T.);
#1090=ORIENTED_EDGE('',*,*,#762,.T.);
#1091=ORIENTED_EDGE('',*,*,#826,.T.);
#1092=ORIENTED_EDGE('',*,*,#789,.F.);
#1093=ORIENTED_EDGE('',*,*,#825,.T.);
#1094=ORIENTED_EDGE('',*,*,#821,.T.);
#1095=ORIENTED_EDGE('',*,*,#793,.F.);
#1096=ORIENTED_EDGE('',*,*,#820,.T.);
#1097=ORIENTED_EDGE('',*,*,#734,.T.);
#1098=ORIENTED_EDGE('',*,*,#737,.T.);
#1099=ORIENTED_EDGE('',*,*,#727,.T.);
#1100=ORIENTED_EDGE('',*,*,#731,.T.);
#1101=ORIENTED_EDGE('',*,*,#827,.F.);
#1102=ORIENTED_EDGE('',*,*,#812,.F.);
#1103=ORIENTED_EDGE('',*,*,#828,.T.);
#1104=ORIENTED_EDGE('',*,*,#829,.F.);
#1105=ORIENTED_EDGE('',*,*,#830,.F.);
#1106=ORIENTED_EDGE('',*,*,#831,.F.);
#1107=ORIENTED_EDGE('',*,*,#832,.F.);
#1108=ORIENTED_EDGE('',*,*,#796,.F.);
#1109=ORIENTED_EDGE('',*,*,#833,.F.);
#1110=ORIENTED_EDGE('',*,*,#834,.F.);
#1111=ORIENTED_EDGE('',*,*,#835,.F.);
#1112=ORIENTED_EDGE('',*,*,#810,.F.);
#1113=ORIENTED_EDGE('',*,*,#811,.F.);
#1114=ORIENTED_EDGE('',*,*,#835,.T.);
#1115=ORIENTED_EDGE('',*,*,#836,.F.);
#1116=ORIENTED_EDGE('',*,*,#828,.F.);
#1117=ORIENTED_EDGE('',*,*,#797,.F.);
#1118=ORIENTED_EDGE('',*,*,#832,.T.);
#1119=ORIENTED_EDGE('',*,*,#837,.F.);
#1120=ORIENTED_EDGE('',*,*,#838,.F.);
#1121=ORIENTED_EDGE('',*,*,#839,.F.);
#1122=ORIENTED_EDGE('',*,*,#798,.F.);
#1123=ORIENTED_EDGE('',*,*,#838,.T.);
#1124=ORIENTED_EDGE('',*,*,#840,.F.);
#1125=ORIENTED_EDGE('',*,*,#839,.T.);
#1126=ORIENTED_EDGE('',*,*,#841,.F.);
#1127=ORIENTED_EDGE('',*,*,#842,.T.);
#1128=ORIENTED_EDGE('',*,*,#799,.F.);
#1129=ORIENTED_EDGE('',*,*,#833,.T.);
#1130=ORIENTED_EDGE('',*,*,#809,.F.);
#1131=ORIENTED_EDGE('',*,*,#843,.T.);
#1132=ORIENTED_EDGE('',*,*,#844,.F.);
#1133=ORIENTED_EDGE('',*,*,#842,.F.);
#1134=ORIENTED_EDGE('',*,*,#845,.F.);
#1135=ORIENTED_EDGE('',*,*,#846,.F.);
#1136=ORIENTED_EDGE('',*,*,#800,.F.);
#1137=ORIENTED_EDGE('',*,*,#847,.F.);
#1138=ORIENTED_EDGE('',*,*,#802,.F.);
#1139=ORIENTED_EDGE('',*,*,#848,.T.);
#1140=ORIENTED_EDGE('',*,*,#849,.F.);
#1141=ORIENTED_EDGE('',*,*,#850,.F.);
#1142=ORIENTED_EDGE('',*,*,#851,.F.);
#1143=ORIENTED_EDGE('',*,*,#852,.F.);
#1144=ORIENTED_EDGE('',*,*,#806,.F.);
#1145=ORIENTED_EDGE('',*,*,#807,.F.);
#1146=ORIENTED_EDGE('',*,*,#852,.T.);
#1147=ORIENTED_EDGE('',*,*,#853,.F.);
#1148=ORIENTED_EDGE('',*,*,#854,.F.);
#1149=ORIENTED_EDGE('',*,*,#843,.F.);
#1150=ORIENTED_EDGE('',*,*,#808,.F.);
#1151=ORIENTED_EDGE('',*,*,#854,.T.);
#1152=ORIENTED_EDGE('',*,*,#855,.F.);
#1153=ORIENTED_EDGE('',*,*,#801,.F.);
#1154=ORIENTED_EDGE('',*,*,#846,.T.);
#1155=ORIENTED_EDGE('',*,*,#856,.F.);
#1156=ORIENTED_EDGE('',*,*,#848,.F.);
#1157=ORIENTED_EDGE('',*,*,#850,.T.);
#1158=ORIENTED_EDGE('',*,*,#805,.F.);
#1159=ORIENTED_EDGE('',*,*,#857,.T.);
#1160=ORIENTED_EDGE('',*,*,#858,.F.);
#1161=ORIENTED_EDGE('',*,*,#827,.T.);
#1162=ORIENTED_EDGE('',*,*,#859,.F.);
#1163=ORIENTED_EDGE('',*,*,#860,.F.);
#1164=ORIENTED_EDGE('',*,*,#813,.F.);
#1165=ORIENTED_EDGE('',*,*,#861,.T.);
#1166=ORIENTED_EDGE('',*,*,#862,.T.);
#1167=ORIENTED_EDGE('',*,*,#859,.T.);
#1168=ORIENTED_EDGE('',*,*,#829,.T.);
#1169=ORIENTED_EDGE('',*,*,#836,.T.);
#1170=ORIENTED_EDGE('',*,*,#834,.T.);
#1171=ORIENTED_EDGE('',*,*,#844,.T.);
#1172=ORIENTED_EDGE('',*,*,#855,.T.);
#1173=ORIENTED_EDGE('',*,*,#853,.T.);
#1174=ORIENTED_EDGE('',*,*,#851,.T.);
#1175=ORIENTED_EDGE('',*,*,#858,.T.);
#1176=ORIENTED_EDGE('',*,*,#863,.T.);
#1177=ORIENTED_EDGE('',*,*,#864,.T.);
#1178=ORIENTED_EDGE('',*,*,#849,.T.);
#1179=ORIENTED_EDGE('',*,*,#856,.T.);
#1180=ORIENTED_EDGE('',*,*,#845,.T.);
#1181=ORIENTED_EDGE('',*,*,#841,.T.);
#1182=ORIENTED_EDGE('',*,*,#840,.T.);
#1183=ORIENTED_EDGE('',*,*,#837,.T.);
#1184=ORIENTED_EDGE('',*,*,#831,.T.);
#1185=ORIENTED_EDGE('',*,*,#847,.T.);
#1186=ORIENTED_EDGE('',*,*,#864,.F.);
#1187=ORIENTED_EDGE('',*,*,#865,.F.);
#1188=ORIENTED_EDGE('',*,*,#803,.F.);
#1189=ORIENTED_EDGE('',*,*,#814,.F.);
#1190=ORIENTED_EDGE('',*,*,#860,.T.);
#1191=ORIENTED_EDGE('',*,*,#862,.F.);
#1192=ORIENTED_EDGE('',*,*,#866,.F.);
#1193=ORIENTED_EDGE('',*,*,#830,.T.);
#1194=ORIENTED_EDGE('',*,*,#815,.F.);
#1195=ORIENTED_EDGE('',*,*,#866,.T.);
#1196=ORIENTED_EDGE('',*,*,#861,.F.);
#1197=ORIENTED_EDGE('',*,*,#857,.F.);
#1198=ORIENTED_EDGE('',*,*,#804,.F.);
#1199=ORIENTED_EDGE('',*,*,#865,.T.);
#1200=ORIENTED_EDGE('',*,*,#863,.F.);
#1201=ORIENTED_EDGE('',*,*,#867,.F.);
#1202=ORIENTED_EDGE('',*,*,#868,.F.);
#1203=ORIENTED_EDGE('',*,*,#869,.F.);
#1204=ORIENTED_EDGE('',*,*,#870,.F.);
#1205=ORIENTED_EDGE('',*,*,#871,.F.);
#1206=ORIENTED_EDGE('',*,*,#872,.F.);
#1207=ORIENTED_EDGE('',*,*,#873,.F.);
#1208=ORIENTED_EDGE('',*,*,#874,.F.);
#1209=ORIENTED_EDGE('',*,*,#875,.T.);
#1210=ORIENTED_EDGE('',*,*,#876,.F.);
#1211=ORIENTED_EDGE('',*,*,#877,.F.);
#1212=ORIENTED_EDGE('',*,*,#878,.F.);
#1213=ORIENTED_EDGE('',*,*,#873,.T.);
#1214=ORIENTED_EDGE('',*,*,#879,.F.);
#1215=ORIENTED_EDGE('',*,*,#777,.T.);
#1216=ORIENTED_EDGE('',*,*,#880,.T.);
#1217=ORIENTED_EDGE('',*,*,#761,.F.);
#1218=ORIENTED_EDGE('',*,*,#778,.T.);
#1219=ORIENTED_EDGE('',*,*,#879,.T.);
#1220=ORIENTED_EDGE('',*,*,#878,.T.);
#1221=ORIENTED_EDGE('',*,*,#881,.F.);
#1222=ORIENTED_EDGE('',*,*,#882,.F.);
#1223=ORIENTED_EDGE('',*,*,#883,.F.);
#1224=ORIENTED_EDGE('',*,*,#871,.T.);
#1225=ORIENTED_EDGE('',*,*,#884,.T.);
#1226=ORIENTED_EDGE('',*,*,#770,.T.);
#1227=ORIENTED_EDGE('',*,*,#790,.F.);
#1228=ORIENTED_EDGE('',*,*,#826,.F.);
#1229=ORIENTED_EDGE('',*,*,#881,.T.);
#1230=ORIENTED_EDGE('',*,*,#877,.T.);
#1231=ORIENTED_EDGE('',*,*,#885,.F.);
#1232=ORIENTED_EDGE('',*,*,#886,.F.);
#1233=ORIENTED_EDGE('',*,*,#887,.T.);
#1234=ORIENTED_EDGE('',*,*,#888,.T.);
#1235=ORIENTED_EDGE('',*,*,#872,.T.);
#1236=ORIENTED_EDGE('',*,*,#883,.T.);
#1237=ORIENTED_EDGE('',*,*,#889,.F.);
#1238=ORIENTED_EDGE('',*,*,#890,.T.);
#1239=ORIENTED_EDGE('',*,*,#891,.T.);
#1240=ORIENTED_EDGE('',*,*,#892,.F.);
#1241=ORIENTED_EDGE('',*,*,#882,.T.);
#1242=ORIENTED_EDGE('',*,*,#888,.F.);
#1243=ORIENTED_EDGE('',*,*,#893,.T.);
#1244=ORIENTED_EDGE('',*,*,#889,.T.);
#1245=ORIENTED_EDGE('',*,*,#735,.T.);
#1246=ORIENTED_EDGE('',*,*,#732,.T.);
#1247=ORIENTED_EDGE('',*,*,#729,.T.);
#1248=ORIENTED_EDGE('',*,*,#738,.T.);
#1249=ORIENTED_EDGE('',*,*,#874,.T.);
#1250=ORIENTED_EDGE('',*,*,#880,.F.);
#1251=ORIENTED_EDGE('',*,*,#776,.F.);
#1252=ORIENTED_EDGE('',*,*,#894,.F.);
#1253=ORIENTED_EDGE('',*,*,#870,.T.);
#1254=ORIENTED_EDGE('',*,*,#895,.T.);
#1255=ORIENTED_EDGE('',*,*,#771,.F.);
#1256=ORIENTED_EDGE('',*,*,#884,.F.);
#1257=ORIENTED_EDGE('',*,*,#869,.T.);
#1258=ORIENTED_EDGE('',*,*,#896,.F.);
#1259=ORIENTED_EDGE('',*,*,#772,.F.);
#1260=ORIENTED_EDGE('',*,*,#895,.F.);
#1261=ORIENTED_EDGE('',*,*,#896,.T.);
#1262=ORIENTED_EDGE('',*,*,#868,.T.);
#1263=ORIENTED_EDGE('',*,*,#897,.F.);
#1264=ORIENTED_EDGE('',*,*,#773,.F.);
#1265=ORIENTED_EDGE('',*,*,#894,.T.);
#1266=ORIENTED_EDGE('',*,*,#775,.T.);
#1267=ORIENTED_EDGE('',*,*,#898,.F.);
#1268=ORIENTED_EDGE('',*,*,#875,.F.);
#1269=ORIENTED_EDGE('',*,*,#899,.T.);
#1270=ORIENTED_EDGE('',*,*,#886,.T.);
#1271=ORIENTED_EDGE('',*,*,#900,.F.);
#1272=ORIENTED_EDGE('',*,*,#891,.F.);
#1273=ORIENTED_EDGE('',*,*,#711,.T.);
#1274=ORIENTED_EDGE('',*,*,#708,.T.);
#1275=ORIENTED_EDGE('',*,*,#705,.T.);
#1276=ORIENTED_EDGE('',*,*,#714,.T.);
#1277=ORIENTED_EDGE('',*,*,#723,.T.);
#1278=ORIENTED_EDGE('',*,*,#720,.T.);
#1279=ORIENTED_EDGE('',*,*,#717,.T.);
#1280=ORIENTED_EDGE('',*,*,#726,.T.);
#1281=ORIENTED_EDGE('',*,*,#876,.T.);
#1282=ORIENTED_EDGE('',*,*,#898,.T.);
#1283=ORIENTED_EDGE('',*,*,#774,.T.);
#1284=ORIENTED_EDGE('',*,*,#897,.T.);
#1285=ORIENTED_EDGE('',*,*,#867,.T.);
#1286=ORIENTED_EDGE('',*,*,#892,.T.);
#1287=ORIENTED_EDGE('',*,*,#900,.T.);
#1288=ORIENTED_EDGE('',*,*,#885,.T.);
#1289=ORIENTED_EDGE('',*,*,#893,.F.);
#1290=ORIENTED_EDGE('',*,*,#887,.F.);
#1291=ORIENTED_EDGE('',*,*,#899,.F.);
#1292=ORIENTED_EDGE('',*,*,#890,.F.);
#1293=ORIENTED_EDGE('',*,*,#739,.T.);
#1294=ORIENTED_EDGE('',*,*,#749,.T.);
#1295=ORIENTED_EDGE('',*,*,#746,.T.);
#1296=ORIENTED_EDGE('',*,*,#743,.T.);
#1297=PLANE('',#1452);
#1298=PLANE('',#1453);
#1299=PLANE('',#1454);
#1300=PLANE('',#1455);
#1301=PLANE('',#1456);
#1302=PLANE('',#1457);
#1303=PLANE('',#1458);
#1304=PLANE('',#1459);
#1305=PLANE('',#1460);
#1306=PLANE('',#1461);
#1307=PLANE('',#1462);
#1308=PLANE('',#1463);
#1309=PLANE('',#1464);
#1310=PLANE('',#1465);
#1311=PLANE('',#1466);
#1312=PLANE('',#1467);
#1313=PLANE('',#1468);
#1314=PLANE('',#1469);
#1315=PLANE('',#1470);
#1316=PLANE('',#1471);
#1317=PLANE('',#1472);
#1318=PLANE('',#1473);
#1319=PLANE('',#1474);
#1320=PLANE('',#1475);
#1321=PLANE('',#1476);
#1322=PLANE('',#1477);
#1323=PLANE('',#1478);
#1324=PLANE('',#1479);
#1325=PLANE('',#1480);
#1326=PLANE('',#1481);
#1327=PLANE('',#1482);
#1328=PLANE('',#1483);
#1329=PLANE('',#1484);
#1330=PLANE('',#1485);
#1331=PLANE('',#1486);
#1332=PLANE('',#1487);
#1333=PLANE('',#1488);
#1334=PLANE('',#1489);
#1335=PLANE('',#1490);
#1336=PLANE('',#1491);
#1337=PLANE('',#1492);
#1338=PLANE('',#1493);
#1339=PLANE('',#1494);
#1340=PLANE('',#1495);
#1341=PLANE('',#1496);
#1342=PLANE('',#1497);
#1343=PLANE('',#1498);
#1344=PLANE('',#1499);
#1345=PLANE('',#1500);
#1346=PLANE('',#1501);
#1347=PLANE('',#1502);
#1348=PLANE('',#1503);
#1349=PLANE('',#1504);
#1350=PLANE('',#1505);
#1351=PLANE('',#1506);
#1352=PLANE('',#1507);
#1353=PLANE('',#1508);
#1354=PLANE('',#1509);
#1355=PLANE('',#1510);
#1356=PLANE('',#1511);
#1357=PLANE('',#1512);
#1358=PLANE('',#1513);
#1359=PLANE('',#1514);
#1360=PLANE('',#1515);
#1361=PLANE('',#1516);
#1362=PLANE('',#1517);
#1363=PLANE('',#1518);
#1364=PLANE('',#1519);
#1365=PLANE('',#1520);
#1366=PLANE('',#1521);
#1367=ADVANCED_FACE('',(#27),#1297,.F.);
#1368=ADVANCED_FACE('',(#28),#1298,.F.);
#1369=ADVANCED_FACE('',(#29),#1299,.F.);
#1370=ADVANCED_FACE('',(#30),#1300,.F.);
#1371=ADVANCED_FACE('',(#31),#1301,.F.);
#1372=ADVANCED_FACE('',(#32),#1302,.F.);
#1373=ADVANCED_FACE('',(#33),#1303,.F.);
#1374=ADVANCED_FACE('',(#34),#1304,.F.);
#1375=ADVANCED_FACE('',(#35),#1305,.F.);
#1376=ADVANCED_FACE('',(#36),#1306,.F.);
#1377=ADVANCED_FACE('',(#37),#1307,.F.);
#1378=ADVANCED_FACE('',(#38),#1308,.F.);
#1379=ADVANCED_FACE('',(#39),#1309,.F.);
#1380=ADVANCED_FACE('',(#40),#1310,.F.);
#1381=ADVANCED_FACE('',(#41),#1311,.F.);
#1382=ADVANCED_FACE('',(#42),#1312,.F.);
#1383=ADVANCED_FACE('',(#43),#1313,.F.);
#1384=ADVANCED_FACE('',(#44),#1314,.T.);
#1385=ADVANCED_FACE('',(#45),#1315,.T.);
#1386=ADVANCED_FACE('',(#46),#1316,.T.);
#1387=ADVANCED_FACE('',(#47),#1317,.F.);
#1388=ADVANCED_FACE('',(#48,#19,#20),#1318,.F.);
#1389=ADVANCED_FACE('',(#49),#1319,.T.);
#1390=ADVANCED_FACE('',(#50),#1320,.T.);
#1391=ADVANCED_FACE('',(#51),#1321,.T.);
#1392=ADVANCED_FACE('',(#52),#1322,.F.);
#1393=ADVANCED_FACE('',(#53,#21),#1323,.T.);
#1394=ADVANCED_FACE('',(#54),#1324,.T.);
#1395=ADVANCED_FACE('',(#55),#1325,.T.);
#1396=ADVANCED_FACE('',(#56),#1326,.T.);
#1397=ADVANCED_FACE('',(#57),#1327,.T.);
#1398=ADVANCED_FACE('',(#58),#1328,.T.);
#1399=ADVANCED_FACE('',(#59),#1329,.T.);
#1400=ADVANCED_FACE('',(#60,#22),#1330,.F.);
#1401=ADVANCED_FACE('',(#61),#1331,.T.);
#1402=ADVANCED_FACE('',(#62),#1332,.T.);
#1403=ADVANCED_FACE('',(#63),#1333,.T.);
#1404=ADVANCED_FACE('',(#64),#1334,.T.);
#1405=ADVANCED_FACE('',(#65),#1335,.T.);
#1406=ADVANCED_FACE('',(#66),#1336,.T.);
#1407=ADVANCED_FACE('',(#67),#1337,.T.);
#1408=ADVANCED_FACE('',(#68),#1338,.T.);
#1409=ADVANCED_FACE('',(#69),#1339,.T.);
#1410=ADVANCED_FACE('',(#70),#1340,.T.);
#1411=ADVANCED_FACE('',(#71),#1341,.T.);
#1412=ADVANCED_FACE('',(#72),#1342,.T.);
#1413=ADVANCED_FACE('',(#73),#1343,.T.);
#1414=ADVANCED_FACE('',(#74),#1344,.T.);
#1415=ADVANCED_FACE('',(#75),#1345,.T.);
#1416=ADVANCED_FACE('',(#76),#1346,.T.);
#1417=ADVANCED_FACE('',(#77),#1347,.T.);
#1418=ADVANCED_FACE('',(#78),#1348,.T.);
#1419=ADVANCED_FACE('',(#79),#1349,.T.);
#1420=ADVANCED_FACE('',(#80),#1350,.T.);
#1421=ADVANCED_FACE('',(#81),#1351,.T.);
#1422=ADVANCED_FACE('',(#82),#1352,.F.);
#1423=ADVANCED_FACE('',(#83),#1353,.F.);
#1424=ADVANCED_FACE('',(#84),#1354,.F.);
#1425=ADVANCED_FACE('',(#85),#1355,.T.);
#1426=ADVANCED_FACE('',(#86),#1356,.T.);
#1427=ADVANCED_FACE('',(#87),#1357,.T.);
#1428=ADVANCED_FACE('',(#88,#23),#1358,.T.);
#1429=ADVANCED_FACE('',(#89),#1359,.F.);
#1430=ADVANCED_FACE('',(#90),#1360,.F.);
#1431=ADVANCED_FACE('',(#91),#1361,.F.);
#1432=ADVANCED_FACE('',(#92),#1362,.F.);
#1433=ADVANCED_FACE('',(#93),#1363,.F.);
#1434=ADVANCED_FACE('',(#94,#24,#25),#1364,.T.);
#1435=ADVANCED_FACE('',(#95),#1365,.T.);
#1436=ADVANCED_FACE('',(#96,#26),#1366,.F.);
#1437=CLOSED_SHELL('',(#1367,#1368,#1369,#1370,#1371,#1372,#1373,#1374,
#1375,#1376,#1377,#1378,#1379,#1380,#1381,#1382,#1383,#1384,#1385,#1386,
#1387,#1388,#1389,#1390,#1391,#1392,#1393,#1394,#1395,#1396,#1397,#1398,
#1399,#1400,#1401,#1402,#1403,#1404,#1405,#1406,#1407,#1408,#1409,#1410,
#1411,#1412,#1413,#1414,#1415,#1416,#1417,#1418,#1419,#1420,#1421,#1422,
#1423,#1424,#1425,#1426,#1427,#1428,#1429,#1430,#1431,#1432,#1433,#1434,
#1435,#1436));
#1438=DERIVED_UNIT_ELEMENT(#1440,1.);
#1439=DERIVED_UNIT_ELEMENT(#2277,-3.);
#1440=(
MASS_UNIT()
NAMED_UNIT(*)
SI_UNIT(.KILO.,.GRAM.)
);
#1441=DERIVED_UNIT((#1438,#1439));
#1442=MEASURE_REPRESENTATION_ITEM('density measure',
POSITIVE_RATIO_MEASURE(7850.),#1441);
#1443=PROPERTY_DEFINITION_REPRESENTATION(#1448,#1445);
#1444=PROPERTY_DEFINITION_REPRESENTATION(#1449,#1446);
#1445=REPRESENTATION('material name',(#1447),#2274);
#1446=REPRESENTATION('density',(#1442),#2274);
#1447=DESCRIPTIVE_REPRESENTATION_ITEM('A\X\E7o','A\X\E7o');
#1448=PROPERTY_DEFINITION('material property','material name',#2289);
#1449=PROPERTY_DEFINITION('material property','density of part',#2289);
#1450=AXIS2_PLACEMENT_3D('',#1867,#1523,#1524);
#1451=AXIS2_PLACEMENT_3D('',#1868,#1525,#1526);
#1452=AXIS2_PLACEMENT_3D('',#1869,#1527,#1528);
#1453=AXIS2_PLACEMENT_3D('',#1878,#1533,#1534);
#1454=AXIS2_PLACEMENT_3D('',#1884,#1538,#1539);
#1455=AXIS2_PLACEMENT_3D('',#1890,#1543,#1544);
#1456=AXIS2_PLACEMENT_3D('',#1893,#1547,#1548);
#1457=AXIS2_PLACEMENT_3D('',#1902,#1553,#1554);
#1458=AXIS2_PLACEMENT_3D('',#1908,#1558,#1559);
#1459=AXIS2_PLACEMENT_3D('',#1914,#1563,#1564);
#1460=AXIS2_PLACEMENT_3D('',#1917,#1567,#1568);
#1461=AXIS2_PLACEMENT_3D('',#1926,#1573,#1574);
#1462=AXIS2_PLACEMENT_3D('',#1932,#1578,#1579);
#1463=AXIS2_PLACEMENT_3D('',#1938,#1583,#1584);
#1464=AXIS2_PLACEMENT_3D('',#1941,#1587,#1588);
#1465=AXIS2_PLACEMENT_3D('',#1950,#1593,#1594);
#1466=AXIS2_PLACEMENT_3D('',#1956,#1598,#1599);
#1467=AXIS2_PLACEMENT_3D('',#1962,#1603,#1604);
#1468=AXIS2_PLACEMENT_3D('',#1965,#1607,#1608);
#1469=AXIS2_PLACEMENT_3D('',#1966,#1609,#1610);
#1470=AXIS2_PLACEMENT_3D('',#1975,#1615,#1616);
#1471=AXIS2_PLACEMENT_3D('',#1981,#1620,#1621);
#1472=AXIS2_PLACEMENT_3D('',#1985,#1624,#1625);
#1473=AXIS2_PLACEMENT_3D('',#1997,#1632,#1633);
#1474=AXIS2_PLACEMENT_3D('',#2023,#1647,#1648);
#1475=AXIS2_PLACEMENT_3D('',#2029,#1652,#1653);
#1476=AXIS2_PLACEMENT_3D('',#2035,#1657,#1658);
#1477=AXIS2_PLACEMENT_3D('',#2037,#1660,#1661);
#1478=AXIS2_PLACEMENT_3D('',#2047,#1667,#1668);
#1479=AXIS2_PLACEMENT_3D('',#2097,#1694,#1695);
#1480=AXIS2_PLACEMENT_3D('',#2103,#1699,#1700);
#1481=AXIS2_PLACEMENT_3D('',#2105,#1702,#1703);
#1482=AXIS2_PLACEMENT_3D('',#2107,#1705,#1706);
#1483=AXIS2_PLACEMENT_3D('',#2113,#1710,#1711);
#1484=AXIS2_PLACEMENT_3D('',#2115,#1713,#1714);
#1485=AXIS2_PLACEMENT_3D('',#2117,#1716,#1717);
#1486=AXIS2_PLACEMENT_3D('',#2119,#1719,#1720);
#1487=AXIS2_PLACEMENT_3D('',#2125,#1724,#1725);
#1488=AXIS2_PLACEMENT_3D('',#2131,#1729,#1730);
#1489=AXIS2_PLACEMENT_3D('',#2137,#1734,#1735);
#1490=AXIS2_PLACEMENT_3D('',#2139,#1737,#1738);
#1491=AXIS2_PLACEMENT_3D('',#2143,#1741,#1742);
#1492=AXIS2_PLACEMENT_3D('',#2147,#1745,#1746);
#1493=AXIS2_PLACEMENT_3D('',#2151,#1749,#1750);
#1494=AXIS2_PLACEMENT_3D('',#2155,#1753,#1754);
#1495=AXIS2_PLACEMENT_3D('',#2159,#1757,#1758);
#1496=AXIS2_PLACEMENT_3D('',#2165,#1762,#1763);
#1497=AXIS2_PLACEMENT_3D('',#2171,#1767,#1768);
#1498=AXIS2_PLACEMENT_3D('',#2175,#1771,#1772);
#1499=AXIS2_PLACEMENT_3D('',#2177,#1774,#1775);
#1500=AXIS2_PLACEMENT_3D('',#2179,#1777,#1778);
#1501=AXIS2_PLACEMENT_3D('',#2183,#1781,#1782);
#1502=AXIS2_PLACEMENT_3D('',#2187,#1785,#1786);
#1503=AXIS2_PLACEMENT_3D('',#2194,#1791,#1792);
#1504=AXIS2_PLACEMENT_3D('',#2196,#1794,#1795);
#1505=AXIS2_PLACEMENT_3D('',#2198,#1797,#1798);
#1506=AXIS2_PLACEMENT_3D('',#2199,#1799,#1800);
#1507=AXIS2_PLACEMENT_3D('',#2200,#1801,#1802);
#1508=AXIS2_PLACEMENT_3D('',#2213,#1809,#1810);
#1509=AXIS2_PLACEMENT_3D('',#2226,#1817,#1818);
#1510=AXIS2_PLACEMENT_3D('',#2229,#1821,#1822);
#1511=AXIS2_PLACEMENT_3D('',#2236,#1827,#1828);
#1512=AXIS2_PLACEMENT_3D('',#2244,#1833,#1834);
#1513=AXIS2_PLACEMENT_3D('',#2252,#1839,#1840);
#1514=AXIS2_PLACEMENT_3D('',#2254,#1842,#1843);
#1515=AXIS2_PLACEMENT_3D('',#2256,#1845,#1846);
#1516=AXIS2_PLACEMENT_3D('',#2258,#1848,#1849);
#1517=AXIS2_PLACEMENT_3D('',#2260,#1851,#1852);
#1518=AXIS2_PLACEMENT_3D('',#2262,#1854,#1855);
#1519=AXIS2_PLACEMENT_3D('',#2264,#1857,#1858);
#1520=AXIS2_PLACEMENT_3D('',#2267,#1861,#1862);
#1521=AXIS2_PLACEMENT_3D('',#2268,#1863,#1864);
#1522=AXIS2_PLACEMENT_3D('',#2269,#1865,#1866);
#1523=DIRECTION('axis',(0.,0.,1.));
#1524=DIRECTION('refdir',(1.,0.,0.));
#1525=DIRECTION('axis',(0.,0.,1.));
#1526=DIRECTION('refdir',(1.,0.,0.));
#1527=DIRECTION('center_axis',(0.,0.,1.));
#1528=DIRECTION('ref_axis',(0.,-1.,0.));
#1529=DIRECTION('',(0.,-1.,0.));
#1530=DIRECTION('',(1.,0.,0.));
#1531=DIRECTION('',(0.,1.,0.));
#1532=DIRECTION('',(1.,0.,0.));
#1533=DIRECTION('center_axis',(0.,-1.,0.));
#1534=DIRECTION('ref_axis',(0.,0.,-1.));
#1535=DIRECTION('',(0.,0.,-1.));
#1536=DIRECTION('',(0.,0.,1.));
#1537=DIRECTION('',(1.,0.,0.));
#1538=DIRECTION('center_axis',(0.,0.,-1.));
#1539=DIRECTION('ref_axis',(0.,1.,0.));
#1540=DIRECTION('',(0.,1.,0.));
#1541=DIRECTION('',(0.,-1.,0.));
#1542=DIRECTION('',(1.,0.,0.));
#1543=DIRECTION('center_axis',(0.,1.,0.));
#1544=DIRECTION('ref_axis',(0.,0.,1.));
#1545=DIRECTION('',(0.,0.,1.));
#1546=DIRECTION('',(0.,0.,-1.));
#1547=DIRECTION('center_axis',(0.,0.,1.));
#1548=DIRECTION('ref_axis',(0.,-1.,0.));
#1549=DIRECTION('',(0.,-1.,0.));
#1550=DIRECTION('',(1.,0.,0.));
#1551=DIRECTION('',(0.,1.,0.));
#1552=DIRECTION('',(1.,0.,0.));
#1553=DIRECTION('center_axis',(0.,-1.,0.));
#1554=DIRECTION('ref_axis',(0.,0.,-1.));
#1555=DIRECTION('',(0.,0.,-1.));
#1556=DIRECTION('',(0.,0.,1.));
#1557=DIRECTION('',(1.,0.,0.));
#1558=DIRECTION('center_axis',(0.,0.,-1.));
#1559=DIRECTION('ref_axis',(0.,1.,0.));
#1560=DIRECTION('',(0.,1.,0.));
#1561=DIRECTION('',(0.,-1.,0.));
#1562=DIRECTION('',(1.,0.,0.));
#1563=DIRECTION('center_axis',(0.,1.,0.));
#1564=DIRECTION('ref_axis',(0.,0.,1.));
#1565=DIRECTION('',(0.,0.,1.));
#1566=DIRECTION('',(0.,0.,-1.));
#1567=DIRECTION('center_axis',(0.,0.,1.));
#1568=DIRECTION('ref_axis',(0.,-1.,0.));
#1569=DIRECTION('',(0.,1.,0.));
#1570=DIRECTION('',(1.,0.,0.));
#1571=DIRECTION('',(0.,-1.,0.));
#1572=DIRECTION('',(1.,0.,0.));
#1573=DIRECTION('center_axis',(0.,1.,0.));
#1574=DIRECTION('ref_axis',(0.,0.,1.));
#1575=DIRECTION('',(0.,0.,-1.));
#1576=DIRECTION('',(0.,0.,1.));
#1577=DIRECTION('',(1.,0.,0.));
#1578=DIRECTION('center_axis',(0.,0.,-1.));
#1579=DIRECTION('ref_axis',(0.,1.,0.));
#1580=DIRECTION('',(0.,-1.,0.));
#1581=DIRECTION('',(0.,1.,0.));
#1582=DIRECTION('',(1.,0.,0.));
#1583=DIRECTION('center_axis',(0.,-1.,0.));
#1584=DIRECTION('ref_axis',(0.,0.,-1.));
#1585=DIRECTION('',(0.,0.,1.));
#1586=DIRECTION('',(0.,0.,-1.));
#1587=DIRECTION('center_axis',(0.,1.,0.));
#1588=DIRECTION('ref_axis',(-1.,0.,0.));
#1589=DIRECTION('',(-1.,0.,0.));
#1590=DIRECTION('',(0.,0.,1.));
#1591=DIRECTION('',(-1.,0.,0.));
#1592=DIRECTION('',(0.,0.,1.));
#1593=DIRECTION('center_axis',(1.,0.,0.));
#1594=DIRECTION('ref_axis',(0.,1.,0.));
#1595=DIRECTION('',(0.,1.,0.));
#1596=DIRECTION('',(0.,0.,1.));
#1597=DIRECTION('',(0.,1.,0.));
#1598=DIRECTION('center_axis',(0.,-1.,0.));
#1599=DIRECTION('ref_axis',(1.,0.,0.));
#1600=DIRECTION('',(1.,0.,0.));
#1601=DIRECTION('',(0.,0.,1.));
#1602=DIRECTION('',(1.,0.,0.));
#1603=DIRECTION('center_axis',(-1.,0.,0.));
#1604=DIRECTION('ref_axis',(0.,-1.,0.));
#1605=DIRECTION('',(0.,-1.,0.));
#1606=DIRECTION('',(0.,-1.,0.));
#1607=DIRECTION('center_axis',(0.,0.,1.));
#1608=DIRECTION('ref_axis',(1.,0.,0.));
#1609=DIRECTION('center_axis',(-1.,0.,0.));
#1610=DIRECTION('ref_axis',(0.,-1.,0.));
#1611=DIRECTION('',(0.,0.,1.));
#1612=DIRECTION('',(0.,1.,0.));
#1613=DIRECTION('',(0.,0.,1.));
#1614=DIRECTION('',(0.,-1.,0.));
#1615=DIRECTION('center_axis',(0.,-1.,0.));
#1616=DIRECTION('ref_axis',(1.,0.,0.));
#1617=DIRECTION('',(-1.,0.,0.));
#1618=DIRECTION('',(0.,0.,-1.));
#1619=DIRECTION('',(1.,0.,0.));
#1620=DIRECTION('center_axis',(0.,0.,1.));
#1621=DIRECTION('ref_axis',(1.,0.,0.));
#1622=DIRECTION('',(1.,0.,0.));
#1623=DIRECTION('',(0.,-1.,0.));
#1624=DIRECTION('center_axis',(0.,1.,0.));
#1625=DIRECTION('ref_axis',(-1.,0.,0.));
#1626=DIRECTION('',(0.,0.,1.));
#1627=DIRECTION('',(-1.,0.,0.));
#1628=DIRECTION('',(0.,0.,1.));
#1629=DIRECTION('',(1.,0.,0.));
#1630=DIRECTION('',(0.,0.,-1.));
#1631=DIRECTION('',(-1.,0.,0.));
#1632=DIRECTION('center_axis',(1.,0.,0.));
#1633=DIRECTION('ref_axis',(0.,1.,0.));
#1634=DIRECTION('',(0.,1.,0.));
#1635=DIRECTION('',(0.,0.,1.));
#1636=DIRECTION('',(0.,-1.,0.));
#1637=DIRECTION('',(0.,0.,1.));
#1638=DIRECTION('',(0.,1.,0.));
#1639=DIRECTION('',(0.,0.,1.));
#1640=DIRECTION('',(0.,1.,0.));
#1641=DIRECTION('',(0.,0.,1.));
#1642=DIRECTION('',(0.,-1.,0.));
#1643=DIRECTION('',(0.,0.,1.));
#1644=DIRECTION('',(0.,1.,0.));
#1645=DIRECTION('',(0.,0.,1.));
#1646=DIRECTION('',(0.,1.,0.));
#1647=DIRECTION('center_axis',(0.,1.,0.));
#1648=DIRECTION('ref_axis',(-1.,0.,0.));
#1649=DIRECTION('',(1.,0.,0.));
#1650=DIRECTION('',(0.,0.,1.));
#1651=DIRECTION('',(-1.,0.,0.));
#1652=DIRECTION('center_axis',(-1.,0.,0.));
#1653=DIRECTION('ref_axis',(0.,-1.,0.));
#1654=DIRECTION('',(0.,1.,0.));
#1655=DIRECTION('',(0.,0.,-1.));
#1656=DIRECTION('',(0.,-1.,0.));
#1657=DIRECTION('center_axis',(0.,0.,1.));
#1658=DIRECTION('ref_axis',(1.,0.,0.));
#1659=DIRECTION('',(-1.,0.,0.));
#1660=DIRECTION('center_axis',(0.,-1.,0.));
#1661=DIRECTION('ref_axis',(1.,0.,0.));
#1662=DIRECTION('',(1.,0.,0.));
#1663=DIRECTION('',(0.,0.,1.));
#1664=DIRECTION('',(-1.,0.,0.));
#1665=DIRECTION('',(0.,0.,1.));
#1666=DIRECTION('',(1.,0.,0.));
#1667=DIRECTION('center_axis',(0.,0.,1.));
#1668=DIRECTION('ref_axis',(1.,0.,0.));
#1669=DIRECTION('',(0.,-1.,0.));
#1670=DIRECTION('',(-1.,0.,0.));
#1671=DIRECTION('',(0.,-1.,0.));
#1672=DIRECTION('',(1.,0.,0.));
#1673=DIRECTION('',(0.,-1.,0.));
#1674=DIRECTION('',(0.,-1.,0.));
#1675=DIRECTION('',(-1.,0.,0.));
#1676=DIRECTION('',(0.,1.,0.));
#1677=DIRECTION('',(-1.,0.,0.));
#1678=DIRECTION('',(0.,-1.,0.));
#1679=DIRECTION('',(-1.,0.,0.));
#1680=DIRECTION('',(0.,1.,0.));
#1681=DIRECTION('',(-1.,0.,0.));
#1682=DIRECTION('',(0.,1.,0.));
#1683=DIRECTION('',(1.,0.,0.));
#1684=DIRECTION('',(0.,1.,0.));
#1685=DIRECTION('',(1.,0.,0.));
#1686=DIRECTION('',(0.,-1.,0.));
#1687=DIRECTION('',(1.,0.,0.));
#1688=DIRECTION('',(0.,1.,0.));
#1689=DIRECTION('',(1.,0.,0.));
#1690=DIRECTION('',(0.,-1.,0.));
#1691=DIRECTION('',(1.,0.,0.));
#1692=DIRECTION('',(0.,-1.,0.));
#1693=DIRECTION('',(-1.,0.,0.));
#1694=DIRECTION('center_axis',(0.,0.,1.));
#1695=DIRECTION('ref_axis',(1.,0.,0.));
#1696=DIRECTION('',(0.,1.,0.));
#1697=DIRECTION('',(1.,0.,0.));
#1698=DIRECTION('',(0.,1.,0.));
#1699=DIRECTION('center_axis',(1.,0.,0.));
#1700=DIRECTION('ref_axis',(0.,1.,0.));
#1701=DIRECTION('',(0.,0.,1.));
#1702=DIRECTION('center_axis',(0.,-1.,0.));
#1703=DIRECTION('ref_axis',(1.,0.,0.));
#1704=DIRECTION('',(0.,0.,1.));
#1705=DIRECTION('center_axis',(0.,1.,0.));
#1706=DIRECTION('ref_axis',(-1.,0.,0.));
#1707=DIRECTION('',(0.,0.,-1.));
#1708=DIRECTION('',(-1.,0.,0.));
#1709=DIRECTION('',(0.,0.,1.));
#1710=DIRECTION('center_axis',(1.,0.,0.));
#1711=DIRECTION('ref_axis',(0.,1.,0.));
#1712=DIRECTION('',(0.,1.,0.));
#1713=DIRECTION('center_axis',(0.,0.,1.));
#1714=DIRECTION('ref_axis',(1.,0.,0.));
#1715=DIRECTION('',(0.,1.,0.));
#1716=DIRECTION('center_axis',(-1.,0.,0.));
#1717=DIRECTION('ref_axis',(0.,-1.,0.));
#1718=DIRECTION('',(0.,-1.,0.));
#1719=DIRECTION('center_axis',(1.,0.,0.));
#1720=DIRECTION('ref_axis',(0.,1.,0.));
#1721=DIRECTION('',(0.,0.,1.));
#1722=DIRECTION('',(0.,0.,1.));
#1723=DIRECTION('',(0.,1.,0.));
#1724=DIRECTION('center_axis',(1.,0.,0.));
#1725=DIRECTION('ref_axis',(0.,1.,0.));
#1726=DIRECTION('',(0.,0.,-1.));
#1727=DIRECTION('',(0.,1.,0.));
#1728=DIRECTION('',(0.,0.,1.));
#1729=DIRECTION('center_axis',(-1.,0.,0.));
#1730=DIRECTION('ref_axis',(0.,-1.,0.));
#1731=DIRECTION('',(0.,0.,-1.));
#1732=DIRECTION('',(0.,-1.,0.));
#1733=DIRECTION('',(0.,0.,1.));
#1734=DIRECTION('center_axis',(0.,1.,0.));
#1735=DIRECTION('ref_axis',(-1.,0.,0.));
#1736=DIRECTION('',(-1.,0.,0.));
#1737=DIRECTION('center_axis',(0.,-1.,0.));
#1738=DIRECTION('ref_axis',(1.,0.,0.));
#1739=DIRECTION('',(1.,0.,0.));
#1740=DIRECTION('',(0.,0.,1.));
#1741=DIRECTION('center_axis',(-1.,0.,0.));
#1742=DIRECTION('ref_axis',(0.,-1.,0.));
#1743=DIRECTION('',(0.,0.,1.));
#1744=DIRECTION('',(0.,-1.,0.));
#1745=DIRECTION('center_axis',(0.,-1.,0.));
#1746=DIRECTION('ref_axis',(1.,0.,0.));
#1747=DIRECTION('',(1.,0.,0.));
#1748=DIRECTION('',(0.,0.,-1.));
#1749=DIRECTION('center_axis',(0.,1.,0.));
#1750=DIRECTION('ref_axis',(-1.,0.,0.));
#1751=DIRECTION('',(0.,0.,1.));
#1752=DIRECTION('',(-1.,0.,0.));
#1753=DIRECTION('center_axis',(1.,0.,0.));
#1754=DIRECTION('ref_axis',(0.,1.,0.));
#1755=DIRECTION('',(0.,1.,0.));
#1756=DIRECTION('',(0.,0.,1.));
#1757=DIRECTION('center_axis',(-1.,0.,0.));
#1758=DIRECTION('ref_axis',(0.,-1.,0.));
#1759=DIRECTION('',(0.,0.,1.));
#1760=DIRECTION('',(0.,0.,1.));
#1761=DIRECTION('',(0.,-1.,0.));
#1762=DIRECTION('center_axis',(-1.,0.,0.));
#1763=DIRECTION('ref_axis',(0.,-1.,0.));
#1764=DIRECTION('',(0.,0.,-1.));
#1765=DIRECTION('',(0.,-1.,0.));
#1766=DIRECTION('',(0.,0.,1.));
#1767=DIRECTION('center_axis',(0.,1.,0.));
#1768=DIRECTION('ref_axis',(-1.,0.,0.));
#1769=DIRECTION('',(-1.,0.,0.));
#1770=DIRECTION('',(0.,0.,1.));
#1771=DIRECTION('center_axis',(1.,0.,0.));
#1772=DIRECTION('ref_axis',(0.,1.,0.));
#1773=DIRECTION('',(0.,1.,0.));
#1774=DIRECTION('center_axis',(0.,-1.,0.));
#1775=DIRECTION('ref_axis',(1.,0.,0.));
#1776=DIRECTION('',(1.,0.,0.));
#1777=DIRECTION('center_axis',(0.,1.,0.));
#1778=DIRECTION('ref_axis',(-1.,0.,0.));
#1779=DIRECTION('',(0.,0.,1.));
#1780=DIRECTION('',(-1.,0.,0.));
#1781=DIRECTION('center_axis',(0.,1.,0.));
#1782=DIRECTION('ref_axis',(-1.,0.,0.));
#1783=DIRECTION('',(-1.,0.,0.));
#1784=DIRECTION('',(0.,0.,1.));
#1785=DIRECTION('center_axis',(0.,0.,1.));
#1786=DIRECTION('ref_axis',(1.,0.,0.));
#1787=DIRECTION('',(1.,0.,0.));
#1788=DIRECTION('',(0.,1.,0.));
#1789=DIRECTION('',(0.,-1.,0.));
#1790=DIRECTION('',(1.,0.,0.));
#1791=DIRECTION('center_axis',(0.,-1.,0.));
#1792=DIRECTION('ref_axis',(1.,0.,0.));
#1793=DIRECTION('',(0.,0.,1.));
#1794=DIRECTION('center_axis',(1.,0.,0.));
#1795=DIRECTION('ref_axis',(0.,1.,0.));
#1796=DIRECTION('',(0.,0.,1.));
#1797=DIRECTION('center_axis',(0.,-1.,0.));
#1798=DIRECTION('ref_axis',(1.,0.,0.));
#1799=DIRECTION('center_axis',(-1.,0.,0.));
#1800=DIRECTION('ref_axis',(0.,-1.,0.));
#1801=DIRECTION('center_axis',(1.,0.,0.));
#1802=DIRECTION('ref_axis',(0.,1.,0.));
#1803=DIRECTION('',(0.,-1.,0.));
#1804=DIRECTION('',(0.,0.,1.));
#1805=DIRECTION('',(0.,1.,0.));
#1806=DIRECTION('',(0.,0.,1.));
#1807=DIRECTION('',(0.,1.,0.));
#1808=DIRECTION('',(0.,0.,-1.));
#1809=DIRECTION('center_axis',(1.,0.,0.));
#1810=DIRECTION('ref_axis',(0.,1.,0.));
#1811=DIRECTION('',(0.,0.,-1.));
#1812=DIRECTION('',(0.,1.,0.));
#1813=DIRECTION('',(0.,0.,1.));
#1814=DIRECTION('',(0.,-1.,0.));
#1815=DIRECTION('',(0.,0.,1.));
#1816=DIRECTION('',(0.,1.,0.));
#1817=DIRECTION('center_axis',(0.,1.,0.));
#1818=DIRECTION('ref_axis',(-1.,0.,0.));
#1819=DIRECTION('',(-1.,0.,0.));
#1820=DIRECTION('',(-1.,0.,0.));
#1821=DIRECTION('center_axis',(0.,0.,1.));
#1822=DIRECTION('ref_axis',(1.,0.,0.));
#1823=DIRECTION('',(1.,6.04203006598725E-17,0.));
#1824=DIRECTION('',(0.,1.,0.));
#1825=DIRECTION('',(-1.,0.,0.));
#1826=DIRECTION('',(1.,0.,0.));
#1827=DIRECTION('center_axis',(-6.04203006598725E-17,1.,0.));
#1828=DIRECTION('ref_axis',(-1.,-6.04203006598725E-17,0.));
#1829=DIRECTION('',(-1.,-6.04203006598725E-17,0.));
#1830=DIRECTION('',(0.,0.,1.));
#1831=DIRECTION('',(-1.,-6.04203006598725E-17,0.));
#1832=DIRECTION('',(0.,0.,1.));
#1833=DIRECTION('center_axis',(0.,-1.,0.));
#1834=DIRECTION('ref_axis',(1.,0.,0.));
#1835=DIRECTION('',(0.,0.,1.));
#1836=DIRECTION('',(1.,0.,0.));
#1837=DIRECTION('',(0.,0.,1.));
#1838=DIRECTION('',(1.,0.,0.));
#1839=DIRECTION('center_axis',(-1.,0.,0.));
#1840=DIRECTION('ref_axis',(0.,-1.,0.));
#1841=DIRECTION('',(0.,-1.,0.));
#1842=DIRECTION('center_axis',(0.,0.,1.));
#1843=DIRECTION('ref_axis',(1.,0.,0.));
#1844=DIRECTION('',(1.,0.,0.));
#1845=DIRECTION('center_axis',(0.,-1.,0.));
#1846=DIRECTION('ref_axis',(1.,0.,0.));
#1847=DIRECTION('',(1.,0.,0.));
#1848=DIRECTION('center_axis',(0.,0.,1.));
#1849=DIRECTION('ref_axis',(1.,0.,0.));
#1850=DIRECTION('',(-1.,0.,0.));
#1851=DIRECTION('center_axis',(0.,-1.,0.));
#1852=DIRECTION('ref_axis',(1.,0.,0.));
#1853=DIRECTION('',(-1.,0.,0.));
#1854=DIRECTION('center_axis',(0.,1.,0.));
#1855=DIRECTION('ref_axis',(-1.,0.,0.));
#1856=DIRECTION('',(1.,0.,0.));
#1857=DIRECTION('center_axis',(1.,0.,0.));
#1858=DIRECTION('ref_axis',(0.,1.,0.));
#1859=DIRECTION('',(0.,1.,0.));
#1860=DIRECTION('',(0.,1.,0.));
#1861=DIRECTION('center_axis',(0.,0.,1.));
#1862=DIRECTION('ref_axis',(1.,0.,0.));
#1863=DIRECTION('center_axis',(0.,0.,1.));
#1864=DIRECTION('ref_axis',(1.,0.,0.));
#1865=DIRECTION('',(-3.57117791694091E-16,3.33563649061606E-16,1.));
#1866=DIRECTION('',(1.,1.16573417585641E-15,8.32667268468869E-16));
#1867=CARTESIAN_POINT('',(0.,0.,0.));
#1868=CARTESIAN_POINT('',(0.,0.,0.));
#1869=CARTESIAN_POINT('Origin',(137.,44.,29.));
#1870=CARTESIAN_POINT('',(138.,44.,29.));
#1871=CARTESIAN_POINT('',(138.,28.,29.));
#1872=CARTESIAN_POINT('',(138.,20.5,29.));
#1873=CARTESIAN_POINT('',(141.,44.,29.));
#1874=CARTESIAN_POINT('',(137.,44.,29.));
#1875=CARTESIAN_POINT('',(141.,28.,29.));
#1876=CARTESIAN_POINT('',(141.,18.5,29.));
#1877=CARTESIAN_POINT('',(137.,28.,29.));
#1878=CARTESIAN_POINT('Origin',(137.,28.,29.));
#1879=CARTESIAN_POINT('',(138.,28.,19.5));
#1880=CARTESIAN_POINT('',(138.,28.,12.));
#1881=CARTESIAN_POINT('',(141.,28.,19.5));
#1882=CARTESIAN_POINT('',(141.,28.,10.5));
#1883=CARTESIAN_POINT('',(137.,28.,19.5));
#1884=CARTESIAN_POINT('Origin',(137.,28.,19.5));
#1885=CARTESIAN_POINT('',(138.,44.,19.5));
#1886=CARTESIAN_POINT('',(138.,12.5,19.5));
#1887=CARTESIAN_POINT('',(141.,44.,19.5));
#1888=CARTESIAN_POINT('',(141.,10.5,19.5));
#1889=CARTESIAN_POINT('',(137.,44.,19.5));
#1890=CARTESIAN_POINT('Origin',(137.,44.,19.5));
#1891=CARTESIAN_POINT('',(138.,44.,7.25));
#1892=CARTESIAN_POINT('',(141.,44.,5.75));
#1893=CARTESIAN_POINT('Origin',(137.,22.,8.5));
#1894=CARTESIAN_POINT('',(138.,22.,8.5));
#1895=CARTESIAN_POINT('',(138.,7.,8.5));
#1896=CARTESIAN_POINT('',(138.,9.5,8.5));
#1897=CARTESIAN_POINT('',(141.,22.,8.5));
#1898=CARTESIAN_POINT('',(137.,22.,8.5));
#1899=CARTESIAN_POINT('',(141.,7.,8.5));
#1900=CARTESIAN_POINT('',(141.,7.5,8.5));
#1901=CARTESIAN_POINT('',(137.,7.,8.5));
#1902=CARTESIAN_POINT('Origin',(137.,7.,8.5));
#1903=CARTESIAN_POINT('',(138.,7.,-0.5));
#1904=CARTESIAN_POINT('',(138.,7.,1.75));
#1905=CARTESIAN_POINT('',(141.,7.,-0.5));
#1906=CARTESIAN_POINT('',(141.,7.,0.25));
#1907=CARTESIAN_POINT('',(137.,7.,-0.5));
#1908=CARTESIAN_POINT('Origin',(137.,7.,-0.5));
#1909=CARTESIAN_POINT('',(138.,22.,-0.5));
#1910=CARTESIAN_POINT('',(138.,2.,-0.5));
#1911=CARTESIAN_POINT('',(141.,22.,-0.5));
#1912=CARTESIAN_POINT('',(141.,5.55111512312578E-16,-0.5));
#1913=CARTESIAN_POINT('',(137.,22.,-0.5));
#1914=CARTESIAN_POINT('Origin',(137.,22.,-0.5));
#1915=CARTESIAN_POINT('',(138.,22.,-2.75));
#1916=CARTESIAN_POINT('',(141.,22.,-4.25));
#1917=CARTESIAN_POINT('Origin',(-7.,43.5,8.5));
#1918=CARTESIAN_POINT('',(-3.,28.5,8.5));
#1919=CARTESIAN_POINT('',(-3.,43.5,8.5));
#1920=CARTESIAN_POINT('',(-3.,59.25,8.5));
#1921=CARTESIAN_POINT('',(-6.,28.5,8.5));
#1922=CARTESIAN_POINT('',(-7.,28.5,8.5));
#1923=CARTESIAN_POINT('',(-6.,43.5,8.5));
#1924=CARTESIAN_POINT('',(-6.,61.25,8.5));
#1925=CARTESIAN_POINT('',(-7.,43.5,8.5));
#1926=CARTESIAN_POINT('Origin',(-7.,43.5,-0.5));
#1927=CARTESIAN_POINT('',(-3.,43.5,-0.5));
#1928=CARTESIAN_POINT('',(-3.,43.5,-2.75));
#1929=CARTESIAN_POINT('',(-6.,43.5,-0.5));
#1930=CARTESIAN_POINT('',(-6.,43.5,-4.25));
#1931=CARTESIAN_POINT('',(-7.,43.5,-0.5));
#1932=CARTESIAN_POINT('Origin',(-7.,28.5,-0.5));
#1933=CARTESIAN_POINT('',(-3.,28.5,-0.5));
#1934=CARTESIAN_POINT('',(-3.,51.75,-0.5));
#1935=CARTESIAN_POINT('',(-6.,28.5,-0.5));
#1936=CARTESIAN_POINT('',(-6.,53.75,-0.5));
#1937=CARTESIAN_POINT('',(-7.,28.5,-0.5));
#1938=CARTESIAN_POINT('Origin',(-7.,28.5,8.5));
#1939=CARTESIAN_POINT('',(-3.,28.5,1.75));
#1940=CARTESIAN_POINT('',(-6.,28.5,0.25));
#1941=CARTESIAN_POINT('Origin',(125.,67.,-8.));
#1942=CARTESIAN_POINT('',(125.,67.,-8.));
#1943=CARTESIAN_POINT('',(10.,67.,-8.));
#1944=CARTESIAN_POINT('',(96.25,67.,-8.));
#1945=CARTESIAN_POINT('',(125.,67.,-6.5));
#1946=CARTESIAN_POINT('',(125.,67.,-8.));
#1947=CARTESIAN_POINT('',(10.,67.,-6.5));
#1948=CARTESIAN_POINT('',(125.,67.,-6.5));
#1949=CARTESIAN_POINT('',(10.,67.,-8.));
#1950=CARTESIAN_POINT('Origin',(125.,5.,-8.));
#1951=CARTESIAN_POINT('',(125.,5.,-8.));
#1952=CARTESIAN_POINT('',(125.,20.5,-8.));
#1953=CARTESIAN_POINT('',(125.,5.,-6.5));
#1954=CARTESIAN_POINT('',(125.,5.,-8.));
#1955=CARTESIAN_POINT('',(125.,5.,-6.5));
#1956=CARTESIAN_POINT('Origin',(10.,5.,-8.));
#1957=CARTESIAN_POINT('',(10.,5.,-8.));
#1958=CARTESIAN_POINT('',(38.75,5.,-8.));
#1959=CARTESIAN_POINT('',(10.,5.,-6.5));
#1960=CARTESIAN_POINT('',(10.,5.,-8.));
#1961=CARTESIAN_POINT('',(10.,5.,-6.5));
#1962=CARTESIAN_POINT('Origin',(10.,67.,-8.));
#1963=CARTESIAN_POINT('',(10.,51.5,-8.));
#1964=CARTESIAN_POINT('',(10.,67.,-6.5));
#1965=CARTESIAN_POINT('Origin',(67.5,36.,-6.5));
#1966=CARTESIAN_POINT('Origin',(135.,78.,-5.));
#1967=CARTESIAN_POINT('',(135.,75.,-5.));
#1968=CARTESIAN_POINT('',(135.,75.,3.));
#1969=CARTESIAN_POINT('',(135.,75.,-5.));
#1970=CARTESIAN_POINT('',(135.,72.,-5.));
#1971=CARTESIAN_POINT('',(135.,57.,-5.));
#1972=CARTESIAN_POINT('',(135.,72.,3.));
#1973=CARTESIAN_POINT('',(135.,72.,-5.));
#1974=CARTESIAN_POINT('',(135.,78.,3.));
#1975=CARTESIAN_POINT('Origin',(135.,72.,-5.));
#1976=CARTESIAN_POINT('',(138.,72.,-5.));
#1977=CARTESIAN_POINT('',(101.25,72.,-5.));
#1978=CARTESIAN_POINT('',(138.,72.,3.));
#1979=CARTESIAN_POINT('',(138.,72.,-5.));
#1980=CARTESIAN_POINT('',(135.,72.,3.));
#1981=CARTESIAN_POINT('Origin',(136.5,75.,3.));
#1982=CARTESIAN_POINT('',(138.,75.,3.));
#1983=CARTESIAN_POINT('',(137.25,75.,3.));
#1984=CARTESIAN_POINT('',(138.,36.,3.));
#1985=CARTESIAN_POINT('Origin',(138.,75.,-5.));
#1986=CARTESIAN_POINT('',(138.,75.,34.));
#1987=CARTESIAN_POINT('',(138.,75.,-5.));
#1988=CARTESIAN_POINT('',(-3.,75.,34.));
#1989=CARTESIAN_POINT('',(102.,75.,34.));
#1990=CARTESIAN_POINT('',(-3.,75.,3.));
#1991=CARTESIAN_POINT('',(-3.,75.,-5.));
#1992=CARTESIAN_POINT('',(0.,75.,3.));
#1993=CARTESIAN_POINT('',(68.25,75.,3.));
#1994=CARTESIAN_POINT('',(0.,75.,-5.));
#1995=CARTESIAN_POINT('',(0.,75.,-5.));
#1996=CARTESIAN_POINT('',(138.,75.,-5.));
#1997=CARTESIAN_POINT('Origin',(138.,-3.,-5.));
#1998=CARTESIAN_POINT('',(138.,3.,-5.));
#1999=CARTESIAN_POINT('',(138.,-3.,-5.));
#2000=CARTESIAN_POINT('',(138.,3.,3.));
#2001=CARTESIAN_POINT('',(138.,3.,-5.));
#2002=CARTESIAN_POINT('',(138.,-3.,3.));
#2003=CARTESIAN_POINT('',(138.,-1.5,3.));
#2004=CARTESIAN_POINT('',(138.,-3.,34.));
#2005=CARTESIAN_POINT('',(138.,-3.,-5.));
#2006=CARTESIAN_POINT('',(138.,-5.5,34.));
#2007=CARTESIAN_POINT('',(138.,-5.5,34.));
#2008=CARTESIAN_POINT('',(138.,-5.5,36.8));
#2009=CARTESIAN_POINT('',(138.,-5.5,34.));
#2010=CARTESIAN_POINT('',(138.,-3.,36.8));
#2011=CARTESIAN_POINT('',(138.,-5.5,36.8));
#2012=CARTESIAN_POINT('',(138.,-3.,38.5));
#2013=CARTESIAN_POINT('',(138.,-3.,-5.));
#2014=CARTESIAN_POINT('',(138.,75.,38.5));
#2015=CARTESIAN_POINT('',(138.,16.5,38.5));
#2016=CARTESIAN_POINT('',(138.,75.,36.8));
#2017=CARTESIAN_POINT('',(138.,75.,-5.));
#2018=CARTESIAN_POINT('',(138.,77.5,36.8));
#2019=CARTESIAN_POINT('',(138.,75.,36.8));
#2020=CARTESIAN_POINT('',(138.,77.5,34.));
#2021=CARTESIAN_POINT('',(138.,77.5,34.));
#2022=CARTESIAN_POINT('',(138.,75.,34.));
#2023=CARTESIAN_POINT('Origin',(138.,3.,-5.));
#2024=CARTESIAN_POINT('',(135.,3.,-5.));
#2025=CARTESIAN_POINT('',(102.75,3.,-5.));
#2026=CARTESIAN_POINT('',(135.,3.,3.));
#2027=CARTESIAN_POINT('',(135.,3.,-5.));
#2028=CARTESIAN_POINT('',(138.,3.,3.));
#2029=CARTESIAN_POINT('Origin',(135.,3.,-5.));
#2030=CARTESIAN_POINT('',(135.,-3.,-5.));
#2031=CARTESIAN_POINT('',(135.,19.5,-5.));
#2032=CARTESIAN_POINT('',(135.,-3.,3.));
#2033=CARTESIAN_POINT('',(135.,-3.,-5.));
#2034=CARTESIAN_POINT('',(135.,3.,3.));
#2035=CARTESIAN_POINT('Origin',(136.5,0.,3.));
#2036=CARTESIAN_POINT('',(66.75,-3.,3.));
#2037=CARTESIAN_POINT('Origin',(-3.,-3.,-5.));
#2038=CARTESIAN_POINT('',(0.,-3.,-5.));
#2039=CARTESIAN_POINT('',(-3.,-3.,-5.));
#2040=CARTESIAN_POINT('',(0.,-3.,3.));
#2041=CARTESIAN_POINT('',(0.,-3.,-5.));
#2042=CARTESIAN_POINT('',(-3.,-3.,3.));
#2043=CARTESIAN_POINT('',(-2.25,-3.,3.));
#2044=CARTESIAN_POINT('',(-3.00000000000001,-3.,34.));
#2045=CARTESIAN_POINT('',(-3.,-3.,-5.));
#2046=CARTESIAN_POINT('',(31.5,-3.,34.));
#2047=CARTESIAN_POINT('Origin',(67.5,36.,-5.));
#2048=CARTESIAN_POINT('',(0.,72.,-5.));
#2049=CARTESIAN_POINT('',(0.,54.,-5.));
#2050=CARTESIAN_POINT('',(-3.,72.,-5.));
#2051=CARTESIAN_POINT('',(32.25,72.,-5.));
#2052=CARTESIAN_POINT('',(-3.,3.,-5.));
#2053=CARTESIAN_POINT('',(-3.,75.,-5.));
#2054=CARTESIAN_POINT('',(0.,3.,-5.));
#2055=CARTESIAN_POINT('',(33.75,3.,-5.));
#2056=CARTESIAN_POINT('',(0.,16.5,-5.));
#2057=CARTESIAN_POINT('',(34.,34.,-5.));
#2058=CARTESIAN_POINT('',(34.,-2.,-5.));
#2059=CARTESIAN_POINT('',(34.,17.,-5.));
#2060=CARTESIAN_POINT('',(30.,-2.,-5.));
#2061=CARTESIAN_POINT('',(48.75,-2.,-5.));
#2062=CARTESIAN_POINT('',(30.,34.,-5.));
#2063=CARTESIAN_POINT('',(30.,55.,-5.));
#2064=CARTESIAN_POINT('',(8.,34.,-5.));
#2065=CARTESIAN_POINT('',(32.75,34.,-5.));
#2066=CARTESIAN_POINT('',(8.,-2.,-5.));
#2067=CARTESIAN_POINT('',(8.,17.,-5.));
#2068=CARTESIAN_POINT('',(4.,-2.,-5.));
#2069=CARTESIAN_POINT('',(35.75,-2.,-5.));
#2070=CARTESIAN_POINT('',(4.,34.,-5.));
#2071=CARTESIAN_POINT('',(4.,55.,-5.));
#2072=CARTESIAN_POINT('',(-2.,34.,-5.));
#2073=CARTESIAN_POINT('',(32.75,34.,-5.));
#2074=CARTESIAN_POINT('',(-2.,38.,-5.));
#2075=CARTESIAN_POINT('',(-2.,37.,-5.));
#2076=CARTESIAN_POINT('',(4.,38.,-5.));
#2077=CARTESIAN_POINT('',(101.25,38.,-5.));
#2078=CARTESIAN_POINT('',(4.,74.,-5.));
#2079=CARTESIAN_POINT('',(4.,55.,-5.));
#2080=CARTESIAN_POINT('',(8.,74.,-5.));
#2081=CARTESIAN_POINT('',(37.75,74.,-5.));
#2082=CARTESIAN_POINT('',(8.,38.,-5.));
#2083=CARTESIAN_POINT('',(8.,17.,-5.));
#2084=CARTESIAN_POINT('',(30.,38.,-5.));
#2085=CARTESIAN_POINT('',(101.25,38.,-5.));
#2086=CARTESIAN_POINT('',(30.,74.,-5.));
#2087=CARTESIAN_POINT('',(30.,55.,-5.));
#2088=CARTESIAN_POINT('',(34.,74.,-5.));
#2089=CARTESIAN_POINT('',(50.75,74.,-5.));
#2090=CARTESIAN_POINT('',(34.,38.,-5.));
#2091=CARTESIAN_POINT('',(34.,17.,-5.));
#2092=CARTESIAN_POINT('',(135.,38.,-5.));
#2093=CARTESIAN_POINT('',(101.25,38.,-5.));
#2094=CARTESIAN_POINT('',(135.,34.,-5.));
#2095=CARTESIAN_POINT('',(135.,35.,-5.));
#2096=CARTESIAN_POINT('',(32.75,34.,-5.));
#2097=CARTESIAN_POINT('Origin',(-1.5,75.,3.));
#2098=CARTESIAN_POINT('',(-3.,72.,3.));
#2099=CARTESIAN_POINT('',(-3.,75.,3.));
#2100=CARTESIAN_POINT('',(0.,72.,3.));
#2101=CARTESIAN_POINT('',(-3.,72.,3.));
#2102=CARTESIAN_POINT('',(0.,72.,3.));
#2103=CARTESIAN_POINT('Origin',(0.,72.,-5.));
#2104=CARTESIAN_POINT('',(0.,72.,-5.));
#2105=CARTESIAN_POINT('Origin',(-3.,72.,-5.));
#2106=CARTESIAN_POINT('',(-3.,72.,-5.));
#2107=CARTESIAN_POINT('Origin',(0.,3.,-5.));
#2108=CARTESIAN_POINT('',(-3.,3.,3.));
#2109=CARTESIAN_POINT('',(-3.,3.,-5.));
#2110=CARTESIAN_POINT('',(0.,3.,3.));
#2111=CARTESIAN_POINT('',(0.,3.,3.));
#2112=CARTESIAN_POINT('',(0.,3.,-5.));
#2113=CARTESIAN_POINT('Origin',(0.,-3.,-5.));
#2114=CARTESIAN_POINT('',(0.,-3.,3.));
#2115=CARTESIAN_POINT('Origin',(-1.5,0.,3.));
#2116=CARTESIAN_POINT('',(-3.,37.5,3.));
#2117=CARTESIAN_POINT('Origin',(-3.,75.,-5.));
#2118=CARTESIAN_POINT('',(-3.,55.5,34.));
#2119=CARTESIAN_POINT('Origin',(34.,-2.,-5.));
#2120=CARTESIAN_POINT('',(34.,38.,0.));
#2121=CARTESIAN_POINT('',(34.,38.,-5.));
#2122=CARTESIAN_POINT('',(34.,74.,0.));
#2123=CARTESIAN_POINT('',(34.,74.,-5.));
#2124=CARTESIAN_POINT('',(34.,-2.,0.));
#2125=CARTESIAN_POINT('Origin',(34.,-2.,-5.));
#2126=CARTESIAN_POINT('',(34.,34.,0.));
#2127=CARTESIAN_POINT('',(34.,34.,-5.));
#2128=CARTESIAN_POINT('',(34.,-2.,0.));
#2129=CARTESIAN_POINT('',(34.,-2.,0.));
#2130=CARTESIAN_POINT('',(34.,-2.,-5.));
#2131=CARTESIAN_POINT('Origin',(30.,74.,-5.));
#2132=CARTESIAN_POINT('',(30.,38.,0.));
#2133=CARTESIAN_POINT('',(30.,38.,-5.));
#2134=CARTESIAN_POINT('',(30.,74.,0.));
#2135=CARTESIAN_POINT('',(30.,74.,0.));
#2136=CARTESIAN_POINT('',(30.,74.,-5.));
#2137=CARTESIAN_POINT('Origin',(34.,74.,-5.));
#2138=CARTESIAN_POINT('',(34.,74.,0.));
#2139=CARTESIAN_POINT('Origin',(30.,-2.,-5.));
#2140=CARTESIAN_POINT('',(30.,-2.,0.));
#2141=CARTESIAN_POINT('',(30.,-2.,0.));
#2142=CARTESIAN_POINT('',(30.,-2.,-5.));
#2143=CARTESIAN_POINT('Origin',(30.,74.,-5.));
#2144=CARTESIAN_POINT('',(30.,34.,0.));
#2145=CARTESIAN_POINT('',(30.,34.,-5.));
#2146=CARTESIAN_POINT('',(30.,74.,0.));
#2147=CARTESIAN_POINT('Origin',(-2.,34.,-5.));
#2148=CARTESIAN_POINT('',(8.,34.,0.));
#2149=CARTESIAN_POINT('',(-2.,34.,0.));
#2150=CARTESIAN_POINT('',(8.,34.,-5.));
#2151=CARTESIAN_POINT('Origin',(135.,38.,-5.));
#2152=CARTESIAN_POINT('',(8.,38.,0.));
#2153=CARTESIAN_POINT('',(8.00000000000001,38.,-5.));
#2154=CARTESIAN_POINT('',(135.,38.,0.));
#2155=CARTESIAN_POINT('Origin',(8.,-2.,-5.));
#2156=CARTESIAN_POINT('',(8.,-2.,0.));
#2157=CARTESIAN_POINT('',(8.,-2.,0.));
#2158=CARTESIAN_POINT('',(8.,-2.,-5.));
#2159=CARTESIAN_POINT('Origin',(4.,74.,-5.));
#2160=CARTESIAN_POINT('',(4.,34.,0.));
#2161=CARTESIAN_POINT('',(4.,34.,-5.));
#2162=CARTESIAN_POINT('',(4.,-2.,0.));
#2163=CARTESIAN_POINT('',(4.,-2.,-5.));
#2164=CARTESIAN_POINT('',(4.,74.,0.));
#2165=CARTESIAN_POINT('Origin',(4.,74.,-5.));
#2166=CARTESIAN_POINT('',(4.,38.,0.));
#2167=CARTESIAN_POINT('',(4.,38.,-5.));
#2168=CARTESIAN_POINT('',(4.,74.,0.));
#2169=CARTESIAN_POINT('',(4.,74.,0.));
#2170=CARTESIAN_POINT('',(4.,74.,-5.));
#2171=CARTESIAN_POINT('Origin',(8.,74.,-5.));
#2172=CARTESIAN_POINT('',(8.,74.,0.));
#2173=CARTESIAN_POINT('',(8.,74.,0.));
#2174=CARTESIAN_POINT('',(8.,74.,-5.));
#2175=CARTESIAN_POINT('Origin',(8.,-2.,-5.));
#2176=CARTESIAN_POINT('',(8.,-2.,0.));
#2177=CARTESIAN_POINT('Origin',(4.,-2.,-5.));
#2178=CARTESIAN_POINT('',(4.,-2.,0.));
#2179=CARTESIAN_POINT('Origin',(135.,38.,-5.));
#2180=CARTESIAN_POINT('',(-2.,38.,0.));
#2181=CARTESIAN_POINT('',(-2.,38.,-5.));
#2182=CARTESIAN_POINT('',(135.,38.,0.));
#2183=CARTESIAN_POINT('Origin',(135.,38.,-5.));
#2184=CARTESIAN_POINT('',(135.,38.,0.));
#2185=CARTESIAN_POINT('',(135.,38.,0.));
#2186=CARTESIAN_POINT('',(135.,38.,-5.));
#2187=CARTESIAN_POINT('Origin',(66.5,36.,0.));
#2188=CARTESIAN_POINT('',(135.,34.,0.));
#2189=CARTESIAN_POINT('',(-2.,34.,0.));
#2190=CARTESIAN_POINT('',(135.,34.,0.));
#2191=CARTESIAN_POINT('',(-2.,34.,0.));
#2192=CARTESIAN_POINT('',(-2.,38.,0.));
#2193=CARTESIAN_POINT('',(-2.,34.,0.));
#2194=CARTESIAN_POINT('Origin',(-2.,34.,-5.));
#2195=CARTESIAN_POINT('',(-2.,34.,-5.));
#2196=CARTESIAN_POINT('Origin',(135.,34.,-5.));
#2197=CARTESIAN_POINT('',(135.,34.,-5.));
#2198=CARTESIAN_POINT('Origin',(-2.,34.,-5.));
#2199=CARTESIAN_POINT('Origin',(-2.,38.,-5.));
#2200=CARTESIAN_POINT('Origin',(-3.,-7.,34.));
#2201=CARTESIAN_POINT('',(-3.,-3.,38.5));
#2202=CARTESIAN_POINT('',(-3.,-7.,38.5));
#2203=CARTESIAN_POINT('',(-3.,14.5,38.5));
#2204=CARTESIAN_POINT('',(-3.00000000000001,-3.,36.8));
#2205=CARTESIAN_POINT('',(-3.,-3.,-5.));
#2206=CARTESIAN_POINT('',(-3.,-5.5,36.8));
#2207=CARTESIAN_POINT('',(-3.,-5.625,36.8));
#2208=CARTESIAN_POINT('',(-3.,-5.5,34.));
#2209=CARTESIAN_POINT('',(-3.,-5.5,34.));
#2210=CARTESIAN_POINT('',(-3.,-7.,34.));
#2211=CARTESIAN_POINT('',(-3.,-7.,34.));
#2212=CARTESIAN_POINT('',(-3.,-7.,13.));
#2213=CARTESIAN_POINT('Origin',(-3.,-7.,34.));
#2214=CARTESIAN_POINT('',(-3.00000000000001,77.5,36.8));
#2215=CARTESIAN_POINT('',(-3.,77.5,34.));
#2216=CARTESIAN_POINT('',(-3.00000000000001,77.5,34.));
#2217=CARTESIAN_POINT('',(-3.,75.,36.8));
#2218=CARTESIAN_POINT('',(-3.,34.625,36.8));
#2219=CARTESIAN_POINT('',(-3.,75.,38.5));
#2220=CARTESIAN_POINT('',(-3.,75.,-5.));
#2221=CARTESIAN_POINT('',(-3.,79.,38.5));
#2222=CARTESIAN_POINT('',(-3.,14.5,38.5));
#2223=CARTESIAN_POINT('',(-3.,79.,34.));
#2224=CARTESIAN_POINT('',(-3.00000000000001,79.,13.));
#2225=CARTESIAN_POINT('',(-3.,-7.,34.));
#2226=CARTESIAN_POINT('Origin',(138.,77.5,34.));
#2227=CARTESIAN_POINT('',(138.,77.5,34.));
#2228=CARTESIAN_POINT('',(138.,77.5,36.8));
#2229=CARTESIAN_POINT('Origin',(66.,76.25,34.));
#2230=CARTESIAN_POINT('',(-6.,79.,34.));
#2231=CARTESIAN_POINT('',(68.25,79.,34.));
#2232=CARTESIAN_POINT('',(-6.,-7.,34.));
#2233=CARTESIAN_POINT('',(-6.,57.5,34.));
#2234=CARTESIAN_POINT('',(-5.25,-7.,34.));
#2235=CARTESIAN_POINT('',(-6.,-5.5,34.));
#2236=CARTESIAN_POINT('Origin',(141.,79.,-8.));
#2237=CARTESIAN_POINT('',(141.,79.,38.5));
#2238=CARTESIAN_POINT('',(141.,79.,38.5));
#2239=CARTESIAN_POINT('',(141.,79.,-8.));
#2240=CARTESIAN_POINT('',(141.,79.,-8.));
#2241=CARTESIAN_POINT('',(-6.,79.,-8.));
#2242=CARTESIAN_POINT('',(141.,79.,-8.));
#2243=CARTESIAN_POINT('',(-6.,79.,-8.));
#2244=CARTESIAN_POINT('Origin',(-6.,-7.,-8.));
#2245=CARTESIAN_POINT('',(-6.,-7.,-8.));
#2246=CARTESIAN_POINT('',(-6.,-7.,-8.));
#2247=CARTESIAN_POINT('',(141.,-7.,-8.));
#2248=CARTESIAN_POINT('',(-6.,-7.,-8.));
#2249=CARTESIAN_POINT('',(141.,-7.,38.5));
#2250=CARTESIAN_POINT('',(141.,-7.,-8.));
#2251=CARTESIAN_POINT('',(-6.,-7.,38.5));
#2252=CARTESIAN_POINT('Origin',(-6.,79.,-8.));
#2253=CARTESIAN_POINT('',(-6.,79.,-8.));
#2254=CARTESIAN_POINT('Origin',(66.,76.25,36.8));
#2255=CARTESIAN_POINT('',(102.,75.,36.8));
#2256=CARTESIAN_POINT('Origin',(-6.,-5.5,34.));
#2257=CARTESIAN_POINT('',(-6.,-5.5,36.8));
#2258=CARTESIAN_POINT('Origin',(66.,-4.25,36.8));
#2259=CARTESIAN_POINT('',(31.5,-3.,36.8));
#2260=CARTESIAN_POINT('Origin',(-3.,-3.,-5.));
#2261=CARTESIAN_POINT('',(32.25,-3.,38.5));
#2262=CARTESIAN_POINT('Origin',(138.,75.,-5.));
#2263=CARTESIAN_POINT('',(102.75,75.,38.5));
#2264=CARTESIAN_POINT('Origin',(141.,-7.,-8.));
#2265=CARTESIAN_POINT('',(141.,-7.,-8.));
#2266=CARTESIAN_POINT('',(141.,-7.,38.5));
#2267=CARTESIAN_POINT('Origin',(67.5,36.,38.5));
#2268=CARTESIAN_POINT('Origin',(67.5,36.,-8.));
#2269=CARTESIAN_POINT('',(63.6373163706694,85.8677006961153,-5.02732626862166));
#2270=UNCERTAINTY_MEASURE_WITH_UNIT(LENGTH_MEASURE(0.01),#2276,
'DISTANCE_ACCURACY_VALUE',
'Maximum model space distance between geometric entities at asserted c
onnectivities');
#2271=UNCERTAINTY_MEASURE_WITH_UNIT(LENGTH_MEASURE(0.01),#2276,
'DISTANCE_ACCURACY_VALUE',
'Maximum model space distance between geometric entities at asserted c
onnectivities');
#2272=UNCERTAINTY_MEASURE_WITH_UNIT(LENGTH_MEASURE(0.01),#2276,
'DISTANCE_ACCURACY_VALUE',
'Maximum model space distance between geometric entities at asserted c
onnectivities');
#2273=(
GEOMETRIC_REPRESENTATION_CONTEXT(3)
GLOBAL_UNCERTAINTY_ASSIGNED_CONTEXT((#2270))
GLOBAL_UNIT_ASSIGNED_CONTEXT((#2276,#2278,#2279))
REPRESENTATION_CONTEXT('','3D')
);
#2274=(
GEOMETRIC_REPRESENTATION_CONTEXT(3)
GLOBAL_UNCERTAINTY_ASSIGNED_CONTEXT((#2271))
GLOBAL_UNIT_ASSIGNED_CONTEXT((#2276,#2278,#2279))
REPRESENTATION_CONTEXT('','3D')
);
#2275=(
GEOMETRIC_REPRESENTATION_CONTEXT(3)
GLOBAL_UNCERTAINTY_ASSIGNED_CONTEXT((#2272))
GLOBAL_UNIT_ASSIGNED_CONTEXT((#2276,#2278,#2279))
REPRESENTATION_CONTEXT('','3D')
);
#2276=(
LENGTH_UNIT()
NAMED_UNIT(*)
SI_UNIT(.MILLI.,.METRE.)
);
#2277=(
LENGTH_UNIT()
NAMED_UNIT(*)
SI_UNIT($,.METRE.)
);
#2278=(
NAMED_UNIT(*)
PLANE_ANGLE_UNIT()
SI_UNIT($,.RADIAN.)
);
#2279=(
NAMED_UNIT(*)
SI_UNIT($,.STERADIAN.)
SOLID_ANGLE_UNIT()
);
#2280=SHAPE_DEFINITION_REPRESENTATION(#2282,#2285);
#2281=SHAPE_DEFINITION_REPRESENTATION(#2283,#2286);
#2282=PRODUCT_DEFINITION_SHAPE('',$,#2288);
#2283=PRODUCT_DEFINITION_SHAPE('',$,#2289);
#2284=PRODUCT_DEFINITION_SHAPE($,$,#14);
#2285=SHAPE_REPRESENTATION('',(#1450,#1522),#2273);
#2286=SHAPE_REPRESENTATION('',(#1451),#2274);
#2287=PRODUCT_DEFINITION_CONTEXT('part definition',#2295,'design');
#2288=PRODUCT_DEFINITION('2026-08-24-15-18-20-840',
'Placa STM32 - condicionamento (simplificada)',#2290,#2287);
#2289=PRODUCT_DEFINITION('2026-08-24-16-09-28-052','08_Case_Base',#2291,
#2287);
#2290=PRODUCT_DEFINITION_FORMATION('',$,#2297);
#2291=PRODUCT_DEFINITION_FORMATION('',$,#2298);
#2292=PRODUCT_RELATED_PRODUCT_CATEGORY(
'Placa STM32 - condicionamento (simplificada)',
'Placa STM32 - condicionamento (simplificada)',(#2297));
#2293=PRODUCT_RELATED_PRODUCT_CATEGORY('08_Case_Base','08_Case_Base',(#2298));
#2294=APPLICATION_PROTOCOL_DEFINITION('international standard',
'automotive_design',2009,#2295);
#2295=APPLICATION_CONTEXT(
'Core Data for Automotive Mechanical Design Process');
#2296=PRODUCT_CONTEXT('part definition',#2295,'mechanical');
#2297=PRODUCT('2026-08-24-15-18-20-840',
'Placa STM32 - condicionamento (simplificada)',$,(#2296));
#2298=PRODUCT('2026-08-24-16-09-28-052','08_Case_Base',$,(#2296));
#2299=PRESENTATION_STYLE_ASSIGNMENT((#2301));
#2300=PRESENTATION_STYLE_ASSIGNMENT((#2302));
#2301=SURFACE_STYLE_USAGE(.BOTH.,#2303);
#2302=SURFACE_STYLE_USAGE(.BOTH.,#2304);
#2303=SURFACE_SIDE_STYLE('',(#2305));
#2304=SURFACE_SIDE_STYLE('',(#2306));
#2305=SURFACE_STYLE_FILL_AREA(#2307);
#2306=SURFACE_STYLE_FILL_AREA(#2308);
#2307=FILL_AREA_STYLE('A\X\E7o - Acetinado',(#2309));
#2308=FILL_AREA_STYLE('Pl\X\E1stico - Fosco (Cinza)',(#2310));
#2309=FILL_AREA_STYLE_COLOUR('A\X\E7o - Acetinado',#2311);
#2310=FILL_AREA_STYLE_COLOUR('Pl\X\E1stico - Fosco (Cinza)',#2312);
#2311=COLOUR_RGB('A\X\E7o - Acetinado',0.627450980392157,0.627450980392157,
0.627450980392157);
#2312=COLOUR_RGB('Pl\X\E1stico - Fosco (Cinza)',0.701960784313725,0.701960784313725,
0.701960784313725);
ENDSEC;
END-ISO-10303-21;
