ISO-10303-21;
HEADER;
/* Generated by software containing ST-Developer
 * from STEP Tools, Inc. (www.steptools.com) 
 */

FILE_DESCRIPTION(
/* description */ (''),
/* implementation_level */ '2;1');

FILE_NAME(
/* name */ 'Placa STM32 - tampa.step',
/* time_stamp */ '2026-08-25T07:53:26-03:00',
/* author */ (''),
/* organization */ (''),
/* preprocessor_version */ 'ST-DEVELOPER v20.1',
/* originating_system */ 'Autodesk Translation Framework v15.8.0.0',
/* authorisation */ '');

FILE_SCHEMA (('AUTOMOTIVE_DESIGN { 1 0 10303 214 3 1 1 }'));
ENDSEC;

DATA;
#10=MECHANICAL_DESIGN_GEOMETRIC_PRESENTATION_REPRESENTATION('',(#17),#339);
#11=ITEM_DEFINED_TRANSFORMATION($,$,#215,#227);
#12=(
REPRESENTATION_RELATIONSHIP($,$,#350,#349)
REPRESENTATION_RELATIONSHIP_WITH_TRANSFORMATION(#11)
SHAPE_REPRESENTATION_RELATIONSHIP()
);
#13=CONTEXT_DEPENDENT_SHAPE_REPRESENTATION(#12,#348);
#14=NEXT_ASSEMBLY_USAGE_OCCURRENCE('09_Case_Tampa:1','09_Case_Tampa:1',
'09_Case_Tampa:1',#352,#353,'09_Case_Tampa:1');
#15=SHAPE_REPRESENTATION_RELATIONSHIP('SRR','None',#350,#16);
#16=ADVANCED_BREP_SHAPE_REPRESENTATION('',(#18),#338);
#17=STYLED_ITEM('',(#364),#18);
#18=MANIFOLD_SOLID_BREP('Case_Tampa',#201);
#19=FACE_BOUND('',#32,.T.);
#20=FACE_OUTER_BOUND('',#31,.T.);
#21=FACE_OUTER_BOUND('',#33,.T.);
#22=FACE_OUTER_BOUND('',#34,.T.);
#23=FACE_OUTER_BOUND('',#35,.T.);
#24=FACE_OUTER_BOUND('',#36,.T.);
#25=FACE_OUTER_BOUND('',#37,.T.);
#26=FACE_OUTER_BOUND('',#38,.T.);
#27=FACE_OUTER_BOUND('',#39,.T.);
#28=FACE_OUTER_BOUND('',#40,.T.);
#29=FACE_OUTER_BOUND('',#41,.T.);
#30=FACE_OUTER_BOUND('',#42,.T.);
#31=EDGE_LOOP('',(#131,#132,#133,#134));
#32=EDGE_LOOP('',(#135,#136,#137,#138));
#33=EDGE_LOOP('',(#139,#140,#141,#142));
#34=EDGE_LOOP('',(#143,#144,#145,#146));
#35=EDGE_LOOP('',(#147,#148,#149,#150));
#36=EDGE_LOOP('',(#151,#152,#153,#154));
#37=EDGE_LOOP('',(#155,#156,#157,#158));
#38=EDGE_LOOP('',(#159,#160,#161,#162));
#39=EDGE_LOOP('',(#163,#164,#165,#166));
#40=EDGE_LOOP('',(#167,#168,#169,#170));
#41=EDGE_LOOP('',(#171,#172,#173,#174));
#42=EDGE_LOOP('',(#175,#176,#177,#178));
#43=LINE('',#285,#67);
#44=LINE('',#287,#68);
#45=LINE('',#289,#69);
#46=LINE('',#290,#70);
#47=LINE('',#293,#71);
#48=LINE('',#295,#72);
#49=LINE('',#297,#73);
#50=LINE('',#298,#74);
#51=LINE('',#301,#75);
#52=LINE('',#303,#76);
#53=LINE('',#304,#77);
#54=LINE('',#307,#78);
#55=LINE('',#309,#79);
#56=LINE('',#310,#80);
#57=LINE('',#312,#81);
#58=LINE('',#314,#82);
#59=LINE('',#317,#83);
#60=LINE('',#319,#84);
#61=LINE('',#320,#85);
#62=LINE('',#323,#86);
#63=LINE('',#324,#87);
#64=LINE('',#327,#88);
#65=LINE('',#328,#89);
#66=LINE('',#330,#90);
#67=VECTOR('',#234,10.);
#68=VECTOR('',#235,10.);
#69=VECTOR('',#236,10.);
#70=VECTOR('',#237,10.);
#71=VECTOR('',#238,10.);
#72=VECTOR('',#239,10.);
#73=VECTOR('',#240,10.);
#74=VECTOR('',#241,10.);
#75=VECTOR('',#244,10.);
#76=VECTOR('',#245,10.);
#77=VECTOR('',#246,10.);
#78=VECTOR('',#249,10.);
#79=VECTOR('',#250,10.);
#80=VECTOR('',#251,10.);
#81=VECTOR('',#254,10.);
#82=VECTOR('',#257,10.);
#83=VECTOR('',#260,10.);
#84=VECTOR('',#261,10.);
#85=VECTOR('',#262,10.);
#86=VECTOR('',#265,10.);
#87=VECTOR('',#266,10.);
#88=VECTOR('',#269,10.);
#89=VECTOR('',#270,10.);
#90=VECTOR('',#273,10.);
#91=VERTEX_POINT('',#283);
#92=VERTEX_POINT('',#284);
#93=VERTEX_POINT('',#286);
#94=VERTEX_POINT('',#288);
#95=VERTEX_POINT('',#291);
#96=VERTEX_POINT('',#292);
#97=VERTEX_POINT('',#294);
#98=VERTEX_POINT('',#296);
#99=VERTEX_POINT('',#300);
#100=VERTEX_POINT('',#302);
#101=VERTEX_POINT('',#306);
#102=VERTEX_POINT('',#308);
#103=VERTEX_POINT('',#316);
#104=VERTEX_POINT('',#318);
#105=VERTEX_POINT('',#322);
#106=VERTEX_POINT('',#326);
#107=EDGE_CURVE('',#91,#92,#43,.T.);
#108=EDGE_CURVE('',#92,#93,#44,.T.);
#109=EDGE_CURVE('',#94,#93,#45,.T.);
#110=EDGE_CURVE('',#91,#94,#46,.T.);
#111=EDGE_CURVE('',#95,#96,#47,.T.);
#112=EDGE_CURVE('',#97,#95,#48,.T.);
#113=EDGE_CURVE('',#98,#97,#49,.T.);
#114=EDGE_CURVE('',#96,#98,#50,.T.);
#115=EDGE_CURVE('',#92,#99,#51,.T.);
#116=EDGE_CURVE('',#99,#100,#52,.T.);
#117=EDGE_CURVE('',#93,#100,#53,.T.);
#118=EDGE_CURVE('',#101,#91,#54,.T.);
#119=EDGE_CURVE('',#102,#94,#55,.T.);
#120=EDGE_CURVE('',#101,#102,#56,.T.);
#121=EDGE_CURVE('',#100,#102,#57,.T.);
#122=EDGE_CURVE('',#99,#101,#58,.T.);
#123=EDGE_CURVE('',#103,#97,#59,.T.);
#124=EDGE_CURVE('',#104,#103,#60,.T.);
#125=EDGE_CURVE('',#104,#98,#61,.T.);
#126=EDGE_CURVE('',#95,#105,#62,.T.);
#127=EDGE_CURVE('',#105,#103,#63,.T.);
#128=EDGE_CURVE('',#106,#104,#64,.T.);
#129=EDGE_CURVE('',#106,#105,#65,.T.);
#130=EDGE_CURVE('',#96,#106,#66,.T.);
#131=ORIENTED_EDGE('',*,*,#107,.T.);
#132=ORIENTED_EDGE('',*,*,#108,.T.);
#133=ORIENTED_EDGE('',*,*,#109,.F.);
#134=ORIENTED_EDGE('',*,*,#110,.F.);
#135=ORIENTED_EDGE('',*,*,#111,.F.);
#136=ORIENTED_EDGE('',*,*,#112,.F.);
#137=ORIENTED_EDGE('',*,*,#113,.F.);
#138=ORIENTED_EDGE('',*,*,#114,.F.);
#139=ORIENTED_EDGE('',*,*,#115,.T.);
#140=ORIENTED_EDGE('',*,*,#116,.T.);
#141=ORIENTED_EDGE('',*,*,#117,.F.);
#142=ORIENTED_EDGE('',*,*,#108,.F.);
#143=ORIENTED_EDGE('',*,*,#118,.T.);
#144=ORIENTED_EDGE('',*,*,#110,.T.);
#145=ORIENTED_EDGE('',*,*,#119,.F.);
#146=ORIENTED_EDGE('',*,*,#120,.F.);
#147=ORIENTED_EDGE('',*,*,#121,.T.);
#148=ORIENTED_EDGE('',*,*,#119,.T.);
#149=ORIENTED_EDGE('',*,*,#109,.T.);
#150=ORIENTED_EDGE('',*,*,#117,.T.);
#151=ORIENTED_EDGE('',*,*,#122,.F.);
#152=ORIENTED_EDGE('',*,*,#115,.F.);
#153=ORIENTED_EDGE('',*,*,#107,.F.);
#154=ORIENTED_EDGE('',*,*,#118,.F.);
#155=ORIENTED_EDGE('',*,*,#113,.T.);
#156=ORIENTED_EDGE('',*,*,#123,.F.);
#157=ORIENTED_EDGE('',*,*,#124,.F.);
#158=ORIENTED_EDGE('',*,*,#125,.T.);
#159=ORIENTED_EDGE('',*,*,#112,.T.);
#160=ORIENTED_EDGE('',*,*,#126,.T.);
#161=ORIENTED_EDGE('',*,*,#127,.T.);
#162=ORIENTED_EDGE('',*,*,#123,.T.);
#163=ORIENTED_EDGE('',*,*,#128,.T.);
#164=ORIENTED_EDGE('',*,*,#124,.T.);
#165=ORIENTED_EDGE('',*,*,#127,.F.);
#166=ORIENTED_EDGE('',*,*,#129,.F.);
#167=ORIENTED_EDGE('',*,*,#111,.T.);
#168=ORIENTED_EDGE('',*,*,#130,.T.);
#169=ORIENTED_EDGE('',*,*,#129,.T.);
#170=ORIENTED_EDGE('',*,*,#126,.F.);
#171=ORIENTED_EDGE('',*,*,#122,.T.);
#172=ORIENTED_EDGE('',*,*,#120,.T.);
#173=ORIENTED_EDGE('',*,*,#121,.F.);
#174=ORIENTED_EDGE('',*,*,#116,.F.);
#175=ORIENTED_EDGE('',*,*,#114,.T.);
#176=ORIENTED_EDGE('',*,*,#125,.F.);
#177=ORIENTED_EDGE('',*,*,#128,.F.);
#178=ORIENTED_EDGE('',*,*,#130,.F.);
#179=PLANE('',#216);
#180=PLANE('',#217);
#181=PLANE('',#218);
#182=PLANE('',#219);
#183=PLANE('',#220);
#184=PLANE('',#221);
#185=PLANE('',#222);
#186=PLANE('',#223);
#187=PLANE('',#224);
#188=PLANE('',#225);
#189=PLANE('',#226);
#190=ADVANCED_FACE('',(#20,#19),#179,.T.);
#191=ADVANCED_FACE('',(#21),#180,.T.);
#192=ADVANCED_FACE('',(#22),#181,.T.);
#193=ADVANCED_FACE('',(#23),#182,.T.);
#194=ADVANCED_FACE('',(#24),#183,.F.);
#195=ADVANCED_FACE('',(#25),#184,.T.);
#196=ADVANCED_FACE('',(#26),#185,.T.);
#197=ADVANCED_FACE('',(#27),#186,.T.);
#198=ADVANCED_FACE('',(#28),#187,.T.);
#199=ADVANCED_FACE('',(#29),#188,.T.);
#200=ADVANCED_FACE('',(#30),#189,.F.);
#201=CLOSED_SHELL('',(#190,#191,#192,#193,#194,#195,#196,#197,#198,#199,
#200));
#202=DERIVED_UNIT_ELEMENT(#204,1.);
#203=DERIVED_UNIT_ELEMENT(#341,-3.);
#204=(
MASS_UNIT()
NAMED_UNIT(*)
SI_UNIT(.KILO.,.GRAM.)
);
#205=DERIVED_UNIT((#202,#203));
#206=MEASURE_REPRESENTATION_ITEM('density measure',
POSITIVE_RATIO_MEASURE(7850.),#205);
#207=PROPERTY_DEFINITION_REPRESENTATION(#212,#209);
#208=PROPERTY_DEFINITION_REPRESENTATION(#213,#210);
#209=REPRESENTATION('material name',(#211),#338);
#210=REPRESENTATION('density',(#206),#338);
#211=DESCRIPTIVE_REPRESENTATION_ITEM('A\X\E7o','A\X\E7o');
#212=PROPERTY_DEFINITION('material property','material name',#353);
#213=PROPERTY_DEFINITION('material property','density of part',#353);
#214=AXIS2_PLACEMENT_3D('',#280,#228,#229);
#215=AXIS2_PLACEMENT_3D('',#281,#230,#231);
#216=AXIS2_PLACEMENT_3D('',#282,#232,#233);
#217=AXIS2_PLACEMENT_3D('',#299,#242,#243);
#218=AXIS2_PLACEMENT_3D('',#305,#247,#248);
#219=AXIS2_PLACEMENT_3D('',#311,#252,#253);
#220=AXIS2_PLACEMENT_3D('',#313,#255,#256);
#221=AXIS2_PLACEMENT_3D('',#315,#258,#259);
#222=AXIS2_PLACEMENT_3D('',#321,#263,#264);
#223=AXIS2_PLACEMENT_3D('',#325,#267,#268);
#224=AXIS2_PLACEMENT_3D('',#329,#271,#272);
#225=AXIS2_PLACEMENT_3D('',#331,#274,#275);
#226=AXIS2_PLACEMENT_3D('',#332,#276,#277);
#227=AXIS2_PLACEMENT_3D('',#333,#278,#279);
#228=DIRECTION('axis',(0.,0.,1.));
#229=DIRECTION('refdir',(1.,0.,0.));
#230=DIRECTION('axis',(0.,0.,1.));
#231=DIRECTION('refdir',(1.,0.,0.));
#232=DIRECTION('center_axis',(1.,0.,0.));
#233=DIRECTION('ref_axis',(0.,1.,0.));
#234=DIRECTION('',(0.,1.,0.));
#235=DIRECTION('',(0.,0.,1.));
#236=DIRECTION('',(0.,1.,0.));
#237=DIRECTION('',(0.,0.,1.));
#238=DIRECTION('',(0.,0.,-1.));
#239=DIRECTION('',(0.,-1.,0.));
#240=DIRECTION('',(0.,0.,1.));
#241=DIRECTION('',(0.,1.,0.));
#242=DIRECTION('center_axis',(-2.96059473233375E-15,1.,0.));
#243=DIRECTION('ref_axis',(-1.,-2.96059473233375E-15,0.));
#244=DIRECTION('',(-1.,-2.96059473233375E-15,0.));
#245=DIRECTION('',(0.,0.,1.));
#246=DIRECTION('',(-1.,-2.96059473233375E-15,0.));
#247=DIRECTION('center_axis',(0.,-1.,0.));
#248=DIRECTION('ref_axis',(1.,0.,0.));
#249=DIRECTION('',(1.,0.,0.));
#250=DIRECTION('',(1.,0.,0.));
#251=DIRECTION('',(0.,0.,1.));
#252=DIRECTION('center_axis',(0.,0.,1.));
#253=DIRECTION('ref_axis',(1.,0.,0.));
#254=DIRECTION('',(0.,-1.,0.));
#255=DIRECTION('center_axis',(0.,0.,1.));
#256=DIRECTION('ref_axis',(1.,0.,0.));
#257=DIRECTION('',(0.,-1.,0.));
#258=DIRECTION('center_axis',(0.,1.,0.));
#259=DIRECTION('ref_axis',(-1.,0.,0.));
#260=DIRECTION('',(-1.,0.,0.));
#261=DIRECTION('',(0.,0.,1.));
#262=DIRECTION('',(-1.,0.,0.));
#263=DIRECTION('center_axis',(0.,0.,1.));
#264=DIRECTION('ref_axis',(1.,0.,0.));
#265=DIRECTION('',(1.,0.,0.));
#266=DIRECTION('',(0.,1.,0.));
#267=DIRECTION('center_axis',(1.,0.,0.));
#268=DIRECTION('ref_axis',(0.,1.,0.));
#269=DIRECTION('',(0.,1.,0.));
#270=DIRECTION('',(0.,0.,1.));
#271=DIRECTION('center_axis',(0.,-1.,0.));
#272=DIRECTION('ref_axis',(1.,0.,0.));
#273=DIRECTION('',(1.,0.,0.));
#274=DIRECTION('center_axis',(-1.,0.,0.));
#275=DIRECTION('ref_axis',(0.,-1.,0.));
#276=DIRECTION('center_axis',(0.,0.,1.));
#277=DIRECTION('ref_axis',(1.,0.,0.));
#278=DIRECTION('',(5.30722942925812E-16,-6.50709580958779E-15,0.99999999999998));
#279=DIRECTION('',(1.,-8.1601392309949E-15,-5.93969318174457E-15));
#280=CARTESIAN_POINT('',(0.,0.,0.));
#281=CARTESIAN_POINT('',(0.,0.,0.));
#282=CARTESIAN_POINT('Origin',(-3.,-7.,33.5));
#283=CARTESIAN_POINT('',(-3.,-7.,33.5));
#284=CARTESIAN_POINT('',(-3.,79.,33.5));
#285=CARTESIAN_POINT('',(-3.,-7.,33.5));
#286=CARTESIAN_POINT('',(-3.,79.,38.5));
#287=CARTESIAN_POINT('',(-3.,79.,33.5));
#288=CARTESIAN_POINT('',(-3.,-7.,38.5));
#289=CARTESIAN_POINT('',(-3.,-7.,38.5));
#290=CARTESIAN_POINT('',(-3.,-7.,33.5));
#291=CARTESIAN_POINT('',(-3.,-5.2,36.65));
#292=CARTESIAN_POINT('',(-3.,-5.2,34.15));
#293=CARTESIAN_POINT('',(-3.,-5.2,33.825));
#294=CARTESIAN_POINT('',(-3.00000000000001,77.2,36.65));
#295=CARTESIAN_POINT('',(-3.,14.5,36.65));
#296=CARTESIAN_POINT('',(-3.00000000000001,77.2,34.15));
#297=CARTESIAN_POINT('',(-3.00000000000001,77.2,33.825));
#298=CARTESIAN_POINT('',(-3.,14.5,34.15));
#299=CARTESIAN_POINT('Origin',(-3.,79.,33.5));
#300=CARTESIAN_POINT('',(-6.,79.,33.5));
#301=CARTESIAN_POINT('',(-3.,79.,33.5));
#302=CARTESIAN_POINT('',(-6.,79.,38.5));
#303=CARTESIAN_POINT('',(-6.,79.,33.5));
#304=CARTESIAN_POINT('',(-3.,79.,38.5));
#305=CARTESIAN_POINT('Origin',(-6.,-7.,33.5));
#306=CARTESIAN_POINT('',(-6.,-7.,33.5));
#307=CARTESIAN_POINT('',(-6.,-7.,33.5));
#308=CARTESIAN_POINT('',(-6.,-7.,38.5));
#309=CARTESIAN_POINT('',(-6.,-7.,38.5));
#310=CARTESIAN_POINT('',(-6.,-7.,33.5));
#311=CARTESIAN_POINT('Origin',(-4.5,36.,38.5));
#312=CARTESIAN_POINT('',(-6.,79.,38.5));
#313=CARTESIAN_POINT('Origin',(-4.5,36.,33.5));
#314=CARTESIAN_POINT('',(-6.,79.,33.5));
#315=CARTESIAN_POINT('Origin',(137.6,77.2,34.15));
#316=CARTESIAN_POINT('',(137.6,77.2,36.65));
#317=CARTESIAN_POINT('',(137.6,77.2,36.65));
#318=CARTESIAN_POINT('',(137.6,77.2,34.15));
#319=CARTESIAN_POINT('',(137.6,77.2,34.15));
#320=CARTESIAN_POINT('',(137.6,77.2,34.15));
#321=CARTESIAN_POINT('Origin',(65.8,36.,36.65));
#322=CARTESIAN_POINT('',(137.6,-5.2,36.65));
#323=CARTESIAN_POINT('',(-6.,-5.2,36.65));
#324=CARTESIAN_POINT('',(137.6,-5.2,36.65));
#325=CARTESIAN_POINT('Origin',(137.6,-5.2,34.15));
#326=CARTESIAN_POINT('',(137.6,-5.2,34.15));
#327=CARTESIAN_POINT('',(137.6,-5.2,34.15));
#328=CARTESIAN_POINT('',(137.6,-5.2,34.15));
#329=CARTESIAN_POINT('Origin',(-6.,-5.2,34.15));
#330=CARTESIAN_POINT('',(-6.,-5.2,34.15));
#331=CARTESIAN_POINT('Origin',(-6.,77.2,34.15));
#332=CARTESIAN_POINT('Origin',(65.8,36.,34.15));
#333=CARTESIAN_POINT('',(-117.838914782173,84.086189871107,-26.841990914007));
#334=UNCERTAINTY_MEASURE_WITH_UNIT(LENGTH_MEASURE(0.01),#340,
'DISTANCE_ACCURACY_VALUE',
'Maximum model space distance between geometric entities at asserted c
onnectivities');
#335=UNCERTAINTY_MEASURE_WITH_UNIT(LENGTH_MEASURE(0.01),#340,
'DISTANCE_ACCURACY_VALUE',
'Maximum model space distance between geometric entities at asserted c
onnectivities');
#336=UNCERTAINTY_MEASURE_WITH_UNIT(LENGTH_MEASURE(0.01),#340,
'DISTANCE_ACCURACY_VALUE',
'Maximum model space distance between geometric entities at asserted c
onnectivities');
#337=(
GEOMETRIC_REPRESENTATION_CONTEXT(3)
GLOBAL_UNCERTAINTY_ASSIGNED_CONTEXT((#334))
GLOBAL_UNIT_ASSIGNED_CONTEXT((#340,#342,#343))
REPRESENTATION_CONTEXT('','3D')
);
#338=(
GEOMETRIC_REPRESENTATION_CONTEXT(3)
GLOBAL_UNCERTAINTY_ASSIGNED_CONTEXT((#335))
GLOBAL_UNIT_ASSIGNED_CONTEXT((#340,#342,#343))
REPRESENTATION_CONTEXT('','3D')
);
#339=(
GEOMETRIC_REPRESENTATION_CONTEXT(3)
GLOBAL_UNCERTAINTY_ASSIGNED_CONTEXT((#336))
GLOBAL_UNIT_ASSIGNED_CONTEXT((#340,#342,#343))
REPRESENTATION_CONTEXT('','3D')
);
#340=(
LENGTH_UNIT()
NAMED_UNIT(*)
SI_UNIT(.MILLI.,.METRE.)
);
#341=(
LENGTH_UNIT()
NAMED_UNIT(*)
SI_UNIT($,.METRE.)
);
#342=(
NAMED_UNIT(*)
PLANE_ANGLE_UNIT()
SI_UNIT($,.RADIAN.)
);
#343=(
NAMED_UNIT(*)
SI_UNIT($,.STERADIAN.)
SOLID_ANGLE_UNIT()
);
#344=SHAPE_DEFINITION_REPRESENTATION(#346,#349);
#345=SHAPE_DEFINITION_REPRESENTATION(#347,#350);
#346=PRODUCT_DEFINITION_SHAPE('',$,#352);
#347=PRODUCT_DEFINITION_SHAPE('',$,#353);
#348=PRODUCT_DEFINITION_SHAPE($,$,#14);
#349=SHAPE_REPRESENTATION('',(#214,#227),#337);
#350=SHAPE_REPRESENTATION('',(#215),#338);
#351=PRODUCT_DEFINITION_CONTEXT('part definition',#359,'design');
#352=PRODUCT_DEFINITION('2026-08-24-15-18-20-840',
'Placa STM32 - condicionamento (simplificada)',#354,#351);
#353=PRODUCT_DEFINITION('2026-08-24-16-10-04-077','09_Case_Tampa',#355,
#351);
#354=PRODUCT_DEFINITION_FORMATION('',$,#361);
#355=PRODUCT_DEFINITION_FORMATION('',$,#362);
#356=PRODUCT_RELATED_PRODUCT_CATEGORY(
'Placa STM32 - condicionamento (simplificada)',
'Placa STM32 - condicionamento (simplificada)',(#361));
#357=PRODUCT_RELATED_PRODUCT_CATEGORY('09_Case_Tampa','09_Case_Tampa',(#362));
#358=APPLICATION_PROTOCOL_DEFINITION('international standard',
'automotive_design',2009,#359);
#359=APPLICATION_CONTEXT(
'Core Data for Automotive Mechanical Design Process');
#360=PRODUCT_CONTEXT('part definition',#359,'mechanical');
#361=PRODUCT('2026-08-24-15-18-20-840',
'Placa STM32 - condicionamento (simplificada)',$,(#360));
#362=PRODUCT('2026-08-24-16-10-04-077','09_Case_Tampa',$,(#360));
#363=PRESENTATION_STYLE_ASSIGNMENT((#365));
#364=PRESENTATION_STYLE_ASSIGNMENT((#366));
#365=SURFACE_STYLE_USAGE(.BOTH.,#367);
#366=SURFACE_STYLE_USAGE(.BOTH.,#368);
#367=SURFACE_SIDE_STYLE('',(#369));
#368=SURFACE_SIDE_STYLE('',(#370));
#369=SURFACE_STYLE_FILL_AREA(#371);
#370=SURFACE_STYLE_FILL_AREA(#372);
#371=FILL_AREA_STYLE('A\X\E7o - Acetinado',(#373));
#372=FILL_AREA_STYLE('Pl\X\E1stico - Transl\X\FAcido fosco (Verde)',(#374));
#373=FILL_AREA_STYLE_COLOUR('A\X\E7o - Acetinado',#375);
#374=FILL_AREA_STYLE_COLOUR('Pl\X\E1stico - Transl\X\FAcido fosco (Ver
de)',#376);
#375=COLOUR_RGB('A\X\E7o - Acetinado',0.627450980392157,0.627450980392157,
0.627450980392157);
#376=COLOUR_RGB('Pl\X\E1stico - Transl\X\FAcido fosco (Verde)',0.266666666666667,
0.588235294117647,0.282352941176471);
ENDSEC;
END-ISO-10303-21;
