ISO-10303-21;
HEADER;
/* Generated by software containing ST-Developer
 * from STEP Tools, Inc. (www.steptools.com) 
 */

FILE_DESCRIPTION(
/* description */ (''),
/* implementation_level */ '2;1');

FILE_NAME(
/* name */ 'ponteira_G_finger.step',
/* time_stamp */ '2026-08-12T14:17:46-03:00',
/* author */ (''),
/* organization */ (''),
/* preprocessor_version */ 'ST-DEVELOPER v20.1',
/* originating_system */ 'Autodesk Translation Framework v15.8.0.0',
/* authorisation */ '');

FILE_SCHEMA (('AUTOMOTIVE_DESIGN { 1 0 10303 214 3 1 1 }'));
ENDSEC;

DATA;
#10=MECHANICAL_DESIGN_GEOMETRIC_PRESENTATION_REPRESENTATION('',(#17),#1209);
#11=ITEM_DEFINED_TRANSFORMATION($,$,#603,#650);
#12=(
REPRESENTATION_RELATIONSHIP($,$,#1220,#1219)
REPRESENTATION_RELATIONSHIP_WITH_TRANSFORMATION(#11)
SHAPE_REPRESENTATION_RELATIONSHIP()
);
#13=CONTEXT_DEPENDENT_SHAPE_REPRESENTATION(#12,#1218);
#14=NEXT_ASSEMBLY_USAGE_OCCURRENCE('ponteira_G_finger:1',
'ponteira_G_finger:1','ponteira_G_finger:1',#1222,#1223,
'ponteira_G_finger:1');
#15=SHAPE_REPRESENTATION_RELATIONSHIP('SRR','None',#1220,#16);
#16=ADVANCED_BREP_SHAPE_REPRESENTATION('',(#18),#1208);
#17=STYLED_ITEM('',(#1233),#18);
#18=MANIFOLD_SOLID_BREP('ponteira_G_finger',#589);
#19=CYLINDRICAL_SURFACE('',#608,7.6);
#20=CYLINDRICAL_SURFACE('',#617,5.5);
#21=CYLINDRICAL_SURFACE('',#621,10.);
#22=CYLINDRICAL_SURFACE('',#626,7.6);
#23=CYLINDRICAL_SURFACE('',#633,5.1);
#24=CYLINDRICAL_SURFACE('',#647,5.5);
#25=FACE_BOUND('',#203,.T.);
#26=LINE('',#864,#78);
#27=LINE('',#868,#79);
#28=LINE('',#870,#80);
#29=LINE('',#872,#81);
#30=LINE('',#876,#82);
#31=LINE('',#877,#83);
#32=LINE('',#883,#84);
#33=LINE('',#886,#85);
#34=LINE('',#889,#86);
#35=LINE('',#892,#87);
#36=LINE('',#895,#88);
#37=LINE('',#899,#89);
#38=LINE('',#902,#90);
#39=LINE('',#967,#91);
#40=LINE('',#969,#92);
#41=LINE('',#970,#93);
#42=LINE('',#987,#94);
#43=LINE('',#1040,#95);
#44=LINE('',#1042,#96);
#45=LINE('',#1045,#97);
#46=LINE('',#1047,#98);
#47=LINE('',#1056,#99);
#48=LINE('',#1083,#100);
#49=LINE('',#1093,#101);
#50=LINE('',#1097,#102);
#51=LINE('',#1102,#103);
#52=LINE('',#1103,#104);
#53=LINE('',#1104,#105);
#54=LINE('',#1107,#106);
#55=LINE('',#1111,#107);
#56=LINE('',#1115,#108);
#57=LINE('',#1118,#109);
#58=LINE('',#1120,#110);
#59=LINE('',#1123,#111);
#60=LINE('',#1126,#112);
#61=LINE('',#1127,#113);
#62=LINE('',#1129,#114);
#63=LINE('',#1133,#115);
#64=LINE('',#1137,#116);
#65=LINE('',#1138,#117);
#66=LINE('',#1141,#118);
#67=LINE('',#1142,#119);
#68=LINE('',#1145,#120);
#69=LINE('',#1146,#121);
#70=LINE('',#1149,#122);
#71=LINE('',#1150,#123);
#72=LINE('',#1153,#124);
#73=LINE('',#1154,#125);
#74=LINE('',#1156,#126);
#75=LINE('',#1158,#127);
#76=LINE('',#1163,#128);
#77=LINE('',#1164,#129);
#78=VECTOR('',#659,10.);
#79=VECTOR('',#662,10.);
#80=VECTOR('',#663,10.);
#81=VECTOR('',#664,10.);
#82=VECTOR('',#667,10.);
#83=VECTOR('',#668,10.);
#84=VECTOR('',#673,10.);
#85=VECTOR('',#676,10.);
#86=VECTOR('',#679,10.);
#87=VECTOR('',#682,10.);
#88=VECTOR('',#685,10.);
#89=VECTOR('',#688,10.);
#90=VECTOR('',#691,10.);
#91=VECTOR('',#694,10.);
#92=VECTOR('',#695,10.);
#93=VECTOR('',#696,10.);
#94=VECTOR('',#701,10.);
#95=VECTOR('',#704,10.);
#96=VECTOR('',#705,10.);
#97=VECTOR('',#708,10.);
#98=VECTOR('',#711,10.);
#99=VECTOR('',#712,10.);
#100=VECTOR('',#713,10.);
#101=VECTOR('',#716,10.);
#102=VECTOR('',#719,10.);
#103=VECTOR('',#724,10.);
#104=VECTOR('',#725,10.);
#105=VECTOR('',#726,10.);
#106=VECTOR('',#729,10.);
#107=VECTOR('',#734,10.);
#108=VECTOR('',#739,10.);
#109=VECTOR('',#742,10.);
#110=VECTOR('',#745,10.);
#111=VECTOR('',#748,10.);
#112=VECTOR('',#751,10.);
#113=VECTOR('',#752,10.);
#114=VECTOR('',#753,10.);
#115=VECTOR('',#756,5.1);
#116=VECTOR('',#761,10.);
#117=VECTOR('',#762,10.);
#118=VECTOR('',#765,10.);
#119=VECTOR('',#766,10.);
#120=VECTOR('',#769,10.);
#121=VECTOR('',#770,10.);
#122=VECTOR('',#773,10.);
#123=VECTOR('',#774,10.);
#124=VECTOR('',#777,10.);
#125=VECTOR('',#778,10.);
#126=VECTOR('',#781,10.);
#127=VECTOR('',#784,10.);
#128=VECTOR('',#793,10.);
#129=VECTOR('',#794,10.);
#130=CIRCLE('',#605,10.);
#131=CIRCLE('',#606,5.1);
#132=CIRCLE('',#607,5.1);
#133=CIRCLE('',#609,7.6);
#134=CIRCLE('',#610,7.6);
#135=CIRCLE('',#612,5.1);
#136=CIRCLE('',#614,5.5);
#137=CIRCLE('',#615,5.5);
#138=CIRCLE('',#618,5.5);
#139=CIRCLE('',#620,5.5);
#140=CIRCLE('',#623,5.1);
#141=CIRCLE('',#624,7.6);
#142=CIRCLE('',#627,7.6);
#143=CIRCLE('',#629,5.1);
#144=CIRCLE('',#631,5.1);
#145=CIRCLE('',#634,5.1);
#146=CIRCLE('',#635,5.1);
#147=CIRCLE('',#636,5.1);
#148=CIRCLE('',#637,5.1);
#149=PLANE('',#604);
#150=PLANE('',#611);
#151=PLANE('',#613);
#152=PLANE('',#616);
#153=PLANE('',#619);
#154=PLANE('',#622);
#155=PLANE('',#625);
#156=PLANE('',#628);
#157=PLANE('',#630);
#158=PLANE('',#632);
#159=PLANE('',#638);
#160=PLANE('',#639);
#161=PLANE('',#640);
#162=PLANE('',#641);
#163=PLANE('',#642);
#164=PLANE('',#643);
#165=PLANE('',#644);
#166=PLANE('',#645);
#167=PLANE('',#646);
#168=PLANE('',#648);
#169=PLANE('',#649);
#170=FACE_OUTER_BOUND('',#201,.T.);
#171=FACE_OUTER_BOUND('',#202,.T.);
#172=FACE_OUTER_BOUND('',#204,.T.);
#173=FACE_OUTER_BOUND('',#205,.T.);
#174=FACE_OUTER_BOUND('',#206,.T.);
#175=FACE_OUTER_BOUND('',#207,.T.);
#176=FACE_OUTER_BOUND('',#208,.T.);
#177=FACE_OUTER_BOUND('',#209,.T.);
#178=FACE_OUTER_BOUND('',#210,.T.);
#179=FACE_OUTER_BOUND('',#211,.T.);
#180=FACE_OUTER_BOUND('',#212,.T.);
#181=FACE_OUTER_BOUND('',#213,.T.);
#182=FACE_OUTER_BOUND('',#214,.T.);
#183=FACE_OUTER_BOUND('',#215,.T.);
#184=FACE_OUTER_BOUND('',#216,.T.);
#185=FACE_OUTER_BOUND('',#217,.T.);
#186=FACE_OUTER_BOUND('',#218,.T.);
#187=FACE_OUTER_BOUND('',#219,.T.);
#188=FACE_OUTER_BOUND('',#220,.T.);
#189=FACE_OUTER_BOUND('',#221,.T.);
#190=FACE_OUTER_BOUND('',#222,.T.);
#191=FACE_OUTER_BOUND('',#223,.T.);
#192=FACE_OUTER_BOUND('',#224,.T.);
#193=FACE_OUTER_BOUND('',#225,.T.);
#194=FACE_OUTER_BOUND('',#226,.T.);
#195=FACE_OUTER_BOUND('',#227,.T.);
#196=FACE_OUTER_BOUND('',#228,.T.);
#197=FACE_OUTER_BOUND('',#229,.T.);
#198=FACE_OUTER_BOUND('',#230,.T.);
#199=FACE_OUTER_BOUND('',#231,.T.);
#200=FACE_OUTER_BOUND('',#232,.T.);
#201=EDGE_LOOP('',(#386,#387,#388));
#202=EDGE_LOOP('',(#389));
#203=EDGE_LOOP('',(#390,#391,#392,#393,#394,#395,#396,#397));
#204=EDGE_LOOP('',(#398,#399,#400,#401));
#205=EDGE_LOOP('',(#402,#403,#404,#405));
#206=EDGE_LOOP('',(#406,#407,#408,#409,#410,#411));
#207=EDGE_LOOP('',(#412,#413));
#208=EDGE_LOOP('',(#414,#415,#416,#417));
#209=EDGE_LOOP('',(#418,#419,#420,#421,#422,#423));
#210=EDGE_LOOP('',(#424,#425));
#211=EDGE_LOOP('',(#426,#427,#428,#429,#430,#431));
#212=EDGE_LOOP('',(#432,#433,#434,#435,#436,#437,#438,#439,#440,#441,#442,
#443,#444,#445,#446,#447,#448,#449,#450,#451));
#213=EDGE_LOOP('',(#452,#453,#454,#455));
#214=EDGE_LOOP('',(#456,#457,#458,#459));
#215=EDGE_LOOP('',(#460,#461,#462,#463));
#216=EDGE_LOOP('',(#464,#465,#466,#467));
#217=EDGE_LOOP('',(#468,#469,#470,#471));
#218=EDGE_LOOP('',(#472,#473,#474,#475));
#219=EDGE_LOOP('',(#476,#477,#478,#479,#480,#481,#482,#483,#484,#485,#486,
#487,#488,#489,#490,#491,#492,#493,#494,#495));
#220=EDGE_LOOP('',(#496,#497,#498,#499));
#221=EDGE_LOOP('',(#500,#501,#502,#503,#504,#505,#506,#507));
#222=EDGE_LOOP('',(#508,#509,#510,#511,#512));
#223=EDGE_LOOP('',(#513,#514,#515,#516));
#224=EDGE_LOOP('',(#517,#518,#519,#520,#521,#522,#523,#524));
#225=EDGE_LOOP('',(#525,#526,#527,#528));
#226=EDGE_LOOP('',(#529,#530,#531,#532));
#227=EDGE_LOOP('',(#533,#534,#535,#536));
#228=EDGE_LOOP('',(#537));
#229=EDGE_LOOP('',(#538,#539,#540,#541,#542,#543));
#230=EDGE_LOOP('',(#544,#545,#546,#547));
#231=EDGE_LOOP('',(#548,#549));
#232=EDGE_LOOP('',(#550,#551,#552,#553));
#233=B_SPLINE_CURVE_WITH_KNOTS('',3,(#825,#826,#827,#828,#829,#830,#831,
#832,#833,#834,#835,#836,#837,#838),.UNSPECIFIED.,.F.,.F.,(4,2,2,2,2,2,
4),(-1.99821342633724,-1.80275370722517,-1.60731157310063,-1.42255659756118,
-1.24357295466746,-1.10117128222449,-0.999374933931536),.UNSPECIFIED.);
#234=B_SPLINE_CURVE_WITH_KNOTS('',3,(#840,#841,#842,#843,#844),
 .UNSPECIFIED.,.F.,.F.,(4,1,4),(-9.81717766119112,-9.30257380708409,-8.61370210767621),
 .UNSPECIFIED.);
#235=B_SPLINE_CURVE_WITH_KNOTS('',3,(#845,#846,#847,#848,#849,#850,#851,
#852,#853,#854,#855,#856,#857,#858),.UNSPECIFIED.,.F.,.F.,(4,2,2,2,2,2,
4),(-0.999374933931536,-0.968910556157031,-0.83384749674543,-0.679712607735435,
-0.466949919618869,-0.254051950665689,0.),.UNSPECIFIED.);
#236=B_SPLINE_CURVE_WITH_KNOTS('',3,(#935,#936,#937,#938,#939,#940,#941,
#942,#943,#944,#945,#946,#947,#948,#949,#950,#951,#952,#953,#954,#955,#956,
#957,#958),.UNSPECIFIED.,.F.,.F.,(4,2,2,2,2,2,2,2,2,2,2,4),(-2.41333679447332,
-2.16920647198018,-1.94784077275846,-1.7037269263099,-1.5000392859498,-1.32200499156667,
-1.14846361594344,-0.973074865291307,-0.78224558100728,-0.535997113895493,
-0.291803946889811,0.),.UNSPECIFIED.);
#237=B_SPLINE_CURVE_WITH_KNOTS('',3,(#959,#960,#961,#962,#963,#964),
 .UNSPECIFIED.,.F.,.F.,(4,1,1,4),(-10.2694609816774,-9.65737333037287,-9.23700684849487,
-8.83721092269315),.UNSPECIFIED.);
#238=B_SPLINE_CURVE_WITH_KNOTS('',3,(#972,#973,#974,#975,#976,#977),
 .UNSPECIFIED.,.F.,.F.,(4,2,4),(1.71646720572416,1.93267423533166,2.05441326026062),
 .UNSPECIFIED.);
#239=B_SPLINE_CURVE_WITH_KNOTS('',3,(#979,#980,#981,#982,#983,#984),
 .UNSPECIFIED.,.F.,.F.,(4,2,4),(1.37852115118774,1.50026017611667,1.71646720572416),
 .UNSPECIFIED.);
#240=B_SPLINE_CURVE_WITH_KNOTS('',3,(#1010,#1011,#1012,#1013,#1014,#1015,
#1016,#1017,#1018,#1019,#1020,#1021,#1022,#1023,#1024,#1025,#1026,#1027,
#1028,#1029,#1030,#1031,#1032,#1033),.UNSPECIFIED.,.F.,.F.,(4,2,2,2,2,2,
2,2,2,2,2,4),(-1.99804945635744,-1.81757916503633,-1.63061499215103,-1.4453436445601,
-1.26224136249357,-1.11346501711766,-0.973095101271037,-0.83107593377126,
-0.674313727420956,-0.467206755939509,-0.254062841926587,0.),
 .UNSPECIFIED.);
#241=B_SPLINE_CURVE_WITH_KNOTS('',3,(#1034,#1035,#1036,#1037,#1038),
 .UNSPECIFIED.,.F.,.F.,(4,1,4),(-9.81753803514088,-9.12652565587202,-8.61406580865231),
 .UNSPECIFIED.);
#242=B_SPLINE_CURVE_WITH_KNOTS('',3,(#1049,#1050,#1051,#1052,#1053,#1054),
 .UNSPECIFIED.,.F.,.F.,(4,2,4),(1.3785211511877,1.50026017611667,1.71646720572416),
 .UNSPECIFIED.);
#243=B_SPLINE_CURVE_WITH_KNOTS('',3,(#1058,#1059,#1060,#1061,#1062,#1063,
#1064,#1065,#1066,#1067,#1068,#1069,#1070,#1071,#1072,#1073,#1074,#1075,
#1076,#1077,#1078,#1079,#1080,#1081),.UNSPECIFIED.,.F.,.F.,(4,2,2,2,2,2,
2,2,2,2,2,4),(-2.41261456440508,-2.20525992295681,-1.99153331403743,-1.77790644883151,
-1.56554351206818,-1.36969634648796,-1.16711112509913,-0.967192201878085,
-0.770504170954597,-0.53670529090392,-0.291817886050947,0.),
 .UNSPECIFIED.);
#244=B_SPLINE_CURVE_WITH_KNOTS('',3,(#1084,#1085,#1086,#1087,#1088,#1089),
 .UNSPECIFIED.,.F.,.F.,(4,2,4),(1.71646720572416,1.93267423533166,2.0544132602606),
 .UNSPECIFIED.);
#245=B_SPLINE_CURVE_WITH_KNOTS('',3,(#1166,#1167,#1168,#1169,#1170,#1171),
 .UNSPECIFIED.,.F.,.F.,(4,1,1,4),(-10.2694615181504,-9.65626158179417,-9.23645069366542,
-8.83721093003855),.UNSPECIFIED.);
#246=VERTEX_POINT('',#823);
#247=VERTEX_POINT('',#824);
#248=VERTEX_POINT('',#839);
#249=VERTEX_POINT('',#860);
#250=VERTEX_POINT('',#862);
#251=VERTEX_POINT('',#863);
#252=VERTEX_POINT('',#865);
#253=VERTEX_POINT('',#867);
#254=VERTEX_POINT('',#869);
#255=VERTEX_POINT('',#871);
#256=VERTEX_POINT('',#873);
#257=VERTEX_POINT('',#875);
#258=VERTEX_POINT('',#879);
#259=VERTEX_POINT('',#880);
#260=VERTEX_POINT('',#882);
#261=VERTEX_POINT('',#884);
#262=VERTEX_POINT('',#888);
#263=VERTEX_POINT('',#890);
#264=VERTEX_POINT('',#894);
#265=VERTEX_POINT('',#896);
#266=VERTEX_POINT('',#898);
#267=VERTEX_POINT('',#900);
#268=VERTEX_POINT('',#933);
#269=VERTEX_POINT('',#934);
#270=VERTEX_POINT('',#966);
#271=VERTEX_POINT('',#968);
#272=VERTEX_POINT('',#978);
#273=VERTEX_POINT('',#985);
#274=VERTEX_POINT('',#1008);
#275=VERTEX_POINT('',#1009);
#276=VERTEX_POINT('',#1041);
#277=VERTEX_POINT('',#1043);
#278=VERTEX_POINT('',#1048);
#279=VERTEX_POINT('',#1055);
#280=VERTEX_POINT('',#1057);
#281=VERTEX_POINT('',#1082);
#282=VERTEX_POINT('',#1091);
#283=VERTEX_POINT('',#1092);
#284=VERTEX_POINT('',#1094);
#285=VERTEX_POINT('',#1096);
#286=VERTEX_POINT('',#1100);
#287=VERTEX_POINT('',#1101);
#288=VERTEX_POINT('',#1106);
#289=VERTEX_POINT('',#1110);
#290=VERTEX_POINT('',#1114);
#291=VERTEX_POINT('',#1116);
#292=VERTEX_POINT('',#1122);
#293=VERTEX_POINT('',#1124);
#294=VERTEX_POINT('',#1128);
#295=VERTEX_POINT('',#1130);
#296=VERTEX_POINT('',#1132);
#297=VERTEX_POINT('',#1135);
#298=VERTEX_POINT('',#1140);
#299=VERTEX_POINT('',#1144);
#300=VERTEX_POINT('',#1148);
#301=VERTEX_POINT('',#1152);
#302=EDGE_CURVE('',#246,#247,#233,.T.);
#303=EDGE_CURVE('',#246,#248,#234,.T.);
#304=EDGE_CURVE('',#247,#248,#235,.T.);
#305=EDGE_CURVE('',#249,#249,#130,.T.);
#306=EDGE_CURVE('',#250,#251,#26,.T.);
#307=EDGE_CURVE('',#251,#252,#131,.T.);
#308=EDGE_CURVE('',#252,#253,#27,.T.);
#309=EDGE_CURVE('',#253,#254,#28,.T.);
#310=EDGE_CURVE('',#254,#255,#29,.T.);
#311=EDGE_CURVE('',#255,#256,#132,.T.);
#312=EDGE_CURVE('',#256,#257,#30,.T.);
#313=EDGE_CURVE('',#257,#250,#31,.T.);
#314=EDGE_CURVE('',#258,#259,#133,.T.);
#315=EDGE_CURVE('',#260,#258,#32,.T.);
#316=EDGE_CURVE('',#260,#261,#134,.T.);
#317=EDGE_CURVE('',#259,#261,#33,.T.);
#318=EDGE_CURVE('',#262,#259,#34,.T.);
#319=EDGE_CURVE('',#263,#262,#135,.T.);
#320=EDGE_CURVE('',#258,#263,#35,.T.);
#321=EDGE_CURVE('',#264,#246,#36,.T.);
#322=EDGE_CURVE('',#265,#264,#136,.T.);
#323=EDGE_CURVE('',#266,#265,#37,.T.);
#324=EDGE_CURVE('',#267,#266,#137,.T.);
#325=EDGE_CURVE('',#248,#267,#38,.T.);
#326=EDGE_CURVE('',#268,#269,#236,.T.);
#327=EDGE_CURVE('',#268,#269,#237,.T.);
#328=EDGE_CURVE('',#269,#270,#39,.T.);
#329=EDGE_CURVE('',#271,#268,#40,.T.);
#330=EDGE_CURVE('',#270,#271,#41,.T.);
#331=EDGE_CURVE('',#270,#264,#238,.T.);
#332=EDGE_CURVE('',#272,#271,#239,.T.);
#333=EDGE_CURVE('',#272,#273,#138,.T.);
#334=EDGE_CURVE('',#273,#265,#42,.T.);
#335=EDGE_CURVE('',#274,#275,#240,.T.);
#336=EDGE_CURVE('',#274,#275,#241,.T.);
#337=EDGE_CURVE('',#275,#272,#43,.T.);
#338=EDGE_CURVE('',#276,#274,#44,.T.);
#339=EDGE_CURVE('',#277,#276,#139,.T.);
#340=EDGE_CURVE('',#273,#277,#45,.T.);
#341=EDGE_CURVE('',#247,#249,#46,.T.);
#342=EDGE_CURVE('',#267,#278,#242,.T.);
#343=EDGE_CURVE('',#278,#279,#47,.T.);
#344=EDGE_CURVE('',#279,#280,#243,.T.);
#345=EDGE_CURVE('',#280,#281,#48,.T.);
#346=EDGE_CURVE('',#281,#276,#244,.T.);
#347=EDGE_CURVE('',#282,#283,#49,.T.);
#348=EDGE_CURVE('',#284,#282,#140,.T.);
#349=EDGE_CURVE('',#285,#284,#50,.T.);
#350=EDGE_CURVE('',#283,#285,#141,.T.);
#351=EDGE_CURVE('',#286,#287,#51,.T.);
#352=EDGE_CURVE('',#287,#285,#52,.T.);
#353=EDGE_CURVE('',#286,#284,#53,.T.);
#354=EDGE_CURVE('',#283,#288,#54,.T.);
#355=EDGE_CURVE('',#288,#287,#142,.T.);
#356=EDGE_CURVE('',#288,#289,#55,.T.);
#357=EDGE_CURVE('',#289,#286,#143,.T.);
#358=EDGE_CURVE('',#290,#260,#56,.T.);
#359=EDGE_CURVE('',#291,#290,#144,.T.);
#360=EDGE_CURVE('',#261,#291,#57,.T.);
#361=EDGE_CURVE('',#262,#291,#58,.T.);
#362=EDGE_CURVE('',#282,#292,#59,.T.);
#363=EDGE_CURVE('',#292,#293,#145,.T.);
#364=EDGE_CURVE('',#293,#256,#60,.T.);
#365=EDGE_CURVE('',#255,#263,#61,.T.);
#366=EDGE_CURVE('',#290,#294,#62,.T.);
#367=EDGE_CURVE('',#294,#295,#146,.T.);
#368=EDGE_CURVE('',#295,#296,#63,.T.);
#369=EDGE_CURVE('',#296,#296,#147,.T.);
#370=EDGE_CURVE('',#295,#297,#148,.T.);
#371=EDGE_CURVE('',#297,#252,#64,.T.);
#372=EDGE_CURVE('',#251,#289,#65,.T.);
#373=EDGE_CURVE('',#297,#298,#66,.T.);
#374=EDGE_CURVE('',#253,#298,#67,.T.);
#375=EDGE_CURVE('',#250,#299,#68,.T.);
#376=EDGE_CURVE('',#299,#292,#69,.T.);
#377=EDGE_CURVE('',#300,#294,#70,.T.);
#378=EDGE_CURVE('',#298,#300,#71,.T.);
#379=EDGE_CURVE('',#301,#299,#72,.T.);
#380=EDGE_CURVE('',#293,#301,#73,.T.);
#381=EDGE_CURVE('',#254,#300,#74,.T.);
#382=EDGE_CURVE('',#257,#301,#75,.T.);
#383=EDGE_CURVE('',#266,#277,#76,.T.);
#384=EDGE_CURVE('',#281,#278,#77,.T.);
#385=EDGE_CURVE('',#279,#280,#245,.T.);
#386=ORIENTED_EDGE('',*,*,#302,.F.);
#387=ORIENTED_EDGE('',*,*,#303,.T.);
#388=ORIENTED_EDGE('',*,*,#304,.F.);
#389=ORIENTED_EDGE('',*,*,#305,.F.);
#390=ORIENTED_EDGE('',*,*,#306,.T.);
#391=ORIENTED_EDGE('',*,*,#307,.T.);
#392=ORIENTED_EDGE('',*,*,#308,.T.);
#393=ORIENTED_EDGE('',*,*,#309,.T.);
#394=ORIENTED_EDGE('',*,*,#310,.T.);
#395=ORIENTED_EDGE('',*,*,#311,.T.);
#396=ORIENTED_EDGE('',*,*,#312,.T.);
#397=ORIENTED_EDGE('',*,*,#313,.T.);
#398=ORIENTED_EDGE('',*,*,#314,.F.);
#399=ORIENTED_EDGE('',*,*,#315,.F.);
#400=ORIENTED_EDGE('',*,*,#316,.T.);
#401=ORIENTED_EDGE('',*,*,#317,.F.);
#402=ORIENTED_EDGE('',*,*,#318,.F.);
#403=ORIENTED_EDGE('',*,*,#319,.F.);
#404=ORIENTED_EDGE('',*,*,#320,.F.);
#405=ORIENTED_EDGE('',*,*,#314,.T.);
#406=ORIENTED_EDGE('',*,*,#321,.F.);
#407=ORIENTED_EDGE('',*,*,#322,.F.);
#408=ORIENTED_EDGE('',*,*,#323,.F.);
#409=ORIENTED_EDGE('',*,*,#324,.F.);
#410=ORIENTED_EDGE('',*,*,#325,.F.);
#411=ORIENTED_EDGE('',*,*,#303,.F.);
#412=ORIENTED_EDGE('',*,*,#326,.F.);
#413=ORIENTED_EDGE('',*,*,#327,.T.);
#414=ORIENTED_EDGE('',*,*,#328,.F.);
#415=ORIENTED_EDGE('',*,*,#327,.F.);
#416=ORIENTED_EDGE('',*,*,#329,.F.);
#417=ORIENTED_EDGE('',*,*,#330,.F.);
#418=ORIENTED_EDGE('',*,*,#331,.F.);
#419=ORIENTED_EDGE('',*,*,#330,.T.);
#420=ORIENTED_EDGE('',*,*,#332,.F.);
#421=ORIENTED_EDGE('',*,*,#333,.T.);
#422=ORIENTED_EDGE('',*,*,#334,.T.);
#423=ORIENTED_EDGE('',*,*,#322,.T.);
#424=ORIENTED_EDGE('',*,*,#335,.F.);
#425=ORIENTED_EDGE('',*,*,#336,.T.);
#426=ORIENTED_EDGE('',*,*,#337,.F.);
#427=ORIENTED_EDGE('',*,*,#336,.F.);
#428=ORIENTED_EDGE('',*,*,#338,.F.);
#429=ORIENTED_EDGE('',*,*,#339,.F.);
#430=ORIENTED_EDGE('',*,*,#340,.F.);
#431=ORIENTED_EDGE('',*,*,#333,.F.);
#432=ORIENTED_EDGE('',*,*,#302,.T.);
#433=ORIENTED_EDGE('',*,*,#341,.T.);
#434=ORIENTED_EDGE('',*,*,#305,.T.);
#435=ORIENTED_EDGE('',*,*,#341,.F.);
#436=ORIENTED_EDGE('',*,*,#304,.T.);
#437=ORIENTED_EDGE('',*,*,#325,.T.);
#438=ORIENTED_EDGE('',*,*,#342,.T.);
#439=ORIENTED_EDGE('',*,*,#343,.T.);
#440=ORIENTED_EDGE('',*,*,#344,.T.);
#441=ORIENTED_EDGE('',*,*,#345,.T.);
#442=ORIENTED_EDGE('',*,*,#346,.T.);
#443=ORIENTED_EDGE('',*,*,#338,.T.);
#444=ORIENTED_EDGE('',*,*,#335,.T.);
#445=ORIENTED_EDGE('',*,*,#337,.T.);
#446=ORIENTED_EDGE('',*,*,#332,.T.);
#447=ORIENTED_EDGE('',*,*,#329,.T.);
#448=ORIENTED_EDGE('',*,*,#326,.T.);
#449=ORIENTED_EDGE('',*,*,#328,.T.);
#450=ORIENTED_EDGE('',*,*,#331,.T.);
#451=ORIENTED_EDGE('',*,*,#321,.T.);
#452=ORIENTED_EDGE('',*,*,#347,.F.);
#453=ORIENTED_EDGE('',*,*,#348,.F.);
#454=ORIENTED_EDGE('',*,*,#349,.F.);
#455=ORIENTED_EDGE('',*,*,#350,.F.);
#456=ORIENTED_EDGE('',*,*,#351,.T.);
#457=ORIENTED_EDGE('',*,*,#352,.T.);
#458=ORIENTED_EDGE('',*,*,#349,.T.);
#459=ORIENTED_EDGE('',*,*,#353,.F.);
#460=ORIENTED_EDGE('',*,*,#354,.F.);
#461=ORIENTED_EDGE('',*,*,#350,.T.);
#462=ORIENTED_EDGE('',*,*,#352,.F.);
#463=ORIENTED_EDGE('',*,*,#355,.F.);
#464=ORIENTED_EDGE('',*,*,#356,.F.);
#465=ORIENTED_EDGE('',*,*,#355,.T.);
#466=ORIENTED_EDGE('',*,*,#351,.F.);
#467=ORIENTED_EDGE('',*,*,#357,.F.);
#468=ORIENTED_EDGE('',*,*,#316,.F.);
#469=ORIENTED_EDGE('',*,*,#358,.F.);
#470=ORIENTED_EDGE('',*,*,#359,.F.);
#471=ORIENTED_EDGE('',*,*,#360,.F.);
#472=ORIENTED_EDGE('',*,*,#360,.T.);
#473=ORIENTED_EDGE('',*,*,#361,.F.);
#474=ORIENTED_EDGE('',*,*,#318,.T.);
#475=ORIENTED_EDGE('',*,*,#317,.T.);
#476=ORIENTED_EDGE('',*,*,#357,.T.);
#477=ORIENTED_EDGE('',*,*,#353,.T.);
#478=ORIENTED_EDGE('',*,*,#348,.T.);
#479=ORIENTED_EDGE('',*,*,#362,.T.);
#480=ORIENTED_EDGE('',*,*,#363,.T.);
#481=ORIENTED_EDGE('',*,*,#364,.T.);
#482=ORIENTED_EDGE('',*,*,#311,.F.);
#483=ORIENTED_EDGE('',*,*,#365,.T.);
#484=ORIENTED_EDGE('',*,*,#319,.T.);
#485=ORIENTED_EDGE('',*,*,#361,.T.);
#486=ORIENTED_EDGE('',*,*,#359,.T.);
#487=ORIENTED_EDGE('',*,*,#366,.T.);
#488=ORIENTED_EDGE('',*,*,#367,.T.);
#489=ORIENTED_EDGE('',*,*,#368,.T.);
#490=ORIENTED_EDGE('',*,*,#369,.T.);
#491=ORIENTED_EDGE('',*,*,#368,.F.);
#492=ORIENTED_EDGE('',*,*,#370,.T.);
#493=ORIENTED_EDGE('',*,*,#371,.T.);
#494=ORIENTED_EDGE('',*,*,#307,.F.);
#495=ORIENTED_EDGE('',*,*,#372,.T.);
#496=ORIENTED_EDGE('',*,*,#371,.F.);
#497=ORIENTED_EDGE('',*,*,#373,.T.);
#498=ORIENTED_EDGE('',*,*,#374,.F.);
#499=ORIENTED_EDGE('',*,*,#308,.F.);
#500=ORIENTED_EDGE('',*,*,#356,.T.);
#501=ORIENTED_EDGE('',*,*,#372,.F.);
#502=ORIENTED_EDGE('',*,*,#306,.F.);
#503=ORIENTED_EDGE('',*,*,#375,.T.);
#504=ORIENTED_EDGE('',*,*,#376,.T.);
#505=ORIENTED_EDGE('',*,*,#362,.F.);
#506=ORIENTED_EDGE('',*,*,#347,.T.);
#507=ORIENTED_EDGE('',*,*,#354,.T.);
#508=ORIENTED_EDGE('',*,*,#367,.F.);
#509=ORIENTED_EDGE('',*,*,#377,.F.);
#510=ORIENTED_EDGE('',*,*,#378,.F.);
#511=ORIENTED_EDGE('',*,*,#373,.F.);
#512=ORIENTED_EDGE('',*,*,#370,.F.);
#513=ORIENTED_EDGE('',*,*,#363,.F.);
#514=ORIENTED_EDGE('',*,*,#376,.F.);
#515=ORIENTED_EDGE('',*,*,#379,.F.);
#516=ORIENTED_EDGE('',*,*,#380,.F.);
#517=ORIENTED_EDGE('',*,*,#320,.T.);
#518=ORIENTED_EDGE('',*,*,#365,.F.);
#519=ORIENTED_EDGE('',*,*,#310,.F.);
#520=ORIENTED_EDGE('',*,*,#381,.T.);
#521=ORIENTED_EDGE('',*,*,#377,.T.);
#522=ORIENTED_EDGE('',*,*,#366,.F.);
#523=ORIENTED_EDGE('',*,*,#358,.T.);
#524=ORIENTED_EDGE('',*,*,#315,.T.);
#525=ORIENTED_EDGE('',*,*,#313,.F.);
#526=ORIENTED_EDGE('',*,*,#382,.T.);
#527=ORIENTED_EDGE('',*,*,#379,.T.);
#528=ORIENTED_EDGE('',*,*,#375,.F.);
#529=ORIENTED_EDGE('',*,*,#364,.F.);
#530=ORIENTED_EDGE('',*,*,#380,.T.);
#531=ORIENTED_EDGE('',*,*,#382,.F.);
#532=ORIENTED_EDGE('',*,*,#312,.F.);
#533=ORIENTED_EDGE('',*,*,#309,.F.);
#534=ORIENTED_EDGE('',*,*,#374,.T.);
#535=ORIENTED_EDGE('',*,*,#378,.T.);
#536=ORIENTED_EDGE('',*,*,#381,.F.);
#537=ORIENTED_EDGE('',*,*,#369,.F.);
#538=ORIENTED_EDGE('',*,*,#342,.F.);
#539=ORIENTED_EDGE('',*,*,#324,.T.);
#540=ORIENTED_EDGE('',*,*,#383,.T.);
#541=ORIENTED_EDGE('',*,*,#339,.T.);
#542=ORIENTED_EDGE('',*,*,#346,.F.);
#543=ORIENTED_EDGE('',*,*,#384,.T.);
#544=ORIENTED_EDGE('',*,*,#343,.F.);
#545=ORIENTED_EDGE('',*,*,#384,.F.);
#546=ORIENTED_EDGE('',*,*,#345,.F.);
#547=ORIENTED_EDGE('',*,*,#385,.F.);
#548=ORIENTED_EDGE('',*,*,#344,.F.);
#549=ORIENTED_EDGE('',*,*,#385,.T.);
#550=ORIENTED_EDGE('',*,*,#383,.F.);
#551=ORIENTED_EDGE('',*,*,#323,.T.);
#552=ORIENTED_EDGE('',*,*,#334,.F.);
#553=ORIENTED_EDGE('',*,*,#340,.T.);
#554=B_SPLINE_SURFACE_WITH_KNOTS('',3,3,((#803,#804,#805,#806,#807),(#808,
#809,#810,#811,#812),(#813,#814,#815,#816,#817),(#818,#819,#820,#821,#822)),
 .UNSPECIFIED.,.F.,.F.,.F.,(4,4),(4,1,4),(0.487765588105262,1.),(-9.83098647138718,
-9.30257380708409,-8.59802358801331),.UNSPECIFIED.);
#555=B_SPLINE_SURFACE_WITH_KNOTS('',3,3,((#903,#904,#905,#906,#907,#908),
(#909,#910,#911,#912,#913,#914),(#915,#916,#917,#918,#919,#920),(#921,#922,
#923,#924,#925,#926),(#927,#928,#929,#930,#931,#932)),.UNSPECIFIED.,.F.,
 .F.,.F.,(4,1,4),(4,1,1,4),(0.414382903426866,0.707191451713433,1.),(-10.2879230531899,
-9.65737333037287,-9.23700684849487,-8.81664036661687),.UNSPECIFIED.);
#556=B_SPLINE_SURFACE_WITH_KNOTS('',3,3,((#988,#989,#990,#991,#992),(#993,
#994,#995,#996,#997),(#998,#999,#1000,#1001,#1002),(#1003,#1004,#1005,#1006,
#1007)),.UNSPECIFIED.,.F.,.F.,.F.,(4,4),(4,1,4),(0.486805302454578,1.),
(-9.8307127757318,-9.12652565587202,-8.59838531597718),.UNSPECIFIED.);
#557=B_SPLINE_SURFACE_WITH_KNOTS('',3,3,((#1172,#1173,#1174,#1175,#1176,
#1177),(#1178,#1179,#1180,#1181,#1182,#1183),(#1184,#1185,#1186,#1187,#1188,
#1189),(#1190,#1191,#1192,#1193,#1194,#1195),(#1196,#1197,#1198,#1199,#1200,
#1201)),.UNSPECIFIED.,.F.,.F.,.F.,(4,1,4),(4,1,1,4),(0.414222965327261,
0.70711148266363,1.),(-10.2859779139873,-9.65626158179417,-9.23645069366542,
-8.81663980553667),.UNSPECIFIED.);
#558=ADVANCED_FACE('',(#170),#554,.T.);
#559=ADVANCED_FACE('',(#171,#25),#149,.F.);
#560=ADVANCED_FACE('',(#172),#19,.F.);
#561=ADVANCED_FACE('',(#173),#150,.T.);
#562=ADVANCED_FACE('',(#174),#151,.T.);
#563=ADVANCED_FACE('',(#175),#555,.T.);
#564=ADVANCED_FACE('',(#176),#152,.T.);
#565=ADVANCED_FACE('',(#177),#20,.T.);
#566=ADVANCED_FACE('',(#178),#556,.T.);
#567=ADVANCED_FACE('',(#179),#153,.T.);
#568=ADVANCED_FACE('',(#180),#21,.T.);
#569=ADVANCED_FACE('',(#181),#154,.F.);
#570=ADVANCED_FACE('',(#182),#155,.F.);
#571=ADVANCED_FACE('',(#183),#22,.F.);
#572=ADVANCED_FACE('',(#184),#156,.T.);
#573=ADVANCED_FACE('',(#185),#157,.F.);
#574=ADVANCED_FACE('',(#186),#158,.F.);
#575=ADVANCED_FACE('',(#187),#23,.F.);
#576=ADVANCED_FACE('',(#188),#159,.F.);
#577=ADVANCED_FACE('',(#189),#160,.F.);
#578=ADVANCED_FACE('',(#190),#161,.F.);
#579=ADVANCED_FACE('',(#191),#162,.F.);
#580=ADVANCED_FACE('',(#192),#163,.F.);
#581=ADVANCED_FACE('',(#193),#164,.F.);
#582=ADVANCED_FACE('',(#194),#165,.F.);
#583=ADVANCED_FACE('',(#195),#166,.F.);
#584=ADVANCED_FACE('',(#196),#167,.F.);
#585=ADVANCED_FACE('',(#197),#24,.T.);
#586=ADVANCED_FACE('',(#198),#168,.T.);
#587=ADVANCED_FACE('',(#199),#557,.T.);
#588=ADVANCED_FACE('',(#200),#169,.T.);
#589=CLOSED_SHELL('',(#558,#559,#560,#561,#562,#563,#564,#565,#566,#567,
#568,#569,#570,#571,#572,#573,#574,#575,#576,#577,#578,#579,#580,#581,#582,
#583,#584,#585,#586,#587,#588));
#590=DERIVED_UNIT_ELEMENT(#592,1.);
#591=DERIVED_UNIT_ELEMENT(#1211,-3.);
#592=(
MASS_UNIT()
NAMED_UNIT(*)
SI_UNIT(.KILO.,.GRAM.)
);
#593=DERIVED_UNIT((#590,#591));
#594=MEASURE_REPRESENTATION_ITEM('density measure',
POSITIVE_RATIO_MEASURE(7850.),#593);
#595=PROPERTY_DEFINITION_REPRESENTATION(#600,#597);
#596=PROPERTY_DEFINITION_REPRESENTATION(#601,#598);
#597=REPRESENTATION('material name',(#599),#1208);
#598=REPRESENTATION('density',(#594),#1208);
#599=DESCRIPTIVE_REPRESENTATION_ITEM('A\X\E7o','A\X\E7o');
#600=PROPERTY_DEFINITION('material property','material name',#1223);
#601=PROPERTY_DEFINITION('material property','density of part',#1223);
#602=AXIS2_PLACEMENT_3D('',#801,#651,#652);
#603=AXIS2_PLACEMENT_3D('',#802,#653,#654);
#604=AXIS2_PLACEMENT_3D('',#859,#655,#656);
#605=AXIS2_PLACEMENT_3D('',#861,#657,#658);
#606=AXIS2_PLACEMENT_3D('',#866,#660,#661);
#607=AXIS2_PLACEMENT_3D('',#874,#665,#666);
#608=AXIS2_PLACEMENT_3D('',#878,#669,#670);
#609=AXIS2_PLACEMENT_3D('',#881,#671,#672);
#610=AXIS2_PLACEMENT_3D('',#885,#674,#675);
#611=AXIS2_PLACEMENT_3D('',#887,#677,#678);
#612=AXIS2_PLACEMENT_3D('',#891,#680,#681);
#613=AXIS2_PLACEMENT_3D('',#893,#683,#684);
#614=AXIS2_PLACEMENT_3D('',#897,#686,#687);
#615=AXIS2_PLACEMENT_3D('',#901,#689,#690);
#616=AXIS2_PLACEMENT_3D('',#965,#692,#693);
#617=AXIS2_PLACEMENT_3D('',#971,#697,#698);
#618=AXIS2_PLACEMENT_3D('',#986,#699,#700);
#619=AXIS2_PLACEMENT_3D('',#1039,#702,#703);
#620=AXIS2_PLACEMENT_3D('',#1044,#706,#707);
#621=AXIS2_PLACEMENT_3D('',#1046,#709,#710);
#622=AXIS2_PLACEMENT_3D('',#1090,#714,#715);
#623=AXIS2_PLACEMENT_3D('',#1095,#717,#718);
#624=AXIS2_PLACEMENT_3D('',#1098,#720,#721);
#625=AXIS2_PLACEMENT_3D('',#1099,#722,#723);
#626=AXIS2_PLACEMENT_3D('',#1105,#727,#728);
#627=AXIS2_PLACEMENT_3D('',#1108,#730,#731);
#628=AXIS2_PLACEMENT_3D('',#1109,#732,#733);
#629=AXIS2_PLACEMENT_3D('',#1112,#735,#736);
#630=AXIS2_PLACEMENT_3D('',#1113,#737,#738);
#631=AXIS2_PLACEMENT_3D('',#1117,#740,#741);
#632=AXIS2_PLACEMENT_3D('',#1119,#743,#744);
#633=AXIS2_PLACEMENT_3D('',#1121,#746,#747);
#634=AXIS2_PLACEMENT_3D('',#1125,#749,#750);
#635=AXIS2_PLACEMENT_3D('',#1131,#754,#755);
#636=AXIS2_PLACEMENT_3D('',#1134,#757,#758);
#637=AXIS2_PLACEMENT_3D('',#1136,#759,#760);
#638=AXIS2_PLACEMENT_3D('',#1139,#763,#764);
#639=AXIS2_PLACEMENT_3D('',#1143,#767,#768);
#640=AXIS2_PLACEMENT_3D('',#1147,#771,#772);
#641=AXIS2_PLACEMENT_3D('',#1151,#775,#776);
#642=AXIS2_PLACEMENT_3D('',#1155,#779,#780);
#643=AXIS2_PLACEMENT_3D('',#1157,#782,#783);
#644=AXIS2_PLACEMENT_3D('',#1159,#785,#786);
#645=AXIS2_PLACEMENT_3D('',#1160,#787,#788);
#646=AXIS2_PLACEMENT_3D('',#1161,#789,#790);
#647=AXIS2_PLACEMENT_3D('',#1162,#791,#792);
#648=AXIS2_PLACEMENT_3D('',#1165,#795,#796);
#649=AXIS2_PLACEMENT_3D('',#1202,#797,#798);
#650=AXIS2_PLACEMENT_3D('',#1203,#799,#800);
#651=DIRECTION('axis',(0.,0.,1.));
#652=DIRECTION('refdir',(1.,0.,0.));
#653=DIRECTION('axis',(0.,0.,1.));
#654=DIRECTION('refdir',(1.,0.,0.));
#655=DIRECTION('center_axis',(0.,0.,1.));
#656=DIRECTION('ref_axis',(1.,0.,0.));
#657=DIRECTION('center_axis',(0.,0.,1.));
#658=DIRECTION('ref_axis',(1.,0.,0.));
#659=DIRECTION('',(-1.,0.,0.));
#660=DIRECTION('center_axis',(0.,0.,1.));
#661=DIRECTION('ref_axis',(1.,0.,0.));
#662=DIRECTION('',(-1.,0.,0.));
#663=DIRECTION('',(0.,-1.,0.));
#664=DIRECTION('',(1.,0.,0.));
#665=DIRECTION('center_axis',(0.,0.,1.));
#666=DIRECTION('ref_axis',(1.,0.,0.));
#667=DIRECTION('',(1.,0.,0.));
#668=DIRECTION('',(0.,1.,0.));
#669=DIRECTION('center_axis',(0.,0.,1.));
#670=DIRECTION('ref_axis',(-0.977599937764791,-0.210471759821306,0.));
#671=DIRECTION('center_axis',(0.,0.,1.));
#672=DIRECTION('ref_axis',(-0.977599937764791,-0.210471759821306,0.));
#673=DIRECTION('',(0.,0.,-1.));
#674=DIRECTION('center_axis',(0.,0.,1.));
#675=DIRECTION('ref_axis',(-0.977599937764791,-0.210471759821306,0.));
#676=DIRECTION('',(0.,0.,1.));
#677=DIRECTION('center_axis',(0.,0.,1.));
#678=DIRECTION('ref_axis',(1.,0.,0.));
#679=DIRECTION('',(0.0871557427476579,-0.996194698091746,0.));
#680=DIRECTION('center_axis',(0.,0.,1.));
#681=DIRECTION('ref_axis',(1.,0.,0.));
#682=DIRECTION('',(1.,0.,0.));
#683=DIRECTION('center_axis',(-1.,7.93016446160826E-17,0.));
#684=DIRECTION('ref_axis',(-7.93016446160826E-17,-1.,0.));
#685=DIRECTION('',(0.,0.,-1.));
#686=DIRECTION('center_axis',(1.,-7.93016446160826E-17,0.));
#687=DIRECTION('ref_axis',(0.,-0.707106781186547,0.707106781186548));
#688=DIRECTION('',(-7.93016446160826E-17,-1.,0.));
#689=DIRECTION('center_axis',(1.,-7.93016446160826E-17,0.));
#690=DIRECTION('ref_axis',(0.,0.707106781186547,0.707106781186548));
#691=DIRECTION('',(0.,0.,1.));
#692=DIRECTION('center_axis',(-6.93889390390723E-17,-1.,0.));
#693=DIRECTION('ref_axis',(1.,-6.93889390390723E-17,0.));
#694=DIRECTION('',(0.,0.,1.));
#695=DIRECTION('',(0.,0.,-1.));
#696=DIRECTION('',(1.,-6.93889390390723E-17,0.));
#697=DIRECTION('center_axis',(1.,-6.93889390390723E-17,0.));
#698=DIRECTION('ref_axis',(0.,-0.707106781186547,0.707106781186548));
#699=DIRECTION('center_axis',(-1.,0.,0.));
#700=DIRECTION('ref_axis',(0.,-0.707106781186547,0.707106781186548));
#701=DIRECTION('',(-1.,6.93889390390723E-17,0.));
#702=DIRECTION('center_axis',(1.,0.,0.));
#703=DIRECTION('ref_axis',(0.,1.,0.));
#704=DIRECTION('',(0.,0.,1.));
#705=DIRECTION('',(0.,0.,-1.));
#706=DIRECTION('center_axis',(-1.,0.,0.));
#707=DIRECTION('ref_axis',(0.,0.707106781186547,0.707106781186548));
#708=DIRECTION('',(0.,1.,0.));
#709=DIRECTION('center_axis',(0.,0.,1.));
#710=DIRECTION('ref_axis',(1.,0.,0.));
#711=DIRECTION('',(0.,0.,-1.));
#712=DIRECTION('',(0.,0.,-1.));
#713=DIRECTION('',(0.,0.,1.));
#714=DIRECTION('center_axis',(0.,0.,1.));
#715=DIRECTION('ref_axis',(1.,0.,0.));
#716=DIRECTION('',(1.,0.,0.));
#717=DIRECTION('center_axis',(0.,0.,-1.));
#718=DIRECTION('ref_axis',(1.,0.,0.));
#719=DIRECTION('',(0.0871557427476582,-0.996194698091746,0.));
#720=DIRECTION('center_axis',(0.,0.,1.));
#721=DIRECTION('ref_axis',(0.977599937764791,0.210471759821306,0.));
#722=DIRECTION('center_axis',(-0.996194698091746,-0.0871557427476582,0.));
#723=DIRECTION('ref_axis',(0.0871557427476582,-0.996194698091746,0.));
#724=DIRECTION('',(-0.0871557427476582,0.996194698091746,0.));
#725=DIRECTION('',(0.,0.,1.));
#726=DIRECTION('',(0.,0.,1.));
#727=DIRECTION('center_axis',(0.,0.,1.));
#728=DIRECTION('ref_axis',(0.977599937764791,0.210471759821306,0.));
#729=DIRECTION('',(0.,0.,-1.));
#730=DIRECTION('center_axis',(0.,0.,1.));
#731=DIRECTION('ref_axis',(0.977599937764791,0.210471759821306,0.));
#732=DIRECTION('center_axis',(0.,0.,1.));
#733=DIRECTION('ref_axis',(1.,0.,0.));
#734=DIRECTION('',(-1.,0.,0.));
#735=DIRECTION('center_axis',(0.,0.,1.));
#736=DIRECTION('ref_axis',(1.,0.,0.));
#737=DIRECTION('center_axis',(0.,0.,1.));
#738=DIRECTION('ref_axis',(1.,0.,0.));
#739=DIRECTION('',(-1.,0.,0.));
#740=DIRECTION('center_axis',(0.,0.,-1.));
#741=DIRECTION('ref_axis',(1.,0.,0.));
#742=DIRECTION('',(-0.0871557427476579,0.996194698091746,0.));
#743=DIRECTION('center_axis',(0.996194698091746,0.0871557427476579,0.));
#744=DIRECTION('ref_axis',(-0.0871557427476579,0.996194698091746,0.));
#745=DIRECTION('',(0.,0.,1.));
#746=DIRECTION('center_axis',(0.,0.,1.));
#747=DIRECTION('ref_axis',(1.,0.,0.));
#748=DIRECTION('',(0.,0.,1.));
#749=DIRECTION('center_axis',(0.,0.,-1.));
#750=DIRECTION('ref_axis',(1.,0.,0.));
#751=DIRECTION('',(0.,0.,-1.));
#752=DIRECTION('',(0.,0.,1.));
#753=DIRECTION('',(0.,0.,1.));
#754=DIRECTION('center_axis',(0.,0.,-1.));
#755=DIRECTION('ref_axis',(1.,0.,0.));
#756=DIRECTION('',(0.,0.,1.));
#757=DIRECTION('center_axis',(0.,0.,1.));
#758=DIRECTION('ref_axis',(1.,0.,0.));
#759=DIRECTION('center_axis',(0.,0.,-1.));
#760=DIRECTION('ref_axis',(1.,0.,0.));
#761=DIRECTION('',(0.,0.,-1.));
#762=DIRECTION('',(0.,0.,1.));
#763=DIRECTION('center_axis',(0.,1.,0.));
#764=DIRECTION('ref_axis',(-1.,0.,0.));
#765=DIRECTION('',(-1.,0.,0.));
#766=DIRECTION('',(0.,0.,1.));
#767=DIRECTION('center_axis',(0.,1.,0.));
#768=DIRECTION('ref_axis',(-1.,0.,0.));
#769=DIRECTION('',(0.,0.,1.));
#770=DIRECTION('',(-1.,0.,0.));
#771=DIRECTION('center_axis',(0.,0.,1.));
#772=DIRECTION('ref_axis',(1.,0.,0.));
#773=DIRECTION('',(1.,0.,0.));
#774=DIRECTION('',(0.,-1.,0.));
#775=DIRECTION('center_axis',(0.,0.,1.));
#776=DIRECTION('ref_axis',(1.,0.,0.));
#777=DIRECTION('',(0.,1.,0.));
#778=DIRECTION('',(1.,0.,0.));
#779=DIRECTION('center_axis',(0.,-1.,0.));
#780=DIRECTION('ref_axis',(1.,0.,0.));
#781=DIRECTION('',(0.,0.,1.));
#782=DIRECTION('center_axis',(1.,0.,0.));
#783=DIRECTION('ref_axis',(0.,1.,0.));
#784=DIRECTION('',(0.,0.,1.));
#785=DIRECTION('center_axis',(0.,-1.,0.));
#786=DIRECTION('ref_axis',(1.,0.,0.));
#787=DIRECTION('center_axis',(-1.,0.,0.));
#788=DIRECTION('ref_axis',(0.,-1.,0.));
#789=DIRECTION('center_axis',(0.,0.,1.));
#790=DIRECTION('ref_axis',(1.,0.,0.));
#791=DIRECTION('center_axis',(-1.,0.,0.));
#792=DIRECTION('ref_axis',(0.,0.707106781186547,0.707106781186548));
#793=DIRECTION('',(1.,0.,0.));
#794=DIRECTION('',(-1.,0.,0.));
#795=DIRECTION('center_axis',(0.,1.,0.));
#796=DIRECTION('ref_axis',(-1.,0.,0.));
#797=DIRECTION('center_axis',(0.,0.,1.));
#798=DIRECTION('ref_axis',(1.,0.,0.));
#799=DIRECTION('',(0.,0.,1.));
#800=DIRECTION('',(1.,0.,0.));
#801=CARTESIAN_POINT('',(0.,0.,0.));
#802=CARTESIAN_POINT('',(0.,0.,0.));
#803=CARTESIAN_POINT('Ctrl Pts',(-9.78529136823205,-5.15674398582571,17.0547329312808));
#804=CARTESIAN_POINT('Ctrl Pts',(-9.89775153404415,-3.7511563009238,17.1016111494863));
#805=CARTESIAN_POINT('Ctrl Pts',(-10.0838893228701,-0.262432195612208,17.095517842846));
#806=CARTESIAN_POINT('Ctrl Pts',(-9.93422798804362,3.29972994285393,17.1171812466487));
#807=CARTESIAN_POINT('Ctrl Pts',(-9.78410383745171,5.17156858468374,17.0542364681059));
#808=CARTESIAN_POINT('Ctrl Pts',(-8.6268928268385,-5.44789854762977,18.8599877735398));
#809=CARTESIAN_POINT('Ctrl Pts',(-8.66802091492652,-3.9399530905715,18.9616821847973));
#810=CARTESIAN_POINT('Ctrl Pts',(-8.73763691595849,-0.269425365734761,19.0176731658999));
#811=CARTESIAN_POINT('Ctrl Pts',(-8.68135286052997,3.45539529653825,18.9951567116705));
#812=CARTESIAN_POINT('Ctrl Pts',(-8.6264540017103,5.46380414498362,18.8589099028802));
#813=CARTESIAN_POINT('Ctrl Pts',(-8.00000000000006,-5.79198390330199,20.9934310918545));
#814=CARTESIAN_POINT('Ctrl Pts',(-7.9995517033016,-4.16692430368374,21.1844308951655));
#815=CARTESIAN_POINT('Ctrl Pts',(-7.99938791245745,-0.278914740153123,21.3607292491879));
#816=CARTESIAN_POINT('Ctrl Pts',(-7.99940197518465,3.64449843392877,21.2469935464031));
#817=CARTESIAN_POINT('Ctrl Pts',(-8.00000000000006,5.80912559125289,20.9914102731311));
#818=CARTESIAN_POINT('Ctrl Pts',(-8.00000000000006,-6.1366445192465,23.1304412146379));
#819=CARTESIAN_POINT('Ctrl Pts',(-8.00000000000006,-4.39433127092093,23.4114444494536));
#820=CARTESIAN_POINT('Ctrl Pts',(-8.00000000000006,-0.288431421833211,23.7092995929556));
#821=CARTESIAN_POINT('Ctrl Pts',(-8.00000000000006,3.83399284662969,23.5033216974036));
#822=CARTESIAN_POINT('Ctrl Pts',(-8.00000000000006,6.15502358020043,23.1274710288957));
#823=CARTESIAN_POINT('',(-8.00000001629184,-5.99999994433633,23.1521511567148));
#824=CARTESIAN_POINT('',(-10.,-3.63074224777332E-15,17.1022645458506));
#825=CARTESIAN_POINT('Ctrl Pts',(-8.00000000000006,-5.99999999999992,23.1521511460919));
#826=CARTESIAN_POINT('Ctrl Pts',(-8.00000000000006,-5.99999999999992,22.5015322141177));
#827=CARTESIAN_POINT('Ctrl Pts',(-8.05499517610611,-5.92896747007592,21.8506039683552));
#828=CARTESIAN_POINT('Ctrl Pts',(-8.27291529363123,-5.62089571926664,20.6069066806044));
#829=CARTESIAN_POINT('Ctrl Pts',(-8.43443363129141,-5.38597271110744,20.0229842040788));
#830=CARTESIAN_POINT('Ctrl Pts',(-8.81310930503527,-4.73937697723952,19.0066441901308));
#831=CARTESIAN_POINT('Ctrl Pts',(-9.01864172442613,-4.34979261077597,18.5868751465591));
#832=CARTESIAN_POINT('Ctrl Pts',(-9.40588411193996,-3.43076637231101,17.9066674049917));
#833=CARTESIAN_POINT('Ctrl Pts',(-9.58031814813096,-2.92183797725398,17.6531516009774));
#834=CARTESIAN_POINT('Ctrl Pts',(-9.82117930429155,-1.93565612945802,17.3237585014154));
#835=CARTESIAN_POINT('Ctrl Pts',(-9.90134349695727,-1.47779454364102,17.2236830050984));
#836=CARTESIAN_POINT('Ctrl Pts',(-9.98272214507273,-0.676703173928675,17.122988544587));
#837=CARTESIAN_POINT('Ctrl Pts',(-9.9999999999999,-0.338344179041461,17.1022645458507));
#838=CARTESIAN_POINT('Ctrl Pts',(-10.,-3.12680437097868E-12,17.1022645458506));
#839=CARTESIAN_POINT('',(-8.00000001951354,5.99999993332888,23.1521511588155));
#840=CARTESIAN_POINT('Ctrl Pts',(-8.00000000000006,-6.00001555437609,23.1521581799198));
#841=CARTESIAN_POINT('Ctrl Pts',(-8.00000000000006,-4.30235953316234,23.4180530265293));
#842=CARTESIAN_POINT('Ctrl Pts',(-8.00000000000006,-0.294475041594461,23.7032768917894));
#843=CARTESIAN_POINT('Ctrl Pts',(-8.00000000000006,3.72915293038309,23.5084787120995));
#844=CARTESIAN_POINT('Ctrl Pts',(-8.00000000000006,6.00002125115872,23.1521802262891));
#845=CARTESIAN_POINT('Ctrl Pts',(-10.,-3.12585027306689E-12,17.1022645458506));
#846=CARTESIAN_POINT('Ctrl Pts',(-10.,0.10125554659433,17.1022645458505));
#847=CARTESIAN_POINT('Ctrl Pts',(-9.9984612488104,0.202509768171592,17.104127690681));
#848=CARTESIAN_POINT('Ctrl Pts',(-9.98176802366376,0.75201951358927,17.124396413306));
#849=CARTESIAN_POINT('Ctrl Pts',(-9.9376929484252,1.19799069432622,17.1773777696283));
#850=CARTESIAN_POINT('Ctrl Pts',(-9.78426869242794,2.12587389341815,17.3738519778158));
#851=CARTESIAN_POINT('Ctrl Pts',(-9.66683536698041,2.60177086424694,17.5285690959829));
#852=CARTESIAN_POINT('Ctrl Pts',(-9.32921040764419,3.65775214791101,18.0327795599535));
#853=CARTESIAN_POINT('Ctrl Pts',(-9.09331478703057,4.19002647136199,18.4254611589459));
#854=CARTESIAN_POINT('Ctrl Pts',(-8.63525407727754,5.0672866443542,19.4347244685141));
#855=CARTESIAN_POINT('Ctrl Pts',(-8.42761340330033,5.38966722269727,20.0247412570742));
#856=CARTESIAN_POINT('Ctrl Pts',(-8.09454510793216,5.88069269240488,21.4594934837112));
#857=CARTESIAN_POINT('Ctrl Pts',(-8.00000000000006,5.99999999999992,22.3053113105396));
#858=CARTESIAN_POINT('Ctrl Pts',(-8.00000000000006,5.99999999999992,23.1521511460919));
#859=CARTESIAN_POINT('Origin',(0.,0.,0.));
#860=CARTESIAN_POINT('',(-10.,-1.22464679914735E-15,0.));
#861=CARTESIAN_POINT('Origin',(0.,0.,0.));
#862=CARTESIAN_POINT('',(7.6,1.6,0.));
#863=CARTESIAN_POINT('',(4.8425200051213,1.6,0.));
#864=CARTESIAN_POINT('',(3.8,1.6,0.));
#865=CARTESIAN_POINT('',(-4.8425200051213,1.6,0.));
#866=CARTESIAN_POINT('Origin',(0.,0.,0.));
#867=CARTESIAN_POINT('',(-7.6,1.6,0.));
#868=CARTESIAN_POINT('',(3.8,1.6,0.));
#869=CARTESIAN_POINT('',(-7.6,-1.6,0.));
#870=CARTESIAN_POINT('',(-7.6,0.8,0.));
#871=CARTESIAN_POINT('',(-4.8425200051213,-1.6,0.));
#872=CARTESIAN_POINT('',(-3.8,-1.6,0.));
#873=CARTESIAN_POINT('',(4.8425200051213,-1.6,0.));
#874=CARTESIAN_POINT('Origin',(0.,0.,0.));
#875=CARTESIAN_POINT('',(7.6,-1.6,0.));
#876=CARTESIAN_POINT('',(-3.8,-1.6,0.));
#877=CARTESIAN_POINT('',(7.6,-0.8,0.));
#878=CARTESIAN_POINT('Origin',(0.,0.,2.95));
#879=CARTESIAN_POINT('',(-7.42967024840268,-1.6,2.95));
#880=CARTESIAN_POINT('',(0.6623836448822,-7.57107970549727,2.95));
#881=CARTESIAN_POINT('Origin',(0.,0.,2.95));
#882=CARTESIAN_POINT('',(-7.42967024840268,-1.6,5.85));
#883=CARTESIAN_POINT('',(-7.42967024840268,-1.6,2.95));
#884=CARTESIAN_POINT('',(0.6623836448822,-7.57107970549727,5.85));
#885=CARTESIAN_POINT('Origin',(0.,0.,5.85));
#886=CARTESIAN_POINT('',(0.6623836448822,-7.57107970549727,2.95));
#887=CARTESIAN_POINT('Origin',(-3.38368794106511,-4.33670298754433,2.95));
#888=CARTESIAN_POINT('',(0.444494288013055,-5.0805929602679,2.95));
#889=CARTESIAN_POINT('',(0.444494288013055,-5.0805929602679,2.95));
#890=CARTESIAN_POINT('',(-4.8425200051213,-1.6,2.95));
#891=CARTESIAN_POINT('Origin',(0.,0.,2.95));
#892=CARTESIAN_POINT('',(-5.49184397053255,-1.6,2.95));
#893=CARTESIAN_POINT('Origin',(-8.00000000000006,7.00000000000002,-77.));
#894=CARTESIAN_POINT('',(-8.00000000000006,-5.99999999999992,28.6622776601685));
#895=CARTESIAN_POINT('',(-8.00000000000006,-5.99999999999992,0.));
#896=CARTESIAN_POINT('',(-8.00000000000006,-1.49999999999998,31.));
#897=CARTESIAN_POINT('Origin',(-8.00000000000006,-1.49999999999998,25.5));
#898=CARTESIAN_POINT('',(-8.00000000000006,1.50000000000002,31.));
#899=CARTESIAN_POINT('',(-8.00000000000006,-6.99999999999998,31.));
#900=CARTESIAN_POINT('',(-8.00000000000006,5.99999999999992,28.6622776601685));
#901=CARTESIAN_POINT('Origin',(-8.00000000000006,1.50000000000002,25.5));
#902=CARTESIAN_POINT('',(-8.00000000000006,5.99999999999992,0.));
#903=CARTESIAN_POINT('Ctrl Pts',(6.16941249443328,-9.55749501452569,16.1108388991774));
#904=CARTESIAN_POINT('Ctrl Pts',(4.55922632702717,-9.78382626740899,16.1033684251944));
#905=CARTESIAN_POINT('Ctrl Pts',(1.55787465913735,-10.0775260251488,15.9940775582403));
#906=CARTESIAN_POINT('Ctrl Pts',(-2.8100720969305,-9.96794197760921,16.0395526754224));
#907=CARTESIAN_POINT('Ctrl Pts',(-5.11128060984232,-9.70654317528254,16.1062234384116));
#908=CARTESIAN_POINT('Ctrl Pts',(-6.1858192108801,-9.55518642784265,16.110912762124));
#909=CARTESIAN_POINT('Ctrl Pts',(6.32970949807715,-8.73967769465874,17.0767669760583));
#910=CARTESIAN_POINT('Ctrl Pts',(4.65183557497594,-8.89674125766863,17.0995886871209));
#911=CARTESIAN_POINT('Ctrl Pts',(1.5818416203868,-9.10231531621388,17.0063584005542));
#912=CARTESIAN_POINT('Ctrl Pts',(-2.85694218769151,-9.02551258613219,17.0469315523873));
#913=CARTESIAN_POINT('Ctrl Pts',(-5.22695908046111,-8.84310509948252,17.0921709831894));
#914=CARTESIAN_POINT('Ctrl Pts',(-6.34680714415255,-8.73807446179969,17.0765301239996));
#915=CARTESIAN_POINT('Ctrl Pts',(6.69732723318372,-7.44850742877955,19.2919817575379));
#916=CARTESIAN_POINT('Ctrl Pts',(4.86943528710008,-7.49041072690897,19.4165092164795));
#917=CARTESIAN_POINT('Ctrl Pts',(1.63915260840623,-7.54577676011326,19.4098132475075));
#918=CARTESIAN_POINT('Ctrl Pts',(-2.96837198542703,-7.52503617965767,19.4201175011476));
#919=CARTESIAN_POINT('Ctrl Pts',(-5.49571234772753,-7.47610063686695,19.3745055312403));
#920=CARTESIAN_POINT('Ctrl Pts',(-6.71595536731362,-7.44808102812912,19.2907080822107));
#921=CARTESIAN_POINT('Ctrl Pts',(7.11497910509894,-6.99999999999998,21.8086954843962));
#922=CARTESIAN_POINT('Ctrl Pts',(5.1218771454239,-6.99984003236575,22.0797859876715));
#923=CARTESIAN_POINT('Ctrl Pts',(1.70644633252273,-6.99980031699185,22.2210796731264));
#924=CARTESIAN_POINT('Ctrl Pts',(-3.09879831180272,-6.99982958435509,22.1779716579966));
#925=CARTESIAN_POINT('Ctrl Pts',(-5.80451332343024,-6.99989313380439,21.9878704930101));
#926=CARTESIAN_POINT('Ctrl Pts',(-7.13529289629565,-6.99999999999998,21.805925156187));
#927=CARTESIAN_POINT('Ctrl Pts',(7.32383501257146,-6.99999999999998,23.067232952123));
#928=CARTESIAN_POINT('Ctrl Pts',(5.24811436540202,-6.99999999999998,23.4117014566698));
#929=CARTESIAN_POINT('Ctrl Pts',(1.7401137128582,-6.99999999999998,23.6270808473997));
#930=CARTESIAN_POINT('Ctrl Pts',(-3.16403324674001,-6.99999999999998,23.5572264529728));
#931=CARTESIAN_POINT('Ctrl Pts',(-5.95893474600926,-6.99999999999998,23.2947975551949));
#932=CARTESIAN_POINT('Ctrl Pts',(-7.34499169554867,-6.99999999999998,23.0637138438676));
#933=CARTESIAN_POINT('',(7.14142842854427,-6.99999999999951,23.0969055621565));
#934=CARTESIAN_POINT('',(-7.14142842854417,-6.99999999999955,23.0969055621565));
#935=CARTESIAN_POINT('Ctrl Pts',(7.14142842854286,-6.99999999999998,23.0969055621568));
#936=CARTESIAN_POINT('Ctrl Pts',(7.14142842854286,-6.99999999999998,22.2840463792706));
#937=CARTESIAN_POINT('Ctrl Pts',(7.05713337536152,-7.08966380347083,21.471034059779));
#938=CARTESIAN_POINT('Ctrl Pts',(6.6999180702219,-7.42736459222292,20.0041361051429));
#939=CARTESIAN_POINT('Ctrl Pts',(6.44762817470347,-7.65717105971416,19.3537736326595));
#940=CARTESIAN_POINT('Ctrl Pts',(5.6939350591041,-8.23573925883092,18.1351514747137));
#941=CARTESIAN_POINT('Ctrl Pts',(5.18933467906053,-8.57657305351372,17.6161015759239));
#942=CARTESIAN_POINT('Ctrl Pts',(4.05084095475615,-9.16131026370616,16.8629193158404));
#943=CARTESIAN_POINT('Ctrl Pts',(3.47122542238594,-9.40073394119119,16.6077685241554));
#944=CARTESIAN_POINT('Ctrl Pts',(2.30254900383795,-9.74790156522049,16.2597592348874));
#945=CARTESIAN_POINT('Ctrl Pts',(1.729670860211,-9.86686699142201,16.1521977353174));
#946=CARTESIAN_POINT('Ctrl Pts',(0.57433864409677,-9.99998381806253,16.0326068879836));
#947=CARTESIAN_POINT('Ctrl Pts',(-0.00600760376058232,-10.0165972654412,
16.0184389753104));
#948=CARTESIAN_POINT('Ctrl Pts',(-1.16301739181789,-9.94920895947364,16.0781002790198));
#949=CARTESIAN_POINT('Ctrl Pts',(-1.73846122886325,-9.8641711479959,16.1527790117928));
#950=CARTESIAN_POINT('Ctrl Pts',(-2.89554957459644,-9.59163662025005,16.4132746240056));
#951=CARTESIAN_POINT('Ctrl Pts',(-3.46892990925663,-9.39662104309057,16.607287987217));
#952=CARTESIAN_POINT('Ctrl Pts',(-4.67501487997618,-8.87094562642454,17.2169243733357));
#953=CARTESIAN_POINT('Ctrl Pts',(-5.25272096059377,-8.5285249314174,17.669253885016));
#954=CARTESIAN_POINT('Ctrl Pts',(-6.18652262437401,-7.87707560531248,18.8322628154818));
#955=CARTESIAN_POINT('Ctrl Pts',(-6.51872463579305,-7.58964561076571,19.5073320361807));
#956=CARTESIAN_POINT('Ctrl Pts',(-7.02191404550541,-7.12955179010081,21.1527436425988));
#957=CARTESIAN_POINT('Ctrl Pts',(-7.14142842854287,-6.99999999999998,22.1242257391907));
#958=CARTESIAN_POINT('Ctrl Pts',(-7.14142842854287,-6.99999999999998,23.0969055621568));
#959=CARTESIAN_POINT('Ctrl Pts',(7.14143388900425,-6.99999999999998,23.0969398112187));
#960=CARTESIAN_POINT('Ctrl Pts',(5.12486164260913,-6.99999999999999,23.4191869835919));
#961=CARTESIAN_POINT('Ctrl Pts',(1.67857508897431,-6.99999999999998,23.6262042946902));
#962=CARTESIAN_POINT('Ctrl Pts',(-3.09546652536187,-6.99999999999998,23.5582031135091));
#963=CARTESIAN_POINT('Ctrl Pts',(-5.82216228698117,-6.99999999999998,23.307506257025));
#964=CARTESIAN_POINT('Ctrl Pts',(-7.14143163881834,-6.99999999999998,23.0969256984975));
#965=CARTESIAN_POINT('Origin',(-8.00000000000006,-6.99999999999998,-77.));
#966=CARTESIAN_POINT('',(-7.14142842854287,-6.99999999999998,25.5));
#967=CARTESIAN_POINT('',(-7.14142842854287,-6.99999999999998,0.));
#968=CARTESIAN_POINT('',(7.14142842854287,-6.99999999999998,25.5));
#969=CARTESIAN_POINT('',(7.14142842854287,-6.99999999999998,0.));
#970=CARTESIAN_POINT('',(-4.00000000000006,-6.99999999999998,25.5));
#971=CARTESIAN_POINT('Origin',(-4.00000000000006,-1.49999999999998,25.5));
#972=CARTESIAN_POINT('Ctrl Pts',(-7.14142842854287,-6.99999999999998,25.5));
#973=CARTESIAN_POINT('Ctrl Pts',(-7.14142842854287,-6.99999999999998,26.2206900986917));
#974=CARTESIAN_POINT('Ctrl Pts',(-7.2929613653424,-6.85182299632274,26.957099336175));
#975=CARTESIAN_POINT('Ctrl Pts',(-7.67024245853091,-6.41950940261055,27.9923401370494));
#976=CARTESIAN_POINT('Ctrl Pts',(-7.83194744958202,-6.22407006722397,28.3434203646157));
#977=CARTESIAN_POINT('Ctrl Pts',(-8.00000000000006,-5.99999999999992,28.6622776601685));
#978=CARTESIAN_POINT('',(7.99999999999994,-6.00000000000008,28.6622776601682));
#979=CARTESIAN_POINT('Ctrl Pts',(7.99999999999994,-6.00000000000008,28.6622776601682));
#980=CARTESIAN_POINT('Ctrl Pts',(7.83194744958195,-6.22407006722407,28.3434203646155));
#981=CARTESIAN_POINT('Ctrl Pts',(7.67024245853087,-6.41950940261058,27.9923401370493));
#982=CARTESIAN_POINT('Ctrl Pts',(7.2929613653424,-6.85182299632274,26.957099336175));
#983=CARTESIAN_POINT('Ctrl Pts',(7.14142842854287,-6.99999999999998,26.2206900986917));
#984=CARTESIAN_POINT('Ctrl Pts',(7.14142842854287,-6.99999999999998,25.5));
#985=CARTESIAN_POINT('',(7.99999999999994,-1.49999999999998,31.));
#986=CARTESIAN_POINT('Origin',(7.99999999999994,-1.49999999999998,25.5));
#987=CARTESIAN_POINT('',(-4.00000000000006,-1.49999999999998,31.));
#988=CARTESIAN_POINT('Ctrl Pts',(9.79221861616679,5.15003989786669,17.044751119547));
#989=CARTESIAN_POINT('Ctrl Pts',(9.94251833771588,3.27738224922731,17.1066449643757));
#990=CARTESIAN_POINT('Ctrl Pts',(10.0912375345108,-0.280202299764648,17.0847838811845));
#991=CARTESIAN_POINT('Ctrl Pts',(9.90355502235275,-3.76733902733462,17.0909649630553));
#992=CARTESIAN_POINT('Ctrl Pts',(9.79061985034888,-5.16992760301486,17.0440901411575));
#993=CARTESIAN_POINT('Ctrl Pts',(8.62945323324842,5.44117483195499,18.8523745169177));
#994=CARTESIAN_POINT('Ctrl Pts',(8.68443969365691,3.43199668206724,18.9871941675597));
#995=CARTESIAN_POINT('Ctrl Pts',(8.74039519889066,-0.287845163815398,19.0089371394097));
#996=CARTESIAN_POINT('Ctrl Pts',(8.67017556432987,-3.95741355942977,18.9527336451573));
#997=CARTESIAN_POINT('Ctrl Pts',(8.62886221660321,-5.46251480401841,18.8509341043994));
#998=CARTESIAN_POINT('Ctrl Pts',(7.99999999999994,5.78547794227916,20.9901130193701));
#999=CARTESIAN_POINT('Ctrl Pts',(7.99939846548345,3.62000140217505,21.24404063573));
#1000=CARTESIAN_POINT('Ctrl Pts',(7.99938288205565,-0.298164988341684,21.3562222995387));
#1001=CARTESIAN_POINT('Ctrl Pts',(7.99954842320644,-4.18605541000414,21.1788254578024));
#1002=CARTESIAN_POINT('Ctrl Pts',(7.99999999999994,-5.80847948349787,20.9874055237517));
#1003=CARTESIAN_POINT('Ctrl Pts',(7.99999999999994,6.13036124873588,23.1314538930306));
#1004=CARTESIAN_POINT('Ctrl Pts',(7.99999999999994,3.80839845832792,23.5054280764386));
#1005=CARTESIAN_POINT('Ctrl Pts',(7.99999999999994,-0.308514864107797,23.7090717264042));
#1006=CARTESIAN_POINT('Ctrl Pts',(7.99999999999994,-4.4151390129223,23.4092153111724));
#1007=CARTESIAN_POINT('Ctrl Pts',(7.99999999999994,-6.15502609715185,23.1274706213191));
#1008=CARTESIAN_POINT('',(8.00000001700898,5.99999994188587,23.1521511571825));
#1009=CARTESIAN_POINT('',(8.00000001868291,-5.99999993616658,23.152151158274));
#1010=CARTESIAN_POINT('Ctrl Pts',(7.99999999999994,6.00000000000008,23.1521511460919));
#1011=CARTESIAN_POINT('Ctrl Pts',(7.99999999999994,6.00000000000008,22.551553240531));
#1012=CARTESIAN_POINT('Ctrl Pts',(8.04671864364892,5.93936090760056,21.9505823766441));
#1013=CARTESIAN_POINT('Ctrl Pts',(8.23627608257145,5.67374014282868,20.7732609949211));
#1014=CARTESIAN_POINT('Ctrl Pts',(8.38168605805432,5.46512385661515,20.2050932560235));
#1015=CARTESIAN_POINT('Ctrl Pts',(8.73848941849735,4.87410249303693,19.1793476941702));
#1016=CARTESIAN_POINT('Ctrl Pts',(8.9421320063394,4.50354839941343,18.7393517785278));
#1017=CARTESIAN_POINT('Ctrl Pts',(9.33985568020373,3.60625798719651,18.010266565934));
#1018=CARTESIAN_POINT('Ctrl Pts',(9.52518634706994,3.0982508024366,17.7330756714388));
#1019=CARTESIAN_POINT('Ctrl Pts',(9.78941332931467,2.0938372589736,17.3645810885569));
#1020=CARTESIAN_POINT('Ctrl Pts',(9.88021504094628,1.61895903932455,17.2502407423091));
#1021=CARTESIAN_POINT('Ctrl Pts',(9.98797341281987,0.673605633608011,17.1161851322643));
#1022=CARTESIAN_POINT('Ctrl Pts',(10.0087630672838,0.205248998518507,17.0916268665347));
#1023=CARTESIAN_POINT('Ctrl Pts',(9.98428467941904,-0.732574152866604,17.1213338197497));
#1024=CARTESIAN_POINT('Ctrl Pts',(9.93822987340201,-1.20191085427782,17.17651802009));
#1025=CARTESIAN_POINT('Ctrl Pts',(9.77733750911761,-2.15944277508097,17.3829284875206));
#1026=CARTESIAN_POINT('Ctrl Pts',(9.6561773590351,-2.64213930913016,17.5430057262076));
#1027=CARTESIAN_POINT('Ctrl Pts',(9.31763603869218,-3.68378911062495,18.052201678097));
#1028=CARTESIAN_POINT('Ctrl Pts',(9.08806483611491,-4.19989938437225,18.4373219491481));
#1029=CARTESIAN_POINT('Ctrl Pts',(8.635764146199,-5.06649599852896,19.4332997712874));
#1030=CARTESIAN_POINT('Ctrl Pts',(8.42781770782675,-5.38936404346058,20.0238913477597));
#1031=CARTESIAN_POINT('Ctrl Pts',(8.09455350340002,-5.8806826794442,21.4594213622617));
#1032=CARTESIAN_POINT('Ctrl Pts',(7.99999999999994,-6.00000000000008,22.3052750063366));
#1033=CARTESIAN_POINT('Ctrl Pts',(7.99999999999994,-6.00000000000008,23.1521511460919));
#1034=CARTESIAN_POINT('Ctrl Pts',(7.99999999999994,6.00000354885321,23.152174206097));
#1035=CARTESIAN_POINT('Ctrl Pts',(7.99999999999994,3.72037227663073,23.5097248129154));
#1036=CARTESIAN_POINT('Ctrl Pts',(7.99999999999994,-0.30003514033009,23.7033432515342));
#1037=CARTESIAN_POINT('Ctrl Pts',(7.99999999999994,-4.31062958916584,23.4167647110134));
#1038=CARTESIAN_POINT('Ctrl Pts',(7.99999999999994,-6.00000163165014,23.1521619925454));
#1039=CARTESIAN_POINT('Origin',(7.99999999999994,-6.99999999999998,-77.));
#1040=CARTESIAN_POINT('',(7.99999999999994,-6.00000000000008,0.));
#1041=CARTESIAN_POINT('',(7.99999999999994,6.00000000000008,28.6622776601683));
#1042=CARTESIAN_POINT('',(7.99999999999994,6.00000000000008,0.));
#1043=CARTESIAN_POINT('',(7.99999999999994,1.50000000000002,31.));
#1044=CARTESIAN_POINT('Origin',(7.99999999999994,1.50000000000002,25.5));
#1045=CARTESIAN_POINT('',(7.99999999999994,7.00000000000002,31.));
#1046=CARTESIAN_POINT('Origin',(0.,0.,0.));
#1047=CARTESIAN_POINT('',(-10.,-1.22464679914735E-15,0.));
#1048=CARTESIAN_POINT('',(-7.14142842854283,7.00000000000002,25.5));
#1049=CARTESIAN_POINT('Ctrl Pts',(-8.00000000000006,5.99999999999992,28.6622776601685));
#1050=CARTESIAN_POINT('Ctrl Pts',(-7.83194744958201,6.22407006722399,28.3434203646158));
#1051=CARTESIAN_POINT('Ctrl Pts',(-7.67024245853088,6.41950940261058,27.9923401370494));
#1052=CARTESIAN_POINT('Ctrl Pts',(-7.29296136534237,6.85182299632277,26.957099336175));
#1053=CARTESIAN_POINT('Ctrl Pts',(-7.14142842854283,7.00000000000002,26.2206900986917));
#1054=CARTESIAN_POINT('Ctrl Pts',(-7.14142842854283,7.00000000000002,25.5));
#1055=CARTESIAN_POINT('',(-7.14142842854424,6.99999999999955,23.0969055621565));
#1056=CARTESIAN_POINT('',(-7.14142842854283,7.00000000000002,0.));
#1057=CARTESIAN_POINT('',(7.14142842854413,6.99999999999958,23.0969055621565));
#1058=CARTESIAN_POINT('Ctrl Pts',(-7.14142842854283,7.00000000000002,23.0969055621568));
#1059=CARTESIAN_POINT('Ctrl Pts',(-7.14142842854283,7.00000000000002,22.4070456639646));
#1060=CARTESIAN_POINT('Ctrl Pts',(-7.08033064531408,7.06420595075786,21.7167596726779));
#1061=CARTESIAN_POINT('Ctrl Pts',(-6.81066234798331,7.3246906660765,20.3685555586765));
#1062=CARTESIAN_POINT('Ctrl Pts',(-6.59909256988748,7.52385200407751,19.7194946461937));
#1063=CARTESIAN_POINT('Ctrl Pts',(-5.98451465760411,8.0213346843569,18.5417031502088));
#1064=CARTESIAN_POINT('Ctrl Pts',(-5.59297527193923,8.30909171252825,18.0359251101712));
#1065=CARTESIAN_POINT('Ctrl Pts',(-4.61939870830662,8.88705404677185,17.1907465498207));
#1066=CARTESIAN_POINT('Ctrl Pts',(-4.05904719245757,9.16306547938895,16.8680860186361));
#1067=CARTESIAN_POINT('Ctrl Pts',(-2.86492598948044,9.60022960314805,16.4000101705021));
#1068=CARTESIAN_POINT('Ctrl Pts',(-2.25052109909214,9.76474389196665,16.24641151172));
#1069=CARTESIAN_POINT('Ctrl Pts',(-0.957039060231134,9.9763819404917,16.0524548492827));
#1070=CARTESIAN_POINT('Ctrl Pts',(-0.279773859011936,10.0187596444767,16.0165997105176));
#1071=CARTESIAN_POINT('Ctrl Pts',(1.05764455287845,9.96610952687439,16.0630854791014));
#1072=CARTESIAN_POINT('Ctrl Pts',(1.71604296852085,9.87295884122903,16.1438152807923));
#1073=CARTESIAN_POINT('Ctrl Pts',(2.96601143593263,9.57128134144571,16.4333347850122));
#1074=CARTESIAN_POINT('Ctrl Pts',(3.55345208473138,9.36581824073394,16.639027283022));
#1075=CARTESIAN_POINT('Ctrl Pts',(4.72754772226976,8.83960250367579,17.25883245738));
#1076=CARTESIAN_POINT('Ctrl Pts',(5.27185280257583,8.51485955025005,17.6945012352304));
#1077=CARTESIAN_POINT('Ctrl Pts',(6.18459765926675,7.87874917323179,18.8283912977745));
#1078=CARTESIAN_POINT('Ctrl Pts',(6.51802165084019,7.59028616520208,19.5050804551292));
#1079=CARTESIAN_POINT('Ctrl Pts',(7.02190300303504,7.12956453600074,21.1526513510982));
#1080=CARTESIAN_POINT('Ctrl Pts',(7.14142842854283,7.00000000000002,22.1241792753203));
#1081=CARTESIAN_POINT('Ctrl Pts',(7.14142842854283,7.00000000000002,23.0969055621568));
#1082=CARTESIAN_POINT('',(7.14142842854283,7.00000000000002,25.5));
#1083=CARTESIAN_POINT('',(7.14142842854283,7.00000000000002,0.));
#1084=CARTESIAN_POINT('Ctrl Pts',(7.14142842854283,7.00000000000002,25.5));
#1085=CARTESIAN_POINT('Ctrl Pts',(7.14142842854283,7.00000000000002,26.2206900986917));
#1086=CARTESIAN_POINT('Ctrl Pts',(7.29296136534237,6.85182299632277,26.957099336175));
#1087=CARTESIAN_POINT('Ctrl Pts',(7.67024245853085,6.41950940261061,27.9923401370493));
#1088=CARTESIAN_POINT('Ctrl Pts',(7.83194744958193,6.22407006722409,28.3434203646156));
#1089=CARTESIAN_POINT('Ctrl Pts',(7.99999999999994,6.00000000000008,28.6622776601683));
#1090=CARTESIAN_POINT('Origin',(3.3836879410651,4.33670298754433,5.85));
#1091=CARTESIAN_POINT('',(4.8425200051213,1.6,5.85));
#1092=CARTESIAN_POINT('',(7.42967024840268,1.6,5.85));
#1093=CARTESIAN_POINT('',(5.49184397053255,1.6,5.85));
#1094=CARTESIAN_POINT('',(-0.444494288013058,5.0805929602679,5.85));
#1095=CARTESIAN_POINT('Origin',(0.,0.,5.85));
#1096=CARTESIAN_POINT('',(-0.662383644882203,7.57107970549727,5.85));
#1097=CARTESIAN_POINT('',(-0.444494288013057,5.0805929602679,5.85));
#1098=CARTESIAN_POINT('Origin',(0.,0.,5.85));
#1099=CARTESIAN_POINT('Origin',(-0.662383644882203,7.57107970549727,2.95));
#1100=CARTESIAN_POINT('',(-0.444494288013057,5.0805929602679,2.95));
#1101=CARTESIAN_POINT('',(-0.662383644882203,7.57107970549727,2.95));
#1102=CARTESIAN_POINT('',(-0.444494288013057,5.0805929602679,2.95));
#1103=CARTESIAN_POINT('',(-0.662383644882203,7.57107970549727,2.95));
#1104=CARTESIAN_POINT('',(-0.444494288013057,5.0805929602679,0.));
#1105=CARTESIAN_POINT('Origin',(0.,0.,2.95));
#1106=CARTESIAN_POINT('',(7.42967024840268,1.6,2.95));
#1107=CARTESIAN_POINT('',(7.42967024840268,1.6,2.95));
#1108=CARTESIAN_POINT('Origin',(0.,0.,2.95));
#1109=CARTESIAN_POINT('Origin',(3.3836879410651,4.33670298754433,2.95));
#1110=CARTESIAN_POINT('',(4.8425200051213,1.6,2.95));
#1111=CARTESIAN_POINT('',(5.49184397053255,1.6,2.95));
#1112=CARTESIAN_POINT('Origin',(0.,0.,2.95));
#1113=CARTESIAN_POINT('Origin',(-3.38368794106511,-4.33670298754433,5.85));
#1114=CARTESIAN_POINT('',(-4.8425200051213,-1.6,5.85));
#1115=CARTESIAN_POINT('',(-5.49184397053255,-1.6,5.85));
#1116=CARTESIAN_POINT('',(0.444494288013055,-5.0805929602679,5.85));
#1117=CARTESIAN_POINT('Origin',(0.,0.,5.85));
#1118=CARTESIAN_POINT('',(0.444494288013055,-5.0805929602679,5.85));
#1119=CARTESIAN_POINT('Origin',(0.6623836448822,-7.57107970549727,2.95));
#1120=CARTESIAN_POINT('',(0.444494288013055,-5.0805929602679,0.));
#1121=CARTESIAN_POINT('Origin',(0.,0.,0.));
#1122=CARTESIAN_POINT('',(4.8425200051213,1.6,5.9));
#1123=CARTESIAN_POINT('',(4.8425200051213,1.6,0.));
#1124=CARTESIAN_POINT('',(4.8425200051213,-1.6,5.9));
#1125=CARTESIAN_POINT('Origin',(0.,0.,5.9));
#1126=CARTESIAN_POINT('',(4.8425200051213,-1.6,0.));
#1127=CARTESIAN_POINT('',(-4.8425200051213,-1.6,0.));
#1128=CARTESIAN_POINT('',(-4.8425200051213,-1.6,5.9));
#1129=CARTESIAN_POINT('',(-4.8425200051213,-1.6,0.));
#1130=CARTESIAN_POINT('',(-5.1,-6.2456986756515E-16,5.9));
#1131=CARTESIAN_POINT('Origin',(0.,0.,5.9));
#1132=CARTESIAN_POINT('',(-5.1,-6.2456986756515E-16,10.39));
#1133=CARTESIAN_POINT('',(-5.1,-6.2456986756515E-16,0.));
#1134=CARTESIAN_POINT('Origin',(0.,0.,10.39));
#1135=CARTESIAN_POINT('',(-4.8425200051213,1.6,5.9));
#1136=CARTESIAN_POINT('Origin',(0.,0.,5.9));
#1137=CARTESIAN_POINT('',(-4.8425200051213,1.6,0.));
#1138=CARTESIAN_POINT('',(4.8425200051213,1.6,0.));
#1139=CARTESIAN_POINT('Origin',(7.6,1.6,0.));
#1140=CARTESIAN_POINT('',(-7.6,1.6,5.9));
#1141=CARTESIAN_POINT('',(7.6,1.6,5.9));
#1142=CARTESIAN_POINT('',(-7.6,1.6,0.));
#1143=CARTESIAN_POINT('Origin',(7.6,1.6,0.));
#1144=CARTESIAN_POINT('',(7.6,1.6,5.9));
#1145=CARTESIAN_POINT('',(7.6,1.6,0.));
#1146=CARTESIAN_POINT('',(7.6,1.6,5.9));
#1147=CARTESIAN_POINT('Origin',(0.,0.,5.9));
#1148=CARTESIAN_POINT('',(-7.6,-1.6,5.9));
#1149=CARTESIAN_POINT('',(-7.6,-1.6,5.9));
#1150=CARTESIAN_POINT('',(-7.6,1.6,5.9));
#1151=CARTESIAN_POINT('Origin',(0.,0.,5.9));
#1152=CARTESIAN_POINT('',(7.6,-1.6,5.9));
#1153=CARTESIAN_POINT('',(7.6,-1.6,5.9));
#1154=CARTESIAN_POINT('',(-7.6,-1.6,5.9));
#1155=CARTESIAN_POINT('Origin',(-7.6,-1.6,0.));
#1156=CARTESIAN_POINT('',(-7.6,-1.6,0.));
#1157=CARTESIAN_POINT('Origin',(7.6,-1.6,0.));
#1158=CARTESIAN_POINT('',(7.6,-1.6,0.));
#1159=CARTESIAN_POINT('Origin',(-7.6,-1.6,0.));
#1160=CARTESIAN_POINT('Origin',(-7.6,1.6,0.));
#1161=CARTESIAN_POINT('Origin',(0.,0.,10.39));
#1162=CARTESIAN_POINT('Origin',(3.99999999999994,1.50000000000002,25.5));
#1163=CARTESIAN_POINT('',(3.99999999999994,1.50000000000002,31.));
#1164=CARTESIAN_POINT('',(3.99999999999994,7.00000000000002,25.5));
#1165=CARTESIAN_POINT('Origin',(7.99999999999994,7.00000000000002,-77.));
#1166=CARTESIAN_POINT('Ctrl Pts',(-7.14143282297863,7.00000000000002,23.0969331251992));
#1167=CARTESIAN_POINT('Ctrl Pts',(-5.12112606206184,7.00000000000002,23.4197032185466));
#1168=CARTESIAN_POINT('Ctrl Pts',(-1.67303717087892,7.00000000000002,23.6264179335404));
#1169=CARTESIAN_POINT('Ctrl Pts',(3.10104540926019,7.00000000000002,23.5578134453171));
#1170=CARTESIAN_POINT('Ctrl Pts',(5.82399842086444,7.00000000000002,23.3072128891887));
#1171=CARTESIAN_POINT('Ctrl Pts',(7.14143163565652,7.00000000000002,23.0969256786661));
#1172=CARTESIAN_POINT('Ctrl Pts',(-6.15424433391473,9.56092963293079,16.1091847250706));
#1173=CARTESIAN_POINT('Ctrl Pts',(-4.54520099037431,9.78679618305248,16.1012704831141));
#1174=CARTESIAN_POINT('Ctrl Pts',(-1.54696452241466,10.0793026617276,15.9923482212525));
#1175=CARTESIAN_POINT('Ctrl Pts',(2.81469642259824,9.96898822464989,16.0380753488901));
#1176=CARTESIAN_POINT('Ctrl Pts',(5.11251569746323,9.70775738950795,16.1046141538158));
#1177=CARTESIAN_POINT('Ctrl Pts',(6.18555972934803,9.55652494431561,16.1093305858201));
#1178=CARTESIAN_POINT('Ctrl Pts',(-6.31393364627017,8.74206303288386,17.0755038782402));
#1179=CARTESIAN_POINT('Ctrl Pts',(-4.63742388513857,8.89881308295276,17.0976928636454));
#1180=CARTESIAN_POINT('Ctrl Pts',(-1.57078339699473,9.10356041752345,17.0047099825619));
#1181=CARTESIAN_POINT('Ctrl Pts',(2.86169040264567,9.02624377932498,17.0455057456973));
#1182=CARTESIAN_POINT('Ctrl Pts',(5.22826557186313,8.84395072804855,17.0906361626493));
#1183=CARTESIAN_POINT('Ctrl Pts',(6.34656627622107,8.73900400715115,17.0750584230749));
#1184=CARTESIAN_POINT('Ctrl Pts',(-6.68023755171899,7.44914181698879,19.2920985550847));
#1185=CARTESIAN_POINT('Ctrl Pts',(-4.85415648148664,7.49096529765485,19.4155459529089));
#1186=CARTESIAN_POINT('Ctrl Pts',(-1.62774378129635,7.54611287113325,19.4086533051493));
#1187=CARTESIAN_POINT('Ctrl Pts',(2.97341978109835,7.5252321473879,19.4189779019673));
#1188=CARTESIAN_POINT('Ctrl Pts',(5.49720360989552,7.47632639947315,19.3733244663643));
#1189=CARTESIAN_POINT('Ctrl Pts',(6.71578851967932,7.44832817981282,19.2896776765545));
#1190=CARTESIAN_POINT('Ctrl Pts',(-7.09647526072209,7.00000000000002,21.8108549110885));
#1191=CARTESIAN_POINT('Ctrl Pts',(-5.10563301590147,6.99984011529567,22.0803485359836));
#1192=CARTESIAN_POINT('Ctrl Pts',(-1.69462816338726,6.99979987436174,22.2207780871147));
#1193=CARTESIAN_POINT('Ctrl Pts',(3.10420177025983,6.99982983482746,22.1773261122279));
#1194=CARTESIAN_POINT('Ctrl Pts',(5.80623539894244,6.99989315752806,21.9872725957749));
#1195=CARTESIAN_POINT('Ctrl Pts',(7.13524095406248,7.00000000000002,21.8055809125113));
#1196=CARTESIAN_POINT('Ctrl Pts',(-7.30462406852968,7.00000000000002,23.0704143438838));
#1197=CARTESIAN_POINT('Ctrl Pts',(-5.23138750559692,7.00000000000002,23.4130275685093));
#1198=CARTESIAN_POINT('Ctrl Pts',(-1.72809083139483,7.00000000000002,23.6272090652691));
#1199=CARTESIAN_POINT('Ctrl Pts',(3.16961458839229,7.00000000000002,23.556828092977));
#1200=CARTESIAN_POINT('Ctrl Pts',(5.96077226736427,7.00000000000002,23.2944914829182));
#1201=CARTESIAN_POINT('Ctrl Pts',(7.34499724562766,7.00000000000002,23.0637129185567));
#1202=CARTESIAN_POINT('Origin',(-6.10622663543836E-14,1.77635683940025E-14,
31.));
#1203=CARTESIAN_POINT('',(0.,0.,0.));
#1204=UNCERTAINTY_MEASURE_WITH_UNIT(LENGTH_MEASURE(0.01),#1210,
'DISTANCE_ACCURACY_VALUE',
'Maximum model space distance between geometric entities at asserted c
onnectivities');
#1205=UNCERTAINTY_MEASURE_WITH_UNIT(LENGTH_MEASURE(0.01),#1210,
'DISTANCE_ACCURACY_VALUE',
'Maximum model space distance between geometric entities at asserted c
onnectivities');
#1206=UNCERTAINTY_MEASURE_WITH_UNIT(LENGTH_MEASURE(0.01),#1210,
'DISTANCE_ACCURACY_VALUE',
'Maximum model space distance between geometric entities at asserted c
onnectivities');
#1207=(
GEOMETRIC_REPRESENTATION_CONTEXT(3)
GLOBAL_UNCERTAINTY_ASSIGNED_CONTEXT((#1204))
GLOBAL_UNIT_ASSIGNED_CONTEXT((#1210,#1212,#1213))
REPRESENTATION_CONTEXT('','3D')
);
#1208=(
GEOMETRIC_REPRESENTATION_CONTEXT(3)
GLOBAL_UNCERTAINTY_ASSIGNED_CONTEXT((#1205))
GLOBAL_UNIT_ASSIGNED_CONTEXT((#1210,#1212,#1213))
REPRESENTATION_CONTEXT('','3D')
);
#1209=(
GEOMETRIC_REPRESENTATION_CONTEXT(3)
GLOBAL_UNCERTAINTY_ASSIGNED_CONTEXT((#1206))
GLOBAL_UNIT_ASSIGNED_CONTEXT((#1210,#1212,#1213))
REPRESENTATION_CONTEXT('','3D')
);
#1210=(
LENGTH_UNIT()
NAMED_UNIT(*)
SI_UNIT(.MILLI.,.METRE.)
);
#1211=(
LENGTH_UNIT()
NAMED_UNIT(*)
SI_UNIT($,.METRE.)
);
#1212=(
NAMED_UNIT(*)
PLANE_ANGLE_UNIT()
SI_UNIT($,.RADIAN.)
);
#1213=(
NAMED_UNIT(*)
SI_UNIT($,.STERADIAN.)
SOLID_ANGLE_UNIT()
);
#1214=SHAPE_DEFINITION_REPRESENTATION(#1216,#1219);
#1215=SHAPE_DEFINITION_REPRESENTATION(#1217,#1220);
#1216=PRODUCT_DEFINITION_SHAPE('',$,#1222);
#1217=PRODUCT_DEFINITION_SHAPE('',$,#1223);
#1218=PRODUCT_DEFINITION_SHAPE($,$,#14);
#1219=SHAPE_REPRESENTATION('',(#602,#650),#1207);
#1220=SHAPE_REPRESENTATION('',(#603),#1208);
#1221=PRODUCT_DEFINITION_CONTEXT('part definition',#1229,'design');
#1222=PRODUCT_DEFINITION('TouchTool','ponteira_G_finger (1)',#1224,#1221);
#1223=PRODUCT_DEFINITION('2026-08-12-14-02-18-800','ponteira_G_finger',
#1225,#1221);
#1224=PRODUCT_DEFINITION_FORMATION('',$,#1231);
#1225=PRODUCT_DEFINITION_FORMATION('',$,#1232);
#1226=PRODUCT_RELATED_PRODUCT_CATEGORY('ponteira_G_finger (1)',
'ponteira_G_finger (1)',(#1231));
#1227=PRODUCT_RELATED_PRODUCT_CATEGORY('ponteira_G_finger',
'ponteira_G_finger',(#1232));
#1228=APPLICATION_PROTOCOL_DEFINITION('international standard',
'automotive_design',2009,#1229);
#1229=APPLICATION_CONTEXT(
'Core Data for Automotive Mechanical Design Process');
#1230=PRODUCT_CONTEXT('part definition',#1229,'mechanical');
#1231=PRODUCT('TouchTool','ponteira_G_finger (1)',$,(#1230));
#1232=PRODUCT('2026-08-12-14-02-18-800','ponteira_G_finger',$,(#1230));
#1233=PRESENTATION_STYLE_ASSIGNMENT((#1234));
#1234=SURFACE_STYLE_USAGE(.BOTH.,#1235);
#1235=SURFACE_SIDE_STYLE('',(#1236));
#1236=SURFACE_STYLE_FILL_AREA(#1237);
#1237=FILL_AREA_STYLE('A\X\E7o - Acetinado',(#1238));
#1238=FILL_AREA_STYLE_COLOUR('A\X\E7o - Acetinado',#1239);
#1239=COLOUR_RGB('A\X\E7o - Acetinado',0.627450980392157,0.627450980392157,
0.627450980392157);
ENDSEC;
END-ISO-10303-21;
